<?xml version="1.0" encoding="utf-8"?>
<!-- Generator: Adobe Illustrator 23.0.1, SVG Export Plug-In . SVG Version: 6.00 Build 0)  -->
<svg version="1.1" id="_x30_" xmlns="http://www.w3.org/2000/svg" xmlns:xlink="http://www.w3.org/1999/xlink" x="0px" y="0px"
	 viewBox="0 0 776.6 685.6" style="enable-background:new 0 0 776.6 685.6;" xml:space="preserve">
<style type="text/css">
	.st0{fill:#1D1D1B;}
	.st1{fill:#FFFFFF;}
	.st2{font-family:'Roboto-Medium';}
	.st3{font-size:23.094px;}
	.st4{font-size:23.09px;}
	.st5{font-family:'Roboto-Black';}
	.st6{font-size:21.8443px;}
	.st7{fill:none;stroke:#1D1D1B;stroke-width:0.4876;stroke-linecap:round;stroke-miterlimit:10;}
	.st8{fill:none;stroke:#1D1D1B;stroke-width:0.4876;stroke-miterlimit:10;}
	.st9{fill:none;stroke:#1D1D1B;stroke-width:0.4876;stroke-linecap:round;stroke-linejoin:bevel;stroke-miterlimit:10;}
	.st10{fill:none;stroke:#FF0000;stroke-width:1.000000e-03;stroke-linecap:round;stroke-linejoin:round;stroke-miterlimit:10;}
	.st11{fill:#808080;}
	.st12{font-family:'MuseoSansW01-Rounded500';}
	.st13{font-size:12px;}
</style>
<g>
	<g>
		<ellipse class="st0" cx="494.4" cy="552.2" rx="20.9" ry="20.9"/>
		<text transform="matrix(1 0 0 1 480.4696 559.3879)" class="st1 st2 st3">A2</text>
	</g>
	<text transform="matrix(1 0 0 1 532.6831 559.3882)" class="st2 st4">Back panel</text>
</g>
<g>
	<g>
		<ellipse class="st0" cx="494.3" cy="233.1" rx="20.9" ry="20.9"/>
		<text transform="matrix(1 0 0 1 480.4697 240.3052)" class="st1 st2 st3">A1</text>
	</g>
	<text transform="matrix(1 0 0 1 532.6829 240.3047)" class="st2 st4">Front panel</text>
</g>
<text transform="matrix(1 0 0 1 550.1219 63.3075)" class="st5 st6">3mm thick</text>
<text transform="matrix(1 0 0 1 77.2709 63.3075)" class="st5 st6">Plywood</text>
<line class="st7" x1="776.6" y1="45.7" x2="673.7" y2="45.7"/>
<line class="st7" x1="776.6" y1="68.1" x2="673.7" y2="68.1"/>
<line class="st8" x1="0" y1="56.9" x2="60.3" y2="56.9"/>
<line class="st8" x1="177.3" y1="56.9" x2="529.7" y2="56.9"/>
<g>
	<polyline class="st9" points="693.8,51.2 688.3,45.7 682.7,51.2 	"/>
	<polyline class="st9" points="693.8,62.6 688.3,68.1 682.7,62.6 	"/>
	<line class="st9" x1="688.3" y1="45.7" x2="688.3" y2="68.1"/>
</g>
<circle class="st0" cx="60.3" cy="56.9" r="2.2"/>
<g>
	<rect x="153.1" y="487.1" width="143.9" height="79.9"/>
	<rect x="153.1" y="563.9" class="st10" width="143.9" height="6"/>
	<g>
		<path class="st11" d="M187.5,584.5c0-0.2,0-0.2,0.2-0.2h0.2c0.1,0,0.2,0.1,0.2,0.2l1,3c0,0.1,0,0.1,0,0.2c0,0.1,0,0.1,0,0.1
			c0,0.1,0,0.1,0,0.2l0,0c0,0,0-0.1,0-0.2v-0.1c0-0.1,0-0.1,0.1-0.2l1-3c0-0.1,0.1-0.2,0.2-0.2h0.2c0.1,0,0.2,0.1,0.2,0.2l1,3
			c0,0.1,0,0.1,0.1,0.2c0,0.1,0,0.1,0,0.1c0,0.1,0,0.1,0,0.2l0,0c0-0.1,0-0.1,0-0.2v-0.1c0-0.1,0-0.1,0.1-0.2l1-3
			c0-0.1,0.1-0.2,0.2-0.2h0.2c0.2,0,0.2,0.1,0.2,0.2l-1.3,3.9c0,0.1-0.1,0.2-0.2,0.2h-0.3c-0.1,0-0.2-0.1-0.2-0.2l-1-2.9
			c0-0.1,0-0.1-0.1-0.2c0-0.1,0-0.1,0-0.1c0-0.1,0-0.1,0-0.2l0,0c0,0.1,0,0.1,0,0.2v0.1c0,0.1,0,0.1-0.1,0.2l-1,2.9
			c0,0.1-0.1,0.2-0.2,0.2h-0.3c-0.1,0-0.2-0.1-0.2-0.2L187.5,584.5z"/>
		<path class="st11" d="M194.3,584.5c0-0.2,0-0.2,0.2-0.2h0.2c0.1,0,0.2,0.1,0.2,0.2l1,3c0,0.1,0,0.1,0,0.2c0,0.1,0,0.1,0,0.1
			c0,0.1,0,0.1,0,0.2l0,0c0,0,0-0.1,0-0.2v-0.1c0-0.1,0-0.1,0.1-0.2l1-3c0-0.1,0.1-0.2,0.2-0.2h0.2c0.1,0,0.2,0.1,0.2,0.2l1,3
			c0,0.1,0,0.1,0.1,0.2c0,0.1,0,0.1,0,0.1c0,0.1,0,0.1,0,0.2l0,0c0-0.1,0-0.1,0-0.2v-0.1c0-0.1,0-0.1,0.1-0.2l1-3
			c0-0.1,0.1-0.2,0.2-0.2h0.2c0.2,0,0.2,0.1,0.2,0.2l-1.3,3.9c0,0.1-0.1,0.2-0.2,0.2h-0.3c-0.1,0-0.2-0.1-0.2-0.2l-1-2.9
			c0-0.1,0-0.1-0.1-0.2c0-0.1,0-0.1,0-0.1c0-0.1,0-0.1,0-0.2l0,0c0,0.1,0,0.1,0,0.2v0.1c0,0.1,0,0.1-0.1,0.2l-1,2.9
			c0,0.1-0.1,0.2-0.2,0.2h-0.3c-0.1,0-0.2-0.1-0.2-0.2L194.3,584.5z"/>
		<path class="st11" d="M201.1,584.5c0-0.2,0-0.2,0.2-0.2h0.2c0.1,0,0.2,0.1,0.2,0.2l1,3c0,0.1,0,0.1,0,0.2c0,0.1,0,0.1,0,0.1
			c0,0.1,0,0.1,0,0.2l0,0c0,0,0-0.1,0-0.2v-0.1c0-0.1,0-0.1,0.1-0.2l1-3c0-0.1,0.1-0.2,0.2-0.2h0.2c0.1,0,0.2,0.1,0.2,0.2l1,3
			c0,0.1,0,0.1,0.1,0.2c0,0.1,0,0.1,0,0.1c0,0.1,0,0.1,0,0.2l0,0c0-0.1,0-0.1,0-0.2v-0.1c0-0.1,0-0.1,0.1-0.2l1-3
			c0-0.1,0.1-0.2,0.2-0.2h0.2c0.2,0,0.2,0.1,0.2,0.2l-1.3,3.9c0,0.1-0.1,0.2-0.2,0.2h-0.3c-0.1,0-0.2-0.1-0.2-0.2l-1-2.9
			c0-0.1,0-0.1-0.1-0.2c0-0.1,0-0.1,0-0.1c0-0.1,0-0.1,0-0.2l0,0c0,0.1,0,0.1,0,0.2v0.1c0,0.1,0,0.1-0.1,0.2l-1,2.9
			c0,0.1-0.1,0.2-0.2,0.2h-0.3c-0.1,0-0.2-0.1-0.2-0.2L201.1,584.5z"/>
		<path class="st11" d="M208.1,588.1c0-0.1,0.1-0.2,0.2-0.2h0.3c0.1,0,0.2,0.1,0.2,0.2v0.3c0,0.1-0.1,0.2-0.2,0.2h-0.3
			c-0.1,0-0.2-0.1-0.2-0.2V588.1z"/>
		<path class="st11" d="M210,584.5c0-0.1,0.1-0.2,0.2-0.2h0.2c0.1,0,0.2,0.1,0.2,0.2v0.5v0.1v0.1v0.1l0,0c0.1-0.1,0.1-0.3,0.2-0.4
			c0.1-0.1,0.2-0.3,0.4-0.4c0.1-0.1,0.3-0.2,0.5-0.2c0.2-0.1,0.3-0.1,0.5-0.1c0.4,0,0.7,0.1,0.9,0.3s0.3,0.4,0.4,0.8l0,0
			c0.1-0.1,0.1-0.3,0.2-0.4c0.1-0.1,0.2-0.2,0.4-0.3c0.1-0.1,0.3-0.2,0.5-0.2c0.2-0.1,0.3-0.1,0.5-0.1c0.5,0,0.9,0.1,1.1,0.4
			c0.2,0.3,0.3,0.7,0.3,1.2v2.5c0,0.1-0.1,0.2-0.2,0.2h-0.2c-0.1,0-0.2-0.1-0.2-0.2V586c0-0.2,0-0.3,0-0.5s-0.1-0.3-0.1-0.4
			c-0.1-0.1-0.2-0.2-0.3-0.3s-0.3-0.1-0.5-0.1s-0.4,0.1-0.6,0.2c-0.2,0.1-0.3,0.2-0.5,0.4c-0.1,0.2-0.2,0.4-0.3,0.6
			c-0.1,0.2-0.1,0.4-0.1,0.7v1.9c0,0.1-0.1,0.2-0.2,0.2h-0.2c-0.1,0-0.2-0.1-0.2-0.2V586c0-0.2,0-0.3,0-0.5s-0.1-0.3-0.1-0.4
			c-0.1-0.1-0.2-0.2-0.3-0.3s-0.3-0.1-0.5-0.1s-0.4,0.1-0.6,0.2c-0.2,0.1-0.3,0.2-0.5,0.4c-0.1,0.2-0.2,0.4-0.3,0.6
			s-0.1,0.4-0.1,0.6v1.9c0,0.1-0.1,0.2-0.2,0.2h-0.2c-0.1,0-0.2-0.1-0.2-0.2v-3.9H210z"/>
		<path class="st11" d="M217.4,586.4c0-0.3,0.1-0.6,0.2-0.9c0.1-0.3,0.3-0.5,0.5-0.7s0.4-0.4,0.7-0.5s0.6-0.2,0.9-0.2
			s0.6,0.1,0.9,0.2c0.3,0.1,0.5,0.3,0.7,0.5s0.4,0.4,0.5,0.7s0.2,0.6,0.2,0.9c0,0.3-0.1,0.6-0.2,0.9c-0.1,0.3-0.3,0.5-0.5,0.7
			s-0.4,0.4-0.7,0.5s-0.6,0.2-0.9,0.2s-0.6-0.1-0.9-0.2s-0.5-0.3-0.7-0.5s-0.4-0.4-0.5-0.7C217.5,587,217.4,586.7,217.4,586.4z
			 M218,586.4c0,0.3,0,0.5,0.1,0.7s0.2,0.4,0.4,0.6c0.2,0.2,0.3,0.3,0.5,0.4c0.2,0.1,0.4,0.1,0.7,0.1c0.2,0,0.4,0,0.6-0.1
			c0.2-0.1,0.4-0.2,0.5-0.4c0.2-0.2,0.3-0.3,0.4-0.6c0.1-0.2,0.1-0.4,0.1-0.7c0-0.2,0-0.5-0.1-0.7s-0.2-0.4-0.4-0.5
			c-0.2-0.2-0.3-0.3-0.5-0.4c-0.2-0.1-0.4-0.1-0.6-0.1c-0.2,0-0.5,0-0.7,0.1s-0.4,0.2-0.5,0.4c-0.2,0.2-0.3,0.3-0.4,0.5
			C218,585.9,218,586.2,218,586.4z"/>
		<path class="st11" d="M222.4,584.5c0-0.1,0-0.1,0-0.2c0,0,0.1-0.1,0.2-0.1h0.2c0.1,0,0.2,0.1,0.2,0.2l1.1,3c0,0.1,0,0.1,0.1,0.2
			c0,0.1,0,0.1,0,0.2c0,0.1,0,0.1,0,0.2l0,0c0-0.1,0-0.1,0-0.2c0-0.1,0-0.1,0-0.2c0-0.1,0-0.1,0.1-0.2l1.1-3c0-0.1,0.1-0.2,0.2-0.2
			h0.2c0.2,0,0.2,0.1,0.2,0.2l-1.5,3.9c0,0.1-0.1,0.2-0.2,0.2H224c-0.1,0-0.2-0.1-0.2-0.2L222.4,584.5z"/>
		<path class="st11" d="M226.9,584.5c0-0.1,0.1-0.2,0.2-0.2h0.2c0.1,0,0.2,0.1,0.2,0.2v2.4c0,0.2,0,0.3,0,0.5s0.1,0.3,0.1,0.4
			s0.2,0.2,0.3,0.3s0.3,0.1,0.5,0.1s0.5,0,0.7-0.1s0.4-0.2,0.5-0.4s0.2-0.4,0.3-0.6c0.1-0.2,0.1-0.4,0.1-0.7v-1.8
			c0-0.1,0.1-0.2,0.2-0.2h0.2c0.1,0,0.2,0.1,0.2,0.2v3.9c0,0.1-0.1,0.2-0.2,0.2h-0.2c-0.1,0-0.2-0.1-0.2-0.2V588v-0.1v-0.1v-0.1l0,0
			c0,0.1-0.1,0.2-0.2,0.3c-0.1,0.1-0.2,0.3-0.3,0.4c-0.1,0.1-0.3,0.2-0.5,0.3s-0.4,0.1-0.6,0.1c-0.5,0-0.9-0.1-1.1-0.4
			c-0.2-0.3-0.3-0.7-0.3-1.3L226.9,584.5L226.9,584.5z"/>
		<path class="st11" d="M232.1,583.3c-0.1,0-0.2-0.1-0.2-0.2v-0.3c0-0.1,0.1-0.2,0.2-0.2h0.2c0.1,0,0.2,0.1,0.2,0.2v0.3
			c0,0.1-0.1,0.2-0.2,0.2H232.1z M231.9,584.5c0-0.1,0.1-0.2,0.2-0.2h0.2c0.1,0,0.2,0.1,0.2,0.2v3.9c0,0.1-0.1,0.2-0.2,0.2h-0.2
			c-0.1,0-0.2-0.1-0.2-0.2V584.5z"/>
		<path class="st11" d="M233.8,584.5c0-0.1,0.1-0.2,0.2-0.2h0.2c0.1,0,0.2,0.1,0.2,0.2v0.5v0.1v0.1v0.1l0,0c0-0.1,0.1-0.2,0.2-0.3
			c0.1-0.1,0.2-0.3,0.4-0.4c0.1-0.1,0.3-0.2,0.5-0.3s0.4-0.1,0.7-0.1s0.5,0,0.7,0.1s0.3,0.2,0.4,0.3c0.1,0.1,0.2,0.3,0.2,0.5
			c0.1,0.2,0.1,0.4,0.1,0.7v2.5c0,0.1-0.1,0.2-0.2,0.2h-0.2c-0.1,0-0.2-0.1-0.2-0.2V586c0-0.2,0-0.3,0-0.5s-0.1-0.3-0.1-0.4
			c-0.1-0.1-0.2-0.2-0.3-0.3s-0.3-0.1-0.5-0.1s-0.4,0-0.6,0.1c-0.2,0.1-0.4,0.2-0.5,0.4s-0.3,0.3-0.3,0.6c-0.1,0.2-0.1,0.4-0.1,0.7
			v1.9c0,0.1-0.1,0.2-0.2,0.2H234c-0.1,0-0.2-0.1-0.2-0.2V584.5z"/>
		<path class="st11" d="M238.5,586.4c0-0.3,0.1-0.6,0.2-0.9c0.1-0.3,0.3-0.5,0.5-0.7s0.4-0.4,0.7-0.5s0.6-0.2,0.9-0.2
			s0.6,0.1,0.9,0.2c0.3,0.1,0.5,0.3,0.7,0.5s0.4,0.4,0.5,0.7s0.2,0.6,0.2,0.9c0,0.3-0.1,0.6-0.2,0.9c-0.1,0.3-0.3,0.5-0.5,0.7
			s-0.4,0.4-0.7,0.5s-0.6,0.2-0.9,0.2c-0.3,0-0.6-0.1-0.9-0.2c-0.3-0.1-0.5-0.3-0.7-0.5s-0.4-0.4-0.5-0.7
			C238.6,587,238.5,586.7,238.5,586.4z M239.1,586.4c0,0.3,0,0.5,0.1,0.7s0.2,0.4,0.4,0.6c0.2,0.2,0.3,0.3,0.5,0.4
			c0.2,0.1,0.4,0.1,0.7,0.1c0.2,0,0.4,0,0.6-0.1c0.2-0.1,0.4-0.2,0.5-0.4c0.2-0.2,0.3-0.3,0.4-0.6c0.1-0.2,0.1-0.4,0.1-0.7
			c0-0.2,0-0.5-0.1-0.7s-0.2-0.4-0.4-0.5c-0.2-0.2-0.3-0.3-0.5-0.4c-0.2-0.1-0.4-0.1-0.6-0.1c-0.2,0-0.5,0-0.7,0.1s-0.4,0.2-0.5,0.4
			c-0.2,0.2-0.3,0.3-0.4,0.5C239.1,585.9,239.1,586.2,239.1,586.4z"/>
		<path class="st11" d="M244,588.1c0-0.1,0.1-0.2,0.2-0.2h0.3c0.1,0,0.2,0.1,0.2,0.2v0.3c0,0.1-0.1,0.2-0.2,0.2h-0.3
			c-0.1,0-0.2-0.1-0.2-0.2V588.1z"/>
		<path class="st11" d="M245.6,586.4c0-0.3,0.1-0.6,0.2-0.9c0.1-0.3,0.3-0.5,0.5-0.7s0.4-0.4,0.7-0.5s0.6-0.2,0.9-0.2
			c0.2,0,0.3,0,0.5,0.1c0.2,0,0.3,0.1,0.4,0.1c0.1,0.1,0.2,0.1,0.3,0.2c0.1,0.1,0.2,0.1,0.2,0.1c0.1,0.1,0.1,0.2,0,0.3l-0.1,0.1
			c-0.1,0.1-0.2,0.1-0.3,0s-0.2-0.2-0.4-0.3s-0.4-0.1-0.7-0.1c-0.2,0-0.5,0-0.7,0.1s-0.4,0.2-0.5,0.4c-0.2,0.2-0.3,0.3-0.4,0.5
			c-0.1,0.2-0.1,0.4-0.1,0.7s0,0.5,0.1,0.7s0.2,0.4,0.4,0.5c0.2,0.2,0.3,0.3,0.5,0.4c0.2,0.1,0.4,0.1,0.7,0.1c0.1,0,0.3,0,0.4,0
			c0.1,0,0.2-0.1,0.3-0.1s0.2-0.1,0.3-0.1c0.1-0.1,0.1-0.1,0.2-0.1c0.1-0.1,0.2-0.1,0.3,0.1l0.1,0.1c0.1,0.1,0,0.2-0.1,0.3
			c-0.1,0-0.1,0.1-0.2,0.2s-0.2,0.1-0.3,0.2c-0.1,0.1-0.3,0.1-0.4,0.1c-0.2,0-0.3,0.1-0.5,0.1c-0.3,0-0.6-0.1-0.9-0.2
			c-0.3-0.1-0.5-0.3-0.7-0.5s-0.4-0.4-0.5-0.7C245.7,587.1,245.6,586.8,245.6,586.4z"/>
		<path class="st11" d="M250.1,586.4c0-0.3,0.1-0.6,0.2-0.9c0.1-0.3,0.3-0.5,0.5-0.7s0.4-0.4,0.7-0.5s0.6-0.2,0.9-0.2
			s0.6,0.1,0.9,0.2c0.3,0.1,0.5,0.3,0.7,0.5s0.4,0.4,0.5,0.7s0.2,0.6,0.2,0.9c0,0.3-0.1,0.6-0.2,0.9c-0.1,0.3-0.3,0.5-0.5,0.7
			s-0.4,0.4-0.7,0.5s-0.6,0.2-0.9,0.2s-0.6-0.1-0.9-0.2c-0.3-0.1-0.5-0.3-0.7-0.5s-0.4-0.4-0.5-0.7
			C250.2,587,250.1,586.7,250.1,586.4z M250.7,586.4c0,0.3,0,0.5,0.1,0.7s0.2,0.4,0.4,0.6c0.2,0.2,0.3,0.3,0.5,0.4
			c0.2,0.1,0.4,0.1,0.7,0.1c0.2,0,0.4,0,0.6-0.1c0.2-0.1,0.4-0.2,0.5-0.4c0.2-0.2,0.3-0.3,0.4-0.6c0.1-0.2,0.1-0.4,0.1-0.7
			c0-0.2,0-0.5-0.1-0.7s-0.2-0.4-0.4-0.5c-0.2-0.2-0.3-0.3-0.5-0.4c-0.2-0.1-0.4-0.1-0.6-0.1c-0.2,0-0.5,0-0.7,0.1s-0.4,0.2-0.5,0.4
			c-0.2,0.2-0.3,0.3-0.4,0.5C250.8,585.9,250.7,586.2,250.7,586.4z"/>
		<path class="st11" d="M255.7,584.5c0-0.1,0.1-0.2,0.2-0.2h0.2c0.1,0,0.2,0.1,0.2,0.2v0.5v0.1v0.1v0.1l0,0c0.1-0.1,0.1-0.3,0.2-0.4
			c0.1-0.1,0.2-0.3,0.4-0.4c0.1-0.1,0.3-0.2,0.5-0.2c0.2-0.1,0.3-0.1,0.5-0.1c0.4,0,0.7,0.1,0.9,0.3c0.2,0.2,0.3,0.4,0.4,0.8l0,0
			c0.1-0.1,0.1-0.3,0.2-0.4c0.1-0.1,0.2-0.2,0.4-0.3c0.1-0.1,0.3-0.2,0.5-0.2c0.2-0.1,0.3-0.1,0.5-0.1c0.5,0,0.9,0.1,1.1,0.4
			c0.2,0.3,0.3,0.7,0.3,1.2v2.5c0,0.1-0.1,0.2-0.2,0.2h-0.2c-0.1,0-0.2-0.1-0.2-0.2V586c0-0.2,0-0.3,0-0.5s-0.1-0.3-0.1-0.4
			c-0.1-0.1-0.2-0.2-0.3-0.3c-0.1-0.1-0.3-0.1-0.5-0.1s-0.4,0.1-0.6,0.2c-0.2,0.1-0.3,0.2-0.5,0.4c-0.1,0.2-0.2,0.4-0.3,0.6
			c-0.1,0.2-0.1,0.4-0.1,0.7v1.9c0,0.1-0.1,0.2-0.2,0.2h-0.2c-0.1,0-0.2-0.1-0.2-0.2V586c0-0.2,0-0.3,0-0.5s-0.1-0.3-0.1-0.4
			c-0.1-0.1-0.2-0.2-0.3-0.3c-0.1-0.1-0.3-0.1-0.5-0.1s-0.4,0.1-0.6,0.2c-0.2,0.1-0.3,0.2-0.5,0.4c-0.1,0.2-0.2,0.4-0.3,0.6
			s-0.1,0.4-0.1,0.6v1.9c0,0.1-0.1,0.2-0.2,0.2h-0.2c-0.1,0-0.2-0.1-0.2-0.2v-3.9H255.7z"/>
	</g>
	<path class="st10" d="M208,474.1h34c0.8,0,1.5,0.7,1.5,1.5s-0.7,1.5-1.5,1.5h-34c-0.8,0-1.5-0.7-1.5-1.5
		C206.5,474.7,207.2,474.1,208,474.1z"/>
	<path class="st10" d="M136.8,588.4c0-2.7-2.2-5-5-5c-2.7,0-5,2.2-5,5c0,2.7,2.2,5,5,5S136.8,591.2,136.8,588.4L136.8,588.4z"/>
	<path class="st10" d="M313.3,588.4c0-2.7,2.2-5,5-5c2.7,0,5,2.2,5,5c0,2.7-2.2,5-5,5S313.3,591.2,313.3,588.4L313.3,588.4z"/>
	<path class="st10" d="M136.8,428.6c0,2.7-2.2,5-5,5c-2.7,0-5-2.2-5-5c0-2.7,2.2-5,5-5S136.8,425.9,136.8,428.6L136.8,428.6z"/>
	<path class="st10" d="M313.3,428.6c0,2.7,2.2,5,5,5c2.7,0,5-2.2,5-5c0-2.7-2.2-5-5-5S313.3,425.9,313.3,428.6L313.3,428.6z"/>
	<path class="st10" d="M332.4,428.6c0-7.8-6.3-14.2-14.2-14.2H131.8c-7.8,0-14.2,6.3-14.2,14.2v30.5l0,0h39.7v1.7H171h3h118.7v-1.7
		h39.7L332.4,428.6z"/>
	<path class="st10" d="M117.6,465.5v122.9c0,7.8,6.3,14.2,14.2,14.2h186.4c7.8,0,14.2-6.3,14.2-14.2V478.7h-39.7V477h-26.4v10h-3
		v-11.5l0,0c0-0.8,0.7-1.5,1.5-1.5h27.9v-1.7h39.7v-6.8h-39.7v-1.7H174V474h11.3c0.8,0,1.5,0.7,1.5,1.5s-0.7,1.5-1.5,1.5h-12.8
		c-0.8,0-1.5-0.7-1.5-1.5l0,0v-11.8h-13.7v1.7L117.6,465.5"/>
	<g>
		<path class="st11" d="M236,442.5c-0.2,0.1-0.5,0.2-0.7,0.3c0.9,2.3,0.9,4.1,0,5.1c-0.9,0.9-2.8,0.9-5.1,0
			c-0.1,0.3-0.2,0.5-0.3,0.7c1.3,0.5,2.4,0.7,3.4,0.7c1.1,0,1.9-0.3,2.6-0.9C237,447.3,237,445.2,236,442.5z"/>
		<g>
			<path class="st11" d="M228.7,438.9v0.5c0,0.1,0,0.1,0,0.2h1.4c0-0.3,0-0.5,0-0.8h-1.5C228.7,438.8,228.7,438.9,228.7,438.9z"/>
			<path class="st11" d="M230.2,437.2h-0.1h-1.4c0,0.1,0,0.1,0,0.2v0.5c0,0.1,0,0.1,0,0.2h1.4h0.1c0-0.1,0-0.3,0-0.4
				C230.2,437.5,230.2,437.4,230.2,437.2z"/>
		</g>
		<path class="st11" d="M231.6,435.5c0,0.4,0,0.9,0.1,1.4C231.8,436.5,231.8,436,231.6,435.5z"/>
		<path class="st11" d="M228.6,432.3c-2.3-2.2-4.7-3.9-6.9-5c-0.1,0.2-0.2,0.5-0.3,0.7c2.2,1.1,4.6,2.8,6.9,5
			C228.3,432.8,228.4,432.5,228.6,432.3z"/>
		<path class="st11" d="M229.8,434.6c0.1,0.1,0.2,0.2,0.3,0.3c0-0.4-0.1-0.8-0.1-1.3c-0.1-0.1-0.1-0.1-0.2-0.2V434.6z"/>
		<path class="st11" d="M216.8,426.7c0.9,0,2,0.3,3.1,0.7c0.1-0.3,0.2-0.5,0.3-0.7c-2.6-1-4.8-1-6,0.2s-1.2,3.4-0.2,6
			c0.2-0.1,0.5-0.2,0.7-0.3c-0.9-2.3-1-4.2,0-5.2C215.2,426.9,215.9,426.7,216.8,426.7z"/>
		<path class="st11" d="M231.3,431.9L231.3,431.9L231.3,431.9L231.3,431.9z"/>
		<path class="st11" d="M231.3,431.9c0,0.3,0.1,0.5,0.1,0.8l0,0c4.9,0.9,8.1,2.9,8.1,4.9c0,2.1-3.3,4-7.9,4.9l0,0
			c0,0.3-0.1,0.6-0.1,0.8c5.3-1,8.8-3.2,8.8-5.7C240.3,435.1,236.8,432.9,231.3,431.9z"/>
		<g>
			<path class="st11" d="M210.5,437.6c0-1.8,2.5-3.6,6.6-4.6c0.1,0,0.1,0,0.2,0c0.2,0,0.3,0.1,0.5,0.2c0.2,0.2,0.3,0.4,0.3,0.6v2.6
				c0,0.4,0.2,0.8,0.5,1.1c0.3,0.3,0.7,0.5,1.1,0.5h1.7c0-0.1,0-0.1,0-0.2v-0.5c0-0.1,0-0.1,0-0.2h-1.7c-0.2,0-0.4-0.1-0.6-0.2
				c-0.2-0.2-0.2-0.4-0.2-0.6v-0.9c-0.3-0.5-0.4-1.1-0.4-1.7c0-0.3,0.1-0.6,0.1-0.9c-0.1-0.1-0.2-0.3-0.3-0.4
				c-0.4-0.3-0.9-0.4-1.4-0.3c-4.5,1.1-7.2,3.1-7.2,5.4c0,3.5,6.7,6.3,15.3,6.3c1.6,0,3.2-0.1,4.6-0.3c0-0.3,0.1-0.5,0.1-0.8
				c-1.5,0.2-3.1,0.3-4.8,0.3C217.2,443.1,210.5,440.6,210.5,437.6z"/>
			<path class="st11" d="M228.5,435.4c0.1,0.1,0.2,0.3,0.2,0.5v0.4c0.4-0.3,0.7-0.8,0.7-1.3v-1.6c0-0.2,0.1-0.5,0.3-0.6l0.1-0.1
				c0-0.3-0.1-0.5-0.1-0.8c-0.2,0.1-0.4,0.2-0.5,0.3c-0.4,0.3-0.6,0.7-0.6,1.2v1.6C228.6,435.1,228.6,435.2,228.5,435.4L228.5,435.4
				z"/>
		</g>
		<path class="st11" d="M233.9,440c0.3,0.4,0.5,0.9,0.7,1.3c0.3-0.1,0.5-0.2,0.7-0.3c-0.2-0.5-0.5-0.9-0.8-1.4s-0.9-0.8-1.5-0.8
			h-1.5c0,0.3,0,0.5,0,0.8h1.5C233.4,439.6,233.7,439.7,233.9,440z"/>
		<path class="st11" d="M218.9,440.9c0,0.2,0,0.3,0,0.5c0,0.3,0.1,0.6,0.1,0.8c0.3,0,0.5,0.1,0.8,0.1c0-0.2-0.1-0.4-0.1-0.6
			C219.5,441.5,219.2,441.2,218.9,440.9z"/>
		<path class="st11" d="M221.4,439.4v-0.5c0-0.1,0-0.1,0-0.2h-0.1c-0.6,0-1.2,0.2-1.6,0.6c0.2,0.2,0.3,0.4,0.5,0.6
			c0.3-0.3,0.7-0.4,1.1-0.4h0.1C221.4,439.5,221.4,439.5,221.4,439.4z"/>
		<path class="st11" d="M221.1,441.5c-2.5-2.5-4.5-5.2-5.7-7.6c-0.3,0.1-0.5,0.2-0.7,0.3c1.2,2.5,3.2,5.2,5.9,7.9
			c0.2,0.2,0.3,0.3,0.5,0.5c0.4,0,0.8,0.1,1.3,0.1C221.9,442.3,221.5,441.9,221.1,441.5z"/>
		<path class="st11" d="M228.7,447.2c-1.5-0.7-3-1.7-4.5-2.9c-0.4,0-0.9,0-1.3,0c1.8,1.6,3.7,2.8,5.5,3.7
			C228.6,447.7,228.6,447.5,228.7,447.2z"/>
		<path class="st11" d="M225,422.4c-3,0-5.4,4.6-6.1,11.5c-0.1,0.7,0.2,1.3,0.6,1.8c0.5,0.5,1.1,0.8,1.8,0.8h0.1c0-0.1,0-0.1,0-0.2
			v-0.5v-0.1h-0.1c-0.5,0-0.9-0.2-1.2-0.5s-0.5-0.8-0.4-1.2c0.6-6.3,2.9-10.8,5.3-10.8c3,0,5.5,6.6,5.5,14.5s-2.5,14.5-5.5,14.5
			c-2.1,0-4-3.2-4.9-7.9c-0.3,0-0.6-0.1-0.8-0.1c1,5.4,3.2,8.9,5.7,8.9c3.5,0,6.3-6.7,6.3-15.3C231.3,429.1,228.6,422.4,225,422.4z"
			/>
		<path class="st11" d="M228.3,435.6c-0.1-0.1-0.1-0.1-0.2-0.1h-0.5h-0.2V435c0-0.5-0.4-0.8-0.8-0.8h-3c-0.5,0-0.8,0.4-0.8,0.8v0.5
			h-0.2H222c-0.1,0-0.1,0-0.2,0.1c-0.1,0.1-0.1,0.1-0.1,0.2v0.2v0.2c0,0.1,0,0.1,0.1,0.2s0.1,0.1,0.2,0.1h0.5h0.2v0.5h-0.2H222
			c-0.1,0-0.1,0-0.2,0.1c-0.1,0.1-0.1,0.1-0.1,0.2v0.2v0.2c0,0.1,0,0.1,0.1,0.2s0.1,0.1,0.2,0.1h0.5h0.2v0.5h-0.2H222
			c-0.1,0-0.1,0-0.2,0.1c-0.1,0.1-0.1,0.1-0.1,0.2v0.2v0.2c0,0.1,0,0.1,0.1,0.2s0.1,0.1,0.2,0.1h0.5h0.2v0.5c0,0.5,0.4,0.8,0.8,0.8
			h3c0.5,0,0.8-0.4,0.8-0.8v-0.5h0.2h0.5c0.1,0,0.1,0,0.2-0.1c0.1-0.1,0.1-0.1,0.1-0.2V439v-0.2c0-0.1,0-0.1-0.1-0.2
			s-0.1-0.1-0.2-0.1h-0.5h-0.2V438h0.2h0.5c0.1,0,0.1,0,0.2-0.1c0.1-0.1,0.1-0.1,0.1-0.2v-0.2v-0.2c0-0.1,0-0.1-0.1-0.2
			s-0.1-0.1-0.2-0.1h-0.5h-0.2v-0.5h0.2h0.5c0.1,0,0.1,0,0.2-0.1c0.1-0.1,0.1-0.1,0.1-0.2V436v-0.2
			C228.3,435.8,228.3,435.7,228.3,435.6z"/>
	</g>
</g>
<g>
	<rect x="153.1" y="218.8" width="143.9" height="79.9"/>
	<text transform="matrix(1 0 0 1 168.0612 321.4694)" class="st11 st12 st13">Capacitive Sensor Kit</text>
	<path class="st10" d="M244.6,208.8c0.6,1.6,2.2,2.8,4,2.8h9.9c1.8,0,3.4-1.2,4-2.8h2.4c0.8,0,1.5-0.7,1.5-1.5s-0.7-1.5-1.5-1.5
		h-2.4c-0.6-1.6-2.2-2.8-4-2.8h-9.9c-1.8,0-3.4,1.2-4,2.8h-2.4c-0.8,0-1.5,0.7-1.5,1.5s0.7,1.5,1.5,1.5H244.6z"/>
	<path class="st10" d="M187.8,208.8c0.6,1.6,2.2,2.8,4,2.8h9.9c1.8,0,3.4-1.2,4-2.8h2.4c0.8,0,1.5-0.7,1.5-1.5s-0.7-1.5-1.5-1.5
		h-2.4c-0.6-1.6-2.2-2.8-4-2.8h-9.9c-1.8,0-3.4,1.2-4,2.8h-2.4c-0.8,0-1.5,0.7-1.5,1.5s0.7,1.5,1.5,1.5H187.8z"/>
	<rect x="153.1" y="295.7" class="st10" width="143.9" height="6"/>
	<path class="st10" d="M136.8,320.2c0-2.7-2.2-5-5-5c-2.7,0-5,2.2-5,5c0,2.7,2.2,5,5,5S136.8,323,136.8,320.2L136.8,320.2z"/>
	<path class="st10" d="M313.3,320.2c0-2.7,2.2-5,5-5s5,2.2,5,5c0,2.7-2.2,5-5,5S313.3,323,313.3,320.2L313.3,320.2z"/>
	<path class="st10" d="M136.8,160.4c0,2.7-2.2,5-5,5c-2.7,0-5-2.2-5-5c0-2.7,2.2-5,5-5S136.8,157.7,136.8,160.4L136.8,160.4z"/>
	<path class="st10" d="M313.3,160.4c0,2.7,2.2,5,5,5s5-2.2,5-5c0-2.7-2.2-5-5-5S313.3,157.7,313.3,160.4L313.3,160.4z"/>
	<path class="st10" d="M117.6,320.2c0,7.8,6.3,14.2,14.2,14.2h186.4c7.8,0,14.2-6.3,14.2-14.2V160.4c0-7.8-6.3-14.2-14.2-14.2H131.8
		c-7.8,0-14.2,6.3-14.2,14.2C117.6,160.4,117.6,320.2,117.6,320.2z"/>
	<g>
		<path class="st11" d="M202.9,167.7c0.2,0.4,0.5,0.7,0.8,0.9c0.2,0.1,0.4,0.1,0.6,0.1c0.2,0,0.5,0,0.7-0.1c0.1,0,0.3-0.1,0.4-0.2
			l0.3-0.1c0.6-0.3,1.2-0.5,1.8-0.4h0.1h0.2c0.3,0.1,0.6,0.2,0.9,0.3c0.3,0.1,0.6,0.3,0.9,0.3c0.8,0.2,1.5-0.1,2-0.4
			c0.1,0,0.1-0.1,0.2-0.1l0.1-0.1c0.4-0.3,0.8-0.6,1.1-0.9c0.3-0.3,0.6-0.6,0.8-0.9l0.1-0.1c0-0.1,0-0.1,0.1-0.2
			c0.1-0.4,0.1-0.9-0.1-1.5c-0.2-0.5-0.4-1.1-0.6-1.6v-0.1c-0.2-0.5-0.4-0.9-0.5-1.4l-0.1-0.3c-0.2-0.6-0.5-1.2-0.8-1.8l-0.1-0.1
			c-0.1-0.1-0.1-0.2-0.2-0.3c-0.4-0.7-1-1.2-1.6-1.5c-0.4-0.3-0.9-0.4-1.3-0.4h-0.1l0,0c-0.1,0-0.3,0-0.4,0h-0.1
			c-0.5,0.1-0.9,0.4-1.3,0.8c-0.1,0.1-0.3,0.2-0.4,0.4l-0.2,0.2c-0.3,0.3-0.7,0.6-1.1,0.9c-0.1,0.1-0.2,0.1-0.3,0.2l-0.1,0.1
			c-0.1,0.1-0.2,0.1-0.3,0.2c-0.4,0.2-0.8,0.4-1.1,0.7l-0.1,0.1l-0.1,0.1c-0.5,0.5-0.8,1.1-1,1.8v0.1c-0.2,1.1-0.1,2.1,0.1,2.8v0.2
			l0,0c0.1,0.2,0.1,0.4,0.2,0.6c0.2,0.5,0.4,0.9,0.6,1.3L202.9,167.7z M204.9,168.3c-0.3,0.1-0.8,0.2-1.2,0
			c-0.3-0.1-0.5-0.3-0.7-0.7c0.9,0.1,1.5,0.2,2,0.6C205.1,168.3,205,168.3,204.9,168.3z M208.5,157.1c0.4,0,0.8,0.2,1.2,0.4
			c0.6,0.3,1.1,0.8,1.5,1.4l0,0c-1.2-0.4-2.3-1-3.1-1.9c0.1,0,0.1,0,0.2,0C208.4,157.1,208.4,157.1,208.5,157.1z M206.6,157.9
			c0.4-0.3,0.8-0.6,1.2-0.7l0,0c0.9,1,2.1,1.7,3.5,2.1v0.1c0.3,0.6,0.6,1.2,0.8,1.7c-2.7-0.8-4.6-1.8-5.9-2.9
			C206.4,158.1,206.5,158,206.6,157.9z M204.9,159.3c0.4-0.3,0.7-0.6,1.1-0.9l0.1-0.1c1.4,1.2,3.3,2.2,6.2,3l0,0
			c0.2,0.4,0.3,0.8,0.5,1.3c-3.4-0.1-6.4-1.6-8.2-3.1C204.8,159.5,204.9,159.4,204.9,159.3z M204.2,159.8c0.1-0.1,0.2-0.1,0.3-0.2
			l0,0c1.8,1.5,5,3.2,8.5,3.2l0,0c0.2,0.5,0.4,1,0.6,1.6c0.2,0.6,0.2,1,0.1,1.4l0,0c-2.6-2.1-4.7-2.7-6.5-3.3
			c-1.5-0.4-2.8-0.8-4.1-2.1l0,0C203.5,160.2,203.8,160,204.2,159.8z M203,160.7c1.3,1.3,2.6,1.7,4.2,2.1c1.8,0.5,3.8,1.1,6.4,3.3
			c-0.2,0.3-0.4,0.6-0.7,0.8c-0.3,0.3-0.7,0.6-1.1,0.9c-1.2-2-3.4-2.6-5.4-3.2c-1.7-0.5-3.3-1-4.4-2.2l0,0
			C202.2,161.7,202.5,161.1,203,160.7z M202,162.6c1.1,1.2,2.7,1.7,4.3,2.2c2,0.6,4.1,1.2,5.3,3.2c0,0-0.1,0-0.1,0.1
			c-0.4,0.3-1.1,0.5-1.8,0.3c-0.3-0.1-0.6-0.2-0.9-0.3c-0.3-0.1-0.6-0.3-0.9-0.3h-0.1c-1-1.3-2.1-1.5-3.2-1.6
			c-0.8-0.1-1.6-0.3-2.5-0.8l0,0C201.9,164.5,201.8,163.6,202,162.6z M202.2,165.5c0.9,0.5,1.6,0.6,2.4,0.7c1.1,0.2,2,0.3,2.9,1.4
			c-0.7-0.1-1.3,0.2-1.8,0.4l-0.3,0.1c-0.7-0.5-1.3-0.7-2.4-0.7l-0.1-0.2c-0.2-0.4-0.4-0.9-0.6-1.3
			C202.3,165.8,202.2,165.6,202.2,165.5z"/>
		<path class="st11" d="M241.7,157c0.1,0.4,0.3,0.8,0.4,1.2v0.1c0.2,0.5,0.4,0.9,0.6,1.2l0.1,0.1l0,0c0.3,0.4,0.6,0.7,0.9,0.9h0.1
			c0.3,0.1,0.6,0.2,0.9,0.2c0.4,0,0.9-0.1,1.3-0.4c0.1,0,0.1-0.1,0.2-0.1c0.3-0.2,0.6-0.5,0.8-0.7c0.4-0.5,0.5-1.3,0.4-2v-0.2
			c0,0,0,0,0-0.1c-0.1-0.5-0.4-1-0.9-1.5l-0.1-0.1c-0.2-0.3-0.5-0.5-0.7-0.7l-0.1-0.1c-0.1-0.1-0.1-0.1-0.2-0.2
			c-0.1-0.1-0.1-0.1-0.2-0.2l-0.1-0.1c-0.2-0.2-0.4-0.3-0.6-0.4c-0.4-0.1-0.8,0-1.1,0.2c-0.1,0-0.2,0.1-0.4,0.1
			c-0.5,0.1-1,0.3-1.3,0.7c-0.2,0.3-0.4,0.7-0.3,1.2v0.1C241.6,156.5,241.6,156.8,241.7,157z M246.9,159.3c-0.2,0.2-0.4,0.5-0.7,0.7
			c-0.1,0-0.1,0.1-0.2,0.1c-0.6,0.4-1.3,0.5-1.9,0.2c0.3-0.7,0.6-0.8,1.1-1c0.2-0.1,0.5-0.2,0.8-0.4c0.5-0.3,0.9-0.8,1.3-1.3
			C247.3,158.3,247.2,158.9,246.9,159.3z M247.2,157.3L247.2,157.3c-0.3,0.6-0.8,1.1-1.3,1.4c-0.3,0.2-0.6,0.3-0.8,0.4
			c-0.5,0.2-0.8,0.4-1.2,1.1c-0.3-0.2-0.6-0.4-0.8-0.8l0,0c0.4-0.5,0.9-0.8,1.5-1.1c0.5-0.3,1-0.6,1.5-1.1c0.2-0.2,0.4-0.7,0.5-1.3
			C246.9,156.4,247.1,156.8,247.2,157.3z M246.3,155.7L246.3,155.7c-0.1,0.7-0.2,1.2-0.5,1.4c-0.4,0.4-0.9,0.7-1.4,1
			s-1.1,0.6-1.5,1.1c-0.2-0.3-0.4-0.7-0.6-1.1c0.3-0.4,0.7-0.5,1.1-0.6c0.4-0.1,0.8-0.2,1.2-0.5c0.5-0.3,0.8-0.9,1-1.9
			C245.9,155.3,246.1,155.5,246.3,155.7z M245.3,154.8c0.1,0.1,0.1,0.1,0.2,0.2h0.1c-0.1,0.7-0.4,1.5-1,1.8
			c-0.4,0.3-0.8,0.4-1.2,0.5s-0.8,0.2-1.2,0.6c-0.1-0.3-0.3-0.7-0.4-1c-0.1-0.2-0.1-0.4-0.1-0.6v-0.1c0.3-0.1,0.6-0.1,1.2-0.1h0.3
			c0.9,0.1,1.6-0.8,2-1.6C245.2,154.7,245.3,154.7,245.3,154.8z M242.1,155.1c0.3-0.4,0.8-0.5,1.2-0.7c0.1,0,0.2-0.1,0.4-0.1
			c0.3-0.1,0.7-0.2,1-0.1c0.1,0,0.3,0.1,0.4,0.3c-0.3,0.6-0.9,1.6-1.8,1.5H243c-0.5,0-0.8-0.1-1.2,0
			C241.8,155.7,241.9,155.4,242.1,155.1z"/>
		<path class="st11" d="M248.3,178.9v-0.2c-0.1-0.5-0.3-0.9-0.5-1.3c-0.1-0.1-0.1-0.3-0.2-0.4c-0.1-0.2-0.1-0.3-0.2-0.5l-0.3-0.7
			c-0.3-0.8-0.6-1.6-0.9-2.3l-0.1-0.1c-0.2-0.5-0.4-1-0.7-1.4l-0.1-0.1l0,0l-0.1-0.1c-0.1-0.2-0.2-0.3-0.3-0.4
			c-0.7-0.7-1.7-1.2-3.1-1.4h-0.2c-0.1,0-0.3,0-0.4-0.1c-0.3,0-0.6-0.1-0.9-0.1h-0.2c-0.6,0-1.1,0-1.6,0.1h-0.2
			c-0.8,0.1-1.6,0.4-2.3,0.7l-0.2,0.1c-0.6,0.3-1.1,0.7-1.6,1.1l-0.1,0.1c-0.3,0.3-0.6,0.6-0.9,0.9l-0.1,0.1
			c-0.2,0.2-0.3,0.4-0.5,0.6c-0.3,0.5-0.6,1-0.8,1.4l-0.1,0.3c-0.1-0.2-0.1-0.5-0.2-0.7c-0.1-0.2-0.2-0.5-0.4-0.7
			c0.1-0.2,0.2-0.4,0.4-0.6l0.3-0.5c1.3-2.1,3-5,1.7-7.5c-0.8-1.5-2.7-2.8-4.3-3.8c-0.3-0.2-0.7-0.5-1-0.7c-0.7-0.5-1.5-1-2.4-1.3
			c-0.6-0.2-1.2-0.2-1.7-0.2c-0.6,0-1.2,0.1-1.7,0.1s-1.1,0.1-1.6,0.1l0,0l0,0h-0.1c-0.5,0-0.8,0.1-1.2,0.1c-0.4,0.1-1,0.1-1.5,0.4
			h-0.1c-0.3,0.1-0.5,0.3-0.8,0.6l-0.1,0.1c-2.4,2.4-2.7,6.6-0.7,9.4l0,0l0,0c0,0,0,0.1,0.1,0.1l0.1,0.1c0.1,0.1,0.1,0.2,0.2,0.2
			c0.2,0.2,0.4,0.5,0.7,0.8c0.1,0.1,0.2,0.2,0.3,0.3c-0.7,0-1.3,0.3-1.9,0.7c-0.1,0-0.1,0.1-0.2,0.1c-1.2-1.7-2.8-2.4-4.1-2.7
			c-0.7-0.1-1.3-0.2-1.9-0.1h-0.3c-0.7,0.1-1.3,0.3-1.9,0.6c-0.4,0.2-0.8,0.5-1.2,0.9l0,0l0,0l0,0c-0.2,0.2-0.3,0.4-0.5,0.6
			l-0.1,0.1c-0.1,0.2-0.2,0.3-0.3,0.5l-0.1,0.1c-0.2,0.4-0.4,0.8-0.5,1.4l-0.1,0.2c-0.2,0.8-0.4,1.6-0.5,2.4v0.2
			c-0.1,0.6-0.2,1.3-0.4,1.9v0.2c-0.2,0.7-0.4,1.4-0.6,2.1l-0.2,0.5c-0.1,0.4-0.3,1-0.2,1.5c0.1,0.7,0.4,1.3,1,2.2l0.1,0.2
			c0.2,0.3,0.4,0.6,0.6,0.9l0.1,0.1c0.3,0.4,0.5,0.7,0.7,1l0.1,0.2c0.5,0.7,0.9,1.4,1.2,2l0.1,0.2c0.5,1,1,1.9,1.3,2.9l0.1,0.3
			c0.1,0.1,0.1,0.3,0.2,0.4c0.1,0.2,0.1,0.4,0.2,0.5l0.1,0.2c0.3,0.7,0.6,1.4,1.1,2.1c0.7,0.9,1.7,1.7,3,2.2l0.1,0.1
			c1,0.4,2,0.7,3,0.8h0.1c0.2,0,0.4,0,0.6,0c0.9,0,1.6-0.1,2.3-0.4h0.1c0.2-0.1,0.4-0.2,0.6-0.3c0.8-0.6,1.4-1.4,2-2.3l0.1-0.1
			c0.3-0.4,0.5-0.8,0.9-1.2c0.1-0.2,0.3-0.4,0.4-0.6l0.1-0.1c0.4-0.6,0.9-1.4,1.4-2.2l0.1-0.1c0.2-0.3,0.3-0.5,0.4-0.8
			c0.2-0.4,0.4-0.9,0.5-1.3v-0.1l0,0l0,0l0,0c0.2-0.9,0.3-1.7,0-2.5v-0.1l0,0l0,0v-0.1v-5v-0.6c0-0.1,0-0.2,0.1-0.3s0.2-0.1,0.3-0.1
			h1.5c0.1,0,0.3,0,0.4,0.1l-0.1,0.1c-0.5,1.3-0.2,2.8,0.2,4.1c0.3,1.1,0.7,2.2,1.4,3.1c0.5,0.6,1.1,1.1,1.9,1.5l0.1,0.1
			c0.5,0.2,1,0.5,1.6,0.6h0.1c0.1,0,0.3,0.1,0.4,0.1l0.6,0.1c0.5,0.1,0.9,0.2,1.4,0.3h0.1c0.8,0.2,1.5,0.3,2.1,0.5h0.1
			c0.6,0.1,1.2,0.2,1.7,0.3c0.2,0,0.4,0,0.7,0.1h0.1c0.1,0,0.2,0,0.3,0c1,0,2.3-0.2,3.4-0.9l0.1-0.1c0.3-0.2,0.5-0.4,0.7-0.6
			c0.7-0.7,1.1-1.5,1.4-2.3c0.1-0.3,0.2-0.5,0.3-0.8V187c0.3-0.8,0.6-1.6,0.9-2.4v-0.1c0.2-0.7,0.4-1.2,0.6-1.7
			c0.3-0.8,0.5-1.7,0.7-2.7V180c0-0.1,0-0.2,0-0.4v-0.2C248.4,179.6,248.3,179.3,248.3,178.9z M245,171.8L245,171.8l0.2,0.3
			c-0.4,0.3-1.2,0.2-2-0.3c-0.4-0.3-0.7-0.7-1-1.2c-0.1-0.1-0.2-0.3-0.3-0.4c1.2,0.2,2.1,0.6,2.8,1.3
			C244.8,171.5,244.9,171.6,245,171.8z M241.6,170.1h0.1c0.1,0.2,0.3,0.4,0.4,0.6c0.3,0.5,0.6,0.9,1,1.3c0.5,0.4,1,0.5,1.4,0.5
			c0.3,0,0.6-0.1,0.8-0.2c0.2,0.4,0.4,0.8,0.6,1.2c-2,0.1-3-1-4.1-2.2c-0.4-0.4-0.8-0.8-1.3-1.3c0.2,0,0.4,0,0.6,0
			C241.3,170.1,241.4,170.1,241.6,170.1z M240.1,170L240.1,170c0.6,0.4,1.1,0.9,1.6,1.4c1.1,1.2,2.1,2.3,4.1,2.3c0.1,0,0.2,0,0.3,0
			c0.3,0.7,0.6,1.5,0.9,2.3l0.2,0.5c-0.2,0-0.4,0-0.6,0c-3.9,0-4.6-1.6-5.3-3.3c-0.5-1.1-1-2.3-2.4-3
			C239.2,170.2,239.6,170.1,240.1,170C239.9,170,240,170,240.1,170z M238.3,170.1h0.1c1.5,0.7,2,1.9,2.6,3.1
			c0.8,1.8,1.5,3.5,5.5,3.5c0.2,0,0.5,0,0.7,0l0,0c0.1,0.2,0.1,0.3,0.2,0.5c0.1,0.1,0.1,0.3,0.2,0.4c0.2,0.5,0.4,0.9,0.5,1.3v0.1
			c0.1,0.3,0.1,0.7,0.1,1.1v0.1c0,0.1,0,0.2,0,0.3c-1-0.2-1.8-0.3-2.6-0.4c-3.2-0.4-5-0.7-5.6-4.3c-0.4-2.5-1.6-4.2-3.5-5.1
			C236.9,170.4,237.6,170.2,238.3,170.1z M234.1,172.1c0.1,0.1,0.3,0.1,0.4,0.2c-0.1,0.1-0.1,0.3-0.1,0.5v0.8
			c-0.3-0.2-0.7-0.4-1-0.7C233.6,172.6,233.9,172.3,234.1,172.1z M232.6,186.5c-0.1-0.1-0.1-0.1-0.2-0.2c-0.4-0.3-0.8-0.6-1-1.2
			c0-0.2-0.1-0.4-0.1-0.6c0-0.6,0.2-1.5,0.7-2.8c0.7-1.8,0.8-3,0.3-3.7c-0.2-0.3-0.4-0.4-0.7-0.6c0.1-0.4,0.2-0.8,0.2-1.2
			c0-0.1,0-0.1,0-0.2c1.2,0.3,2,0.6,2.6,1v3.3c-0.1,0.2-0.2,0.4-0.4,0.6c-1.7,2.3-0.7,4,0.4,5.2v0.8c0,0.6,0.5,1.1,1.1,1.1
			c0.3,0,0.5-0.1,0.7-0.3c0.8,1,1.1,2.5,1.2,3.7c-0.6-0.1-1.2-0.3-2-0.4C235.4,189,233.9,187.6,232.6,186.5z M231.2,183.7
			c0-0.2-0.1-0.4-0.1-0.6c-0.1-0.4-0.1-0.7-0.1-1s-0.1-0.6-0.2-0.8c0-0.6-0.2-1.1-0.5-1.5l0,0c0.1-0.1,0.3-0.3,0.4-0.4
			c0.1-0.1,0.2-0.3,0.3-0.5c0.3-0.4,0.5-0.8,0.6-1.2c0.3,0.1,0.4,0.3,0.6,0.5c0.4,0.7,0.3,1.8-0.4,3.5
			C231.5,182.5,231.3,183.2,231.2,183.7z M230.2,180c0.1,0.2,0.2,0.4,0.3,0.7c-0.1-0.1-0.2-0.2-0.2-0.4
			C230.2,180.2,230.1,180.1,230.2,180L230.2,180z M234.4,185.8c-1-1.1-1.8-2.7-0.2-4.7c0.1-0.1,0.2-0.2,0.2-0.3V185.8z M232.8,173.7
			c0.1-0.2,0.3-0.4,0.4-0.6c0.4,0.3,0.8,0.5,1.2,0.8v1.8c-0.6-0.5-1.4-0.7-2.3-0.8C232.3,174.5,232.5,174.1,232.8,173.7z M232,175.1
			c1,0,1.8,0.3,2.4,0.8v0.9c-0.6-0.4-1.4-0.7-2.6-1c0-0.1,0-0.2,0-0.3L232,175.1z M233.3,165.3c1.3,2.4-0.4,5.2-1.7,7.3l-0.3,0.5
			c-0.1,0.2-0.2,0.3-0.3,0.5c-0.3-0.5-0.7-0.8-1.2-1.2c-0.1-0.1-0.2-0.1-0.4-0.2c0.2-0.2,0.3-0.3,0.5-0.5c0.9-0.9,1.7-1.8,2.1-2.6
			c0.6-1.3,0.3-2.5-0.1-3.7c-0.2-0.7-0.4-1.5-0.5-2.3C232.2,163.9,232.9,164.6,233.3,165.3z M223,177.2c-0.3-0.1-0.7-0.2-0.9-0.3
			c0-1.5,0.4-2.6,0.9-3.4V177.2z M225.2,174.2c0-0.1,0-0.2,0.1-0.3s0.2-0.1,0.3-0.1h1.6c0.2,0,0.3,0,0.5,0.1
			c-0.8,1.1-1.3,2.2-1.2,3.4l0,0c-0.4,0-0.8,0.1-1.2,0.1v-3.2H225.2z M226.7,177.3c-0.1-1.2,0.4-2.3,1.2-3.3c0.1,0,0.2,0,0.2,0.1
			c0.4,0.2,0.8,0.5,1.1,0.9c0.1,0.2,0.2,0.5,0.3,0.7C228.8,176.5,227.9,177.1,226.7,177.3z M231.1,163c0,0.9,0.3,1.7,0.5,2.5
			c0.4,1.2,0.7,2.3,0.1,3.5c-0.4,0.8-1.2,1.6-2,2.5c-0.2,0.2-0.3,0.3-0.5,0.5c-0.6-0.3-1.3-0.5-2-0.5c0.1-0.1,0.3-0.3,0.4-0.4
			c1.3-1.3,2.4-2.5,2.6-3.4c0.3-2-0.3-3.2-0.9-4.5c-0.4-0.7-0.7-1.4-0.8-2.3c0.2,0.1,0.4,0.3,0.7,0.4
			C229.7,162,230.4,162.5,231.1,163z M228.2,160.9c0.1,0.9,0.5,1.7,0.9,2.5c0.6,1.2,1.2,2.4,0.9,4.3c-0.1,0.8-1.2,2-2.5,3.3
			c-0.2,0.2-0.3,0.4-0.5,0.5h-2.5c0.1-0.1,0.2-0.2,0.3-0.3c0.3-0.3,0.6-0.7,0.8-1c2.2-2.7,3.3-3.9,3-5.6c-0.2-1.3-0.7-1.9-1.2-2.6
			c-0.4-0.6-0.9-1.2-1.2-2.3C226.8,160.1,227.5,160.5,228.2,160.9C228.1,160.9,228.1,160.9,228.2,160.9z M225.7,159.6
			c0,0,0.1,0,0.1,0.1c0.4,1.3,0.9,1.9,1.3,2.5c0.5,0.7,0.9,1.3,1.1,2.5c0.2,1.6-0.8,2.8-3,5.5c-0.3,0.3-0.5,0.6-0.8,1
			c-0.1,0.2-0.3,0.3-0.4,0.5l0,0c-0.3,0-0.6,0.1-0.8,0.3s-0.3,0.5-0.3,0.8v0.3c-0.6,0.9-1.1,2-1.1,3.7c-0.2-0.1-0.3-0.2-0.4-0.3
			c0,0,0,0,0.1,0c0.2-0.2,0.3-0.5,0.3-0.8c0-0.4-0.1-0.8-0.2-1.1c0-0.1-0.1-0.3-0.2-0.4c0.5-1.4,1.1-2.1,2-3.2
			c0.5-0.6,1.1-1.4,1.8-2.4c2-2.8,1.7-5.5-1-9C224.7,159.4,225.2,159.4,225.7,159.6z M218.2,171.3c-0.4-1.5-0.9-3.6,0.1-6.1
			c1-2.6,1.2-4.2,1.2-5.4c0.3,0,0.6-0.1,1-0.1c0.2,1.3,0.4,3.2-0.8,5.7c-0.9,2-1.2,4.1-1,6.3c-0.1,0-0.3,0-0.4-0.1
			C218.2,171.5,218.2,171.4,218.2,171.3z M225.1,168.3c-0.7,1-1.3,1.8-1.8,2.4c-0.8,1.1-1.4,1.8-1.9,3.1c-0.1-0.1-0.1-0.3-0.2-0.4
			c-0.1-0.1-0.2-0.3-0.3-0.4c0.2-0.6,0.5-1.2,1-2.1c0.2-0.5,0.6-1,0.9-1.7c1.7-3.3,1.9-6.2,0.6-9.6c0.2,0,0.5,0,0.7,0
			C226.7,162.9,227.1,165.5,225.1,168.3z M222.4,159.6c0.3,0,0.5,0,0.8-0.1c1.3,3.4,1.1,6.2-0.6,9.5c-0.4,0.7-0.6,1.2-0.9,1.7
			c-0.5,0.9-0.8,1.5-1,2.1c-0.3-0.3-0.6-0.5-1-0.7c0.1-1.2,0.5-1.9,1.1-3.2c0.3-0.5,0.6-1.2,0.9-2c1.4-3,0.7-5.6,0-7.2
			C221.9,159.6,222.1,159.6,222.4,159.6z M221.5,159.6c0.7,1.6,1.4,4.1,0.1,7.1c-0.4,0.8-0.7,1.5-0.9,2c-0.7,1.3-1,2-1.1,3.2
			c0,0,0,0-0.1,0c-0.2-0.1-0.3-0.1-0.5-0.1c-0.2-2.2,0.1-4.3,1-6.3c1.2-2.6,1.1-4.4,0.8-5.8l0,0C221,159.7,221.2,159.6,221.5,159.6z
			 M219.3,159.8c0,1.2-0.2,2.7-1.2,5.3s-0.5,4.7-0.1,6.2c0,0.1,0,0.2,0.1,0.3c-0.1,0-0.1,0-0.2,0c-0.1-0.1-0.3-0.3-0.4-0.4
			c-0.3-1.2-0.5-1.9-0.7-2.5c-0.4-1.5-0.5-1.6,0.5-3.9c0.6-1.3,0.8-2.8,0.6-4.6h0.1C218.5,160,218.9,159.9,219.3,159.8z
			 M216.9,161.1c-0.1,0.8-0.4,1.8-1,3.5c-0.5,1.3-0.2,3.2,0.2,4.7C214.6,166.7,215,163.3,216.9,161.1z M216.5,170.2l-0.1-0.1l0,0
			c-0.5-1.6-0.9-3.8-0.4-5.4c0.7-2,1-3,1.1-3.9l0.1-0.1c0.2-0.2,0.4-0.3,0.5-0.4c0.1,1.8-0.1,3.1-0.6,4.4c-1,2.4-1,2.5-0.5,4
			c0.2,0.5,0.4,1.2,0.6,2.2c-0.2-0.2-0.3-0.3-0.4-0.5C216.7,170.3,216.6,170.3,216.5,170.2z M217.2,174c0.2-0.1,0.4-0.1,0.7-0.1
			c0.4,0,0.7,0.1,1,0.3s0.5,0.4,0.6,0.8c0.1,0.2,0.1,0.4,0.1,0.7s0.1,0.6,0.3,0.8s0.5,0.3,0.8,0.3c0.2,0,0.4-0.1,0.5-0.2
			c0.2,0.2,0.4,0.3,0.6,0.4l0.1,0.1c0.3,0.2,0.7,0.3,1,0.4v4.5v2.1c0,0,0,0-0.1-0.1s-0.2-0.2-0.3-0.3l0,0c-0.1-0.1-0.2-0.2-0.3-0.3
			c-0.3-0.3-0.6-0.6-0.8-0.9l-0.1-0.1c-0.4-0.5-0.8-0.9-1.1-1.4l-0.1-0.1c-0.3-0.4-0.6-0.9-0.9-1.3l-0.1-0.2
			c-0.5-0.8-1.1-1.7-1.5-2.5l-0.2-0.3c-0.5-1-0.8-1.7-1-2C216.7,174.3,216.9,174.1,217.2,174z M220.7,183c-0.2,0-0.5,0.1-0.6,0.2
			c0-0.8,0-1.5,0.1-2.2c0.4,0.5,0.7,0.9,1.1,1.4l0.1,0.1c0,0.2-0.1,0.4-0.1,0.6C221.1,183.1,220.9,183,220.7,183z M217.9,185.9
			c-0.3,0-0.5,0-0.7-0.1s-0.4-0.2-0.5-0.4c0.1-0.4,0.2-0.7,0.3-1.1c0.8-3,1.2-4.3,0.7-7.1c0.4,0.8,0.9,1.5,1.4,2.3
			c0,1-0.1,2.1-0.2,3.2c-0.1,1-0.1,2-0.2,3.1C218.4,185.8,218.1,185.9,217.9,185.9z M216.1,175.6c0-0.3,0.1-0.6,0.3-0.8
			c0.2,0.3,0.5,1,0.9,1.8c0.7,3.3,0.3,4.5-0.5,7.6c-0.1,0.3-0.2,0.6-0.3,0.9l0,0c-0.2-0.3-0.3-0.6-0.3-1L216.1,175.6L216.1,175.6z
			 M219,182.6c0.1-1,0.1-2,0.2-2.9c0.2,0.4,0.5,0.7,0.8,1.1c-0.1,0.8-0.1,1.7-0.1,2.6c-0.2,0.2-0.3,0.4-0.3,0.7c0,0.2,0,0.4-0.1,0.7
			s-0.4,0.6-0.6,0.7C218.9,184.5,219,183.6,219,182.6z M215.3,172.6c-0.3,0.3-0.6,0.6-0.9,1c-0.9-2.5-2.1-3.2-4.1-3.7
			c0.3,0,0.7,0.1,1,0.1C212.6,170.3,214.2,170.9,215.3,172.6z M202.8,182.9c-0.1-0.4,0-0.8,0.1-1.1c0.4,0.9,0.6,1.9,0.6,2.9
			C203.1,184,202.8,183.4,202.8,182.9z M203.8,185.1L203.8,185.1c-0.1-1.4-0.3-2.5-0.8-3.7l0.1-0.5c0.2-0.6,0.3-1.2,0.5-1.8
			c0.6,2.4,0.9,4.7,0.7,6.7C204.1,185.6,204,185.4,203.8,185.1z M204.5,186.1c0.2-2.2-0.1-4.7-0.8-7.4v-0.1c0.1-0.5,0.2-1.1,0.3-1.6
			c1,3.4,1.4,6.7,1,9.9C204.9,186.7,204.7,186.4,204.5,186.1L204.5,186.1z M205.4,187.4C205.4,187.3,205.4,187.3,205.4,187.4
			l-0.1-0.2c0.4-3.5,0.1-7-1.1-10.7v-0.1c0.1-0.7,0.3-1.4,0.4-2.1c1.4,3.5,1.6,8,1.8,14.8C206.1,188.5,205.8,188,205.4,187.4z
			 M206.7,189.5v-0.2c-0.2-7-0.4-11.7-2-15.3l0,0c0.1-0.4,0.3-0.8,0.5-1.2c1.5,1.6,4.1,4.5,3.3,9.3c-0.7,4-0.8,6.9-0.7,9.9
			c-0.3-0.8-0.7-1.5-1.1-2.4V189.5z M208.2,192.9l-0.1-0.2c-0.2-3.3-0.1-6.2,0.6-10.5c0.8-5-2-8.1-3.5-9.6l0,0
			c0.1-0.2,0.2-0.3,0.3-0.5c5.7,2.6,6.2,6.1,5,11.7c-0.3,1.5-0.7,3.1-1.1,5c-0.3,1.5-0.7,3.1-1,4.9c0-0.1-0.1-0.2-0.1-0.4
			C208.3,193.1,208.3,193,208.2,192.9z M209.7,196c-0.5-0.6-0.8-1.4-1-2c0.4-1.9,0.8-3.7,1.1-5.2c0.4-1.9,0.8-3.5,1.1-5
			c1.2-5.7,0.7-9.3-5.1-12c0.1-0.1,0.2-0.3,0.4-0.4l0,0l0.1-0.1c2.5,0.3,4.5,0.6,5.7,2.1c1,1.4,1.3,3.6,0.6,7.1
			c-0.2,1-0.4,1.8-0.6,2.7c-0.9,3.4-1.8,6.9,0.7,14.8C211.3,197.6,210.3,196.8,209.7,196z M212.8,198.3L212.8,198.3
			c-2.6-8-1.6-11.5-0.7-14.9c0.2-0.9,0.5-1.8,0.6-2.8c0.6-3.5,0.4-5.8-0.7-7.3c-1.2-1.5-3.2-1.9-5.6-2.1c0.3-0.3,0.6-0.5,1-0.7
			c0.6-0.3,1.2-0.5,1.8-0.6h0.3l0,0c2.4,0.6,3.7,1,4.8,4c0,0.1-0.1,0.1-0.1,0.2c-0.2,0.5-0.3,1-0.3,1.5v8.5c0,0.5,0.1,1,0.3,1.5
			c0.1,0.3,0.3,0.5,0.4,0.8l0,0c-0.6,2.4-1.6,6,1,12.5C214.7,198.9,213.7,198.7,212.8,198.3z M215.9,199c-2.6-6.4-1.7-10-1.1-12.4
			c0.2,0.3,0.5,0.5,0.8,0.8c0.1,0.1,0.2,0.1,0.3,0.2c-0.3,3.2,0.4,8.6,2.5,11C217.7,198.9,216.8,199.1,215.9,199z M219.2,198.2
			c-0.2,0.1-0.4,0.2-0.6,0.3c-2.1-2.4-2.7-7.7-2.5-10.9c0.5,0.2,1.1,0.4,1.7,0.4c0.3,0,0.5,0,0.7-0.1c0.1,3,0.7,5.8,2.6,8v0.1
			C220.6,196.9,220,197.7,219.2,198.2z M222.6,194c-0.1,0.2-0.3,0.4-0.4,0.6c-0.3,0.4-0.5,0.8-0.8,1.1c-1.9-2.1-2.4-4.9-2.5-7.8
			c0.2,0,0.4-0.1,0.6-0.2c0.3-0.1,0.5-0.3,0.8-0.4c0.4,2.2,1.1,4.5,2.5,6.6C222.6,193.9,222.6,193.9,222.6,194L222.6,194z
			 M222.8,193.7c-1.4-2.1-2.1-4.4-2.4-6.5c0.3-0.2,0.6-0.5,0.8-0.9c0.1-0.1,0.1-0.2,0.2-0.3c0.3,1.9,1.2,3.8,2.7,5.7v0.1
			C223.6,192.5,223.2,193.2,222.8,193.7z M224.4,190.9c-0.1,0.2-0.2,0.4-0.3,0.6c-1.5-1.9-2.4-3.8-2.7-5.8c0.1-0.1,0.1-0.3,0.2-0.4
			c0.1-0.4,0.2-0.8,0.2-1.1s-0.1-0.6-0.3-0.8c0,0,0,0-0.1,0c0-0.2,0-0.4,0.1-0.6c0.2,0.2,0.4,0.5,0.7,0.7c0.1,0.1,0.2,0.2,0.3,0.3
			l0,0l0,0c0.1,0.1,0.2,0.2,0.3,0.3c0.2,0.2,0.4,0.4,0.6,0.6l0.1,0.1c0,1.4,0.1,3.1,1.5,4.8l0,0c0,0,0,0,0,0.1
			C224.8,190.1,224.6,190.5,224.4,190.9z M225,189.3c-1.1-1.5-1.3-3.1-1.3-4.3c0,0,0,0,0.1,0.1s0.2,0.3,0.3,0.4l0.1,0.1
			c0.2,0.3,0.6,0.7,0.7,1.2C225.2,187.5,225.2,188.4,225,189.3z M227.2,178.7L227.2,178.7L227.2,178.7h-1.5c-0.1,0-0.2,0-0.3-0.1
			s-0.1-0.2-0.1-0.3v-0.7l0,0c0.4,0,0.8,0,1.2-0.1h0.1c1.3-0.2,2.2-0.8,3-1.6c0,0.1,0.1,0.2,0.1,0.4c0,0.3-0.1,0.6-0.2,1
			c-0.2,0.4-0.5,0.8-0.9,1.1C228.1,178.6,227.7,178.7,227.2,178.7L227.2,178.7z M229.2,188.3c-0.7-0.9-1.1-2-1.4-3.1
			c-0.4-1.3-0.6-2.7-0.2-4c0-0.1,0.1-0.1,0.1-0.2c0.2,0.1,0.3,0.2,0.5,0.3c0.3,0.3,0.5,0.6,0.6,1.1c0,0.3,0.1,0.8,0.2,1.3
			c0,0.2,0.1,0.4,0.1,0.6v0.1c-0.1,0.4,0,0.8,0.2,1.3c0,0.3,0.1,0.6,0.1,0.9c0.1,0.4,0.1,0.6,0.1,0.6c0,0.3,0.2,0.5,0.4,0.7
			s0.4,0.2,0.6,0.2c0.2,0.5,0.4,1,0.5,1.6C230.2,189.3,229.6,188.9,229.2,188.3z M231.2,189.8c-0.1-0.7-0.3-1.3-0.5-1.8l0,0
			c0.2,0,0.4-0.1,0.6-0.3c0.1,0.1,0.2,0.2,0.3,0.4c0.6,0.9,1,1.6,1.1,2.3C232.1,190.2,231.6,190.1,231.2,189.8L231.2,189.8z
			 M233.3,190.6c-0.1,0-0.3-0.1-0.4-0.1l0,0c-0.1-0.7-0.5-1.5-1.2-2.5c-0.1-0.1-0.2-0.3-0.3-0.4l0,0c0.2-0.2,0.3-0.5,0.2-0.8
			l-0.1-0.5c0-0.1,0-0.3-0.1-0.4c0.2,0.3,0.5,0.5,0.8,0.7c0.1,0.1,0.1,0.1,0.2,0.2c1.3,1,2.7,2.3,2.7,4.4c-0.4-0.1-0.9-0.2-1.3-0.3
			L233.3,190.6z M237.6,191.6L237.6,191.6c-0.1-1.3-0.4-2.9-1.3-4c0.1-0.2,0.3-0.4,0.3-0.7v-1c0.2,0.3,0.5,0.6,0.7,0.9
			c1.1,1.3,2.3,2.7,2.6,5.1c-0.2,0-0.4,0-0.6,0C238.8,191.8,238.3,191.7,237.6,191.6z M240.2,191.9c-0.3-2.5-1.6-3.9-2.7-5.2
			c-0.3-0.4-0.6-0.7-0.9-1.1v-9.8c1.4,1.8,1.3,3.6,1.1,5.4c-0.2,1.6-0.1,2.7,2.9,5.1c1.8,1.4,2.9,3,3.1,4.8h-0.1
			C242.5,191.8,241.1,191.9,240.2,191.9z M246,187.5L246,187.5c-0.1,0.3-0.2,0.6-0.3,0.8c-0.3,0.7-0.7,1.5-1.3,2.2
			c-0.1,0.1-0.3,0.3-0.5,0.4c-0.3-1.8-1.3-3.4-3.2-4.8c-3.2-2.4-3-3.6-2.8-4.8c0.3-1.8,0.3-3.8-1.3-5.7v-1.9c2,1.7,2.3,3.7,2.4,5
			c0,0.2,0,0.4,0.1,0.5c0,0,0,4.6,4.3,5.4c1.2,0.2,2,0.3,2.6,0.4c0.4,0.1,0.7,0.1,1,0.2l0,0C246.6,185.9,246.3,186.7,246,187.5z
			 M247.5,183.3c-0.2,0.5-0.3,1-0.5,1.6c-0.3-0.1-0.6-0.1-1-0.2c-0.6-0.1-1.4-0.2-2.6-0.4c-4.1-0.8-4.1-5-4.1-5.2s0-0.3-0.1-0.5
			c-0.2-1.4-0.4-3.4-2.6-5.2v-0.6c0-0.6-0.5-1.1-1.1-1.1c-0.4,0-0.7,0.2-0.9,0.5c-0.1-0.1-0.2-0.1-0.3-0.2c0.5-0.4,1-0.8,1.5-1.1
			l0.2-0.1h0.1c1.9,0.9,3.1,2.6,3.6,5c0.7,3.8,2.6,4.1,5.8,4.5c0.8,0.1,1.7,0.2,2.6,0.4C248,181.6,247.7,182.5,247.5,183.3z"/>
	</g>
</g>
</svg>
