<?xml version="1.0" encoding="utf-8"?>
<!-- Generator: Adobe Illustrator 16.0.0, SVG Export Plug-In . SVG Version: 6.00 Build 0)  -->
<!DOCTYPE svg PUBLIC "-//W3C//DTD SVG 1.1//EN" "http://www.w3.org/Graphics/SVG/1.1/DTD/svg11.dtd">
<svg version="1.1" id="Calque_1" xmlns="http://www.w3.org/2000/svg" xmlns:xlink="http://www.w3.org/1999/xlink" x="0px" y="0px"
	 width="459px" height="265.667px" viewBox="0 0 459 265.667" enable-background="new 0 0 459 265.667" xml:space="preserve">
<g>
	<path fill="#4A52D1" d="M10.113,7.812c-0.063-0.288,0.052-0.432,0.349-0.432h0.42c0.239,0,0.388,0.116,0.443,0.348l1.404,5.868
		c0.024,0.112,0.046,0.222,0.066,0.33c0.02,0.107,0.037,0.206,0.054,0.294c0.016,0.096,0.028,0.188,0.036,0.275h0.023
		c0.008-0.088,0.024-0.18,0.048-0.275c0.017-0.088,0.036-0.185,0.061-0.288s0.056-0.216,0.096-0.336l1.572-5.88
		c0.056-0.225,0.204-0.336,0.444-0.336h0.336c0.239,0,0.384,0.111,0.432,0.336l1.572,5.88c0.031,0.12,0.06,0.232,0.084,0.336
		c0.023,0.104,0.044,0.2,0.06,0.288c0.024,0.096,0.04,0.188,0.048,0.275h0.024c0.016-0.088,0.032-0.18,0.048-0.275
		c0.016-0.088,0.032-0.187,0.048-0.294c0.017-0.108,0.04-0.218,0.072-0.33l1.476-5.868c0.057-0.231,0.204-0.348,0.444-0.348h0.408
		c0.296,0,0.412,0.144,0.348,0.432l-2.027,7.704c-0.057,0.224-0.204,0.336-0.444,0.336h-0.66c-0.224,0-0.368-0.112-0.432-0.336
		l-1.393-5.16c-0.04-0.136-0.076-0.276-0.107-0.42c-0.032-0.144-0.061-0.271-0.084-0.384c-0.032-0.136-0.057-0.269-0.072-0.396
		h-0.036c-0.024,0.128-0.052,0.261-0.084,0.396c-0.024,0.112-0.05,0.24-0.078,0.384s-0.062,0.284-0.102,0.42l-1.393,5.16
		c-0.063,0.224-0.212,0.336-0.443,0.336h-0.66c-0.232,0-0.38-0.116-0.444-0.348L10.113,7.812z"/>
	<path fill="#4A52D1" d="M21.429,12.804c0-0.456,0.086-0.878,0.258-1.267c0.172-0.388,0.403-0.724,0.696-1.008
		c0.291-0.283,0.636-0.504,1.031-0.66c0.396-0.155,0.822-0.233,1.278-0.233s0.882,0.078,1.278,0.233
		c0.396,0.156,0.741,0.377,1.038,0.66c0.296,0.284,0.529,0.62,0.701,1.008c0.172,0.389,0.259,0.811,0.259,1.267
		c0,0.464-0.087,0.89-0.259,1.278c-0.172,0.388-0.405,0.724-0.701,1.008c-0.297,0.284-0.643,0.506-1.038,0.666
		c-0.396,0.159-0.822,0.239-1.278,0.239s-0.882-0.08-1.278-0.239c-0.396-0.16-0.74-0.382-1.031-0.666
		c-0.293-0.284-0.524-0.62-0.696-1.008C21.515,13.694,21.429,13.268,21.429,12.804z M22.605,12.804c0,0.32,0.056,0.614,0.168,0.882
		c0.112,0.269,0.262,0.498,0.45,0.69c0.188,0.191,0.408,0.342,0.66,0.449c0.252,0.108,0.521,0.162,0.81,0.162
		s0.558-0.054,0.81-0.162c0.252-0.107,0.475-0.258,0.666-0.449c0.192-0.192,0.343-0.422,0.45-0.69
		c0.108-0.268,0.162-0.562,0.162-0.882c0-0.313-0.054-0.601-0.162-0.864c-0.107-0.264-0.258-0.492-0.45-0.684
		c-0.191-0.192-0.414-0.343-0.666-0.45c-0.252-0.108-0.521-0.162-0.81-0.162s-0.558,0.054-0.81,0.162
		c-0.252,0.107-0.473,0.258-0.66,0.45c-0.188,0.191-0.338,0.42-0.45,0.684S22.605,12.492,22.605,12.804z"/>
	<path fill="#4A52D1" d="M28.857,12.804c0-0.456,0.086-0.878,0.258-1.267c0.172-0.388,0.403-0.724,0.696-1.008
		c0.291-0.283,0.636-0.504,1.031-0.66c0.396-0.155,0.822-0.233,1.278-0.233s0.882,0.078,1.278,0.233
		c0.396,0.156,0.741,0.377,1.038,0.66c0.296,0.284,0.529,0.62,0.701,1.008c0.172,0.389,0.259,0.811,0.259,1.267
		c0,0.464-0.087,0.89-0.259,1.278c-0.172,0.388-0.405,0.724-0.701,1.008c-0.297,0.284-0.643,0.506-1.038,0.666
		c-0.396,0.159-0.822,0.239-1.278,0.239s-0.882-0.08-1.278-0.239c-0.396-0.16-0.74-0.382-1.031-0.666
		c-0.293-0.284-0.524-0.62-0.696-1.008C28.943,13.694,28.857,13.268,28.857,12.804z M30.033,12.804c0,0.32,0.056,0.614,0.168,0.882
		c0.112,0.269,0.262,0.498,0.45,0.69c0.188,0.191,0.408,0.342,0.66,0.449c0.252,0.108,0.521,0.162,0.81,0.162
		s0.558-0.054,0.81-0.162c0.252-0.107,0.475-0.258,0.666-0.449c0.192-0.192,0.343-0.422,0.45-0.69
		c0.108-0.268,0.162-0.562,0.162-0.882c0-0.313-0.054-0.601-0.162-0.864c-0.107-0.264-0.258-0.492-0.45-0.684
		c-0.191-0.192-0.414-0.343-0.666-0.45c-0.252-0.108-0.521-0.162-0.81-0.162s-0.558,0.054-0.81,0.162
		c-0.252,0.107-0.473,0.258-0.66,0.45c-0.188,0.191-0.338,0.42-0.45,0.684S30.033,12.492,30.033,12.804z"/>
	<path fill="#4A52D1" d="M36.308,12.816c0-0.479,0.068-0.916,0.204-1.308c0.136-0.393,0.326-0.727,0.57-1.002
		c0.244-0.276,0.534-0.49,0.87-0.643c0.336-0.151,0.703-0.228,1.104-0.228c0.353,0,0.646,0.054,0.882,0.162
		c0.236,0.107,0.431,0.229,0.582,0.365c0.176,0.152,0.316,0.324,0.42,0.517h0.024c-0.008-0.04-0.017-0.08-0.024-0.12
		s-0.012-0.082-0.012-0.126s0-0.098,0-0.162V7.776c0-0.264,0.132-0.396,0.396-0.396h0.372c0.264,0,0.396,0.132,0.396,0.396v7.68
		c0,0.265-0.132,0.396-0.396,0.396h-0.313c-0.264,0-0.396-0.124-0.396-0.372v-0.348c0-0.104,0.004-0.176,0.012-0.216
		c0-0.032,0.004-0.061,0.012-0.084h-0.023c-0.112,0.224-0.261,0.42-0.444,0.588c-0.16,0.144-0.366,0.275-0.618,0.396
		s-0.566,0.18-0.942,0.18c-0.407,0-0.777-0.077-1.109-0.233s-0.614-0.374-0.846-0.654c-0.232-0.28-0.41-0.613-0.534-1.002
		C36.371,13.718,36.308,13.289,36.308,12.816z M37.497,12.816c0,0.328,0.042,0.626,0.126,0.895c0.084,0.268,0.202,0.496,0.354,0.684
		c0.152,0.188,0.332,0.334,0.54,0.438c0.208,0.104,0.44,0.155,0.696,0.155c0.224,0,0.441-0.042,0.654-0.126
		c0.212-0.084,0.397-0.214,0.558-0.39s0.29-0.402,0.39-0.678c0.101-0.276,0.15-0.606,0.15-0.99c0-0.272-0.036-0.536-0.108-0.792
		c-0.071-0.256-0.18-0.484-0.323-0.685c-0.145-0.199-0.324-0.361-0.54-0.485c-0.217-0.124-0.469-0.187-0.756-0.187
		c-0.24,0-0.465,0.048-0.673,0.145c-0.208,0.096-0.392,0.235-0.552,0.42c-0.16,0.184-0.286,0.41-0.378,0.678
		C37.542,12.167,37.497,12.472,37.497,12.816z"/>
</g>
<g>
	<path fill="#4A52D1" d="M10.725,310.442c0-0.264,0.132-0.396,0.396-0.396h2.7c0.384,0,0.74,0.062,1.068,0.186
		s0.607,0.302,0.84,0.534s0.414,0.512,0.546,0.84s0.198,0.692,0.198,1.092c0,0.4-0.066,0.767-0.198,1.099s-0.313,0.616-0.546,0.852
		c-0.232,0.236-0.512,0.418-0.84,0.546s-0.685,0.192-1.068,0.192h-1.92v2.735c0,0.265-0.132,0.396-0.396,0.396h-0.385
		c-0.264,0-0.396-0.132-0.396-0.396V310.442z M13.629,314.354c0.512,0,0.913-0.147,1.206-0.444c0.292-0.296,0.438-0.699,0.438-1.212
		c0-0.512-0.146-0.909-0.438-1.193c-0.293-0.284-0.69-0.427-1.194-0.427h-1.74v3.276H13.629z"/>
	<path fill="#4A52D1" d="M17.637,310.442c0-0.264,0.132-0.396,0.396-0.396h0.372c0.264,0,0.396,0.132,0.396,0.396v6.276
		c0,0.168,0.016,0.304,0.048,0.408c0.032,0.104,0.076,0.184,0.132,0.239c0.057,0.057,0.116,0.095,0.181,0.114
		c0.063,0.021,0.128,0.034,0.191,0.042c0.088,0.017,0.162,0.05,0.223,0.103c0.06,0.052,0.09,0.134,0.09,0.245v0.288
		c0,0.128-0.03,0.229-0.09,0.301c-0.061,0.071-0.166,0.107-0.318,0.107c-0.16,0-0.336-0.018-0.528-0.054
		c-0.191-0.036-0.368-0.112-0.527-0.229c-0.16-0.115-0.294-0.285-0.402-0.51c-0.108-0.224-0.162-0.528-0.162-0.912V310.442z"/>
	<path fill="#4A52D1" d="M20.397,315.482c0-0.479,0.078-0.916,0.234-1.308c0.155-0.393,0.367-0.727,0.636-1.002
		c0.268-0.276,0.588-0.49,0.96-0.643c0.372-0.151,0.773-0.228,1.206-0.228c0.416,0,0.788,0.072,1.116,0.216
		c0.327,0.144,0.602,0.344,0.821,0.6c0.221,0.257,0.389,0.561,0.504,0.912c0.116,0.353,0.175,0.74,0.175,1.164
		c0,0.112-0.038,0.208-0.114,0.288s-0.174,0.12-0.294,0.12h-4.057c0.017,0.328,0.084,0.62,0.204,0.876s0.276,0.472,0.469,0.648
		c0.191,0.176,0.409,0.308,0.653,0.396s0.502,0.132,0.774,0.132c0.336,0,0.628-0.054,0.876-0.162
		c0.248-0.107,0.439-0.214,0.576-0.317c0.239-0.128,0.42-0.084,0.54,0.132l0.107,0.18c0.064,0.104,0.086,0.202,0.066,0.294
		c-0.021,0.093-0.082,0.17-0.187,0.234c-0.088,0.064-0.199,0.134-0.336,0.21c-0.136,0.076-0.29,0.146-0.462,0.21
		c-0.172,0.064-0.364,0.118-0.576,0.162s-0.438,0.065-0.678,0.065c-0.479,0-0.916-0.082-1.308-0.245
		c-0.393-0.164-0.73-0.389-1.015-0.673c-0.283-0.283-0.504-0.619-0.659-1.008C20.475,316.349,20.397,315.931,20.397,315.482z
		 M24.885,314.835c-0.017-0.536-0.166-0.94-0.45-1.213c-0.284-0.271-0.626-0.407-1.026-0.407c-0.448,0-0.834,0.142-1.158,0.426
		c-0.323,0.284-0.529,0.682-0.617,1.194H24.885z"/>
	<path fill="#4A52D1" d="M28.665,315.398l-1.655-2.472c-0.089-0.136-0.106-0.25-0.055-0.342c0.053-0.092,0.158-0.139,0.318-0.139
		h0.456c0.208,0,0.36,0.093,0.456,0.276l0.984,1.572c0.016,0.04,0.037,0.08,0.065,0.12s0.05,0.079,0.066,0.119l0.06,0.12h0.024
		c0.023-0.04,0.048-0.08,0.071-0.12c0.017-0.04,0.036-0.079,0.061-0.119c0.023-0.04,0.048-0.08,0.072-0.12l0.972-1.572
		c0.104-0.184,0.26-0.276,0.468-0.276h0.444c0.16,0,0.266,0.047,0.317,0.139c0.053,0.092,0.034,0.206-0.054,0.342l-1.644,2.472
		l1.764,2.64c0.088,0.137,0.106,0.251,0.054,0.343c-0.052,0.092-0.158,0.138-0.317,0.138h-0.433c-0.208,0-0.364-0.092-0.468-0.276
		l-1.116-1.752c-0.023-0.04-0.048-0.075-0.071-0.107c-0.024-0.032-0.045-0.068-0.061-0.108c-0.023-0.031-0.044-0.072-0.06-0.12
		h-0.024c-0.016,0.048-0.036,0.089-0.06,0.12c-0.017,0.04-0.034,0.076-0.055,0.108c-0.02,0.032-0.042,0.067-0.065,0.107
		l-1.116,1.752c-0.104,0.185-0.26,0.276-0.468,0.276h-0.433c-0.16,0-0.266-0.046-0.317-0.138c-0.053-0.092-0.034-0.206,0.054-0.343
		L28.665,315.398z"/>
	<path fill="#4A52D1" d="M33.5,311.234c-0.264,0-0.396-0.132-0.396-0.396v-0.396c0-0.264,0.132-0.396,0.396-0.396h0.408
		c0.265,0,0.396,0.132,0.396,0.396v0.396c0,0.264-0.132,0.396-0.396,0.396H33.5z M33.117,312.843c0-0.265,0.132-0.396,0.396-0.396
		h0.372c0.264,0,0.396,0.132,0.396,0.396v5.279c0,0.265-0.132,0.396-0.396,0.396h-0.372c-0.265,0-0.396-0.132-0.396-0.396V312.843z"
		/>
	<path fill="#4A52D1" d="M36.393,319.971c0.104-0.225,0.271-0.292,0.504-0.204c0.144,0.056,0.323,0.114,0.54,0.174
		c0.216,0.061,0.476,0.09,0.779,0.09c0.256,0,0.5-0.029,0.732-0.09c0.231-0.06,0.434-0.158,0.605-0.294s0.311-0.312,0.414-0.528
		c0.104-0.216,0.156-0.479,0.156-0.792v-0.527c0-0.048,0-0.094,0-0.139c0-0.044,0.004-0.086,0.012-0.126s0.017-0.079,0.024-0.119
		h-0.024c-0.176,0.319-0.41,0.571-0.701,0.756c-0.293,0.184-0.658,0.275-1.099,0.275c-0.424,0-0.806-0.08-1.146-0.239
		c-0.341-0.16-0.629-0.379-0.864-0.654c-0.236-0.276-0.416-0.604-0.54-0.984s-0.186-0.794-0.186-1.242
		c0-0.432,0.06-0.832,0.18-1.199c0.12-0.368,0.294-0.688,0.521-0.96c0.229-0.272,0.511-0.484,0.847-0.637
		c0.336-0.151,0.724-0.228,1.164-0.228c0.376,0,0.686,0.054,0.93,0.162c0.244,0.107,0.438,0.226,0.582,0.354
		c0.168,0.145,0.296,0.313,0.384,0.504h0.024c-0.009-0.008-0.013-0.023-0.013-0.048c-0.008-0.023-0.012-0.072-0.012-0.144v-0.349
		c0-0.224,0.132-0.336,0.396-0.336h0.288c0.264,0,0.396,0.132,0.396,0.396v5.424c0,0.504-0.088,0.93-0.264,1.278
		c-0.177,0.348-0.406,0.634-0.69,0.857s-0.605,0.386-0.966,0.486c-0.36,0.1-0.725,0.149-1.092,0.149c-0.336,0-0.656-0.029-0.96-0.09
		c-0.305-0.06-0.572-0.142-0.805-0.246c-0.239-0.104-0.308-0.279-0.203-0.527L36.393,319.971z M38.541,317.438
		c0.208,0,0.41-0.034,0.606-0.102c0.195-0.068,0.367-0.185,0.516-0.349c0.147-0.164,0.266-0.378,0.354-0.642
		c0.088-0.264,0.132-0.592,0.132-0.984c0-0.399-0.047-0.731-0.139-0.996c-0.092-0.264-0.214-0.474-0.365-0.63
		c-0.152-0.156-0.33-0.266-0.534-0.33c-0.204-0.063-0.418-0.096-0.643-0.096c-0.552,0-0.97,0.178-1.254,0.534
		c-0.284,0.355-0.426,0.834-0.426,1.434c0,0.656,0.154,1.181,0.462,1.572S37.989,317.438,38.541,317.438z"/>
	<path fill="#4A52D1" d="M42.98,310.442c0-0.264,0.132-0.396,0.396-0.396h0.372c0.264,0,0.396,0.132,0.396,0.396v6.276
		c0,0.168,0.016,0.304,0.048,0.408c0.032,0.104,0.076,0.184,0.132,0.239c0.057,0.057,0.116,0.095,0.181,0.114
		c0.063,0.021,0.128,0.034,0.191,0.042c0.088,0.017,0.162,0.05,0.223,0.103c0.06,0.052,0.09,0.134,0.09,0.245v0.288
		c0,0.128-0.03,0.229-0.09,0.301c-0.061,0.071-0.166,0.107-0.318,0.107c-0.16,0-0.336-0.018-0.528-0.054
		c-0.191-0.036-0.368-0.112-0.527-0.229c-0.16-0.115-0.294-0.285-0.402-0.51c-0.108-0.224-0.162-0.528-0.162-0.912V310.442z"/>
	<path fill="#4A52D1" d="M45.632,316.862c0-0.312,0.061-0.582,0.181-0.81c0.12-0.229,0.279-0.418,0.479-0.57
		c0.2-0.151,0.426-0.275,0.678-0.372c0.253-0.096,0.515-0.168,0.786-0.216c0.272-0.048,0.538-0.08,0.798-0.096
		c0.261-0.017,0.494-0.024,0.702-0.024h0.313v-0.156c0-0.247-0.034-0.457-0.103-0.63c-0.067-0.172-0.162-0.31-0.281-0.414
		c-0.12-0.104-0.261-0.178-0.42-0.222c-0.16-0.044-0.333-0.066-0.517-0.066c-0.304,0-0.574,0.045-0.81,0.133
		c-0.236,0.088-0.422,0.172-0.559,0.252c-0.231,0.111-0.412,0.063-0.54-0.145l-0.096-0.168c-0.128-0.24-0.084-0.42,0.132-0.54
		c0.185-0.104,0.442-0.216,0.774-0.336s0.729-0.18,1.193-0.18c0.761,0,1.349,0.202,1.765,0.605c0.416,0.404,0.624,0.994,0.624,1.771
		v3.443c0,0.265-0.132,0.396-0.396,0.396h-0.3c-0.264,0-0.396-0.132-0.396-0.396v-0.359c0-0.056,0-0.108,0-0.156
		s0.004-0.088,0.012-0.12c0.008-0.031,0.016-0.063,0.023-0.096h-0.023c-0.12,0.24-0.272,0.452-0.456,0.636
		c-0.16,0.16-0.364,0.307-0.612,0.438s-0.552,0.197-0.912,0.197c-0.264,0-0.52-0.04-0.768-0.119
		c-0.248-0.08-0.466-0.198-0.654-0.354c-0.188-0.156-0.338-0.344-0.45-0.563C45.689,317.404,45.632,317.15,45.632,316.862z
		 M46.809,316.767c0,0.24,0.094,0.462,0.281,0.666c0.188,0.204,0.47,0.306,0.847,0.306c0.256,0,0.485-0.058,0.689-0.174
		s0.376-0.268,0.517-0.456c0.14-0.188,0.247-0.396,0.323-0.624c0.076-0.228,0.114-0.454,0.114-0.678v-0.264h-0.312
		c-0.217,0-0.465,0.01-0.744,0.029c-0.28,0.021-0.548,0.07-0.805,0.15c-0.256,0.08-0.472,0.202-0.647,0.366
		S46.809,316.479,46.809,316.767z"/>
	<path fill="#4A52D1" d="M52.088,318.003c-0.104-0.064-0.16-0.145-0.168-0.24s0.021-0.196,0.084-0.3l0.12-0.168
		c0.08-0.104,0.162-0.16,0.246-0.168s0.187,0.02,0.307,0.084c0.136,0.088,0.327,0.191,0.575,0.312s0.553,0.18,0.912,0.18
		c0.304,0,0.552-0.069,0.744-0.21c0.192-0.14,0.288-0.338,0.288-0.594c0-0.2-0.078-0.36-0.234-0.479
		c-0.155-0.12-0.35-0.23-0.582-0.33c-0.231-0.101-0.481-0.196-0.75-0.288c-0.268-0.092-0.518-0.212-0.75-0.36
		c-0.231-0.147-0.426-0.33-0.582-0.546c-0.155-0.216-0.233-0.496-0.233-0.84c0-0.288,0.058-0.542,0.174-0.762
		c0.116-0.221,0.274-0.402,0.474-0.547c0.2-0.144,0.435-0.253,0.702-0.329c0.269-0.076,0.55-0.114,0.847-0.114
		c0.424,0,0.773,0.056,1.05,0.168c0.275,0.112,0.485,0.212,0.63,0.3c0.111,0.056,0.178,0.13,0.198,0.222
		c0.02,0.093-0.003,0.194-0.066,0.307l-0.108,0.18c-0.111,0.2-0.287,0.244-0.527,0.132c-0.128-0.072-0.294-0.147-0.498-0.228
		s-0.45-0.12-0.738-0.12s-0.53,0.064-0.726,0.191c-0.196,0.129-0.294,0.32-0.294,0.576c0,0.2,0.077,0.362,0.233,0.486
		s0.35,0.234,0.582,0.33s0.482,0.191,0.75,0.288c0.269,0.096,0.518,0.214,0.75,0.354c0.232,0.141,0.426,0.32,0.582,0.54
		c0.156,0.221,0.234,0.502,0.234,0.847c0,0.256-0.053,0.493-0.156,0.714c-0.104,0.22-0.252,0.41-0.444,0.569
		c-0.191,0.16-0.422,0.284-0.689,0.372c-0.269,0.088-0.566,0.132-0.895,0.132c-0.256,0-0.49-0.021-0.701-0.065
		c-0.213-0.044-0.402-0.1-0.57-0.168s-0.318-0.14-0.45-0.216S52.168,318.066,52.088,318.003z"/>
	<path fill="#4A52D1" d="M57.356,318.003c-0.104-0.064-0.16-0.145-0.168-0.24s0.021-0.196,0.084-0.3l0.12-0.168
		c0.08-0.104,0.162-0.16,0.246-0.168s0.187,0.02,0.307,0.084c0.136,0.088,0.327,0.191,0.575,0.312s0.553,0.18,0.912,0.18
		c0.304,0,0.552-0.069,0.744-0.21c0.192-0.14,0.288-0.338,0.288-0.594c0-0.2-0.078-0.36-0.234-0.479
		c-0.155-0.12-0.35-0.23-0.582-0.33c-0.231-0.101-0.481-0.196-0.75-0.288c-0.268-0.092-0.518-0.212-0.75-0.36
		c-0.231-0.147-0.426-0.33-0.582-0.546c-0.155-0.216-0.233-0.496-0.233-0.84c0-0.288,0.058-0.542,0.174-0.762
		c0.116-0.221,0.274-0.402,0.474-0.547c0.2-0.144,0.435-0.253,0.702-0.329c0.269-0.076,0.55-0.114,0.847-0.114
		c0.424,0,0.773,0.056,1.05,0.168c0.275,0.112,0.485,0.212,0.63,0.3c0.111,0.056,0.178,0.13,0.198,0.222
		c0.02,0.093-0.003,0.194-0.066,0.307l-0.108,0.18c-0.111,0.2-0.287,0.244-0.527,0.132c-0.128-0.072-0.294-0.147-0.498-0.228
		s-0.45-0.12-0.738-0.12s-0.53,0.064-0.726,0.191c-0.196,0.129-0.294,0.32-0.294,0.576c0,0.2,0.077,0.362,0.233,0.486
		s0.35,0.234,0.582,0.33s0.482,0.191,0.75,0.288c0.269,0.096,0.518,0.214,0.75,0.354c0.232,0.141,0.426,0.32,0.582,0.54
		c0.156,0.221,0.234,0.502,0.234,0.847c0,0.256-0.053,0.493-0.156,0.714c-0.104,0.22-0.252,0.41-0.444,0.569
		c-0.191,0.16-0.422,0.284-0.689,0.372c-0.269,0.088-0.566,0.132-0.895,0.132c-0.256,0-0.49-0.021-0.701-0.065
		c-0.213-0.044-0.402-0.1-0.57-0.168s-0.318-0.14-0.45-0.216S57.436,318.066,57.356,318.003z"/>
</g>
<g>
	<path fill="none" stroke="#FF0000" stroke-width="0.0028" stroke-miterlimit="10" d="M21.499,212.203
		c0,10.959,8.884,19.843,19.841,19.843h158.74c10.961,0,19.844-8.884,19.844-19.843V53.463c0-10.959-8.883-19.842-19.844-19.842
		H41.34c-10.957,0-19.841,8.883-19.841,19.842V212.203z"/>
	<circle fill="none" stroke="#FF0000" stroke-width="0.0028" stroke-miterlimit="10" cx="41.342" cy="212.203" r="4.961"/>
	<circle fill="none" stroke="#FF0000" stroke-width="0.0028" stroke-miterlimit="10" cx="200.082" cy="212.203" r="4.961"/>
	<circle fill="none" stroke="#FF0000" stroke-width="0.0028" stroke-miterlimit="10" cx="41.342" cy="53.463" r="4.961"/>
	<circle fill="none" stroke="#FF0000" stroke-width="0.0028" stroke-miterlimit="10" cx="200.082" cy="53.463" r="4.961"/>
	<path d="M104.634,153.863H94.492V131.75c0-1.555-0.875-2.445-2.404-2.445h-1.885c-1.529,0-2.405,0.891-2.405,2.445v25.666
		c0,1.553,0.876,2.444,2.405,2.444h14.431c1.554,0,2.445-0.892,2.445-2.444v-1.149C107.079,154.738,106.188,153.863,104.634,153.863
		z"/>
	<path d="M124.646,139.385c-1.648-1.573-3.961-2.371-6.874-2.371c-1.631,0-3.083,0.212-4.313,0.631
		c-1.185,0.403-2.148,0.798-2.878,1.177c-1.309,0.712-1.657,1.9-0.952,3.27l0.404,0.764c0.548,1.1,1.376,1.33,1.975,1.33
		c0.389,0,0.811-0.097,1.319-0.322c0.45-0.251,1.044-0.503,1.767-0.747c0.687-0.233,1.435-0.352,2.227-0.352
		c0.921,0,1.683,0.224,2.326,0.684c0.529,0.38,0.806,1.053,0.842,2.053h-0.136c-0.805,0-1.679,0.035-2.596,0.103
		c-0.93,0.071-1.871,0.207-2.8,0.403c-0.946,0.202-1.862,0.477-2.72,0.816c-0.896,0.35-1.713,0.822-2.426,1.4
		c-0.73,0.595-1.317,1.321-1.745,2.16c-0.433,0.85-0.653,1.852-0.653,2.974c0,1.063,0.212,2.039,0.627,2.896
		c0.409,0.852,0.972,1.591,1.673,2.199c0.692,0.604,1.507,1.076,2.42,1.406c0.908,0.327,1.896,0.494,2.935,0.494
		c1.254,0,2.355-0.232,3.271-0.691c0.874-0.438,1.618-0.928,2.217-1.465c0.127-0.117,0.248-0.236,0.369-0.359
		c0.147,1.292,0.998,2.024,2.381,2.024h1.396c1.554,0,2.445-0.892,2.445-2.444V146.06
		C127.147,143.215,126.307,140.969,124.646,139.385z M120.534,150.102v0.057c0,0.545-0.103,1.111-0.307,1.686
		c-0.206,0.578-0.492,1.11-0.855,1.584c-0.349,0.451-0.776,0.822-1.274,1.1c-0.485,0.271-1.021,0.402-1.637,0.402
		c-0.84,0-1.439-0.201-1.835-0.619c-0.402-0.423-0.6-0.883-0.6-1.404c0-0.563,0.168-0.996,0.512-1.322
		c0.412-0.388,0.937-0.693,1.563-0.906c0.666-0.227,1.391-0.382,2.154-0.458c0.791-0.078,1.511-0.118,2.142-0.118H120.534z"/>
	<path d="M151.445,143.987c-0.464-1.42-1.139-2.659-2.001-3.684c-0.871-1.033-1.934-1.849-3.153-2.423
		c-1.225-0.576-2.604-0.867-4.102-0.867c-1.243,0-2.327,0.198-3.226,0.593c-0.858,0.38-1.578,0.797-2.152,1.248
		c-0.085,0.072-0.169,0.146-0.255,0.219v-7.323c0-1.555-0.89-2.445-2.444-2.445h-1.762c-1.555,0-2.445,0.891-2.445,2.445v25.666
		c0,1.553,0.891,2.444,2.445,2.444h1.394c0.756,0,1.354-0.194,1.772-0.575c0.241-0.215,0.517-0.569,0.626-1.121
		c0.087,0.083,0.182,0.163,0.275,0.24c0.576,0.516,1.302,0.969,2.155,1.352c0.884,0.396,1.991,0.596,3.287,0.596
		c1.434,0,2.8-0.281,4.065-0.842c1.27-0.56,2.374-1.365,3.283-2.396c0.905-1.022,1.626-2.266,2.145-3.695
		c0.521-1.431,0.783-3.037,0.783-4.777C152.137,146.961,151.904,145.395,151.445,143.987z M145.402,148.766
		c0,0.952-0.126,1.806-0.372,2.532c-0.239,0.714-0.574,1.315-0.986,1.788c-0.414,0.471-0.883,0.819-1.432,1.065
		c-1.178,0.524-2.644,0.487-3.65-0.091c-0.55-0.316-1.019-0.737-1.395-1.253c-0.386-0.53-0.679-1.156-0.871-1.858
		c-0.201-0.729-0.303-1.49-0.303-2.268c0-1.027,0.137-1.914,0.406-2.639c0.265-0.712,0.615-1.308,1.043-1.77
		c0.423-0.459,0.89-0.79,1.426-1.012s1.104-0.335,1.691-0.335c0.655,0,1.232,0.13,1.768,0.396c0.528,0.263,0.99,0.644,1.374,1.131
		c0.394,0.502,0.713,1.125,0.947,1.846C145.282,147.032,145.402,147.861,145.402,148.766z"/>
	<path d="M81.562,96.739h-2.54c-1.283,0-2.224,0.667-2.64,1.848l-5.212,13.011c-0.167,0.439-0.339,0.908-0.518,1.403
		c-0.107,0.304-0.21,0.596-0.304,0.874c-0.094-0.281-0.195-0.571-0.305-0.874c-0.178-0.496-0.349-0.964-0.521-1.416l-5.196-12.972
		c-0.428-1.207-1.355-1.874-2.609-1.874h-2.583c-1.395,0-2.3,0.83-2.482,2.305l-2.092,25.715c-0.057,0.792,0.127,1.422,0.543,1.866
		c0.414,0.445,1.025,0.67,1.819,0.67h1.844c1.469,0,2.374-0.842,2.484-2.308l1.107-14.65c0.009-0.179,0.02-0.361,0.027-0.551
		c0.106,0.281,0.209,0.544,0.306,0.79l4.171,9.888c0.435,1.196,1.349,1.829,2.647,1.829h1.721c1.253,0,2.178-0.65,2.592-1.793
		l4.229-9.935c0.081-0.202,0.163-0.418,0.248-0.646c0.012,0.148,0.026,0.291,0.041,0.43l1.105,14.638
		c0.114,1.466,1.019,2.308,2.486,2.308h1.844c0.794,0,1.405-0.225,1.819-0.67c0.416-0.444,0.599-1.074,0.541-1.873l-2.088-25.704
		C83.938,97.58,83.03,96.739,81.562,96.739z"/>
	<path d="M109.209,107.711c-1.112-1.01-2.421-1.815-3.891-2.395c-2.941-1.153-6.525-1.153-9.467,0
		c-1.473,0.579-2.775,1.386-3.874,2.397c-1.11,1.023-1.993,2.269-2.629,3.703c-0.641,1.438-0.966,3.02-0.966,4.699
		c0,1.709,0.325,3.299,0.966,4.725c0.636,1.42,1.519,2.664,2.624,3.697c1.104,1.032,2.411,1.838,3.884,2.401
		c1.469,0.561,3.061,0.847,4.727,0.847c1.671,0,3.262-0.286,4.729-0.847c1.472-0.563,2.788-1.369,3.902-2.398
		c1.12-1.032,2.01-2.277,2.65-3.7c0.639-1.427,0.964-3.016,0.964-4.725c0-1.679-0.324-3.26-0.964-4.699
		C111.228,109.98,110.334,108.732,109.209,107.711z M98.467,121.496c-0.66-0.273-1.239-0.667-1.729-1.169
		c-0.494-0.508-0.894-1.121-1.182-1.823c-0.291-0.701-0.438-1.501-0.438-2.388c0-0.857,0.146-1.654,0.438-2.371
		c0.291-0.714,0.688-1.331,1.18-1.838c0.492-0.502,1.071-0.897,1.731-1.171c0.658-0.275,1.369-0.414,2.116-0.414
		c0.751,0,1.463,0.139,2.121,0.416c0.66,0.275,1.253,0.67,1.756,1.175c0.502,0.503,0.904,1.118,1.194,1.832
		c0.291,0.718,0.44,1.516,0.44,2.371c0,0.883-0.146,1.686-0.438,2.391c-0.29,0.697-0.691,1.31-1.196,1.813
		c-0.503,0.504-1.096,0.9-1.758,1.177C101.388,122.048,99.785,122.05,98.467,121.496z"/>
	<path d="M159.759,107.711c-1.11-1.01-2.42-1.815-3.891-2.395c-2.94-1.153-6.524-1.154-9.466,0.002
		c-1.47,0.577-2.773,1.384-3.874,2.396c-1.108,1.023-1.994,2.269-2.63,3.703c-0.639,1.438-0.964,3.02-0.964,4.699
		c0,1.709,0.325,3.299,0.966,4.725c0.637,1.42,1.52,2.664,2.626,3.697c1.103,1.032,2.408,1.838,3.884,2.401
		c1.467,0.561,3.056,0.847,4.727,0.847c1.668,0,3.259-0.286,4.727-0.847c1.473-0.563,2.785-1.369,3.9-2.398
		c1.12-1.032,2.012-2.277,2.65-3.7c0.641-1.427,0.966-3.016,0.966-4.725c0-1.679-0.325-3.26-0.963-4.699
		C161.778,109.98,160.884,108.732,159.759,107.711z M149.016,121.496c-0.655-0.273-1.238-0.667-1.729-1.169
		c-0.494-0.508-0.891-1.121-1.182-1.823c-0.288-0.701-0.438-1.501-0.438-2.388c0-0.857,0.149-1.654,0.439-2.371
		c0.291-0.714,0.688-1.331,1.178-1.838c0.492-0.502,1.075-0.897,1.733-1.171c0.657-0.275,1.37-0.414,2.118-0.414
		c0.747,0,1.458,0.139,2.119,0.416c0.659,0.275,1.252,0.67,1.756,1.175c0.504,0.503,0.903,1.118,1.195,1.832
		c0.291,0.718,0.439,1.516,0.439,2.371c0,0.883-0.148,1.686-0.439,2.391c-0.29,0.697-0.691,1.31-1.195,1.813s-1.097,0.9-1.756,1.177
		C151.938,122.048,150.335,122.05,149.016,121.496z"/>
	<path d="M184.751,106.542c-1.405-1.39-3.389-2.094-5.899-2.094c-1.147,0-2.184,0.166-3.078,0.493
		c-0.876,0.321-1.651,0.727-2.31,1.203c-0.495,0.359-0.934,0.75-1.312,1.163c-0.027-1.506-0.899-2.368-2.402-2.368h-1.601
		c-1.527,0-2.402,0.891-2.402,2.444v17.466c0,1.555,0.875,2.445,2.402,2.445h1.805c1.528,0,2.404-0.891,2.404-2.445v-8.076
		c0-0.847,0.132-1.657,0.391-2.409c0.26-0.749,0.624-1.412,1.085-1.968c0.447-0.546,1.001-0.978,1.641-1.285
		c0.638-0.306,1.372-0.462,2.187-0.462c1.545,0,1.886,0.602,1.993,0.798c0.375,0.667,0.565,1.59,0.565,2.741v10.661
		c0,1.555,0.89,2.445,2.444,2.445h1.763c1.554,0,2.445-0.891,2.445-2.445v-11.727C186.872,110.147,186.159,107.936,184.751,106.542z
		"/>
	<path d="M125.454,121.782c-0.325-0.024-0.681-0.097-1.057-0.213c-0.351-0.109-0.678-0.294-0.969-0.55
		c-0.292-0.255-0.54-0.605-0.739-1.04c-0.198-0.431-0.299-1.026-0.299-1.771v-7.795h2.753c1.292,0,2.003-0.727,2.003-2.045v-0.695
		l-0.003-0.026c-0.318,0.062-0.64,0.105-0.961,0.105c-1.785,0-3.448-0.96-4.343-2.505c-0.371-0.647-1.458-2.901-0.455-5.372
		c-0.291-0.138-0.623-0.233-1.04-0.233h-1.638c-1.318,0-2.044,0.728-2.044,2.044v3.941h-0.868c-1.317,0-2.043,0.727-2.043,2.046
		v0.695c0,1.318,0.711,2.045,2.003,2.045h0.786v8.698c0,1.469,0.266,2.727,0.794,3.734c0.525,1.007,1.203,1.836,2.016,2.464
		c0.809,0.626,1.731,1.085,2.733,1.367c0.994,0.279,1.984,0.422,2.937,0.422c0.786,0,1.373-0.148,1.788-0.452
		c0.441-0.322,0.664-0.857,0.664-1.592v-1.271c0-0.664-0.166-1.157-0.487-1.465C126.667,122.021,126.167,121.845,125.454,121.782z"
		/>
	<path d="M132.738,104.939h-0.42c-1.527,0-2.404,0.891-2.404,2.444v17.466c0,1.555,0.877,2.445,2.404,2.445h1.803
		c1.529,0,2.407-0.891,2.407-2.445v-17.215C135.304,107.062,134.038,106.151,132.738,104.939z"/>
	<path d="M131.279,95.02c-11.303,2.147-9.828,7.814-8.687,9.794c1.146,1.979,3.675,2.659,5.656,1.514
		c1.981-1.141,2.66-3.673,1.512-5.655C128.62,98.694,129.299,96.161,131.279,95.02z"/>
	<path d="M133.349,86.188c-2.286,0-4.141,1.851-4.141,4.139c0,2.287,1.854,4.137,4.141,4.137c2.285,0,4.138,1.854,4.138,4.142
		C141.278,87.743,135.634,86.188,133.349,86.188z"/>
	<path d="M142.586,99.159c-1.981-1.143-4.509-0.465-5.651,1.513c-1.146,1.982-3.679,2.658-5.655,1.518
		c7.509,8.711,11.681,4.603,12.823,2.624C145.243,102.834,144.567,100.303,142.586,99.159z"/>
	<g>
		<path d="M69.839,176.37c0-0.264,0.132-0.396,0.396-0.396h2.28c0.416,0,0.74,0.018,0.972,0.054
			c0.232,0.036,0.437,0.094,0.612,0.174c0.408,0.185,0.732,0.464,0.972,0.84c0.24,0.376,0.36,0.836,0.36,1.38
			c0,0.545-0.134,1.028-0.402,1.452c-0.268,0.425-0.638,0.717-1.109,0.876v0.024c0.016,0.032,0.04,0.064,0.072,0.096
			c0.048,0.064,0.107,0.16,0.18,0.288l1.523,2.82c0.08,0.136,0.095,0.248,0.042,0.336c-0.052,0.088-0.153,0.132-0.306,0.132h-0.479
			c-0.225,0-0.381-0.092-0.469-0.276l-1.655-3.096h-1.813v2.976c0,0.265-0.132,0.396-0.396,0.396h-0.385
			c-0.264,0-0.396-0.132-0.396-0.396V176.37z M72.719,180.042c0.464,0,0.832-0.142,1.104-0.426c0.271-0.284,0.407-0.666,0.407-1.146
			c0-0.305-0.065-0.572-0.197-0.805c-0.133-0.231-0.33-0.403-0.595-0.516c-0.111-0.048-0.239-0.084-0.384-0.108
			c-0.144-0.023-0.352-0.036-0.624-0.036h-1.416v3.036H72.719z"/>
		<path d="M76.511,181.41c0-0.479,0.078-0.916,0.234-1.308c0.155-0.393,0.367-0.727,0.636-1.002c0.268-0.276,0.588-0.49,0.96-0.643
			c0.372-0.151,0.773-0.228,1.206-0.228c0.416,0,0.788,0.072,1.116,0.216c0.327,0.144,0.602,0.344,0.821,0.6
			c0.221,0.257,0.389,0.561,0.504,0.912c0.116,0.353,0.175,0.74,0.175,1.164c0,0.112-0.038,0.208-0.114,0.288
			s-0.174,0.12-0.294,0.12h-4.057c0.017,0.328,0.084,0.62,0.204,0.876s0.276,0.472,0.469,0.648c0.191,0.176,0.409,0.308,0.653,0.396
			s0.502,0.132,0.774,0.132c0.336,0,0.628-0.054,0.876-0.162c0.248-0.107,0.439-0.214,0.576-0.317
			c0.239-0.128,0.42-0.084,0.54,0.132l0.107,0.18c0.064,0.104,0.086,0.202,0.066,0.294c-0.021,0.093-0.082,0.17-0.187,0.234
			c-0.088,0.064-0.199,0.134-0.336,0.21c-0.136,0.076-0.29,0.146-0.462,0.21c-0.172,0.064-0.364,0.118-0.576,0.162
			s-0.438,0.065-0.678,0.065c-0.479,0-0.916-0.082-1.308-0.245c-0.393-0.164-0.73-0.389-1.015-0.673
			c-0.283-0.283-0.504-0.619-0.659-1.008C76.589,182.276,76.511,181.858,76.511,181.41z M80.999,180.762
			c-0.017-0.536-0.166-0.94-0.45-1.213c-0.284-0.271-0.626-0.407-1.026-0.407c-0.448,0-0.834,0.142-1.158,0.426
			c-0.323,0.284-0.529,0.682-0.617,1.194H80.999z"/>
		<path d="M83.194,183.93c-0.104-0.064-0.16-0.145-0.168-0.24s0.021-0.196,0.084-0.3l0.12-0.168c0.08-0.104,0.162-0.16,0.246-0.168
			s0.187,0.02,0.307,0.084c0.136,0.088,0.327,0.191,0.575,0.312s0.553,0.18,0.912,0.18c0.304,0,0.552-0.069,0.744-0.21
			c0.192-0.14,0.288-0.338,0.288-0.594c0-0.2-0.078-0.36-0.234-0.479c-0.155-0.12-0.35-0.23-0.582-0.33
			c-0.231-0.101-0.481-0.196-0.75-0.288c-0.268-0.092-0.518-0.212-0.75-0.36c-0.231-0.147-0.426-0.33-0.582-0.546
			c-0.155-0.216-0.233-0.496-0.233-0.84c0-0.288,0.058-0.542,0.174-0.762c0.116-0.221,0.274-0.402,0.474-0.547
			c0.2-0.144,0.435-0.253,0.702-0.329c0.269-0.076,0.55-0.114,0.847-0.114c0.424,0,0.773,0.056,1.05,0.168
			c0.275,0.112,0.485,0.212,0.63,0.3c0.111,0.056,0.178,0.13,0.198,0.222c0.02,0.093-0.003,0.194-0.066,0.307l-0.108,0.18
			c-0.111,0.2-0.287,0.244-0.527,0.132c-0.128-0.072-0.294-0.147-0.498-0.228s-0.45-0.12-0.738-0.12s-0.53,0.064-0.726,0.191
			c-0.196,0.129-0.294,0.32-0.294,0.576c0,0.2,0.077,0.362,0.233,0.486s0.35,0.234,0.582,0.33s0.482,0.191,0.75,0.288
			c0.269,0.096,0.518,0.214,0.75,0.354c0.232,0.141,0.426,0.32,0.582,0.54c0.156,0.221,0.234,0.502,0.234,0.847
			c0,0.256-0.053,0.493-0.156,0.714c-0.104,0.22-0.252,0.41-0.444,0.569c-0.191,0.16-0.422,0.284-0.689,0.372
			c-0.269,0.088-0.566,0.132-0.895,0.132c-0.256,0-0.49-0.021-0.701-0.065c-0.213-0.044-0.402-0.1-0.57-0.168
			s-0.318-0.14-0.45-0.216S83.274,183.994,83.194,183.93z"/>
		<path d="M89.086,177.162c-0.264,0-0.396-0.132-0.396-0.396v-0.396c0-0.264,0.132-0.396,0.396-0.396h0.408
			c0.265,0,0.396,0.132,0.396,0.396v0.396c0,0.264-0.132,0.396-0.396,0.396H89.086z M88.702,178.77c0-0.265,0.132-0.396,0.396-0.396
			h0.372c0.264,0,0.396,0.132,0.396,0.396v5.279c0,0.265-0.132,0.396-0.396,0.396h-0.372c-0.265,0-0.396-0.132-0.396-0.396V178.77z"
			/>
		<path d="M91.307,183.93c-0.104-0.064-0.16-0.145-0.168-0.24s0.021-0.196,0.084-0.3l0.12-0.168c0.08-0.104,0.162-0.16,0.246-0.168
			s0.187,0.02,0.307,0.084c0.136,0.088,0.327,0.191,0.575,0.312s0.553,0.18,0.912,0.18c0.304,0,0.552-0.069,0.744-0.21
			c0.192-0.14,0.288-0.338,0.288-0.594c0-0.2-0.078-0.36-0.234-0.479c-0.155-0.12-0.35-0.23-0.582-0.33
			c-0.231-0.101-0.481-0.196-0.75-0.288c-0.268-0.092-0.518-0.212-0.75-0.36c-0.231-0.147-0.426-0.33-0.582-0.546
			c-0.155-0.216-0.233-0.496-0.233-0.84c0-0.288,0.058-0.542,0.174-0.762c0.116-0.221,0.274-0.402,0.474-0.547
			c0.2-0.144,0.435-0.253,0.702-0.329c0.269-0.076,0.55-0.114,0.847-0.114c0.424,0,0.773,0.056,1.05,0.168
			c0.275,0.112,0.485,0.212,0.63,0.3c0.111,0.056,0.178,0.13,0.198,0.222c0.02,0.093-0.003,0.194-0.066,0.307l-0.108,0.18
			c-0.111,0.2-0.287,0.244-0.527,0.132c-0.128-0.072-0.294-0.147-0.498-0.228s-0.45-0.12-0.738-0.12s-0.53,0.064-0.726,0.191
			c-0.196,0.129-0.294,0.32-0.294,0.576c0,0.2,0.077,0.362,0.233,0.486s0.35,0.234,0.582,0.33s0.482,0.191,0.75,0.288
			c0.269,0.096,0.518,0.214,0.75,0.354c0.232,0.141,0.426,0.32,0.582,0.54c0.156,0.221,0.234,0.502,0.234,0.847
			c0,0.256-0.053,0.493-0.156,0.714c-0.104,0.22-0.252,0.41-0.444,0.569c-0.191,0.16-0.422,0.284-0.689,0.372
			c-0.269,0.088-0.566,0.132-0.895,0.132c-0.256,0-0.49-0.021-0.701-0.065c-0.213-0.044-0.402-0.1-0.57-0.168
			s-0.318-0.14-0.45-0.216S91.387,183.994,91.307,183.93z"/>
		<path d="M97.103,179.381h-0.42c-0.256,0-0.384-0.132-0.384-0.396v-0.156c0-0.264,0.132-0.396,0.396-0.396h0.433v-1.332
			c0-0.265,0.132-0.396,0.396-0.396h0.349c0.264,0,0.396,0.132,0.396,0.396v1.332h1.056c0.265,0,0.396,0.132,0.396,0.396v0.156
			c0,0.264-0.128,0.396-0.384,0.396h-1.068v2.7c0,0.288,0.04,0.521,0.12,0.696s0.178,0.312,0.294,0.408
			c0.116,0.096,0.24,0.162,0.372,0.198c0.132,0.035,0.254,0.058,0.366,0.065c0.159,0.017,0.27,0.052,0.33,0.108
			c0.06,0.056,0.09,0.151,0.09,0.288v0.252c0,0.264-0.16,0.396-0.48,0.396c-0.304,0-0.592-0.044-0.864-0.132
			c-0.271-0.088-0.51-0.224-0.714-0.408c-0.204-0.184-0.368-0.416-0.491-0.696c-0.125-0.279-0.187-0.611-0.187-0.995V179.381z"/>
		<path d="M101.302,177.162c-0.264,0-0.396-0.132-0.396-0.396v-0.396c0-0.264,0.132-0.396,0.396-0.396h0.408
			c0.265,0,0.396,0.132,0.396,0.396v0.396c0,0.264-0.132,0.396-0.396,0.396H101.302z M100.918,178.77
			c0-0.265,0.132-0.396,0.396-0.396h0.372c0.264,0,0.396,0.132,0.396,0.396v5.279c0,0.265-0.132,0.396-0.396,0.396h-0.372
			c-0.265,0-0.396-0.132-0.396-0.396V178.77z"/>
		<path d="M103.15,178.83c-0.048-0.136-0.044-0.246,0.013-0.33c0.056-0.084,0.156-0.126,0.3-0.126h0.408
			c0.224,0,0.372,0.108,0.443,0.324l1.368,3.78c0.032,0.088,0.063,0.178,0.09,0.27c0.028,0.093,0.05,0.183,0.066,0.271
			c0.024,0.096,0.044,0.191,0.06,0.288h0.024c0.024-0.097,0.048-0.192,0.072-0.288c0.016-0.088,0.036-0.178,0.06-0.271
			c0.024-0.092,0.052-0.182,0.084-0.27l1.368-3.78c0.072-0.216,0.22-0.324,0.444-0.324h0.407c0.145,0,0.246,0.042,0.307,0.126
			c0.06,0.084,0.062,0.194,0.006,0.33l-1.968,5.305c-0.072,0.208-0.221,0.312-0.444,0.312h-0.672c-0.225,0-0.372-0.104-0.444-0.312
			L103.15,178.83z"/>
		<path d="M109.331,181.41c0-0.479,0.078-0.916,0.234-1.308c0.155-0.393,0.367-0.727,0.636-1.002c0.268-0.276,0.588-0.49,0.96-0.643
			c0.372-0.151,0.773-0.228,1.206-0.228c0.416,0,0.788,0.072,1.116,0.216c0.327,0.144,0.602,0.344,0.821,0.6
			c0.221,0.257,0.389,0.561,0.504,0.912c0.116,0.353,0.175,0.74,0.175,1.164c0,0.112-0.038,0.208-0.114,0.288
			s-0.174,0.12-0.294,0.12h-4.057c0.017,0.328,0.084,0.62,0.204,0.876s0.276,0.472,0.469,0.648c0.191,0.176,0.409,0.308,0.653,0.396
			s0.502,0.132,0.774,0.132c0.336,0,0.628-0.054,0.876-0.162c0.248-0.107,0.439-0.214,0.576-0.317
			c0.239-0.128,0.42-0.084,0.54,0.132l0.107,0.18c0.064,0.104,0.086,0.202,0.066,0.294c-0.021,0.093-0.082,0.17-0.187,0.234
			c-0.088,0.064-0.199,0.134-0.336,0.21c-0.136,0.076-0.29,0.146-0.462,0.21c-0.172,0.064-0.364,0.118-0.576,0.162
			s-0.438,0.065-0.678,0.065c-0.479,0-0.916-0.082-1.308-0.245c-0.393-0.164-0.73-0.389-1.015-0.673
			c-0.283-0.283-0.504-0.619-0.659-1.008C109.409,182.276,109.331,181.858,109.331,181.41z M113.819,180.762
			c-0.017-0.536-0.166-0.94-0.45-1.213c-0.284-0.271-0.626-0.407-1.026-0.407c-0.448,0-0.834,0.142-1.158,0.426
			c-0.323,0.284-0.529,0.682-0.617,1.194H113.819z"/>
		<path d="M119.111,183.713c-0.08-0.071-0.131-0.151-0.15-0.239s0.014-0.192,0.103-0.313l0.203-0.288
			c0.145-0.184,0.324-0.208,0.54-0.071c0.072,0.056,0.168,0.122,0.288,0.197c0.12,0.076,0.259,0.15,0.414,0.223
			c0.156,0.071,0.33,0.134,0.522,0.186c0.191,0.052,0.399,0.078,0.624,0.078c0.456,0,0.817-0.11,1.086-0.33
			c0.268-0.22,0.401-0.514,0.401-0.882c0-0.313-0.1-0.568-0.3-0.769c-0.2-0.199-0.452-0.378-0.756-0.533
			c-0.304-0.156-0.632-0.309-0.983-0.456c-0.353-0.148-0.681-0.32-0.984-0.517c-0.305-0.195-0.557-0.438-0.756-0.726
			c-0.2-0.288-0.3-0.652-0.3-1.092c0-0.36,0.069-0.685,0.21-0.973c0.14-0.288,0.334-0.533,0.582-0.737
			c0.247-0.204,0.54-0.362,0.876-0.475c0.336-0.111,0.695-0.168,1.08-0.168c0.247,0,0.483,0.022,0.707,0.066
			c0.225,0.044,0.429,0.098,0.612,0.162c0.185,0.063,0.344,0.134,0.48,0.21c0.136,0.076,0.243,0.146,0.323,0.21
			c0.192,0.136,0.232,0.315,0.12,0.54l-0.168,0.3c-0.071,0.128-0.153,0.194-0.246,0.198c-0.092,0.004-0.189-0.026-0.294-0.09
			c-0.16-0.097-0.37-0.202-0.63-0.318s-0.569-0.174-0.93-0.174c-0.44,0-0.804,0.105-1.092,0.317s-0.433,0.503-0.433,0.87
			c0,0.305,0.101,0.552,0.301,0.744c0.199,0.192,0.451,0.362,0.756,0.51c0.304,0.148,0.632,0.292,0.983,0.433
			c0.353,0.14,0.681,0.31,0.984,0.51s0.556,0.446,0.756,0.738s0.3,0.666,0.3,1.122c0,0.336-0.06,0.649-0.18,0.941
			s-0.296,0.546-0.528,0.762c-0.231,0.217-0.514,0.389-0.846,0.517s-0.71,0.191-1.134,0.191c-0.305,0-0.59-0.029-0.858-0.09
			c-0.268-0.06-0.51-0.136-0.726-0.228s-0.406-0.188-0.57-0.288S119.207,183.793,119.111,183.713z"/>
		<path d="M125.314,181.41c0-0.479,0.078-0.916,0.234-1.308c0.155-0.393,0.367-0.727,0.636-1.002c0.268-0.276,0.588-0.49,0.96-0.643
			c0.372-0.151,0.773-0.228,1.206-0.228c0.416,0,0.788,0.072,1.116,0.216c0.327,0.144,0.602,0.344,0.821,0.6
			c0.221,0.257,0.389,0.561,0.504,0.912c0.116,0.353,0.175,0.74,0.175,1.164c0,0.112-0.038,0.208-0.114,0.288
			s-0.174,0.12-0.294,0.12h-4.057c0.017,0.328,0.084,0.62,0.204,0.876s0.276,0.472,0.469,0.648c0.191,0.176,0.409,0.308,0.653,0.396
			s0.502,0.132,0.774,0.132c0.336,0,0.628-0.054,0.876-0.162c0.248-0.107,0.439-0.214,0.576-0.317
			c0.239-0.128,0.42-0.084,0.54,0.132l0.107,0.18c0.064,0.104,0.086,0.202,0.066,0.294c-0.021,0.093-0.082,0.17-0.187,0.234
			c-0.088,0.064-0.199,0.134-0.336,0.21c-0.136,0.076-0.29,0.146-0.462,0.21c-0.172,0.064-0.364,0.118-0.576,0.162
			s-0.438,0.065-0.678,0.065c-0.479,0-0.916-0.082-1.308-0.245c-0.393-0.164-0.73-0.389-1.015-0.673
			c-0.283-0.283-0.504-0.619-0.659-1.008C125.393,182.276,125.314,181.858,125.314,181.41z M129.803,180.762
			c-0.017-0.536-0.166-0.94-0.45-1.213c-0.284-0.271-0.626-0.407-1.026-0.407c-0.448,0-0.834,0.142-1.158,0.426
			c-0.323,0.284-0.529,0.682-0.617,1.194H129.803z"/>
		<path d="M132.238,178.77c0-0.265,0.132-0.396,0.396-0.396h0.336c0.264,0,0.396,0.132,0.396,0.396v0.54
			c0,0.08-0.008,0.16-0.023,0.239c-0.009,0.032-0.013,0.068-0.013,0.108h0.024c0.056-0.128,0.146-0.276,0.27-0.444
			s0.282-0.323,0.475-0.468c0.191-0.144,0.416-0.266,0.672-0.366c0.256-0.1,0.552-0.149,0.888-0.149
			c0.721,0,1.246,0.194,1.578,0.582s0.498,0.97,0.498,1.746v3.491c0,0.265-0.132,0.396-0.396,0.396h-0.372
			c-0.265,0-0.396-0.132-0.396-0.396v-3.228c0-0.216-0.014-0.416-0.042-0.6c-0.028-0.185-0.082-0.345-0.162-0.48
			s-0.196-0.244-0.348-0.324c-0.152-0.079-0.348-0.12-0.588-0.12c-0.296,0-0.568,0.059-0.816,0.175
			c-0.248,0.115-0.462,0.273-0.642,0.474c-0.181,0.2-0.32,0.438-0.42,0.714c-0.101,0.276-0.15,0.57-0.15,0.882v2.508
			c0,0.265-0.132,0.396-0.396,0.396h-0.372c-0.265,0-0.396-0.132-0.396-0.396V178.77z"/>
		<path d="M139.09,183.93c-0.104-0.064-0.16-0.145-0.168-0.24s0.021-0.196,0.084-0.3l0.12-0.168c0.08-0.104,0.162-0.16,0.246-0.168
			s0.187,0.02,0.307,0.084c0.136,0.088,0.327,0.191,0.575,0.312s0.553,0.18,0.912,0.18c0.304,0,0.552-0.069,0.744-0.21
			c0.192-0.14,0.288-0.338,0.288-0.594c0-0.2-0.078-0.36-0.234-0.479c-0.155-0.12-0.35-0.23-0.582-0.33
			c-0.231-0.101-0.481-0.196-0.75-0.288c-0.268-0.092-0.518-0.212-0.75-0.36c-0.231-0.147-0.426-0.33-0.582-0.546
			c-0.155-0.216-0.233-0.496-0.233-0.84c0-0.288,0.058-0.542,0.174-0.762c0.116-0.221,0.274-0.402,0.474-0.547
			c0.2-0.144,0.435-0.253,0.702-0.329c0.269-0.076,0.55-0.114,0.847-0.114c0.424,0,0.773,0.056,1.05,0.168
			c0.275,0.112,0.485,0.212,0.63,0.3c0.111,0.056,0.178,0.13,0.198,0.222c0.02,0.093-0.003,0.194-0.066,0.307l-0.108,0.18
			c-0.111,0.2-0.287,0.244-0.527,0.132c-0.128-0.072-0.294-0.147-0.498-0.228s-0.45-0.12-0.738-0.12s-0.53,0.064-0.726,0.191
			c-0.196,0.129-0.294,0.32-0.294,0.576c0,0.2,0.077,0.362,0.233,0.486s0.35,0.234,0.582,0.33s0.482,0.191,0.75,0.288
			c0.269,0.096,0.518,0.214,0.75,0.354c0.232,0.141,0.426,0.32,0.582,0.54c0.156,0.221,0.234,0.502,0.234,0.847
			c0,0.256-0.053,0.493-0.156,0.714c-0.104,0.22-0.252,0.41-0.444,0.569c-0.191,0.16-0.422,0.284-0.689,0.372
			c-0.269,0.088-0.566,0.132-0.895,0.132c-0.256,0-0.49-0.021-0.701-0.065c-0.213-0.044-0.402-0.1-0.57-0.168
			s-0.318-0.14-0.45-0.216S139.17,183.994,139.09,183.93z"/>
		<path d="M144.202,181.398c0-0.456,0.086-0.878,0.258-1.267c0.172-0.388,0.403-0.724,0.696-1.008
			c0.291-0.283,0.636-0.504,1.031-0.66c0.396-0.155,0.822-0.233,1.278-0.233s0.882,0.078,1.278,0.233
			c0.396,0.156,0.741,0.377,1.038,0.66c0.296,0.284,0.529,0.62,0.701,1.008c0.172,0.389,0.259,0.811,0.259,1.267
			c0,0.464-0.087,0.89-0.259,1.278c-0.172,0.388-0.405,0.724-0.701,1.008c-0.297,0.284-0.643,0.506-1.038,0.666
			c-0.396,0.159-0.822,0.239-1.278,0.239s-0.882-0.08-1.278-0.239c-0.396-0.16-0.74-0.382-1.031-0.666
			c-0.293-0.284-0.524-0.62-0.696-1.008C144.288,182.288,144.202,181.862,144.202,181.398z M145.378,181.398
			c0,0.32,0.056,0.614,0.168,0.882c0.112,0.269,0.262,0.498,0.45,0.69c0.188,0.191,0.408,0.342,0.66,0.449
			c0.252,0.108,0.521,0.162,0.81,0.162s0.558-0.054,0.81-0.162c0.252-0.107,0.475-0.258,0.666-0.449
			c0.192-0.192,0.343-0.422,0.45-0.69c0.108-0.268,0.162-0.562,0.162-0.882c0-0.313-0.054-0.601-0.162-0.864
			c-0.107-0.264-0.258-0.492-0.45-0.684c-0.191-0.192-0.414-0.343-0.666-0.45c-0.252-0.108-0.521-0.162-0.81-0.162
			s-0.558,0.054-0.81,0.162c-0.252,0.107-0.473,0.258-0.66,0.45c-0.188,0.191-0.338,0.42-0.45,0.684
			S145.378,181.085,145.378,181.398z"/>
		<path d="M152.026,178.77c0-0.265,0.132-0.396,0.396-0.396h0.336c0.264,0,0.396,0.132,0.396,0.396v0.695
			c0,0.064-0.002,0.125-0.006,0.181s-0.01,0.104-0.018,0.144c-0.009,0.048-0.013,0.093-0.013,0.132h0.024
			c0.063-0.199,0.154-0.396,0.27-0.588c0.116-0.191,0.254-0.361,0.414-0.51c0.16-0.147,0.338-0.268,0.534-0.36
			c0.196-0.092,0.41-0.138,0.643-0.138c0.256,0,0.384,0.132,0.384,0.396v0.336c0,0.264-0.145,0.396-0.433,0.396
			c-0.296,0-0.554,0.074-0.773,0.223c-0.221,0.147-0.404,0.338-0.552,0.569c-0.148,0.232-0.259,0.498-0.33,0.798
			c-0.072,0.301-0.108,0.599-0.108,0.895v2.111c0,0.265-0.132,0.396-0.396,0.396h-0.372c-0.265,0-0.396-0.132-0.396-0.396V178.77z"
			/>
		<path d="M159.538,176.37c0-0.264,0.132-0.396,0.396-0.396h0.385c0.264,0,0.396,0.132,0.396,0.396v3.168h1.272l1.979-3.3
			c0.096-0.176,0.252-0.264,0.468-0.264h0.444c0.16,0,0.266,0.046,0.318,0.138c0.052,0.092,0.037,0.206-0.042,0.342l-2.196,3.54
			v0.024l2.352,3.96c0.088,0.136,0.106,0.248,0.055,0.336c-0.053,0.088-0.158,0.132-0.318,0.132h-0.492
			c-0.208,0-0.364-0.092-0.468-0.276l-2.1-3.611h-1.272v3.491c0,0.265-0.132,0.396-0.396,0.396h-0.385
			c-0.264,0-0.396-0.132-0.396-0.396V176.37z"/>
		<path d="M166.941,177.162c-0.264,0-0.396-0.132-0.396-0.396v-0.396c0-0.264,0.132-0.396,0.396-0.396h0.408
			c0.265,0,0.396,0.132,0.396,0.396v0.396c0,0.264-0.132,0.396-0.396,0.396H166.941z M166.558,178.77
			c0-0.265,0.132-0.396,0.396-0.396h0.372c0.264,0,0.396,0.132,0.396,0.396v5.279c0,0.265-0.132,0.396-0.396,0.396h-0.372
			c-0.265,0-0.396-0.132-0.396-0.396V178.77z"/>
		<path d="M169.689,179.381h-0.42c-0.256,0-0.384-0.132-0.384-0.396v-0.156c0-0.264,0.132-0.396,0.396-0.396h0.433v-1.332
			c0-0.265,0.132-0.396,0.396-0.396h0.349c0.264,0,0.396,0.132,0.396,0.396v1.332h1.056c0.265,0,0.396,0.132,0.396,0.396v0.156
			c0,0.264-0.128,0.396-0.384,0.396h-1.068v2.7c0,0.288,0.04,0.521,0.12,0.696s0.178,0.312,0.294,0.408
			c0.116,0.096,0.24,0.162,0.372,0.198c0.132,0.035,0.254,0.058,0.366,0.065c0.159,0.017,0.27,0.052,0.33,0.108
			c0.06,0.056,0.09,0.151,0.09,0.288v0.252c0,0.264-0.16,0.396-0.48,0.396c-0.304,0-0.592-0.044-0.864-0.132
			c-0.271-0.088-0.51-0.224-0.714-0.408c-0.204-0.184-0.368-0.416-0.491-0.696c-0.125-0.279-0.187-0.611-0.187-0.995V179.381z"/>
	</g>
</g>
<g>
	<path fill="none" stroke="#FF0000" stroke-width="0.0028" stroke-miterlimit="10" d="M258.916,33.621
		c-10.957,0-19.841,8.883-19.841,19.842v158.74c0,10.959,8.884,19.843,19.841,19.843h158.741c10.961,0,19.844-8.884,19.844-19.843
		V53.463c0-10.959-8.883-19.842-19.844-19.842H258.916z"/>
	<circle fill="none" stroke="#FF0000" stroke-width="0.0028" stroke-miterlimit="10" cx="258.918" cy="212.203" r="4.961"/>
	<circle fill="none" stroke="#FF0000" stroke-width="0.0028" stroke-miterlimit="10" cx="417.659" cy="212.203" r="4.961"/>
	<circle fill="none" stroke="#FF0000" stroke-width="0.0028" stroke-miterlimit="10" cx="258.918" cy="53.463" r="4.961"/>
	<circle fill="none" stroke="#FF0000" stroke-width="0.0028" stroke-miterlimit="10" cx="417.659" cy="53.463" r="4.859"/>
	<g>
		<path d="M284.276,209.592c-0.046-0.159,0.014-0.238,0.179-0.238h0.179c0.125,0,0.204,0.06,0.238,0.179l0.98,3.016
			c0.017,0.052,0.032,0.104,0.047,0.158c0.014,0.054,0.026,0.104,0.038,0.148c0.017,0.058,0.031,0.108,0.043,0.153h0.017
			c0.012-0.045,0.025-0.096,0.043-0.153c0.011-0.045,0.025-0.095,0.042-0.148c0.018-0.055,0.034-0.106,0.052-0.158l0.996-3.007
			c0.034-0.114,0.114-0.171,0.239-0.171h0.204c0.125,0,0.204,0.057,0.238,0.171l0.997,3.007c0.018,0.052,0.034,0.104,0.051,0.158
			c0.018,0.054,0.031,0.104,0.043,0.148c0.018,0.058,0.031,0.108,0.043,0.153h0.017c0.006-0.051,0.018-0.102,0.034-0.153
			c0.012-0.045,0.024-0.094,0.038-0.145c0.015-0.051,0.033-0.105,0.056-0.162l0.979-3.016c0.034-0.119,0.114-0.179,0.239-0.179
			h0.179c0.159,0,0.216,0.079,0.17,0.238l-1.312,3.868c-0.034,0.119-0.114,0.179-0.239,0.179h-0.264
			c-0.125,0-0.204-0.06-0.238-0.179l-0.997-2.871c-0.018-0.052-0.034-0.104-0.051-0.158c-0.018-0.054-0.031-0.104-0.043-0.148
			c-0.017-0.052-0.028-0.103-0.034-0.153h-0.017c-0.012,0.051-0.026,0.102-0.043,0.153c-0.012,0.045-0.025,0.095-0.043,0.148
			c-0.017,0.055-0.034,0.106-0.051,0.158l-0.988,2.871c-0.034,0.119-0.113,0.179-0.238,0.179h-0.265
			c-0.125,0-0.207-0.06-0.247-0.179L284.276,209.592z"/>
		<path d="M291.059,209.592c-0.046-0.159,0.014-0.238,0.179-0.238h0.179c0.125,0,0.204,0.06,0.238,0.179l0.98,3.016
			c0.017,0.052,0.032,0.104,0.047,0.158c0.014,0.054,0.026,0.104,0.038,0.148c0.017,0.058,0.031,0.108,0.043,0.153h0.017
			c0.012-0.045,0.025-0.096,0.043-0.153c0.011-0.045,0.025-0.095,0.042-0.148c0.018-0.055,0.034-0.106,0.052-0.158l0.996-3.007
			c0.034-0.114,0.114-0.171,0.239-0.171h0.204c0.125,0,0.204,0.057,0.238,0.171l0.997,3.007c0.018,0.052,0.034,0.104,0.051,0.158
			c0.018,0.054,0.031,0.104,0.043,0.148c0.018,0.058,0.031,0.108,0.043,0.153h0.017c0.006-0.051,0.018-0.102,0.034-0.153
			c0.012-0.045,0.024-0.094,0.038-0.145c0.015-0.051,0.033-0.105,0.056-0.162l0.979-3.016c0.034-0.119,0.114-0.179,0.239-0.179
			h0.179c0.159,0,0.216,0.079,0.17,0.238l-1.312,3.868c-0.034,0.119-0.114,0.179-0.239,0.179h-0.264
			c-0.125,0-0.204-0.06-0.238-0.179l-0.997-2.871c-0.018-0.052-0.034-0.104-0.051-0.158c-0.018-0.054-0.031-0.104-0.043-0.148
			c-0.017-0.052-0.028-0.103-0.034-0.153h-0.017c-0.012,0.051-0.026,0.102-0.043,0.153c-0.012,0.045-0.025,0.095-0.043,0.148
			c-0.017,0.055-0.034,0.106-0.051,0.158l-0.988,2.871c-0.034,0.119-0.113,0.179-0.238,0.179h-0.265
			c-0.125,0-0.207-0.06-0.247-0.179L291.059,209.592z"/>
		<path d="M297.84,209.592c-0.046-0.159,0.014-0.238,0.179-0.238h0.179c0.125,0,0.204,0.06,0.238,0.179l0.98,3.016
			c0.017,0.052,0.032,0.104,0.047,0.158c0.014,0.054,0.026,0.104,0.038,0.148c0.017,0.058,0.031,0.108,0.043,0.153h0.017
			c0.012-0.045,0.025-0.096,0.043-0.153c0.011-0.045,0.025-0.095,0.042-0.148c0.018-0.055,0.034-0.106,0.052-0.158l0.996-3.007
			c0.034-0.114,0.114-0.171,0.239-0.171h0.204c0.125,0,0.204,0.057,0.238,0.171l0.997,3.007c0.018,0.052,0.034,0.104,0.051,0.158
			c0.018,0.054,0.031,0.104,0.043,0.148c0.018,0.058,0.031,0.108,0.043,0.153h0.017c0.006-0.051,0.018-0.102,0.034-0.153
			c0.012-0.045,0.024-0.094,0.038-0.145c0.015-0.051,0.033-0.105,0.056-0.162l0.979-3.016c0.034-0.119,0.114-0.179,0.239-0.179
			h0.179c0.159,0,0.216,0.079,0.17,0.238l-1.312,3.868c-0.034,0.119-0.114,0.179-0.239,0.179h-0.264
			c-0.125,0-0.204-0.06-0.238-0.179l-0.997-2.871c-0.018-0.052-0.034-0.104-0.051-0.158c-0.018-0.054-0.031-0.104-0.043-0.148
			c-0.017-0.052-0.028-0.103-0.034-0.153h-0.017c-0.012,0.051-0.026,0.102-0.043,0.153c-0.012,0.045-0.025,0.095-0.043,0.148
			c-0.017,0.055-0.034,0.106-0.051,0.158l-0.988,2.871c-0.034,0.119-0.113,0.179-0.238,0.179h-0.265
			c-0.125,0-0.207-0.06-0.247-0.179L297.84,209.592z"/>
		<path d="M304.81,213.136c0-0.136,0.068-0.204,0.204-0.204h0.281c0.137,0,0.205,0.068,0.205,0.204v0.29
			c0,0.142-0.068,0.213-0.205,0.213h-0.281c-0.136,0-0.204-0.071-0.204-0.213V213.136z"/>
		<path d="M306.743,209.567c0-0.143,0.07-0.213,0.213-0.213h0.153c0.137,0,0.204,0.07,0.204,0.213v0.494
			c0,0.045-0.001,0.086-0.004,0.123s-0.007,0.07-0.013,0.099c-0.006,0.033-0.012,0.063-0.018,0.085h0.018
			c0.051-0.143,0.131-0.281,0.238-0.418c0.108-0.136,0.233-0.255,0.375-0.357s0.295-0.185,0.46-0.247s0.332-0.094,0.503-0.094
			c0.397,0,0.701,0.089,0.911,0.269c0.211,0.179,0.347,0.447,0.409,0.805h0.018c0.057-0.136,0.138-0.269,0.242-0.396
			c0.105-0.127,0.228-0.242,0.366-0.345c0.14-0.103,0.29-0.183,0.452-0.243c0.162-0.06,0.333-0.089,0.516-0.089
			c0.517,0,0.883,0.145,1.099,0.435c0.216,0.289,0.324,0.698,0.324,1.227v2.514c0,0.142-0.071,0.213-0.213,0.213h-0.153
			c-0.143,0-0.214-0.071-0.214-0.213v-2.369c0-0.176-0.011-0.34-0.033-0.494c-0.023-0.153-0.068-0.288-0.137-0.404
			s-0.162-0.209-0.281-0.276c-0.119-0.068-0.275-0.103-0.469-0.103c-0.216,0-0.412,0.051-0.588,0.153s-0.328,0.238-0.456,0.409
			c-0.127,0.17-0.226,0.361-0.294,0.575c-0.067,0.213-0.102,0.43-0.102,0.651v1.857c0,0.142-0.068,0.213-0.205,0.213h-0.161
			c-0.143,0-0.214-0.071-0.214-0.213v-2.369c0-0.158-0.008-0.314-0.025-0.468c-0.017-0.153-0.057-0.29-0.119-0.409
			s-0.153-0.216-0.272-0.29c-0.119-0.073-0.281-0.11-0.485-0.11c-0.216,0-0.415,0.053-0.597,0.157
			c-0.182,0.105-0.337,0.243-0.465,0.413c-0.127,0.171-0.227,0.362-0.298,0.575s-0.106,0.428-0.106,0.644v1.857
			c0,0.142-0.068,0.213-0.204,0.213h-0.162c-0.143,0-0.213-0.071-0.213-0.213V209.567z"/>
		<path d="M314.163,211.475c0-0.318,0.06-0.612,0.18-0.882c0.119-0.27,0.281-0.504,0.485-0.703c0.204-0.198,0.443-0.354,0.716-0.469
			c0.272-0.113,0.564-0.17,0.877-0.17s0.606,0.057,0.882,0.17c0.275,0.114,0.516,0.271,0.721,0.469
			c0.204,0.199,0.366,0.434,0.485,0.703s0.179,0.563,0.179,0.882c0,0.324-0.06,0.623-0.179,0.898
			c-0.119,0.276-0.281,0.516-0.485,0.721c-0.205,0.204-0.443,0.363-0.716,0.477s-0.565,0.171-0.878,0.171s-0.606-0.058-0.882-0.171
			s-0.516-0.272-0.72-0.477c-0.204-0.205-0.366-0.444-0.485-0.721C314.223,212.098,314.163,211.799,314.163,211.475z
			 M314.76,211.475c0,0.25,0.044,0.481,0.132,0.694s0.208,0.397,0.358,0.554s0.326,0.278,0.528,0.366
			c0.201,0.089,0.419,0.133,0.651,0.133c0.228,0,0.441-0.044,0.644-0.133c0.201-0.088,0.378-0.21,0.528-0.366
			s0.27-0.341,0.357-0.554s0.132-0.444,0.132-0.694c0-0.244-0.044-0.47-0.132-0.678c-0.088-0.207-0.207-0.388-0.357-0.541
			s-0.327-0.272-0.528-0.357c-0.202-0.085-0.416-0.128-0.644-0.128c-0.232,0-0.45,0.043-0.651,0.128
			c-0.202,0.085-0.378,0.204-0.528,0.357s-0.271,0.334-0.358,0.541C314.804,211.005,314.76,211.231,314.76,211.475z"/>
		<path d="M319.829,209.874h-0.357c-0.137,0-0.205-0.068-0.205-0.205v-0.067c0-0.143,0.068-0.214,0.205-0.214h0.366v-1.005
			c0-0.142,0.071-0.213,0.213-0.213h0.153c0.137,0,0.205,0.071,0.205,0.213v1.005h0.868c0.143,0,0.214,0.071,0.214,0.214v0.067
			c0,0.137-0.071,0.205-0.214,0.205h-0.868v2.146c0,0.25,0.032,0.447,0.098,0.593c0.065,0.145,0.146,0.255,0.243,0.332
			c0.096,0.076,0.198,0.128,0.307,0.153c0.107,0.025,0.204,0.041,0.289,0.047c0.085,0.012,0.146,0.031,0.179,0.06
			c0.034,0.028,0.052,0.08,0.052,0.153v0.111c0,0.136-0.08,0.204-0.238,0.204c-0.472,0-0.841-0.137-1.108-0.409
			c-0.267-0.272-0.4-0.661-0.4-1.167V209.874z"/>
		<path d="M322.573,208.374c-0.137,0-0.205-0.068-0.205-0.204v-0.307c0-0.143,0.068-0.213,0.205-0.213h0.213
			c0.136,0,0.204,0.07,0.204,0.213v0.307c0,0.136-0.068,0.204-0.204,0.204H322.573z M322.386,209.567
			c0-0.143,0.07-0.213,0.213-0.213h0.162c0.136,0,0.204,0.07,0.204,0.213v3.859c0,0.142-0.068,0.213-0.204,0.213h-0.162
			c-0.143,0-0.213-0.071-0.213-0.213V209.567z"/>
		<path d="M323.987,211.475c0-0.318,0.06-0.612,0.18-0.882c0.119-0.27,0.281-0.504,0.485-0.703c0.204-0.198,0.443-0.354,0.716-0.469
			c0.272-0.113,0.564-0.17,0.877-0.17s0.606,0.057,0.882,0.17c0.275,0.114,0.516,0.271,0.721,0.469
			c0.204,0.199,0.366,0.434,0.485,0.703s0.179,0.563,0.179,0.882c0,0.324-0.06,0.623-0.179,0.898
			c-0.119,0.276-0.281,0.516-0.485,0.721c-0.205,0.204-0.443,0.363-0.716,0.477s-0.565,0.171-0.878,0.171s-0.606-0.058-0.882-0.171
			s-0.516-0.272-0.72-0.477c-0.204-0.205-0.366-0.444-0.485-0.721C324.047,212.098,323.987,211.799,323.987,211.475z
			 M324.584,211.475c0,0.25,0.044,0.481,0.132,0.694s0.208,0.397,0.358,0.554s0.326,0.278,0.528,0.366
			c0.201,0.089,0.419,0.133,0.651,0.133c0.228,0,0.441-0.044,0.644-0.133c0.201-0.088,0.378-0.21,0.528-0.366
			s0.27-0.341,0.357-0.554s0.132-0.444,0.132-0.694c0-0.244-0.044-0.47-0.132-0.678c-0.088-0.207-0.207-0.388-0.357-0.541
			s-0.327-0.272-0.528-0.357c-0.202-0.085-0.416-0.128-0.644-0.128c-0.232,0-0.45,0.043-0.651,0.128
			c-0.202,0.085-0.378,0.204-0.528,0.357s-0.271,0.334-0.358,0.541C324.628,211.005,324.584,211.231,324.584,211.475z"/>
		<path d="M329.525,209.567c0-0.143,0.07-0.213,0.213-0.213h0.153c0.137,0,0.204,0.07,0.204,0.213v0.494
			c0,0.045-0.001,0.086-0.004,0.123s-0.007,0.07-0.013,0.099c-0.006,0.033-0.012,0.063-0.018,0.085h0.018
			c0.039-0.097,0.104-0.209,0.196-0.337c0.091-0.128,0.208-0.25,0.354-0.366c0.145-0.116,0.314-0.214,0.511-0.294
			c0.196-0.079,0.419-0.119,0.669-0.119c0.267,0,0.491,0.037,0.673,0.11c0.182,0.074,0.329,0.183,0.443,0.324
			c0.113,0.142,0.196,0.316,0.247,0.523c0.051,0.208,0.076,0.442,0.076,0.703v2.514c0,0.142-0.07,0.213-0.213,0.213h-0.161
			c-0.137,0-0.205-0.071-0.205-0.213v-2.36c0-0.17-0.01-0.332-0.029-0.485c-0.021-0.153-0.063-0.288-0.128-0.405
			c-0.065-0.116-0.161-0.208-0.286-0.276s-0.289-0.103-0.494-0.103c-0.227,0-0.439,0.044-0.639,0.132
			c-0.199,0.089-0.37,0.211-0.516,0.367c-0.145,0.156-0.26,0.341-0.345,0.554s-0.128,0.444-0.128,0.694v1.883
			c0,0.142-0.068,0.213-0.204,0.213h-0.162c-0.143,0-0.213-0.071-0.213-0.213V209.567z"/>
		<path d="M334.51,207.863c0-0.143,0.067-0.213,0.204-0.213h0.162c0.142,0,0.213,0.07,0.213,0.213v4.66
			c0,0.137,0.014,0.244,0.042,0.324c0.028,0.079,0.064,0.141,0.106,0.183c0.043,0.043,0.091,0.071,0.146,0.085
			c0.054,0.015,0.104,0.024,0.148,0.03c0.052,0.006,0.094,0.022,0.128,0.051s0.052,0.074,0.052,0.137v0.128
			c0,0.142-0.074,0.213-0.222,0.213c-0.085,0-0.185-0.01-0.299-0.03c-0.113-0.02-0.221-0.066-0.323-0.141
			c-0.103-0.073-0.188-0.18-0.256-0.319c-0.068-0.139-0.102-0.325-0.102-0.558V207.863z"/>
		<path d="M336.214,212.489c0-0.232,0.045-0.432,0.136-0.597c0.091-0.164,0.21-0.301,0.358-0.408
			c0.147-0.108,0.314-0.193,0.502-0.256s0.378-0.109,0.571-0.141s0.382-0.051,0.566-0.06s0.345-0.013,0.481-0.013h0.247v-0.137
			c0-0.204-0.027-0.377-0.081-0.52c-0.054-0.142-0.128-0.257-0.222-0.345s-0.204-0.15-0.332-0.188s-0.269-0.056-0.422-0.056
			c-0.238,0-0.447,0.034-0.626,0.103s-0.316,0.134-0.413,0.195c-0.119,0.063-0.216,0.04-0.29-0.067l-0.051-0.086
			c-0.074-0.124-0.054-0.221,0.06-0.289s0.285-0.147,0.516-0.239c0.229-0.09,0.513-0.136,0.848-0.136
			c0.517,0,0.911,0.139,1.185,0.417c0.272,0.278,0.408,0.688,0.408,1.228v2.53c0,0.142-0.067,0.213-0.204,0.213h-0.137
			c-0.142,0-0.213-0.071-0.213-0.213v-0.341c0-0.046,0-0.09,0-0.132c0-0.043,0.003-0.078,0.009-0.106
			c0.006-0.034,0.012-0.063,0.017-0.086h-0.017c-0.103,0.205-0.21,0.368-0.324,0.49c-0.113,0.122-0.263,0.234-0.447,0.337
			c-0.185,0.102-0.41,0.153-0.677,0.153c-0.182,0-0.359-0.027-0.532-0.081c-0.174-0.054-0.328-0.134-0.465-0.238
			c-0.137-0.105-0.246-0.236-0.328-0.393S336.214,212.694,336.214,212.489z M336.81,212.438c0,0.103,0.021,0.201,0.06,0.298
			c0.04,0.097,0.1,0.184,0.18,0.26c0.079,0.077,0.179,0.14,0.298,0.188c0.119,0.049,0.259,0.072,0.417,0.072
			c0.205,0,0.39-0.048,0.555-0.145c0.164-0.097,0.302-0.222,0.413-0.375c0.11-0.153,0.195-0.325,0.255-0.516
			c0.061-0.189,0.09-0.379,0.09-0.566v-0.204h-0.238c-0.171,0-0.371,0.006-0.601,0.017c-0.23,0.012-0.452,0.05-0.665,0.115
			s-0.394,0.165-0.541,0.298C336.884,212.013,336.81,212.2,336.81,212.438z"/>
		<path d="M340.917,207.863c0-0.143,0.067-0.213,0.204-0.213h0.162c0.142,0,0.213,0.07,0.213,0.213v1.917
			c0,0.051-0.002,0.098-0.005,0.141c-0.003,0.042-0.007,0.078-0.013,0.106c-0.006,0.034-0.011,0.068-0.017,0.103h0.017
			c0.08-0.159,0.188-0.305,0.324-0.435c0.113-0.114,0.264-0.216,0.451-0.308c0.188-0.09,0.421-0.136,0.699-0.136
			c0.289,0,0.549,0.056,0.779,0.166s0.426,0.264,0.588,0.46s0.285,0.432,0.37,0.707c0.086,0.275,0.128,0.578,0.128,0.907
			c0,0.341-0.048,0.65-0.145,0.929s-0.23,0.516-0.4,0.712c-0.171,0.196-0.375,0.347-0.613,0.451
			c-0.238,0.105-0.497,0.158-0.775,0.158c-0.262,0-0.483-0.046-0.665-0.137s-0.329-0.193-0.442-0.307
			c-0.137-0.131-0.244-0.281-0.324-0.451h-0.017c0.005,0.028,0.011,0.057,0.017,0.085s0.01,0.063,0.013,0.103
			c0.003,0.039,0.005,0.082,0.005,0.127v0.281c0,0.131-0.071,0.196-0.214,0.196h-0.136c-0.137,0-0.204-0.071-0.204-0.213V207.863z
			 M341.479,211.5c0,0.222,0.028,0.435,0.086,0.639c0.057,0.205,0.141,0.388,0.251,0.55s0.251,0.291,0.422,0.388
			c0.17,0.097,0.369,0.146,0.597,0.146c0.192,0,0.373-0.039,0.541-0.115c0.167-0.077,0.313-0.189,0.438-0.337
			s0.225-0.328,0.298-0.541c0.074-0.213,0.111-0.456,0.111-0.729c0-0.261-0.034-0.498-0.103-0.711s-0.162-0.394-0.281-0.541
			c-0.119-0.148-0.262-0.263-0.426-0.346c-0.165-0.082-0.347-0.123-0.546-0.123c-0.182,0-0.354,0.032-0.52,0.098
			s-0.313,0.168-0.442,0.307c-0.131,0.14-0.234,0.318-0.312,0.537C341.518,210.94,341.479,211.2,341.479,211.5z"/>
		<path d="M345.79,213.136c0-0.136,0.068-0.204,0.204-0.204h0.281c0.137,0,0.205,0.068,0.205,0.204v0.29
			c0,0.142-0.068,0.213-0.205,0.213h-0.281c-0.136,0-0.204-0.071-0.204-0.213V213.136z"/>
		<path d="M347.434,211.5c0-0.329,0.059-0.632,0.175-0.907s0.275-0.513,0.478-0.711c0.201-0.199,0.438-0.354,0.711-0.465
			s0.568-0.166,0.886-0.166c0.182,0,0.349,0.017,0.499,0.051s0.285,0.077,0.404,0.128s0.223,0.105,0.312,0.162
			c0.088,0.057,0.157,0.105,0.208,0.145c0.103,0.08,0.111,0.177,0.026,0.29l-0.06,0.094c-0.068,0.107-0.165,0.122-0.29,0.042
			c-0.097-0.073-0.236-0.157-0.418-0.251s-0.403-0.141-0.664-0.141c-0.233,0-0.452,0.043-0.656,0.128s-0.382,0.203-0.532,0.354
			s-0.269,0.332-0.354,0.545c-0.086,0.213-0.128,0.447-0.128,0.703s0.042,0.488,0.128,0.699c0.085,0.21,0.203,0.391,0.354,0.541
			s0.328,0.268,0.532,0.354c0.204,0.085,0.426,0.128,0.665,0.128c0.147,0,0.283-0.016,0.408-0.047s0.239-0.07,0.341-0.115
			c0.103-0.046,0.192-0.094,0.269-0.146c0.077-0.051,0.141-0.099,0.191-0.145c0.108-0.085,0.202-0.068,0.281,0.051l0.06,0.086
			c0.063,0.102,0.046,0.198-0.051,0.289c-0.057,0.046-0.131,0.1-0.222,0.162s-0.2,0.122-0.328,0.179
			c-0.127,0.058-0.272,0.105-0.435,0.146c-0.161,0.039-0.342,0.06-0.541,0.06c-0.317,0-0.614-0.055-0.89-0.162
			s-0.515-0.262-0.716-0.46c-0.202-0.199-0.359-0.435-0.473-0.707C347.49,212.139,347.434,211.835,347.434,211.5z"/>
		<path d="M352.257,209.567c0-0.143,0.07-0.213,0.213-0.213h0.153c0.137,0,0.204,0.07,0.204,0.213v0.579
			c0,0.046-0.001,0.09-0.004,0.132c-0.003,0.043-0.007,0.078-0.013,0.106c-0.006,0.034-0.012,0.068-0.018,0.103h0.018
			c0.051-0.153,0.119-0.301,0.204-0.443c0.086-0.142,0.188-0.266,0.307-0.37c0.119-0.105,0.252-0.189,0.396-0.252
			s0.303-0.094,0.473-0.094c0.147,0,0.222,0.068,0.222,0.205v0.153c0,0.142-0.079,0.213-0.238,0.213
			c-0.228,0-0.425,0.059-0.593,0.175c-0.167,0.116-0.307,0.267-0.417,0.451s-0.193,0.393-0.247,0.622
			c-0.054,0.23-0.081,0.456-0.081,0.678v1.602c0,0.142-0.068,0.213-0.204,0.213h-0.162c-0.143,0-0.213-0.071-0.213-0.213V209.567z"
			/>
		<path d="M355.324,208.374c-0.137,0-0.205-0.068-0.205-0.204v-0.307c0-0.143,0.068-0.213,0.205-0.213h0.213
			c0.136,0,0.204,0.07,0.204,0.213v0.307c0,0.136-0.068,0.204-0.204,0.204H355.324z M355.137,209.567
			c0-0.143,0.07-0.213,0.213-0.213h0.162c0.136,0,0.204,0.07,0.204,0.213v3.859c0,0.142-0.068,0.213-0.204,0.213h-0.162
			c-0.143,0-0.213-0.071-0.213-0.213V209.567z"/>
		<path d="M357.181,211.484c-0.136,0-0.204-0.068-0.204-0.205v-0.11c0-0.142,0.068-0.213,0.204-0.213h2.002
			c0.137,0,0.205,0.071,0.205,0.213v0.11c0,0.137-0.068,0.205-0.205,0.205H357.181z"/>
		<path d="M360.648,209.567c0-0.143,0.067-0.213,0.204-0.213h0.136c0.137,0,0.205,0.065,0.205,0.195v0.307
			c0,0.046-0.002,0.086-0.004,0.119c-0.003,0.034-0.008,0.065-0.014,0.094c-0.005,0.029-0.008,0.055-0.008,0.077h0.017
			c0.08-0.165,0.188-0.313,0.324-0.443c0.113-0.113,0.266-0.217,0.455-0.311c0.19-0.094,0.431-0.141,0.721-0.141
			c0.289,0,0.549,0.056,0.779,0.166s0.426,0.264,0.588,0.46s0.285,0.434,0.37,0.712c0.086,0.278,0.128,0.582,0.128,0.911
			c0,0.341-0.048,0.649-0.145,0.925s-0.23,0.511-0.4,0.707c-0.171,0.196-0.374,0.347-0.609,0.451
			c-0.235,0.105-0.493,0.158-0.771,0.158c-0.262,0-0.481-0.044-0.661-0.133c-0.179-0.088-0.325-0.188-0.438-0.302
			c-0.131-0.125-0.235-0.27-0.315-0.435h-0.017c0.006,0.028,0.011,0.063,0.017,0.102c0.006,0.034,0.01,0.074,0.013,0.12
			c0.003,0.045,0.005,0.097,0.005,0.153v1.883c0,0.142-0.071,0.213-0.213,0.213h-0.162c-0.137,0-0.204-0.071-0.204-0.213V209.567z
			 M361.21,211.509c0,0.216,0.03,0.426,0.09,0.63c0.06,0.205,0.146,0.388,0.26,0.55s0.254,0.291,0.422,0.388
			c0.167,0.097,0.362,0.146,0.584,0.146c0.192,0,0.373-0.039,0.541-0.115c0.167-0.077,0.313-0.189,0.438-0.337
			s0.225-0.328,0.298-0.541c0.074-0.213,0.111-0.456,0.111-0.729c0-0.261-0.034-0.498-0.103-0.711s-0.162-0.394-0.281-0.541
			c-0.119-0.148-0.262-0.263-0.426-0.346c-0.165-0.082-0.347-0.123-0.546-0.123c-0.182,0-0.354,0.032-0.52,0.098
			s-0.313,0.169-0.442,0.312c-0.131,0.142-0.234,0.32-0.312,0.536C361.249,210.941,361.21,211.203,361.21,211.509z"/>
		<path d="M365.224,212.489c0-0.232,0.045-0.432,0.136-0.597c0.091-0.164,0.21-0.301,0.358-0.408
			c0.147-0.108,0.314-0.193,0.502-0.256s0.378-0.109,0.571-0.141s0.382-0.051,0.566-0.06s0.345-0.013,0.481-0.013h0.247v-0.137
			c0-0.204-0.027-0.377-0.081-0.52c-0.054-0.142-0.128-0.257-0.222-0.345s-0.204-0.15-0.332-0.188s-0.269-0.056-0.422-0.056
			c-0.238,0-0.447,0.034-0.626,0.103s-0.316,0.134-0.413,0.195c-0.119,0.063-0.216,0.04-0.29-0.067l-0.051-0.086
			c-0.074-0.124-0.054-0.221,0.06-0.289s0.285-0.147,0.516-0.239c0.229-0.09,0.513-0.136,0.848-0.136
			c0.517,0,0.911,0.139,1.185,0.417c0.272,0.278,0.408,0.688,0.408,1.228v2.53c0,0.142-0.067,0.213-0.204,0.213h-0.137
			c-0.142,0-0.213-0.071-0.213-0.213v-0.341c0-0.046,0-0.09,0-0.132c0-0.043,0.003-0.078,0.009-0.106
			c0.006-0.034,0.012-0.063,0.017-0.086h-0.017c-0.103,0.205-0.21,0.368-0.324,0.49c-0.113,0.122-0.263,0.234-0.447,0.337
			c-0.185,0.102-0.41,0.153-0.677,0.153c-0.182,0-0.359-0.027-0.532-0.081c-0.174-0.054-0.328-0.134-0.465-0.238
			c-0.137-0.105-0.246-0.236-0.328-0.393S365.224,212.694,365.224,212.489z M365.819,212.438c0,0.103,0.021,0.201,0.06,0.298
			c0.04,0.097,0.1,0.184,0.18,0.26c0.079,0.077,0.179,0.14,0.298,0.188c0.119,0.049,0.259,0.072,0.417,0.072
			c0.205,0,0.39-0.048,0.555-0.145c0.164-0.097,0.302-0.222,0.413-0.375c0.11-0.153,0.195-0.325,0.255-0.516
			c0.061-0.189,0.09-0.379,0.09-0.566v-0.204h-0.238c-0.171,0-0.371,0.006-0.601,0.017c-0.23,0.012-0.452,0.05-0.665,0.115
			s-0.394,0.165-0.541,0.298C365.894,212.013,365.819,212.2,365.819,212.438z"/>
		<path d="M369.918,209.567c0-0.143,0.07-0.213,0.213-0.213h0.153c0.137,0,0.204,0.07,0.204,0.213v0.579
			c0,0.046-0.001,0.09-0.004,0.132c-0.003,0.043-0.007,0.078-0.013,0.106c-0.006,0.034-0.012,0.068-0.018,0.103h0.018
			c0.051-0.153,0.119-0.301,0.204-0.443c0.086-0.142,0.188-0.266,0.307-0.37c0.119-0.105,0.252-0.189,0.396-0.252
			s0.303-0.094,0.473-0.094c0.147,0,0.222,0.068,0.222,0.205v0.153c0,0.142-0.079,0.213-0.238,0.213
			c-0.228,0-0.425,0.059-0.593,0.175c-0.167,0.116-0.307,0.267-0.417,0.451s-0.193,0.393-0.247,0.622
			c-0.054,0.23-0.081,0.456-0.081,0.678v1.602c0,0.142-0.068,0.213-0.204,0.213h-0.162c-0.143,0-0.213-0.071-0.213-0.213V209.567z"
			/>
		<path d="M372.985,208.374c-0.137,0-0.205-0.068-0.205-0.204v-0.307c0-0.143,0.068-0.213,0.205-0.213h0.213
			c0.136,0,0.204,0.07,0.204,0.213v0.307c0,0.136-0.068,0.204-0.204,0.204H372.985z M372.798,209.567
			c0-0.143,0.07-0.213,0.213-0.213h0.162c0.136,0,0.204,0.07,0.204,0.213v3.859c0,0.142-0.068,0.213-0.204,0.213h-0.162
			c-0.143,0-0.213-0.071-0.213-0.213V209.567z"/>
		<path d="M374.468,213.248c-0.102-0.08-0.113-0.177-0.034-0.29l0.068-0.085c0.074-0.097,0.171-0.108,0.29-0.034
			c0.097,0.074,0.239,0.157,0.43,0.251s0.425,0.141,0.703,0.141c0.238,0,0.443-0.058,0.613-0.175
			c0.171-0.116,0.256-0.288,0.256-0.515c0-0.159-0.057-0.289-0.17-0.388c-0.114-0.1-0.256-0.188-0.427-0.265
			c-0.17-0.076-0.354-0.15-0.549-0.222c-0.196-0.07-0.38-0.157-0.55-0.26c-0.171-0.103-0.313-0.229-0.426-0.379
			c-0.114-0.15-0.171-0.342-0.171-0.575c0-0.198,0.04-0.373,0.119-0.524c0.08-0.15,0.185-0.275,0.315-0.374
			c0.131-0.1,0.284-0.175,0.46-0.227c0.176-0.051,0.363-0.076,0.563-0.076c0.307,0,0.557,0.043,0.75,0.128
			c0.192,0.085,0.335,0.159,0.426,0.222c0.113,0.067,0.134,0.161,0.06,0.281l-0.06,0.093c-0.063,0.114-0.159,0.134-0.29,0.061
			c-0.079-0.058-0.195-0.117-0.349-0.18s-0.344-0.094-0.571-0.094s-0.425,0.053-0.592,0.158c-0.168,0.104-0.252,0.273-0.252,0.507
			c0,0.165,0.057,0.298,0.171,0.4c0.113,0.103,0.254,0.191,0.422,0.269c0.167,0.076,0.351,0.148,0.549,0.217
			c0.199,0.068,0.383,0.153,0.55,0.256c0.168,0.103,0.309,0.229,0.422,0.379s0.171,0.346,0.171,0.584
			c0,0.176-0.036,0.338-0.107,0.485c-0.07,0.147-0.17,0.275-0.298,0.384c-0.128,0.107-0.281,0.191-0.46,0.251
			s-0.374,0.09-0.584,0.09c-0.188,0-0.357-0.018-0.511-0.052s-0.291-0.076-0.413-0.128c-0.122-0.051-0.228-0.104-0.315-0.161
			S374.52,213.292,374.468,213.248z"/>
		<path d="M378.302,213.136c0-0.136,0.068-0.204,0.204-0.204h0.281c0.137,0,0.205,0.068,0.205,0.204v0.29
			c0,0.142-0.068,0.213-0.205,0.213h-0.281c-0.136,0-0.204-0.071-0.204-0.213V213.136z"/>
		<path d="M379.937,211.475c0-0.318,0.06-0.612,0.18-0.882c0.119-0.27,0.281-0.504,0.485-0.703c0.204-0.198,0.443-0.354,0.716-0.469
			c0.272-0.113,0.564-0.17,0.877-0.17s0.606,0.057,0.882,0.17c0.275,0.114,0.516,0.271,0.721,0.469
			c0.204,0.199,0.366,0.434,0.485,0.703s0.179,0.563,0.179,0.882c0,0.324-0.06,0.623-0.179,0.898
			c-0.119,0.276-0.281,0.516-0.485,0.721c-0.205,0.204-0.443,0.363-0.716,0.477s-0.565,0.171-0.878,0.171s-0.606-0.058-0.882-0.171
			s-0.516-0.272-0.72-0.477c-0.204-0.205-0.366-0.444-0.485-0.721C379.996,212.098,379.937,211.799,379.937,211.475z
			 M380.533,211.475c0,0.25,0.044,0.481,0.132,0.694s0.208,0.397,0.358,0.554s0.326,0.278,0.528,0.366
			c0.201,0.089,0.419,0.133,0.651,0.133c0.228,0,0.441-0.044,0.644-0.133c0.201-0.088,0.378-0.21,0.528-0.366
			s0.27-0.341,0.357-0.554s0.132-0.444,0.132-0.694c0-0.244-0.044-0.47-0.132-0.678c-0.088-0.207-0.207-0.388-0.357-0.541
			s-0.327-0.272-0.528-0.357c-0.202-0.085-0.416-0.128-0.644-0.128c-0.232,0-0.45,0.043-0.651,0.128
			c-0.202,0.085-0.378,0.204-0.528,0.357s-0.271,0.334-0.358,0.541C380.577,211.005,380.533,211.231,380.533,211.475z"/>
		<path d="M385.476,209.567c0-0.143,0.07-0.213,0.213-0.213h0.153c0.137,0,0.204,0.07,0.204,0.213v0.579
			c0,0.046-0.001,0.09-0.004,0.132c-0.003,0.043-0.007,0.078-0.013,0.106c-0.006,0.034-0.012,0.068-0.018,0.103h0.018
			c0.051-0.153,0.119-0.301,0.204-0.443c0.086-0.142,0.188-0.266,0.307-0.37c0.119-0.105,0.252-0.189,0.396-0.252
			s0.303-0.094,0.473-0.094c0.147,0,0.222,0.068,0.222,0.205v0.153c0,0.142-0.079,0.213-0.238,0.213
			c-0.228,0-0.425,0.059-0.593,0.175c-0.167,0.116-0.307,0.267-0.417,0.451s-0.193,0.393-0.247,0.622
			c-0.054,0.23-0.081,0.456-0.081,0.678v1.602c0,0.142-0.068,0.213-0.204,0.213h-0.162c-0.143,0-0.213-0.071-0.213-0.213V209.567z"
			/>
		<path d="M388.518,214.781c0.057-0.107,0.147-0.14,0.272-0.094c0.097,0.046,0.227,0.094,0.392,0.145
			c0.165,0.052,0.366,0.077,0.604,0.077c0.199,0,0.388-0.025,0.567-0.077c0.179-0.051,0.335-0.13,0.468-0.238
			c0.134-0.107,0.24-0.247,0.32-0.417c0.079-0.171,0.119-0.375,0.119-0.614v-0.442c0-0.04,0-0.078,0-0.115s0.003-0.069,0.009-0.098
			c0.005-0.034,0.011-0.065,0.017-0.094h-0.017c-0.131,0.244-0.306,0.438-0.524,0.583c-0.219,0.146-0.498,0.218-0.839,0.218
			c-0.29,0-0.552-0.054-0.784-0.162c-0.233-0.107-0.434-0.26-0.601-0.456c-0.168-0.195-0.297-0.43-0.388-0.702
			c-0.091-0.273-0.137-0.574-0.137-0.903c0-0.313,0.043-0.601,0.128-0.865c0.085-0.264,0.209-0.489,0.371-0.677
			c0.161-0.188,0.358-0.334,0.592-0.439c0.232-0.104,0.5-0.157,0.801-0.157c0.278,0,0.507,0.041,0.686,0.123
			c0.18,0.083,0.323,0.172,0.431,0.269c0.125,0.114,0.219,0.244,0.281,0.393h0.017c-0.005-0.012-0.008-0.026-0.008-0.043
			c-0.006-0.018-0.009-0.051-0.009-0.103v-0.349c0-0.125,0.068-0.188,0.204-0.188h0.137c0.142,0,0.213,0.07,0.213,0.213v3.97
			c0,0.341-0.059,0.631-0.175,0.869s-0.27,0.435-0.46,0.588s-0.407,0.265-0.651,0.332c-0.244,0.068-0.494,0.103-0.75,0.103
			c-0.222,0-0.438-0.022-0.647-0.068c-0.21-0.045-0.406-0.107-0.588-0.188c-0.125-0.057-0.159-0.147-0.103-0.272L388.518,214.781z
			 M389.991,213.094c0.17,0,0.332-0.028,0.485-0.086c0.153-0.057,0.29-0.15,0.409-0.281c0.119-0.13,0.213-0.301,0.281-0.511
			s0.103-0.472,0.103-0.784c0-0.317-0.036-0.583-0.107-0.796c-0.07-0.213-0.167-0.384-0.289-0.512s-0.265-0.219-0.426-0.272
			c-0.162-0.054-0.331-0.081-0.507-0.081c-0.438,0-0.771,0.143-1.002,0.426c-0.229,0.284-0.345,0.677-0.345,1.176
			c0,0.54,0.126,0.962,0.379,1.266S389.565,213.094,389.991,213.094z"/>
	</g>
	<g>
		<g>
			<path fill-rule="evenodd" clip-rule="evenodd" fill="#FFFFFF" d="M289.887,99.807c32.277,0,64.563,0,96.839,0
				c0,21.994,0,43.99,0,65.983c0.005,0.042-0.008,0.064-0.036,0.072c-32.277,0-64.563,0-96.839,0c0-21.981,0-43.967,0-65.947
				C289.848,99.863,289.845,99.813,289.887,99.807z M315.708,109.187c-1.696-0.942-3.827-1.695-6.12-1.884
				c-0.635-0.052-1.543,0-2.064,0c-2.17,0-4.063,0.537-5.649,1.304c-3.237,1.564-5.648,3.724-7.134,6.845
				c-0.77,1.614-1.139,3.452-1.305,5.686c-0.041,0.567-0.041,0.996,0,1.485c0.382,4.494,2.046,7.678,4.854,10.176
				c2.734,2.434,6.691,3.702,11.66,3.296c0.537-0.044,1.116-0.146,1.631-0.254c3.791-0.786,6.098-2.711,8.401-5.033
				c-1.171-1.22-2.335-2.445-3.513-3.658c-0.537,0.359-0.965,0.814-1.449,1.231c-1.416,1.221-3.137,2.396-5.504,2.607
				c-3.449,0.308-5.971-0.648-7.787-2.209c-1.334-1.146-2.34-2.756-2.752-4.6c-0.352-1.569-0.363-3.852,0.182-5.54
				c0.27-0.839,0.677-1.632,1.122-2.282c1.622-2.366,4.407-4.107,8.004-3.983c3.624,0.125,6.024,1.771,8.112,3.911
				c1.281-1.12,2.542-2.262,3.693-3.513C318.928,111.386,317.436,110.145,315.708,109.187z M354.023,107.919
				c-0.537,0.448-1.13,1.449-1.014,2.534c0.056,0.525,0.416,1.185,0.652,1.485c1.395,1.786,4.637,1.063,4.889-1.448
				c0.133-1.325-0.468-2.292-1.231-2.789c-0.358-0.233-1.118-0.49-1.739-0.435C354.894,107.328,354.41,107.596,354.023,107.919z
				 M381.04,108.027c0.035-0.171-0.148-0.39-0.218-0.58c-0.707,0.043-1.186,0.625-1.303,1.377c0.146,0.564,0.479,1.003,1.014,1.014
				c0.713,0.015,1.104-0.724,1.774-0.725c0.007,0.028,0.03,0.042,0.072,0.036c0.286,0.597-0.347,0.846-0.688,1.051
				c0.077,0.283,0.086,0.634,0.326,0.688c0.143,0.032,0.518-0.188,0.652-0.289c0.877-0.665,0.799-2.223-0.362-2.391
				c-0.794,0.064-1.053,0.662-1.812,0.761C380.078,108.385,380.971,108.36,381.04,108.027z M379.41,110.381
				c-2.115,0.136-2.463,3.32-0.326,3.875c1.637,0.426,2.933-1.373,2.281-2.716c-0.281,0.093-0.476,0.272-0.652,0.471
				c0.037,0.154,0.063,0.309,0.037,0.471c-0.096,0.632-0.832,1.287-1.448,0.833c0.407-0.861,1.032-1.694,1.376-2.499
				C380.227,110.515,379.96,110.346,379.41,110.381z M376.839,113.459c-0.229-0.06-0.282,0.369-0.398,0.544
				c0.026,0.164,0.144,0.316,0.073,0.471c-0.463-0.064-0.453,0.344-0.616,0.579c0.995,0.646,2.055,1.229,3.114,1.811
				c0.213-0.161,0.322-0.426,0.435-0.688c-0.349-0.393-1.333-0.722-1.847-1.123c-0.313-0.244-0.639-0.673-0.29-1.086
				C377.172,113.778,377.058,113.567,376.839,113.459z M374.521,116.176c0.658-0.046,0.703-1.267-0.109-1.159
				C373.609,115.123,373.869,116.221,374.521,116.176z M375.535,115.705c-0.16,0.214-0.318,0.43-0.436,0.688
				c0.969,0.663,2.113,1.34,3.152,1.811c0.164-0.184,0.303-0.396,0.398-0.651C377.688,116.86,376.586,116.309,375.535,115.705z
				 M374.666,117.262c-0.192,0.157-0.29,0.41-0.398,0.652c-0.088,0.091,0.17,0.143,0.109,0.326
				c-0.265,0.185-0.483,0.255-0.652,0.435c-1.086,1.153,0.096,3.196,1.738,3.078c0.985-0.071,1.698-0.846,1.629-1.956
				c0.404,0.038,0.545-0.394,0.689-0.724C376.791,118.421,375.737,117.833,374.666,117.262z M311.036,118.059
				c-0.282,0.2-0.087,0.88-0.145,1.304c-0.079,0.115-0.348,0.039-0.435,0.146c-0.045,0.161-0.085,0.544,0.036,0.651
				c0.056,0.137,0.386,0,0.398,0.181c0.023,0.895-0.048,1.883,0.036,2.717c0.147,0.114,0.686,0.114,0.833,0
				c0.112-0.706-0.038-1.931,0.071-2.753c0.082-0.111,0.354-0.033,0.472-0.108c0.104-0.122,0.099-0.519,0.036-0.688
				c-0.107-0.122-0.439-0.019-0.508-0.182c-0.119-0.342,0.058-0.95-0.071-1.195C311.618,118.008,311.285,118.076,311.036,118.059z
				 M303.54,119.362c-0.842,0.106-1.651,0.988-1.63,1.956c0.039,1.796,2.536,2.647,3.549,1.122
				c-0.147-0.073-0.391-0.345-0.651-0.325c-0.185,0.014-0.315,0.235-0.507,0.289c-0.752,0.212-1.347-0.161-1.449-0.797
				c0.693-0.22,2.125,0.072,2.934-0.145C305.904,120.212,304.96,119.183,303.54,119.362z M309.153,119.435
				c-0.484-0.199-1.101,0.005-1.521,0.254c-0.137-0.242-0.604-0.334-0.979-0.218c-0.061,1.124-0.061,2.499,0,3.622
				c0.195,0.064,0.6,0.051,0.797,0c0.16-1.039-0.258-2.687,0.652-2.897c1.359-0.314,0.686,1.99,0.904,2.897
				c0.203,0.049,0.686,0.087,0.834-0.036C309.835,121.7,310.213,119.87,309.153,119.435z M313.571,119.688
				c-0.084-0.24-0.565-0.351-0.796-0.218c-0.145,1.041-0.074,2.485-0.037,3.586c0.148,0.114,0.686,0.114,0.833,0
				c0.173-0.878-0.218-2.319,0.326-2.825c0.136-0.069,0.406-0.004,0.507-0.108c0.063-0.215,0.184-0.372,0.217-0.615
				C314.305,119.159,313.813,119.521,313.571,119.688z M317.229,119.362c-1.502-0.205-2.35,0.958-2.281,2.064
				c0.109,1.76,2.615,2.498,3.549,0.978c-0.242-0.083-0.407-0.243-0.688-0.289c-0.537,0.566-2.021,0.332-1.92-0.544
				c0.74-0.136,2.1,0.085,2.897-0.108C318.912,120.389,318.203,119.496,317.229,119.362z M353.19,121.028
				c-0.065,1.04-0.036,2.243-0.036,3.404c0,7.998-0.06,16.204,0.072,23.938c0.349,0.136,1.078,0.077,1.484,0.036
				c1.016-1.416,1.871-3.215,2.826-4.817c0.282-0.475,0.85-1.128,0.941-1.629c0.135-0.743,0-1.716,0-2.607
				c0-6.121,0.059-12.546-0.072-18.397c-1.631-0.084-3.417-0.013-5.107-0.036C353.247,120.94,353.211,120.977,353.19,121.028z
				 M372.674,121.535c-0.709,0.111-1.313,0.644-1.23,1.666c-0.428,0.057-0.547,0.419-0.688,0.761
				c0.972,0.682,2.095,1.213,3.114,1.847c0.168-0.219,0.308-0.465,0.436-0.725c-0.5-0.595-2.072-0.771-2.21-1.701
				c-0.078-0.533,0.265-0.881,0.797-0.797c0.784,0.123,1.444,0.933,2.173,1.158c0.18-0.207,0.311-0.462,0.435-0.724
				C374.568,122.515,373.793,121.854,372.674,121.535z M344.246,122.115c-0.465,0.123-0.678,0.58-0.869,0.941
				c-0.129,0.241-0.226,0.621-0.616,0.615c-0.008-0.028-0.03-0.042-0.072-0.036c-0.243-0.397,0.22-0.686,0.181-0.941
				c-0.032-0.212-0.34-0.3-0.507-0.471c-0.261,0.276-0.479,0.476-0.543,0.797c-0.312,1.569,1.247,1.858,1.883,1.086
				c0.327-0.397,0.443-1.16,0.833-1.158c0.639,0.001,0.146,1.113-0.036,1.23c0.181,0.17,0.325,0.375,0.579,0.471
				C346.125,124.048,345.701,121.728,344.246,122.115z M369.27,125.266c0.715-0.034,0.695-1.279-0.107-1.159
				C368.398,124.221,368.586,125.299,369.27,125.266z M371.117,125.266c-0.217-0.122-0.617-0.467-0.797-0.435
				c-0.258,0.047-0.328,0.529-0.435,0.725c1.03,0.599,2.028,1.231,3.114,1.774c0.191-0.171,0.312-0.413,0.398-0.688
				C372.834,126.209,371.861,125.684,371.117,125.266z M341.819,127.583c0.116,0.71,1.028,1.62,2.063,1.521
				c1.768-0.168,2.48-2.583,0.979-3.549c-0.064,0.171-0.31,0.371-0.29,0.651c0.017,0.232,0.297,0.475,0.326,0.761
				c0.062,0.6-0.173,1.091-0.869,1.159c-0.134-0.731,0.083-2.073-0.108-2.861C342.516,125.015,341.612,126.323,341.819,127.583z
				 M368.184,125.556c-0.164,0.222-0.307,0.466-0.436,0.724c0.712,0.448,1.443,0.861,2.174,1.268c0.74,0.411,1.43,0.921,2.246,1.231
				c0.172-0.178,0.281-0.418,0.397-0.651C371.182,127.192,369.654,126.402,368.184,125.556z M370.212,131.748
				c0.024-0.15,0.595-0.402,0.724-0.579c0.838-1.151-0.176-2.627-1.268-2.897c-1.371-0.34-2.326,0.746-2.209,1.919
				c-0.427-0.071-0.535,0.378-0.688,0.688c1.365,0.892,2.839,1.676,4.273,2.499c0.211-0.163,0.336-0.413,0.434-0.688
				C371.421,132.383,370.146,132.146,370.212,131.748z M342.435,129.938c-0.474,0.235-0.727,0.854-0.615,1.448
				c0.048,0.259,0.339,0.447,0.325,0.761c-0.475,0.104-1.189-0.032-1.666,0.072c-0.04,0.277-0.045,0.545,0,0.797
				c0.699,0.195,1.63,0.108,2.5,0.108c0.906,0,1.816,0.059,2.57-0.072c0.049-0.202,0.088-0.685-0.035-0.833
				c-1.135-0.194-3.085,0.429-2.861-1.123c0.617-0.67,2.087-0.313,2.861-0.435c0.113-0.138,0.113-0.658,0-0.796
				C344.511,129.966,343.205,129.556,342.435,129.938z M338.596,140.367c0.677-3.217-0.324-5.949-1.919-7.678
				c-0.915-0.99-2.089-1.611-3.585-1.955c-2.85-0.655-7.203-0.364-10.648-0.326c-0.172,0.186-0.107,1.074-0.107,1.63
				c0,7.543,0,15.016,0,22.417c0,1.145-0.088,2.279,0.107,3.368c1.109,0.068,2.697,0.036,3.948,0.036
				c0.448,0,0.893,0.064,1.231-0.073c0.066-3.307,0.036-6.786,0.036-10.212c0-0.389-0.097-1.244,0.145-1.34
				c0.276-0.109,0.513,0.317,0.616,0.507c1.777,3.245,3.436,6.509,5.105,9.705c0.254,0.486,0.48,1.018,0.869,1.413
				c1.684-0.025,3.953,0.051,5.578-0.036c0.046-0.302-0.2-0.526-0.326-0.761c-1.764-3.274-3.438-6.646-5.215-9.851
				c-0.277-0.501-0.633-0.992-0.761-1.558C336.094,144.62,338.021,143.1,338.596,140.367z M365.25,132.183
				c0.676-0.031,0.785-1.378-0.181-1.123C364.35,131.25,364.684,132.209,365.25,132.183z M366.301,131.748
				c-0.188,0.187-0.348,0.401-0.436,0.688c0.984,0.657,2.044,1.24,3.115,1.811c0.197-0.177,0.348-0.4,0.398-0.725
				C368.387,132.897,367.363,132.304,366.301,131.748z M364.199,135.405c-0.186,1.672,1.62,2.701,2.861,1.956
				c0.731-0.438,1.403-1.488,0.941-2.644c-0.262,0.1-0.524,0.199-0.724,0.362c0.532,1.486-1.767,2.271-2.173,0.905
				c-0.291-0.976,0.475-1.38,0.905-1.738c0.034-0.213,0.122-0.571,0-0.725C365.072,133.621,364.301,134.492,364.199,135.405z
				 M342.543,134.029c-1.4,1.136-0.627,3.535,0.979,3.73c2.051,0.25,2.861-2.613,1.412-3.694c-0.201,0.174-0.358,0.391-0.471,0.652
				c0.344,0.327,0.494,0.981,0.289,1.557c-0.426,0.823-1.922,0.696-2.1-0.289c-0.1-0.548,0.1-0.979,0.361-1.34
				C342.814,134.481,342.813,134.123,342.543,134.029z M362.316,138.557c-0.03,0.725,0.68,1.321,1.449,1.05
				c0.271-0.096,1.213-0.972,1.484-0.471c0.268,0.494-0.648,0.717-0.76,0.941c0.083,0.243,0.068,0.583,0.324,0.652
				c0.593-0.107,1.344-0.821,1.305-1.558c-0.021-0.416-0.389-0.955-0.869-1.05c-0.973-0.193-1.15,0.658-1.955,0.724
				c-0.281-0.471,0.226-0.725,0.507-0.869C363.856,136.485,362.348,137.821,362.316,138.557z M341.819,138.665
				c0.048,0.221,0.248,0.254,0.325,0.507c-0.289,0.063-0.379,0.538-0.217,0.833c1.123,0.06,2.498,0.061,3.621,0
				c0.053-0.208,0.064-0.627,0-0.833c-1.06-0.239-3.057,0.454-2.934-0.797C342.223,138.114,341.67,137.977,341.819,138.665z
				 M360.65,140.223c0.688-0.051,0.637-1.245-0.107-1.159C359.732,139.157,359.992,140.271,360.65,140.223z M361.701,139.752
				c-0.22,0.166-0.33,0.442-0.471,0.688c0.955,0.699,2.066,1.241,3.114,1.847c0.2-0.174,0.306-0.442,0.435-0.688
				C363.838,140.897,362.703,140.392,361.701,139.752z M359.564,140.548c-0.195,0.172-0.4,0.514-0.436,0.725
				c0.383,0.391,1.083,0.464,1.377,0.941c-0.574,0.406-1.139,0.822-1.123,1.63c0.02,0.911,0.986,1.755,1.775,1.883
				c1.026,0.167,2.186-0.586,2.064-1.883c0.418-0.064,0.555-0.411,0.688-0.761C362.508,142.191,361.025,141.38,359.564,140.548z
				 M341.819,142.214c-0.229,1.872,1.757,2.859,3.042,1.956c1.063-0.747,1.112-2.638,0-3.188c-0.067,0.157-0.301,0.356-0.29,0.616
				c0.009,0.232,0.298,0.477,0.326,0.761c0.063,0.621-0.196,1.088-0.869,1.194c-0.151-0.74,0.123-2.191-0.146-2.933
				C342.792,140.546,341.93,141.31,341.819,142.214z M358.586,144.895c-0.245,0.215-0.33,0.563-0.254,1.014
				c-0.407,0.002-0.473,0.347-0.615,0.615c1.004,0.639,2.072,1.212,3.115,1.812c0.186-0.201,0.371-0.401,0.434-0.725
				c-0.383-0.354-1.375-0.719-1.883-1.123c-0.307-0.245-0.574-0.668-0.254-1.05C358.965,145.24,358.861,144.981,358.586,144.895z
				 M341.819,146.089c-0.103,0.706,0.177,1.03,0.362,1.449c-0.421,0.176-1.238,0.005-1.666,0.072c-0.111,0.173-0.111,0.696,0,0.869
				c1.582,0.061,3.416,0.061,4.998,0c0.104-0.167,0.119-0.706,0-0.869c-1.156-0.145-2.994,0.477-2.861-1.123
				c0.439-0.646,1.954-0.219,2.861-0.398c0.104-0.157,0.119-0.679,0-0.833C344.111,145.353,342.273,144.788,341.819,146.089z
				 M356.088,149.711c0.029,0.979,0.98,1.972,2.137,1.883c1.242-0.095,2.158-1.572,1.666-2.752
				c-0.342,0.033-0.494,0.254-0.688,0.435c0.19,0.889-0.61,1.759-1.376,1.34c0.145-0.468,0.42-0.896,0.652-1.304
				c0.242-0.429,0.551-0.803,0.688-1.231C357.744,147.024,356.043,148.208,356.088,149.711z M342.508,149.493
				c-1.352,1.064-0.598,3.687,1.158,3.73c1.912,0.048,2.68-2.559,1.304-3.694c-0.253,0.109-0.331,0.394-0.507,0.58
				c0.182,0.347,0.404,0.585,0.398,1.05c-0.012,0.917-1.031,1.448-1.775,0.941c-0.612-0.418-0.57-1.412-0.072-1.991
				C342.801,149.947,342.844,149.53,342.508,149.493z M353.77,150.544c-0.092,0.258-0.284,0.415-0.361,0.688
				c0.266,0.339,0.822,0.385,1.05,0.761c0.044,0.2-0.104,0.21-0.108,0.362c0.187,0.127,0.363,0.265,0.579,0.362
				c0.264-0.461,0.576-0.224,0.978,0c0.589,0.327,1.303,0.813,1.811,1.014c0.188-0.187,0.326-0.423,0.436-0.688
				c-0.737-0.603-1.818-0.861-2.427-1.593c0.015-0.154,0.185-0.153,0.181-0.326c-0.166-0.159-0.35-0.303-0.615-0.362
				C354.912,151.491,354.318,150.613,353.77,150.544z M355.979,153.984c-0.414-0.243-0.852-0.616-1.23-0.725
				c-1.016-0.289-1.674,0.67-1.594,1.666c-0.465,0.006-0.543,0.397-0.688,0.725c0.992,0.649,2.054,1.229,3.113,1.811
				c0.205-0.182,0.316-0.457,0.436-0.725c-0.539-0.531-1.813-0.727-2.137-1.484c-0.264-0.616,0.26-1.246,0.905-0.942
				c0.618,0.292,1.397,0.789,1.956,1.123c0.172-0.213,0.37-0.402,0.434-0.725C356.894,154.426,356.426,154.245,355.979,153.984z
				 M341.819,156.193c0.245,1.458,2.4,2.009,3.403,0.833c0.704-0.824,0.605-2.298-0.325-2.861c-0.193,0.145-0.253,0.424-0.362,0.652
				c0.564,0.504,0.447,1.96-0.543,1.919c-0.049-0.811,0.094-2.087-0.072-2.897C342.555,153.716,341.574,154.737,341.819,156.193z"/>
			<path fill-rule="evenodd" clip-rule="evenodd" d="M320.09,112.771c-1.151,1.251-2.412,2.393-3.693,3.513
				c-2.088-2.14-4.488-3.786-8.112-3.911c-3.597-0.124-6.382,1.617-8.004,3.983c-0.445,0.65-0.853,1.443-1.122,2.282
				c-0.545,1.688-0.533,3.971-0.182,5.54c0.412,1.844,1.418,3.453,2.752,4.6c1.816,1.561,4.338,2.517,7.787,2.209
				c2.367-0.211,4.088-1.387,5.504-2.607c0.484-0.417,0.912-0.872,1.449-1.231c1.178,1.213,2.342,2.438,3.513,3.658
				c-2.304,2.322-4.61,4.247-8.401,5.033c-0.515,0.107-1.094,0.21-1.631,0.254c-4.969,0.406-8.926-0.862-11.66-3.296
				c-2.808-2.498-4.472-5.682-4.854-10.176c-0.041-0.489-0.041-0.918,0-1.485c0.166-2.233,0.535-4.071,1.305-5.686
				c1.485-3.121,3.896-5.28,7.134-6.845c1.587-0.767,3.479-1.304,5.649-1.304c0.521,0,1.43-0.052,2.064,0
				c2.293,0.188,4.424,0.941,6.12,1.884C317.436,110.145,318.928,111.386,320.09,112.771z"/>
			<path fill-rule="evenodd" clip-rule="evenodd" d="M355.58,107.267c0.621-0.056,1.381,0.201,1.739,0.435
				c0.764,0.497,1.364,1.464,1.231,2.789c-0.252,2.511-3.494,3.234-4.889,1.448c-0.236-0.301-0.597-0.96-0.652-1.485
				c-0.116-1.085,0.477-2.086,1.014-2.534C354.41,107.596,354.894,107.328,355.58,107.267z"/>
			<path fill-rule="evenodd" clip-rule="evenodd" d="M380.496,108.969c0.759-0.099,1.018-0.696,1.812-0.761
				c1.161,0.168,1.239,1.726,0.362,2.391c-0.135,0.102-0.51,0.321-0.652,0.289c-0.24-0.054-0.249-0.404-0.326-0.688
				c0.342-0.205,0.975-0.454,0.688-1.051c-0.042,0.006-0.065-0.008-0.072-0.036c-0.671,0.001-1.062,0.739-1.774,0.725
				c-0.535-0.011-0.867-0.449-1.014-1.014c0.117-0.752,0.596-1.334,1.303-1.377c0.069,0.19,0.253,0.409,0.218,0.58
				C380.971,108.36,380.078,108.385,380.496,108.969z"/>
			<path fill-rule="evenodd" clip-rule="evenodd" d="M380.678,110.815c-0.344,0.805-0.969,1.638-1.376,2.499
				c0.616,0.454,1.353-0.201,1.448-0.833c0.025-0.162,0-0.316-0.037-0.471c0.177-0.198,0.371-0.378,0.652-0.471
				c0.651,1.343-0.645,3.142-2.281,2.716c-2.137-0.555-1.789-3.739,0.326-3.875C379.96,110.346,380.227,110.515,380.678,110.815z
				 M378.65,112.88c0.387-0.458,0.674-1.016,0.941-1.594C378.868,110.928,377.973,112.276,378.65,112.88z"/>
			<path fill-rule="evenodd" clip-rule="evenodd" fill="#FFFFFF" d="M379.592,111.286c-0.268,0.578-0.555,1.136-0.941,1.594
				C377.973,112.276,378.868,110.928,379.592,111.286z"/>
			<path fill-rule="evenodd" clip-rule="evenodd" d="M377.31,113.967c-0.349,0.413-0.023,0.842,0.29,1.086
				c0.514,0.401,1.498,0.73,1.847,1.123c-0.112,0.262-0.222,0.526-0.435,0.688c-1.06-0.581-2.119-1.164-3.114-1.811
				c0.163-0.235,0.153-0.644,0.616-0.579c0.07-0.154-0.047-0.307-0.073-0.471c0.116-0.175,0.169-0.604,0.398-0.544
				C377.058,113.567,377.172,113.778,377.31,113.967z"/>
			<path fill-rule="evenodd" clip-rule="evenodd" d="M374.412,115.017c0.813-0.107,0.768,1.113,0.109,1.159
				C373.869,116.221,373.609,115.123,374.412,115.017z"/>
			<path fill-rule="evenodd" clip-rule="evenodd" d="M378.65,117.552c-0.096,0.256-0.234,0.468-0.398,0.651
				c-1.039-0.471-2.184-1.147-3.152-1.811c0.117-0.258,0.275-0.474,0.436-0.688C376.586,116.309,377.688,116.86,378.65,117.552z"/>
			<path fill-rule="evenodd" clip-rule="evenodd" d="M377.781,119.073c-0.145,0.33-0.285,0.762-0.689,0.724
				c0.069,1.11-0.644,1.885-1.629,1.956c-1.643,0.118-2.824-1.925-1.738-3.078c0.169-0.18,0.388-0.25,0.652-0.435
				c0.061-0.184-0.197-0.235-0.109-0.326c0.108-0.242,0.206-0.495,0.398-0.652C375.737,117.833,376.791,118.421,377.781,119.073z
				 M374.195,119.797c0.076,1.219,2.186,1.404,2.209,0.036c0.012-0.69-0.732-1.205-1.376-1.086
				C374.527,118.84,374.159,119.212,374.195,119.797z"/>
			<path fill-rule="evenodd" clip-rule="evenodd" d="M311.761,118.131c0.129,0.245-0.048,0.854,0.071,1.195
				c0.068,0.163,0.4,0.06,0.508,0.182c0.063,0.169,0.067,0.565-0.036,0.688c-0.118,0.075-0.39-0.003-0.472,0.108
				c-0.109,0.822,0.041,2.047-0.071,2.753c-0.147,0.114-0.686,0.114-0.833,0c-0.084-0.834-0.013-1.822-0.036-2.717
				c-0.013-0.181-0.343-0.044-0.398-0.181c-0.121-0.107-0.081-0.49-0.036-0.651c0.087-0.106,0.355-0.03,0.435-0.146
				c0.058-0.424-0.138-1.104,0.145-1.304C311.285,118.076,311.618,118.008,311.761,118.131z"/>
			<path fill-rule="evenodd" clip-rule="evenodd" fill="#FFFFFF" d="M375.028,118.747c0.644-0.119,1.388,0.396,1.376,1.086
				c-0.023,1.368-2.133,1.183-2.209-0.036C374.159,119.212,374.527,118.84,375.028,118.747z"/>
			<path fill-rule="evenodd" clip-rule="evenodd" d="M305.785,121.463c-0.809,0.217-2.24-0.075-2.934,0.145
				c0.103,0.636,0.697,1.009,1.449,0.797c0.191-0.054,0.322-0.275,0.507-0.289c0.261-0.02,0.504,0.252,0.651,0.325
				c-1.013,1.525-3.51,0.674-3.549-1.122c-0.021-0.968,0.788-1.85,1.63-1.956C304.96,119.183,305.904,120.212,305.785,121.463z
				 M302.961,120.738c0.465,0.14,1.322,0.076,1.847,0.036C304.723,119.898,303.104,119.976,302.961,120.738z"/>
			<path fill-rule="evenodd" clip-rule="evenodd" d="M309.842,123.057c-0.148,0.123-0.631,0.085-0.834,0.036
				c-0.219-0.907,0.455-3.212-0.904-2.897c-0.91,0.211-0.492,1.858-0.652,2.897c-0.197,0.051-0.602,0.064-0.797,0
				c-0.061-1.123-0.061-2.498,0-3.622c0.375-0.116,0.842-0.024,0.979,0.218c0.42-0.249,1.036-0.453,1.521-0.254
				C310.213,119.87,309.835,121.7,309.842,123.057z"/>
			<path fill-rule="evenodd" clip-rule="evenodd" d="M314.621,119.508c-0.033,0.243-0.154,0.4-0.217,0.615
				c-0.101,0.104-0.371,0.039-0.507,0.108c-0.544,0.506-0.153,1.947-0.326,2.825c-0.147,0.114-0.685,0.114-0.833,0
				c-0.037-1.101-0.107-2.545,0.037-3.586c0.23-0.133,0.712-0.022,0.796,0.218C313.813,119.521,314.305,119.159,314.621,119.508z"/>
			<path fill-rule="evenodd" clip-rule="evenodd" d="M318.786,121.463c-0.798,0.193-2.157-0.027-2.897,0.108
				c-0.102,0.876,1.383,1.11,1.92,0.544c0.28,0.046,0.445,0.206,0.688,0.289c-0.934,1.521-3.439,0.782-3.549-0.978
				c-0.068-1.106,0.779-2.27,2.281-2.064C318.203,119.496,318.912,120.389,318.786,121.463z M315.961,120.738
				c0.454,0.115,1.396,0.125,1.848,0C317.775,119.972,316.104,119.93,315.961,120.738z"/>
			<path fill-rule="evenodd" clip-rule="evenodd" fill="#FFFFFF" d="M304.808,120.774c-0.524,0.04-1.382,0.104-1.847-0.036
				C303.104,119.976,304.723,119.898,304.808,120.774z"/>
			<path fill-rule="evenodd" clip-rule="evenodd" fill="#FFFFFF" d="M317.809,120.738c-0.452,0.125-1.394,0.115-1.848,0
				C316.104,119.93,317.775,119.972,317.809,120.738z"/>
			<path fill-rule="evenodd" clip-rule="evenodd" d="M353.299,120.92c1.69,0.023,3.477-0.048,5.107,0.036
				c0.131,5.852,0.072,12.276,0.072,18.397c0,0.892,0.135,1.864,0,2.607c-0.092,0.501-0.659,1.154-0.941,1.629
				c-0.955,1.603-1.811,3.401-2.826,4.817c-0.406,0.041-1.136,0.1-1.484-0.036c-0.132-7.734-0.072-15.94-0.072-23.938
				c0-1.161-0.029-2.364,0.036-3.404C353.211,120.977,353.247,120.94,353.299,120.92z"/>
			<path fill-rule="evenodd" clip-rule="evenodd" d="M375.499,123.021c-0.124,0.262-0.255,0.517-0.435,0.724
				c-0.729-0.226-1.389-1.035-2.173-1.158c-0.532-0.084-0.875,0.264-0.797,0.797c0.138,0.93,1.71,1.106,2.21,1.701
				c-0.128,0.26-0.268,0.506-0.436,0.725c-1.02-0.634-2.143-1.165-3.114-1.847c0.142-0.342,0.261-0.704,0.688-0.761
				c-0.082-1.022,0.521-1.555,1.23-1.666C373.793,121.854,374.568,122.515,375.499,123.021z"/>
			<path fill-rule="evenodd" clip-rule="evenodd" d="M345.078,124.649c-0.254-0.096-0.398-0.301-0.579-0.471
				c0.183-0.117,0.675-1.229,0.036-1.23c-0.39-0.002-0.506,0.761-0.833,1.158c-0.636,0.772-2.194,0.483-1.883-1.086
				c0.063-0.321,0.282-0.521,0.543-0.797c0.167,0.171,0.475,0.259,0.507,0.471c0.039,0.256-0.424,0.544-0.181,0.941
				c0.042-0.006,0.064,0.008,0.072,0.036c0.391,0.006,0.487-0.374,0.616-0.615c0.191-0.361,0.404-0.818,0.869-0.941
				C345.701,121.728,346.125,124.048,345.078,124.649z"/>
			<path fill-rule="evenodd" clip-rule="evenodd" d="M369.162,124.106c0.803-0.12,0.822,1.125,0.107,1.159
				C368.586,125.299,368.398,124.221,369.162,124.106z"/>
			<path fill-rule="evenodd" clip-rule="evenodd" d="M373.398,126.642c-0.087,0.275-0.207,0.518-0.398,0.688
				c-1.086-0.543-2.084-1.176-3.114-1.774c0.106-0.195,0.177-0.678,0.435-0.725c0.18-0.032,0.58,0.313,0.797,0.435
				C371.861,125.684,372.834,126.209,373.398,126.642z"/>
			<path fill-rule="evenodd" clip-rule="evenodd" d="M343.92,125.266c0.191,0.788-0.025,2.13,0.108,2.861
				c0.696-0.068,0.931-0.56,0.869-1.159c-0.029-0.286-0.31-0.528-0.326-0.761c-0.02-0.28,0.226-0.48,0.29-0.651
				c1.502,0.966,0.789,3.381-0.979,3.549c-1.035,0.099-1.947-0.812-2.063-1.521C341.612,126.323,342.516,125.015,343.92,125.266z
				 M343.23,128.054c0.061-0.536,0.061-1.311,0-1.847C342.428,126.188,342.345,127.98,343.23,128.054z"/>
			<path fill-rule="evenodd" clip-rule="evenodd" d="M372.565,128.127c-0.116,0.233-0.226,0.474-0.397,0.651
				c-0.816-0.311-1.506-0.82-2.246-1.231c-0.73-0.406-1.462-0.819-2.174-1.268c0.129-0.258,0.271-0.502,0.436-0.724
				C369.654,126.402,371.182,127.192,372.565,128.127z"/>
			<path fill-rule="evenodd" clip-rule="evenodd" fill="#FFFFFF" d="M343.23,126.207c0.061,0.536,0.061,1.311,0,1.847
				C342.345,127.98,342.428,126.188,343.23,126.207z"/>
			<path fill-rule="evenodd" clip-rule="evenodd" d="M371.479,132.689c-0.098,0.275-0.223,0.525-0.434,0.688
				c-1.435-0.823-2.908-1.607-4.273-2.499c0.152-0.311,0.261-0.76,0.688-0.688c-0.117-1.173,0.838-2.259,2.209-1.919
				c1.092,0.271,2.105,1.746,1.268,2.897c-0.129,0.177-0.699,0.429-0.724,0.579C370.146,132.146,371.421,132.383,371.479,132.689z
				 M368.184,130.408c0.25,1.184,2.569,1.08,2.101-0.507c-0.124-0.419-0.589-0.855-1.304-0.725
				C368.467,129.271,368.034,129.699,368.184,130.408z"/>
			<path fill-rule="evenodd" clip-rule="evenodd" fill="#FFFFFF" d="M368.98,129.177c0.715-0.131,1.18,0.306,1.304,0.725
				c0.469,1.587-1.851,1.69-2.101,0.507C368.034,129.699,368.467,129.271,368.98,129.177z"/>
			<path fill-rule="evenodd" clip-rule="evenodd" d="M345.514,129.865c0.113,0.138,0.113,0.658,0,0.796
				c-0.774,0.122-2.244-0.235-2.861,0.435c-0.224,1.552,1.727,0.929,2.861,1.123c0.123,0.148,0.084,0.631,0.035,0.833
				c-0.754,0.131-1.664,0.072-2.57,0.072c-0.87,0-1.801,0.087-2.5-0.108c-0.045-0.252-0.04-0.52,0-0.797
				c0.477-0.104,1.191,0.032,1.666-0.072c0.014-0.313-0.277-0.502-0.325-0.761c-0.111-0.594,0.142-1.213,0.615-1.448
				C343.205,129.556,344.511,129.966,345.514,129.865z"/>
			<path fill-rule="evenodd" clip-rule="evenodd" d="M333.671,145.654c0.128,0.565,0.483,1.057,0.761,1.558
				c1.776,3.205,3.451,6.576,5.215,9.851c0.126,0.234,0.372,0.459,0.326,0.761c-1.625,0.087-3.895,0.011-5.578,0.036
				c-0.389-0.396-0.615-0.927-0.869-1.413c-1.67-3.196-3.328-6.46-5.105-9.705c-0.104-0.189-0.34-0.616-0.616-0.507
				c-0.241,0.096-0.145,0.951-0.145,1.34c0,3.426,0.03,6.905-0.036,10.212c-0.339,0.138-0.783,0.073-1.231,0.073
				c-1.251,0-2.839,0.032-3.948-0.036c-0.195-1.089-0.107-2.224-0.107-3.368c0-7.401,0-14.874,0-22.417
				c0-0.556-0.064-1.444,0.107-1.63c3.445-0.038,7.799-0.329,10.648,0.326c1.496,0.344,2.67,0.965,3.585,1.955
				c1.595,1.729,2.596,4.461,1.919,7.678C338.021,143.1,336.094,144.62,333.671,145.654z M327.695,135.587
				c-0.061,1.727-0.061,3.706,0,5.433c0.908,0.137,1.858,0.078,2.68,0c0.789-0.075,1.705-0.177,2.318-0.58
				c0.689-0.454,1.049-1.468,0.941-2.463c-0.266-2.464-2.946-2.585-5.831-2.462C327.762,135.532,327.722,135.553,327.695,135.587z"
				/>
			<path fill-rule="evenodd" clip-rule="evenodd" d="M365.069,131.06c0.966-0.255,0.856,1.092,0.181,1.123
				C364.684,132.209,364.35,131.25,365.069,131.06z"/>
			<path fill-rule="evenodd" clip-rule="evenodd" d="M369.379,133.522c-0.051,0.324-0.201,0.548-0.398,0.725
				c-1.071-0.57-2.131-1.153-3.115-1.811c0.088-0.287,0.248-0.502,0.436-0.688C367.363,132.304,368.387,132.897,369.379,133.522z"/>
			<path fill-rule="evenodd" clip-rule="evenodd" d="M366.011,133.522c0.122,0.153,0.034,0.512,0,0.725
				c-0.431,0.358-1.196,0.763-0.905,1.738c0.406,1.365,2.705,0.581,2.173-0.905c0.199-0.163,0.462-0.263,0.724-0.362
				c0.462,1.155-0.21,2.205-0.941,2.644c-1.241,0.745-3.047-0.284-2.861-1.956C364.301,134.492,365.072,133.621,366.011,133.522z"/>
			<path fill-rule="evenodd" clip-rule="evenodd" d="M343.014,134.646c-0.262,0.361-0.461,0.792-0.361,1.34
				c0.178,0.985,1.674,1.112,2.1,0.289c0.205-0.575,0.055-1.229-0.289-1.557c0.112-0.262,0.27-0.479,0.471-0.652
				c1.449,1.081,0.639,3.944-1.412,3.694c-1.605-0.195-2.379-2.595-0.979-3.73C342.813,134.123,342.814,134.481,343.014,134.646z"/>
			<path fill-rule="evenodd" clip-rule="evenodd" fill="#FFFFFF" d="M327.804,135.515c2.885-0.123,5.565-0.002,5.831,2.462
				c0.107,0.995-0.252,2.009-0.941,2.463c-0.613,0.403-1.529,0.505-2.318,0.58c-0.821,0.078-1.771,0.137-2.68,0
				c-0.061-1.727-0.061-3.706,0-5.433C327.722,135.553,327.762,135.532,327.804,135.515z"/>
			<path fill-rule="evenodd" clip-rule="evenodd" d="M363.802,137.977c-0.281,0.145-0.788,0.398-0.507,0.869
				c0.805-0.065,0.982-0.917,1.955-0.724c0.48,0.095,0.848,0.634,0.869,1.05c0.039,0.736-0.712,1.45-1.305,1.558
				c-0.256-0.069-0.241-0.409-0.324-0.652c0.111-0.225,1.027-0.447,0.76-0.941c-0.271-0.501-1.213,0.375-1.484,0.471
				c-0.77,0.271-1.479-0.325-1.449-1.05C362.348,137.821,363.856,136.485,363.802,137.977z"/>
			<path fill-rule="evenodd" clip-rule="evenodd" d="M342.615,138.375c-0.123,1.251,1.874,0.558,2.934,0.797
				c0.064,0.206,0.053,0.625,0,0.833c-1.123,0.061-2.498,0.06-3.621,0c-0.162-0.295-0.072-0.771,0.217-0.833
				c-0.077-0.253-0.277-0.286-0.325-0.507C341.67,137.977,342.223,138.114,342.615,138.375z"/>
			<path fill-rule="evenodd" clip-rule="evenodd" d="M360.543,139.063c0.744-0.086,0.795,1.108,0.107,1.159
				C359.992,140.271,359.732,139.157,360.543,139.063z"/>
			<path fill-rule="evenodd" clip-rule="evenodd" d="M364.779,141.599c-0.129,0.245-0.234,0.514-0.435,0.688
				c-1.048-0.605-2.159-1.147-3.114-1.847c0.141-0.245,0.251-0.521,0.471-0.688C362.703,140.392,363.838,140.897,364.779,141.599z"
				/>
			<path fill-rule="evenodd" clip-rule="evenodd" d="M363.91,143.083c-0.133,0.35-0.27,0.696-0.688,0.761
				c0.121,1.297-1.038,2.05-2.064,1.883c-0.789-0.128-1.756-0.972-1.775-1.883c-0.016-0.808,0.549-1.224,1.123-1.63
				c-0.294-0.478-0.994-0.551-1.377-0.941c0.035-0.211,0.24-0.553,0.436-0.725C361.025,141.38,362.508,142.191,363.91,143.083z
				 M360.361,143.481c-0.389,1.54,2.488,1.899,2.137,0.108c-0.104-0.53-0.709-0.977-1.377-0.832
				C360.648,142.859,360.421,143.244,360.361,143.481z"/>
			<path fill-rule="evenodd" clip-rule="evenodd" d="M343.883,140.621c0.269,0.741-0.006,2.192,0.146,2.933
				c0.673-0.106,0.932-0.573,0.869-1.194c-0.028-0.284-0.317-0.528-0.326-0.761c-0.011-0.26,0.223-0.459,0.29-0.616
				c1.112,0.55,1.063,2.44,0,3.188c-1.285,0.903-3.271-0.084-3.042-1.956C341.93,141.31,342.792,140.546,343.883,140.621z
				 M343.195,143.445c0.129-0.198,0.072-0.583,0.072-0.941c0-0.337,0.1-0.8-0.145-0.905
				C342.367,141.791,342.455,143.43,343.195,143.445z"/>
			<path fill-rule="evenodd" clip-rule="evenodd" fill="#FFFFFF" d="M343.123,141.599c0.244,0.105,0.145,0.568,0.145,0.905
				c0,0.358,0.057,0.743-0.072,0.941C342.455,143.43,342.367,141.791,343.123,141.599z"/>
			<path fill-rule="evenodd" clip-rule="evenodd" fill="#FFFFFF" d="M361.121,142.758c0.668-0.145,1.272,0.302,1.377,0.832
				c0.352,1.791-2.525,1.432-2.137-0.108C360.421,143.244,360.648,142.859,361.121,142.758z"/>
			<path fill-rule="evenodd" clip-rule="evenodd" d="M359.129,145.438c-0.32,0.382-0.053,0.805,0.254,1.05
				c0.508,0.404,1.5,0.769,1.883,1.123c-0.063,0.323-0.248,0.523-0.434,0.725c-1.043-0.6-2.111-1.173-3.115-1.812
				c0.143-0.269,0.208-0.613,0.615-0.615c-0.076-0.45,0.009-0.799,0.254-1.014C358.861,144.981,358.965,145.24,359.129,145.438z"/>
			<path fill-rule="evenodd" clip-rule="evenodd" d="M345.514,145.256c0.119,0.154,0.104,0.676,0,0.833
				c-0.907,0.18-2.422-0.247-2.861,0.398c-0.133,1.6,1.705,0.979,2.861,1.123c0.119,0.163,0.104,0.702,0,0.869
				c-1.582,0.061-3.416,0.061-4.998,0c-0.111-0.173-0.111-0.696,0-0.869c0.428-0.067,1.245,0.104,1.666-0.072
				c-0.186-0.419-0.465-0.743-0.362-1.449C342.273,144.788,344.111,145.353,345.514,145.256z"/>
			<path fill-rule="evenodd" clip-rule="evenodd" d="M359.166,148.081c-0.137,0.429-0.445,0.803-0.688,1.231
				c-0.232,0.408-0.508,0.836-0.652,1.304c0.766,0.419,1.566-0.451,1.376-1.34c0.194-0.181,0.347-0.401,0.688-0.435
				c0.492,1.18-0.424,2.657-1.666,2.752c-1.156,0.089-2.107-0.904-2.137-1.883C356.043,148.208,357.744,147.024,359.166,148.081z
				 M357.139,150.146c0.378-0.479,0.706-1.008,0.941-1.63C357.225,148.296,356.556,149.505,357.139,150.146z"/>
			<path fill-rule="evenodd" clip-rule="evenodd" fill="#FFFFFF" d="M358.08,148.516c-0.235,0.622-0.563,1.151-0.941,1.63
				C356.556,149.505,357.225,148.296,358.08,148.516z"/>
			<path fill-rule="evenodd" clip-rule="evenodd" d="M343.014,150.109c-0.498,0.579-0.54,1.573,0.072,1.991
				c0.744,0.507,1.764-0.024,1.775-0.941c0.006-0.465-0.217-0.703-0.398-1.05c0.176-0.187,0.254-0.471,0.507-0.58
				c1.376,1.136,0.608,3.742-1.304,3.694c-1.756-0.044-2.51-2.666-1.158-3.73C342.844,149.53,342.801,149.947,343.014,150.109z"/>
			<path fill-rule="evenodd" clip-rule="evenodd" d="M355.291,150.761c0.266,0.06,0.449,0.203,0.615,0.362
				c0.004,0.173-0.166,0.172-0.181,0.326c0.608,0.731,1.689,0.99,2.427,1.593c-0.109,0.266-0.247,0.502-0.436,0.688
				c-0.508-0.201-1.222-0.687-1.811-1.014c-0.401-0.224-0.714-0.461-0.978,0c-0.216-0.098-0.393-0.235-0.579-0.362
				c0.005-0.152,0.152-0.162,0.108-0.362c-0.228-0.376-0.784-0.422-1.05-0.761c0.077-0.272,0.27-0.43,0.361-0.688
				C354.318,150.613,354.912,151.491,355.291,150.761z"/>
			<path fill-rule="evenodd" clip-rule="evenodd" d="M357.174,154.708c-0.063,0.322-0.262,0.512-0.434,0.725
				c-0.559-0.334-1.338-0.831-1.956-1.123c-0.646-0.304-1.169,0.326-0.905,0.942c0.324,0.758,1.598,0.953,2.137,1.484
				c-0.119,0.268-0.23,0.543-0.436,0.725c-1.06-0.582-2.121-1.161-3.113-1.811c0.145-0.327,0.223-0.719,0.688-0.725
				c-0.08-0.996,0.578-1.955,1.594-1.666c0.379,0.108,0.816,0.481,1.23,0.725C356.426,154.245,356.894,154.426,357.174,154.708z"/>
			<path fill-rule="evenodd" clip-rule="evenodd" d="M343.92,153.839c0.166,0.811,0.023,2.087,0.072,2.897
				c0.99,0.041,1.107-1.415,0.543-1.919c0.109-0.229,0.169-0.508,0.362-0.652c0.931,0.563,1.029,2.037,0.325,2.861
				c-1.003,1.176-3.158,0.625-3.403-0.833C341.574,154.737,342.555,153.716,343.92,153.839z M343.195,156.664
				c0.123-0.209,0.072-0.611,0.072-0.978c0-0.338,0.101-0.798-0.145-0.906C342.4,155.002,342.418,156.52,343.195,156.664z"/>
			<path fill-rule="evenodd" clip-rule="evenodd" fill="#FFFFFF" d="M343.123,154.78c0.245,0.108,0.145,0.568,0.145,0.906
				c0,0.366,0.051,0.769-0.072,0.978C342.418,156.52,342.4,155.002,343.123,154.78z"/>
		</g>
	</g>
</g>
<g>
	<circle fill="none" stroke="#FF0000" stroke-width="0.0012" stroke-miterlimit="10" cx="41.341" cy="353.465" r="4.961"/>
	<circle fill="none" stroke="#FF0000" stroke-width="0.0012" stroke-miterlimit="10" cx="41.341" cy="512.205" r="4.961"/>
	<circle fill="none" stroke="#FF0000" stroke-width="0.0012" stroke-miterlimit="10" cx="200.081" cy="353.465" r="4.961"/>
	<circle fill="none" stroke="#FF0000" stroke-width="0.0012" stroke-miterlimit="10" cx="200.081" cy="512.205" r="4.961"/>
	<path fill="none" stroke="#FF0000" stroke-width="0.001" stroke-miterlimit="10" d="M219.925,353.463
		c0-10.957-8.885-19.842-19.844-19.842h-75.826v39.686h-1.702v2.834h54.852v113.387H64.019V376.141h54.852v-2.834h-1.702v-39.686
		H41.341c-10.957,0-19.842,8.885-19.842,19.842v158.74c0,10.959,8.885,19.844,19.842,19.844h158.74
		c10.959,0,19.844-8.885,19.844-19.844V353.463z"/>
</g>
</svg>
