<?xml version="1.0" encoding="utf-8"?>
<!-- Generator: Adobe Illustrator 23.0.1, SVG Export Plug-In . SVG Version: 6.00 Build 0)  -->
<svg version="1.1" xmlns="http://www.w3.org/2000/svg" xmlns:xlink="http://www.w3.org/1999/xlink" x="0px" y="0px"
	 viewBox="0 0 226.77 226.77" style="enable-background:new 0 0 226.77 226.77;" xml:space="preserve">
<style type="text/css">
	.st0{display:none;}
	.st1{display:inline;fill:none;stroke:#010202;stroke-width:0.2785;stroke-miterlimit:10;}
	.st2{display:inline;fill:none;stroke:#010202;stroke-width:0.2835;stroke-miterlimit:10;}
	.st3{fill:none;stroke:#010202;stroke-width:0.2835;stroke-miterlimit:10;}
</style>
<g id="Top" class="st0">
	<rect x="41.44" y="91.93" class="st1" width="143.9" height="77.07"/>
	<path class="st2" d="M57.01,190.27c0-0.62,0.11-1.19,0.32-1.72s0.51-0.99,0.89-1.37s0.83-0.69,1.36-0.91
		c0.53-0.22,1.11-0.33,1.74-0.33c0.36,0,0.69,0.03,0.99,0.1c0.3,0.06,0.57,0.14,0.8,0.23c0.23,0.09,0.43,0.18,0.61,0.28
		c0.17,0.1,0.31,0.19,0.41,0.27c0.18,0.14,0.21,0.33,0.07,0.55l-0.16,0.24c-0.14,0.21-0.32,0.24-0.55,0.1
		c-0.09-0.06-0.2-0.12-0.34-0.2c-0.14-0.08-0.29-0.15-0.47-0.22c-0.18-0.07-0.38-0.13-0.6-0.17s-0.46-0.07-0.71-0.07
		c-0.5,0-0.94,0.08-1.32,0.25c-0.38,0.17-0.71,0.4-0.98,0.69c-0.27,0.29-0.48,0.63-0.62,1.03c-0.14,0.39-0.21,0.81-0.21,1.26
		s0.07,0.88,0.22,1.28c0.14,0.41,0.35,0.76,0.62,1.07c0.27,0.3,0.6,0.55,0.99,0.73c0.39,0.18,0.83,0.27,1.31,0.27
		c0.28,0,0.54-0.03,0.78-0.09c0.24-0.06,0.46-0.13,0.65-0.22c0.2-0.08,0.37-0.17,0.51-0.27c0.14-0.1,0.26-0.18,0.36-0.25
		c0.22-0.17,0.4-0.15,0.55,0.05l0.18,0.24c0.15,0.2,0.13,0.38-0.06,0.55c-0.11,0.09-0.26,0.19-0.44,0.32s-0.4,0.24-0.65,0.35
		c-0.25,0.11-0.54,0.21-0.86,0.29c-0.32,0.08-0.68,0.12-1.06,0.12c-0.66,0-1.25-0.11-1.78-0.34c-0.53-0.23-0.99-0.54-1.37-0.94
		c-0.38-0.4-0.67-0.87-0.88-1.4C57.11,191.47,57.01,190.89,57.01,190.27z"/>
	<path class="st2" d="M65.24,192.89c0-0.31,0.06-0.58,0.18-0.81c0.12-0.23,0.28-0.42,0.48-0.57c0.2-0.15,0.43-0.28,0.68-0.37
		c0.25-0.1,0.51-0.17,0.79-0.22c0.27-0.05,0.54-0.08,0.8-0.1c0.26-0.02,0.49-0.02,0.7-0.02h0.31v-0.16c0-0.25-0.03-0.46-0.1-0.63
		c-0.07-0.17-0.16-0.31-0.28-0.41c-0.12-0.1-0.26-0.18-0.42-0.22c-0.16-0.04-0.33-0.07-0.52-0.07c-0.3,0-0.57,0.04-0.81,0.13
		c-0.24,0.09-0.42,0.17-0.56,0.25c-0.23,0.11-0.41,0.06-0.54-0.14l-0.1-0.17c-0.13-0.24-0.08-0.42,0.13-0.54
		c0.18-0.1,0.44-0.22,0.77-0.34s0.73-0.18,1.19-0.18c0.76,0,1.35,0.2,1.76,0.61c0.42,0.4,0.62,0.99,0.62,1.77v3.44
		c0,0.26-0.13,0.4-0.4,0.4h-0.3c-0.26,0-0.4-0.13-0.4-0.4v-0.36c0-0.06,0-0.11,0-0.16s0-0.09,0.01-0.12
		c0.01-0.03,0.02-0.06,0.02-0.1h-0.02c-0.12,0.24-0.27,0.45-0.46,0.64c-0.16,0.16-0.36,0.31-0.61,0.44s-0.55,0.2-0.91,0.2
		c-0.26,0-0.52-0.04-0.77-0.12c-0.25-0.08-0.47-0.2-0.65-0.35c-0.19-0.16-0.34-0.34-0.45-0.56
		C65.3,193.44,65.24,193.18,65.24,192.89z M66.42,192.8c0,0.24,0.09,0.46,0.28,0.67c0.19,0.2,0.47,0.31,0.85,0.31
		c0.26,0,0.49-0.06,0.69-0.17s0.38-0.27,0.52-0.46c0.14-0.19,0.25-0.4,0.32-0.62c0.08-0.23,0.11-0.45,0.11-0.68v-0.26h-0.31
		c-0.22,0-0.46,0.01-0.74,0.03c-0.28,0.02-0.55,0.07-0.8,0.15c-0.26,0.08-0.47,0.2-0.65,0.37S66.42,192.51,66.42,192.8z"/>
	<path class="st2" d="M71.95,188.88c0-0.26,0.13-0.4,0.4-0.4h0.28c0.26,0,0.4,0.11,0.4,0.34v0.36c0,0.05,0,0.09-0.01,0.13
		s-0.01,0.07-0.01,0.1c-0.01,0.03-0.01,0.06-0.01,0.1h0.02c0.1-0.22,0.25-0.41,0.44-0.58c0.16-0.14,0.37-0.28,0.63-0.4
		s0.58-0.19,0.97-0.19c0.41,0,0.78,0.08,1.1,0.23c0.33,0.16,0.61,0.37,0.84,0.65c0.23,0.28,0.41,0.61,0.53,1
		c0.12,0.39,0.19,0.82,0.19,1.29c0,0.48-0.07,0.92-0.2,1.31c-0.14,0.39-0.33,0.73-0.58,1c-0.25,0.28-0.54,0.49-0.88,0.64
		s-0.7,0.23-1.09,0.23c-0.35,0-0.65-0.06-0.88-0.17c-0.24-0.11-0.43-0.24-0.58-0.37c-0.18-0.15-0.32-0.33-0.42-0.54h-0.02
		c0,0.04,0,0.09,0.01,0.14c0.01,0.05,0.01,0.1,0.02,0.17c0,0.06,0.01,0.14,0.01,0.22v2.41c0,0.26-0.13,0.4-0.38,0.4h-0.37
		c-0.26,0-0.4-0.13-0.4-0.4V188.88z M73.08,191.54c0,0.27,0.04,0.54,0.11,0.79s0.19,0.48,0.33,0.68c0.14,0.2,0.32,0.36,0.53,0.49
		s0.46,0.19,0.74,0.19c0.24,0,0.47-0.05,0.68-0.14s0.4-0.24,0.56-0.42c0.16-0.18,0.29-0.41,0.38-0.68c0.09-0.27,0.14-0.57,0.14-0.92
		c0-0.33-0.04-0.63-0.13-0.89c-0.08-0.27-0.2-0.5-0.35-0.68c-0.15-0.19-0.33-0.33-0.55-0.44c-0.21-0.1-0.44-0.16-0.69-0.16
		c-0.23,0-0.45,0.04-0.66,0.13s-0.39,0.21-0.56,0.39s-0.29,0.4-0.39,0.68S73.08,191.15,73.08,191.54z"/>
	<path class="st2" d="M78.55,192.89c0-0.31,0.06-0.58,0.18-0.81c0.12-0.23,0.28-0.42,0.48-0.57c0.2-0.15,0.43-0.28,0.68-0.37
		c0.25-0.1,0.51-0.17,0.79-0.22c0.27-0.05,0.54-0.08,0.8-0.1c0.26-0.02,0.49-0.02,0.7-0.02h0.31v-0.16c0-0.25-0.03-0.46-0.1-0.63
		c-0.07-0.17-0.16-0.31-0.28-0.41c-0.12-0.1-0.26-0.18-0.42-0.22c-0.16-0.04-0.33-0.07-0.52-0.07c-0.3,0-0.57,0.04-0.81,0.13
		c-0.24,0.09-0.42,0.17-0.56,0.25c-0.23,0.11-0.41,0.06-0.54-0.14l-0.1-0.17c-0.13-0.24-0.08-0.42,0.13-0.54
		c0.18-0.1,0.44-0.22,0.77-0.34s0.73-0.18,1.19-0.18c0.76,0,1.35,0.2,1.76,0.61c0.42,0.4,0.62,0.99,0.62,1.77v3.44
		c0,0.26-0.13,0.4-0.4,0.4h-0.3c-0.26,0-0.4-0.13-0.4-0.4v-0.36c0-0.06,0-0.11,0-0.16s0-0.09,0.01-0.12
		c0.01-0.03,0.02-0.06,0.02-0.1h-0.02c-0.12,0.24-0.27,0.45-0.46,0.64c-0.16,0.16-0.36,0.31-0.61,0.44s-0.55,0.2-0.91,0.2
		c-0.26,0-0.52-0.04-0.77-0.12c-0.25-0.08-0.47-0.2-0.65-0.35c-0.19-0.16-0.34-0.34-0.45-0.56
		C78.61,193.44,78.55,193.18,78.55,192.89z M79.73,192.8c0,0.24,0.09,0.46,0.28,0.67c0.19,0.2,0.47,0.31,0.85,0.31
		c0.26,0,0.49-0.06,0.69-0.17s0.38-0.27,0.52-0.46c0.14-0.19,0.25-0.4,0.32-0.62c0.08-0.23,0.11-0.45,0.11-0.68v-0.26h-0.31
		c-0.22,0-0.46,0.01-0.74,0.03c-0.28,0.02-0.55,0.07-0.8,0.15c-0.26,0.08-0.47,0.2-0.65,0.37S79.73,192.51,79.73,192.8z"/>
	<path class="st2" d="M84.85,191.51c0-0.45,0.08-0.87,0.24-1.25s0.38-0.72,0.67-1.01c0.29-0.28,0.63-0.51,1.03-0.67
		c0.4-0.16,0.83-0.25,1.3-0.25c0.26,0,0.49,0.02,0.7,0.07c0.21,0.04,0.4,0.1,0.56,0.16c0.17,0.06,0.31,0.13,0.44,0.21
		c0.12,0.08,0.23,0.15,0.31,0.21c0.1,0.06,0.16,0.14,0.17,0.24c0.01,0.1-0.02,0.2-0.1,0.3l-0.12,0.18c-0.13,0.2-0.31,0.23-0.54,0.1
		c-0.13-0.09-0.31-0.19-0.53-0.29c-0.23-0.11-0.5-0.16-0.82-0.16c-0.3,0-0.59,0.05-0.85,0.16c-0.26,0.11-0.48,0.26-0.67,0.45
		c-0.19,0.19-0.33,0.42-0.44,0.68c-0.1,0.26-0.16,0.55-0.16,0.86c0,0.31,0.05,0.6,0.16,0.86c0.1,0.26,0.25,0.49,0.44,0.69
		c0.19,0.2,0.42,0.35,0.68,0.46c0.26,0.11,0.55,0.17,0.86,0.17c0.37,0,0.68-0.06,0.94-0.19s0.46-0.25,0.61-0.36
		c0.22-0.14,0.4-0.11,0.54,0.11l0.1,0.18c0.13,0.22,0.09,0.39-0.11,0.53c-0.09,0.07-0.2,0.15-0.33,0.23
		c-0.13,0.08-0.29,0.16-0.47,0.24s-0.38,0.14-0.61,0.19c-0.23,0.05-0.48,0.08-0.75,0.08c-0.48,0-0.92-0.08-1.31-0.24
		c-0.4-0.16-0.74-0.38-1.02-0.67c-0.28-0.28-0.51-0.62-0.67-1.01C84.93,192.39,84.85,191.97,84.85,191.51z"/>
	<path class="st2" d="M92,187.27c-0.26,0-0.4-0.13-0.4-0.4v-0.4c0-0.26,0.13-0.4,0.4-0.4h0.41c0.26,0,0.4,0.13,0.4,0.4v0.4
		c0,0.26-0.13,0.4-0.4,0.4H92z M91.62,188.88c0-0.26,0.13-0.4,0.4-0.4h0.37c0.26,0,0.4,0.13,0.4,0.4v5.28c0,0.26-0.13,0.4-0.4,0.4
		h-0.37c-0.26,0-0.4-0.13-0.4-0.4V188.88z"/>
	<path class="st2" d="M94.75,189.49h-0.42c-0.26,0-0.38-0.13-0.38-0.4v-0.16c0-0.26,0.13-0.4,0.4-0.4h0.43v-1.33
		c0-0.26,0.13-0.4,0.4-0.4h0.35c0.26,0,0.4,0.13,0.4,0.4v1.33h1.06c0.26,0,0.4,0.13,0.4,0.4v0.16c0,0.26-0.13,0.4-0.38,0.4h-1.07
		v2.7c0,0.29,0.04,0.52,0.12,0.7s0.18,0.31,0.29,0.41c0.12,0.1,0.24,0.16,0.37,0.2c0.13,0.04,0.25,0.06,0.37,0.07
		c0.16,0.02,0.27,0.05,0.33,0.11c0.06,0.06,0.09,0.15,0.09,0.29v0.25c0,0.26-0.16,0.4-0.48,0.4c-0.3,0-0.59-0.04-0.86-0.13
		c-0.27-0.09-0.51-0.22-0.71-0.41c-0.2-0.18-0.37-0.42-0.49-0.7c-0.13-0.28-0.19-0.61-0.19-1V189.49z"/>
	<path class="st2" d="M98.95,187.27c-0.26,0-0.4-0.13-0.4-0.4v-0.4c0-0.26,0.13-0.4,0.4-0.4h0.41c0.26,0,0.4,0.13,0.4,0.4v0.4
		c0,0.26-0.13,0.4-0.4,0.4H98.95z M98.57,188.88c0-0.26,0.13-0.4,0.4-0.4h0.37c0.26,0,0.4,0.13,0.4,0.4v5.28
		c0,0.26-0.13,0.4-0.4,0.4h-0.37c-0.26,0-0.4-0.13-0.4-0.4V188.88z"/>
	<path class="st2" d="M100.8,188.93c-0.05-0.14-0.04-0.25,0.01-0.33c0.06-0.08,0.16-0.13,0.3-0.13h0.41c0.22,0,0.37,0.11,0.44,0.32
		l1.37,3.78c0.03,0.09,0.06,0.18,0.09,0.27c0.03,0.09,0.05,0.18,0.07,0.27c0.02,0.1,0.04,0.19,0.06,0.29h0.02
		c0.02-0.1,0.05-0.19,0.07-0.29c0.02-0.09,0.04-0.18,0.06-0.27c0.02-0.09,0.05-0.18,0.08-0.27l1.37-3.78
		c0.07-0.22,0.22-0.32,0.44-0.32H106c0.14,0,0.25,0.04,0.31,0.13c0.06,0.08,0.06,0.19,0.01,0.33l-1.97,5.3
		c-0.07,0.21-0.22,0.31-0.44,0.31h-0.67c-0.22,0-0.37-0.1-0.44-0.31L100.8,188.93z"/>
	<path class="st2" d="M106.98,191.51c0-0.48,0.08-0.92,0.23-1.31c0.16-0.39,0.37-0.73,0.64-1c0.27-0.28,0.59-0.49,0.96-0.64
		c0.37-0.15,0.77-0.23,1.21-0.23c0.42,0,0.79,0.07,1.12,0.22c0.33,0.14,0.6,0.34,0.82,0.6c0.22,0.26,0.39,0.56,0.5,0.91
		c0.12,0.35,0.17,0.74,0.17,1.16c0,0.11-0.04,0.21-0.11,0.29s-0.17,0.12-0.29,0.12h-4.06c0.02,0.33,0.08,0.62,0.2,0.88
		s0.28,0.47,0.47,0.65c0.19,0.18,0.41,0.31,0.65,0.4s0.5,0.13,0.77,0.13c0.34,0,0.63-0.05,0.88-0.16c0.25-0.11,0.44-0.21,0.58-0.32
		c0.24-0.13,0.42-0.08,0.54,0.13l0.11,0.18c0.06,0.1,0.09,0.2,0.07,0.29c-0.02,0.09-0.08,0.17-0.19,0.23
		c-0.09,0.06-0.2,0.13-0.34,0.21c-0.14,0.08-0.29,0.15-0.46,0.21c-0.17,0.06-0.36,0.12-0.58,0.16s-0.44,0.07-0.68,0.07
		c-0.48,0-0.92-0.08-1.31-0.25c-0.39-0.16-0.73-0.39-1.01-0.67c-0.28-0.28-0.5-0.62-0.66-1.01
		C107.06,192.38,106.98,191.96,106.98,191.51z M111.47,190.87c-0.02-0.54-0.17-0.94-0.45-1.21c-0.28-0.27-0.63-0.41-1.03-0.41
		c-0.45,0-0.83,0.14-1.16,0.43c-0.32,0.28-0.53,0.68-0.62,1.19H111.47z"/>
	<path class="st2" d="M116.76,193.82c-0.08-0.07-0.13-0.15-0.15-0.24s0.01-0.19,0.1-0.31l0.2-0.29c0.14-0.18,0.32-0.21,0.54-0.07
		c0.07,0.06,0.17,0.12,0.29,0.2c0.12,0.08,0.26,0.15,0.41,0.22c0.16,0.07,0.33,0.13,0.52,0.19c0.19,0.05,0.4,0.08,0.62,0.08
		c0.46,0,0.82-0.11,1.09-0.33c0.27-0.22,0.4-0.51,0.4-0.88c0-0.31-0.1-0.57-0.3-0.77c-0.2-0.2-0.45-0.38-0.76-0.53
		c-0.3-0.16-0.63-0.31-0.98-0.46c-0.35-0.15-0.68-0.32-0.98-0.52c-0.3-0.2-0.56-0.44-0.76-0.73c-0.2-0.29-0.3-0.65-0.3-1.09
		c0-0.36,0.07-0.68,0.21-0.97c0.14-0.29,0.33-0.53,0.58-0.74c0.25-0.2,0.54-0.36,0.88-0.47c0.34-0.11,0.7-0.17,1.08-0.17
		c0.25,0,0.48,0.02,0.71,0.07c0.22,0.04,0.43,0.1,0.61,0.16c0.18,0.06,0.34,0.13,0.48,0.21c0.14,0.08,0.24,0.15,0.32,0.21
		c0.19,0.14,0.23,0.32,0.12,0.54l-0.17,0.3c-0.07,0.13-0.15,0.19-0.25,0.2c-0.09,0-0.19-0.03-0.29-0.09
		c-0.16-0.1-0.37-0.2-0.63-0.32s-0.57-0.17-0.93-0.17c-0.44,0-0.8,0.11-1.09,0.32s-0.43,0.5-0.43,0.87c0,0.3,0.1,0.55,0.3,0.74
		c0.2,0.19,0.45,0.36,0.76,0.51c0.3,0.15,0.63,0.29,0.98,0.43c0.35,0.14,0.68,0.31,0.98,0.51s0.56,0.45,0.76,0.74s0.3,0.67,0.3,1.12
		c0,0.34-0.06,0.65-0.18,0.94s-0.3,0.55-0.53,0.76c-0.23,0.22-0.51,0.39-0.85,0.52s-0.71,0.19-1.13,0.19c-0.3,0-0.59-0.03-0.86-0.09
		c-0.27-0.06-0.51-0.14-0.73-0.23s-0.41-0.19-0.57-0.29S116.85,193.9,116.76,193.82z"/>
	<path class="st2" d="M122.96,191.51c0-0.48,0.08-0.92,0.23-1.31c0.16-0.39,0.37-0.73,0.64-1c0.27-0.28,0.59-0.49,0.96-0.64
		c0.37-0.15,0.77-0.23,1.21-0.23c0.42,0,0.79,0.07,1.12,0.22c0.33,0.14,0.6,0.34,0.82,0.6c0.22,0.26,0.39,0.56,0.5,0.91
		c0.12,0.35,0.17,0.74,0.17,1.16c0,0.11-0.04,0.21-0.11,0.29s-0.17,0.12-0.29,0.12h-4.06c0.02,0.33,0.08,0.62,0.2,0.88
		s0.28,0.47,0.47,0.65c0.19,0.18,0.41,0.31,0.65,0.4s0.5,0.13,0.77,0.13c0.34,0,0.63-0.05,0.88-0.16c0.25-0.11,0.44-0.21,0.58-0.32
		c0.24-0.13,0.42-0.08,0.54,0.13l0.11,0.18c0.06,0.1,0.09,0.2,0.07,0.29c-0.02,0.09-0.08,0.17-0.19,0.23
		c-0.09,0.06-0.2,0.13-0.34,0.21c-0.14,0.08-0.29,0.15-0.46,0.21c-0.17,0.06-0.36,0.12-0.58,0.16s-0.44,0.07-0.68,0.07
		c-0.48,0-0.92-0.08-1.31-0.25c-0.39-0.16-0.73-0.39-1.01-0.67c-0.28-0.28-0.5-0.62-0.66-1.01
		C123.04,192.38,122.96,191.96,122.96,191.51z M127.45,190.87c-0.02-0.54-0.17-0.94-0.45-1.21c-0.28-0.27-0.63-0.41-1.03-0.41
		c-0.45,0-0.83,0.14-1.16,0.43c-0.32,0.28-0.53,0.68-0.62,1.19H127.45z"/>
	<path class="st2" d="M129.88,188.88c0-0.26,0.13-0.4,0.4-0.4h0.34c0.26,0,0.4,0.13,0.4,0.4v0.54c0,0.08-0.01,0.16-0.02,0.24
		c-0.01,0.03-0.01,0.07-0.01,0.11H131c0.06-0.13,0.15-0.28,0.27-0.44s0.28-0.32,0.47-0.47c0.19-0.14,0.42-0.27,0.67-0.37
		c0.26-0.1,0.55-0.15,0.89-0.15c0.72,0,1.25,0.19,1.58,0.58s0.5,0.97,0.5,1.75v3.49c0,0.26-0.13,0.4-0.4,0.4h-0.37
		c-0.26,0-0.4-0.13-0.4-0.4v-3.23c0-0.22-0.01-0.42-0.04-0.6c-0.03-0.18-0.08-0.34-0.16-0.48s-0.2-0.24-0.35-0.32
		c-0.15-0.08-0.35-0.12-0.59-0.12c-0.3,0-0.57,0.06-0.82,0.17c-0.25,0.12-0.46,0.27-0.64,0.47c-0.18,0.2-0.32,0.44-0.42,0.71
		c-0.1,0.28-0.15,0.57-0.15,0.88v2.51c0,0.26-0.13,0.4-0.4,0.4h-0.37c-0.26,0-0.4-0.13-0.4-0.4V188.88z"/>
	<path class="st2" d="M136.74,194.04c-0.1-0.06-0.16-0.14-0.17-0.24s0.02-0.2,0.08-0.3l0.12-0.17c0.08-0.1,0.16-0.16,0.25-0.17
		s0.19,0.02,0.31,0.08c0.14,0.09,0.33,0.19,0.58,0.31s0.55,0.18,0.91,0.18c0.3,0,0.55-0.07,0.74-0.21c0.19-0.14,0.29-0.34,0.29-0.59
		c0-0.2-0.08-0.36-0.23-0.48c-0.16-0.12-0.35-0.23-0.58-0.33c-0.23-0.1-0.48-0.2-0.75-0.29c-0.27-0.09-0.52-0.21-0.75-0.36
		c-0.23-0.15-0.43-0.33-0.58-0.55c-0.16-0.22-0.23-0.5-0.23-0.84c0-0.29,0.06-0.54,0.17-0.76c0.12-0.22,0.27-0.4,0.47-0.55
		c0.2-0.14,0.43-0.25,0.7-0.33c0.27-0.08,0.55-0.11,0.85-0.11c0.42,0,0.77,0.06,1.05,0.17c0.28,0.11,0.49,0.21,0.63,0.3
		c0.11,0.06,0.18,0.13,0.2,0.22c0.02,0.09,0,0.19-0.07,0.31l-0.11,0.18c-0.11,0.2-0.29,0.24-0.53,0.13
		c-0.13-0.07-0.29-0.15-0.5-0.23s-0.45-0.12-0.74-0.12s-0.53,0.06-0.73,0.19c-0.2,0.13-0.29,0.32-0.29,0.58
		c0,0.2,0.08,0.36,0.23,0.49s0.35,0.23,0.58,0.33s0.48,0.19,0.75,0.29c0.27,0.1,0.52,0.21,0.75,0.35c0.23,0.14,0.43,0.32,0.58,0.54
		c0.16,0.22,0.23,0.5,0.23,0.85c0,0.26-0.05,0.49-0.16,0.71c-0.1,0.22-0.25,0.41-0.44,0.57c-0.19,0.16-0.42,0.28-0.69,0.37
		c-0.27,0.09-0.57,0.13-0.89,0.13c-0.26,0-0.49-0.02-0.7-0.07c-0.21-0.04-0.4-0.1-0.57-0.17s-0.32-0.14-0.45-0.22
		S136.82,194.1,136.74,194.04z"/>
	<path class="st2" d="M141.85,191.5c0-0.46,0.09-0.88,0.26-1.27c0.17-0.39,0.4-0.72,0.7-1.01c0.29-0.28,0.64-0.5,1.03-0.66
		c0.4-0.16,0.82-0.23,1.28-0.23s0.88,0.08,1.28,0.23c0.4,0.16,0.74,0.38,1.04,0.66c0.3,0.28,0.53,0.62,0.7,1.01
		c0.17,0.39,0.26,0.81,0.26,1.27c0,0.46-0.09,0.89-0.26,1.28c-0.17,0.39-0.41,0.72-0.7,1.01c-0.3,0.28-0.64,0.51-1.04,0.67
		c-0.4,0.16-0.82,0.24-1.28,0.24s-0.88-0.08-1.28-0.24c-0.4-0.16-0.74-0.38-1.03-0.67c-0.29-0.28-0.52-0.62-0.7-1.01
		C141.94,192.39,141.85,191.97,141.85,191.5z M143.03,191.5c0,0.32,0.06,0.61,0.17,0.88c0.11,0.27,0.26,0.5,0.45,0.69
		c0.19,0.19,0.41,0.34,0.66,0.45c0.25,0.11,0.52,0.16,0.81,0.16s0.56-0.05,0.81-0.16c0.25-0.11,0.47-0.26,0.67-0.45
		c0.19-0.19,0.34-0.42,0.45-0.69c0.11-0.27,0.16-0.56,0.16-0.88c0-0.31-0.05-0.6-0.16-0.86c-0.11-0.26-0.26-0.49-0.45-0.68
		c-0.19-0.19-0.41-0.34-0.67-0.45c-0.25-0.11-0.52-0.16-0.81-0.16s-0.56,0.05-0.81,0.16c-0.25,0.11-0.47,0.26-0.66,0.45
		c-0.19,0.19-0.34,0.42-0.45,0.68S143.03,191.19,143.03,191.5z"/>
	<path class="st2" d="M149.67,188.88c0-0.26,0.13-0.4,0.4-0.4h0.34c0.26,0,0.4,0.13,0.4,0.4v0.7c0,0.06,0,0.13-0.01,0.18
		s-0.01,0.1-0.02,0.14c-0.01,0.05-0.01,0.09-0.01,0.13h0.02c0.06-0.2,0.15-0.4,0.27-0.59c0.12-0.19,0.25-0.36,0.41-0.51
		c0.16-0.15,0.34-0.27,0.53-0.36c0.2-0.09,0.41-0.14,0.64-0.14c0.26,0,0.38,0.13,0.38,0.4v0.34c0,0.26-0.14,0.4-0.43,0.4
		c-0.3,0-0.55,0.07-0.77,0.22c-0.22,0.15-0.4,0.34-0.55,0.57c-0.15,0.23-0.26,0.5-0.33,0.8c-0.07,0.3-0.11,0.6-0.11,0.89v2.11
		c0,0.26-0.13,0.4-0.4,0.4h-0.37c-0.26,0-0.4-0.13-0.4-0.4V188.88z"/>
	<path class="st2" d="M157.18,186.47c0-0.26,0.13-0.4,0.4-0.4h0.38c0.26,0,0.4,0.13,0.4,0.4v3.17h1.27l1.98-3.3
		c0.1-0.18,0.25-0.26,0.47-0.26h0.44c0.16,0,0.27,0.05,0.32,0.14c0.05,0.09,0.04,0.21-0.04,0.34l-2.2,3.54v0.02l2.35,3.96
		c0.09,0.14,0.11,0.25,0.05,0.34c-0.05,0.09-0.16,0.13-0.32,0.13h-0.49c-0.21,0-0.36-0.09-0.47-0.28l-2.1-3.61h-1.27v3.49
		c0,0.26-0.13,0.4-0.4,0.4h-0.38c-0.26,0-0.4-0.13-0.4-0.4V186.47z"/>
	<path class="st2" d="M164.59,187.27c-0.26,0-0.4-0.13-0.4-0.4v-0.4c0-0.26,0.13-0.4,0.4-0.4H165c0.26,0,0.4,0.13,0.4,0.4v0.4
		c0,0.26-0.13,0.4-0.4,0.4H164.59z M164.21,188.88c0-0.26,0.13-0.4,0.4-0.4h0.37c0.26,0,0.4,0.13,0.4,0.4v5.28
		c0,0.26-0.13,0.4-0.4,0.4h-0.37c-0.26,0-0.4-0.13-0.4-0.4V188.88z"/>
	<path class="st2" d="M167.34,189.49h-0.42c-0.26,0-0.38-0.13-0.38-0.4v-0.16c0-0.26,0.13-0.4,0.4-0.4h0.43v-1.33
		c0-0.26,0.13-0.4,0.4-0.4h0.35c0.26,0,0.4,0.13,0.4,0.4v1.33h1.06c0.26,0,0.4,0.13,0.4,0.4v0.16c0,0.26-0.13,0.4-0.38,0.4h-1.07
		v2.7c0,0.29,0.04,0.52,0.12,0.7s0.18,0.31,0.29,0.41c0.12,0.1,0.24,0.16,0.37,0.2c0.13,0.04,0.25,0.06,0.37,0.07
		c0.16,0.02,0.27,0.05,0.33,0.11c0.06,0.06,0.09,0.15,0.09,0.29v0.25c0,0.26-0.16,0.4-0.48,0.4c-0.3,0-0.59-0.04-0.86-0.13
		c-0.27-0.09-0.51-0.22-0.71-0.41c-0.2-0.18-0.37-0.42-0.49-0.7c-0.13-0.28-0.19-0.61-0.19-1V189.49z"/>
	<path class="st2" d="M132.92,81.92c0.61,1.62,2.16,2.78,4,2.78h9.87c1.84,0,3.39-1.16,4-2.78h2.41c0.83,0,1.5-0.67,1.5-1.5
		c0-0.83-0.67-1.5-1.5-1.5h-2.41c-0.61-1.62-2.16-2.78-4-2.78h-9.87c-1.83,0-3.39,1.16-4,2.78h-2.41c-0.83,0-1.5,0.67-1.5,1.5
		c0,0.83,0.67,1.5,1.5,1.5H132.92z"/>
	<path class="st2" d="M76.11,81.92c0.61,1.62,2.16,2.78,4,2.78h9.87c1.83,0,3.39-1.16,4-2.78h2.41c0.83,0,1.5-0.67,1.5-1.5
		c0-0.83-0.67-1.5-1.5-1.5h-2.41c-0.61-1.62-2.16-2.78-4-2.78H80.1c-1.83,0-3.39,1.16-4,2.78H73.7c-0.83,0-1.5,0.67-1.5,1.5
		c0,0.83,0.67,1.5,1.5,1.5H76.11z"/>
	<rect x="41.44" y="168.79" class="st2" width="143.9" height="6.01"/>
	<path class="st2" d="M25.14,193.3c0-2.74-2.22-4.96-4.96-4.96c-2.74,0-4.96,2.22-4.96,4.96c0,2.74,2.22,4.96,4.96,4.96
		C22.92,198.26,25.14,196.04,25.14,193.3L25.14,193.3z"/>
	<path class="st2" d="M201.63,193.3c0-2.74,2.22-4.96,4.96-4.96c2.74,0,4.96,2.22,4.96,4.96c0,2.74-2.22,4.96-4.96,4.96
		C203.85,198.26,201.63,196.04,201.63,193.3L201.63,193.3z"/>
	<path class="st2" d="M25.14,33.47c0,2.74-2.22,4.96-4.96,4.96c-2.74,0-4.96-2.22-4.96-4.96c0-2.74,2.22-4.96,4.96-4.96
		C22.92,28.51,25.14,30.73,25.14,33.47L25.14,33.47z"/>
	<path class="st2" d="M201.63,33.47c0,2.74,2.22,4.96,4.96,4.96c2.74,0,4.96-2.22,4.96-4.96c0-2.74-2.22-4.96-4.96-4.96
		C203.85,28.51,201.63,30.73,201.63,33.47L201.63,33.47z"/>
	<path class="st2" d="M6,193.3c0,7.83,6.34,14.17,14.17,14.17h186.42c7.83,0,14.17-6.35,14.17-14.17V33.47
		c0-7.83-6.34-14.17-14.17-14.17H20.18C12.35,19.3,6,25.64,6,33.47V193.3z"/>
	<path class="st2" d="M91.21,40.76c0.23,0.44,0.5,0.73,0.83,0.88c0.18,0.08,0.38,0.12,0.6,0.12c0.22,0,0.47-0.04,0.72-0.13
		c0.14-0.05,0.28-0.1,0.41-0.15l0.34-0.15c0.59-0.26,1.15-0.5,1.79-0.42c0.05,0.01,0.09,0.01,0.13,0.02l0.17,0.04
		c0.29,0.07,0.58,0.2,0.85,0.32c0.29,0.13,0.6,0.27,0.92,0.34c0.79,0.19,1.52-0.09,2-0.37c0.06-0.03,0.11-0.07,0.17-0.1l0.09-0.06
		c0.41-0.27,0.79-0.61,1.13-0.93c0.28-0.27,0.57-0.55,0.75-0.91l0.05-0.1c0.02-0.06,0.04-0.11,0.06-0.17
		c0.13-0.43,0.09-0.93-0.13-1.53c-0.2-0.55-0.43-1.12-0.61-1.58l-0.04-0.11c-0.18-0.46-0.37-0.92-0.55-1.38l-0.11-0.27
		c-0.23-0.6-0.47-1.22-0.8-1.79l-0.08-0.13c-0.06-0.09-0.12-0.19-0.18-0.28c-0.45-0.65-0.98-1.16-1.58-1.5
		c-0.44-0.25-0.89-0.39-1.32-0.42c-0.04,0-0.09,0-0.13,0c0,0,0,0-0.01,0c-0.14,0-0.27,0.01-0.4,0.04l-0.12,0.03
		c-0.52,0.13-0.95,0.44-1.33,0.76c-0.14,0.12-0.28,0.24-0.42,0.37l-0.21,0.2c-0.33,0.31-0.68,0.62-1.05,0.88
		c-0.11,0.08-0.22,0.15-0.34,0.22l-0.1,0.06c-0.1,0.06-0.19,0.11-0.29,0.17c-0.37,0.21-0.75,0.43-1.09,0.72
		c-0.03,0.03-0.06,0.05-0.09,0.08l-0.08,0.08c-0.48,0.47-0.82,1.08-1,1.8l-0.03,0.13c-0.24,1.07-0.09,2.12,0.07,2.81l0.04,0.15l0,0
		c0.06,0.22,0.12,0.43,0.19,0.63c0.16,0.46,0.38,0.91,0.59,1.34L91.21,40.76z M93.3,41.42c-0.31,0.1-0.77,0.19-1.16,0.01
		c-0.25-0.11-0.46-0.35-0.65-0.67c0.9,0.05,1.47,0.22,2.04,0.57C93.45,41.37,93.37,41.4,93.3,41.42z M96.84,30.21
		c0.4,0.02,0.81,0.16,1.23,0.39c0.57,0.33,1.08,0.81,1.51,1.44c0.01,0.01,0.02,0.03,0.03,0.04c-1.23-0.36-2.26-0.99-3.08-1.86
		c0.06-0.01,0.12-0.02,0.19-0.02C96.75,30.2,96.8,30.21,96.84,30.21z M95,30.98c0.36-0.3,0.77-0.6,1.24-0.71l0.02,0
		c0.91,1.03,2.1,1.74,3.53,2.11l0.04,0.06c0.32,0.55,0.55,1.16,0.78,1.75c-2.73-0.85-4.63-1.78-5.94-2.91
		C94.77,31.17,94.88,31.07,95,30.98z M93.3,32.43c0.39-0.27,0.74-0.59,1.08-0.9l0.12-0.11c1.37,1.19,3.34,2.15,6.21,3.03l0.01,0.02
		c0.17,0.42,0.33,0.85,0.5,1.27c-3.36-0.08-6.39-1.65-8.17-3.15C93.13,32.54,93.22,32.49,93.3,32.43z M92.56,32.89
		c0.1-0.06,0.2-0.11,0.29-0.17l0,0c1.81,1.55,4.96,3.19,8.45,3.25l0,0c0.18,0.46,0.41,1.02,0.61,1.57c0.21,0.55,0.25,1.01,0.13,1.39
		c-0.01,0.02-0.01,0.03-0.02,0.05c-2.64-2.13-4.68-2.73-6.48-3.25c-1.52-0.44-2.83-0.83-4.08-2.1c0.01-0.01,0.02-0.02,0.04-0.03
		C91.82,33.31,92.19,33.09,92.56,32.89z M91.31,33.77c1.29,1.3,2.63,1.7,4.18,2.15c1.79,0.52,3.82,1.12,6.45,3.25
		c-0.17,0.32-0.44,0.59-0.7,0.84c-0.33,0.31-0.68,0.63-1.07,0.88c-1.25-2.01-3.35-2.64-5.4-3.25c-1.71-0.5-3.32-0.98-4.36-2.22
		l0-0.01C90.57,34.76,90.88,34.21,91.31,33.77z M90.35,35.7c1.09,1.19,2.67,1.66,4.35,2.16c2.01,0.59,4.08,1.21,5.28,3.16
		c-0.03,0.02-0.06,0.04-0.09,0.06c-0.45,0.25-1.13,0.52-1.85,0.34c-0.3-0.07-0.6-0.2-0.88-0.33c-0.28-0.13-0.58-0.26-0.89-0.33
		l-0.08-0.02c-1.01-1.28-2.08-1.46-3.21-1.65c-0.8-0.13-1.63-0.27-2.53-0.81l0-0.02C90.29,37.63,90.17,36.68,90.35,35.7z
		 M90.53,38.56c0.85,0.47,1.65,0.61,2.41,0.74c1.07,0.18,2.01,0.34,2.92,1.39c-0.67-0.05-1.26,0.2-1.83,0.44l-0.26,0.11
		c-0.69-0.47-1.32-0.65-2.43-0.7l-0.1-0.19c-0.21-0.43-0.43-0.87-0.58-1.32C90.62,38.88,90.57,38.72,90.53,38.56z"/>
	<path class="st2" d="M130.04,30.07c0.12,0.39,0.26,0.77,0.42,1.15l0.05,0.12c0.2,0.45,0.41,0.86,0.63,1.2l0.09,0.14l0,0
		c0.28,0.39,0.59,0.68,0.94,0.87l0.1,0.05c0.28,0.14,0.58,0.21,0.88,0.21c0.42,0,0.85-0.13,1.28-0.4c0.07-0.04,0.14-0.09,0.21-0.14
		c0.32-0.22,0.57-0.45,0.76-0.71c0.4-0.54,0.55-1.26,0.41-2.02l-0.04-0.17c0-0.02-0.01-0.04-0.01-0.05
		c-0.13-0.52-0.42-1.02-0.87-1.54l-0.09-0.1c-0.24-0.26-0.49-0.5-0.68-0.68l-0.09-0.09c-0.06-0.06-0.12-0.12-0.18-0.18
		c-0.07-0.07-0.14-0.14-0.21-0.21l-0.08-0.08c-0.21-0.19-0.39-0.31-0.56-0.36c-0.38-0.12-0.77,0.02-1.11,0.15
		c-0.12,0.05-0.24,0.09-0.36,0.12c-0.46,0.13-0.97,0.31-1.3,0.74c-0.24,0.31-0.35,0.71-0.34,1.18l0.01,0.13
		C129.93,29.62,129.97,29.84,130.04,30.07z M135.23,32.42c-0.18,0.24-0.41,0.45-0.71,0.66c-0.07,0.05-0.13,0.09-0.2,0.13
		c-0.64,0.39-1.28,0.46-1.86,0.21c0.31-0.65,0.59-0.79,1.09-1.03c0.22-0.11,0.48-0.23,0.79-0.42c0.53-0.33,0.94-0.76,1.27-1.27
		C135.69,31.36,135.57,31.96,135.23,32.42z M135.55,30.36l0.01,0.05c-0.32,0.56-0.76,1.03-1.33,1.38c-0.31,0.19-0.55,0.31-0.77,0.41
		c-0.5,0.24-0.85,0.41-1.19,1.13c-0.31-0.17-0.59-0.44-0.84-0.79l-0.01-0.01c0.42-0.49,0.93-0.8,1.48-1.13
		c0.5-0.3,1.01-0.6,1.45-1.06c0.24-0.25,0.41-0.69,0.51-1.29C135.21,29.5,135.44,29.93,135.55,30.36z M134.64,28.81l0.03,0.03
		c-0.09,0.65-0.25,1.12-0.48,1.36c-0.42,0.44-0.92,0.73-1.41,1.02c-0.52,0.31-1.05,0.64-1.49,1.13c-0.2-0.32-0.4-0.69-0.58-1.1
		c0.33-0.44,0.69-0.53,1.13-0.64c0.35-0.09,0.76-0.19,1.23-0.48c0.5-0.31,0.84-0.94,1.04-1.86
		C134.28,28.43,134.46,28.61,134.64,28.81z M133.7,27.86c0.06,0.06,0.13,0.13,0.19,0.19l0.05,0.05c-0.13,0.66-0.4,1.49-0.97,1.85
		c-0.44,0.27-0.82,0.37-1.16,0.45c-0.43,0.11-0.81,0.22-1.17,0.63c-0.14-0.34-0.27-0.68-0.38-1.02c-0.07-0.21-0.11-0.42-0.13-0.63
		l0-0.06c0.32-0.13,0.58-0.11,1.16-0.06l0.29,0.03c0.91,0.07,1.56-0.79,1.97-1.58C133.59,27.76,133.65,27.81,133.7,27.86z
		 M130.41,28.21c0.29-0.38,0.76-0.55,1.18-0.67c0.12-0.03,0.25-0.08,0.37-0.13c0.32-0.12,0.66-0.25,0.96-0.15
		c0.13,0.04,0.27,0.14,0.44,0.28c-0.32,0.63-0.95,1.6-1.78,1.52l-0.29-0.03c-0.52-0.05-0.83-0.07-1.16,0.04
		C130.15,28.74,130.23,28.44,130.41,28.21z"/>
	<path class="st2" d="M136.61,52.02l-0.03-0.15c-0.12-0.46-0.3-0.89-0.48-1.35c-0.05-0.13-0.11-0.27-0.16-0.41
		c-0.06-0.15-0.12-0.31-0.18-0.46l-0.28-0.74c-0.29-0.76-0.59-1.55-0.92-2.32l-0.05-0.12c-0.2-0.45-0.43-0.97-0.74-1.44l-0.11-0.14
		l0.01-0.01l-0.06-0.09c-0.11-0.15-0.22-0.29-0.34-0.4c-0.7-0.72-1.71-1.18-3.1-1.41l-0.19-0.03c-0.15-0.02-0.29-0.04-0.44-0.05
		c-0.29-0.03-0.58-0.05-0.87-0.06l-0.22-0.01c-0.57-0.01-1.12,0.02-1.65,0.08l-0.19,0.03c-0.85,0.13-1.63,0.36-2.33,0.7l-0.19,0.09
		c-0.56,0.29-1.1,0.68-1.6,1.15l-0.09,0.08c-0.3,0.28-0.58,0.6-0.86,0.94l-0.07,0.09c-0.16,0.2-0.31,0.41-0.45,0.62
		c-0.31,0.47-0.58,0.97-0.79,1.4l-0.14,0.28c-0.06-0.25-0.13-0.5-0.22-0.75c-0.1-0.24-0.23-0.46-0.36-0.68
		c0.12-0.2,0.24-0.4,0.36-0.59l0.29-0.49c1.27-2.1,3.02-4.99,1.68-7.48c-0.82-1.53-2.74-2.81-4.29-3.85
		c-0.35-0.23-0.68-0.46-0.98-0.67c-0.71-0.5-1.48-1-2.38-1.3c-0.64-0.2-1.21-0.2-1.73-0.17c-0.58,0.05-1.15,0.08-1.73,0.12
		c-0.54,0.03-1.08,0.07-1.63,0.11l-0.02,0l0,0l-0.08,0.01c-0.45,0.04-0.85,0.08-1.22,0.13c-0.41,0.06-0.95,0.15-1.46,0.38
		l-0.11,0.05c-0.28,0.14-0.54,0.32-0.79,0.56l-0.1,0.1c-2.4,2.41-2.71,6.61-0.72,9.44c0,0,0,0,0,0l0,0
		c0.02,0.03,0.03,0.06,0.05,0.09l0.08,0.11c0.06,0.08,0.12,0.16,0.17,0.22c0.19,0.24,0.42,0.49,0.71,0.78
		c0.11,0.11,0.22,0.22,0.34,0.32c-0.68,0.05-1.32,0.26-1.94,0.65c-0.06,0.04-0.12,0.1-0.18,0.14c-1.16-1.71-2.81-2.4-4.1-2.65
		c-0.7-0.13-1.33-0.17-1.92-0.13l-0.34,0.03c-0.67,0.09-1.28,0.28-1.87,0.6c-0.44,0.24-0.83,0.53-1.18,0.87l-0.04,0.05l-0.01,0
		l-0.04,0.04c-0.17,0.18-0.33,0.37-0.48,0.57l-0.07,0.09c-0.11,0.16-0.21,0.32-0.3,0.49l-0.06,0.1c-0.21,0.4-0.39,0.84-0.55,1.35
		l-0.05,0.17c-0.22,0.77-0.37,1.59-0.5,2.37l-0.04,0.23c-0.11,0.64-0.24,1.3-0.39,1.95l-0.05,0.21c-0.17,0.71-0.37,1.42-0.59,2.11
		l-0.16,0.53c-0.13,0.44-0.25,0.97-0.18,1.5c0.09,0.65,0.39,1.35,0.96,2.2l0.11,0.16c0.21,0.31,0.43,0.61,0.64,0.88l0.1,0.13
		c0.28,0.36,0.5,0.67,0.71,0.97l0.14,0.22c0.46,0.73,0.86,1.4,1.22,2.05l0.12,0.22c0.54,1.01,0.98,1.94,1.33,2.85l0.13,0.34
		c0.05,0.15,0.11,0.29,0.16,0.44c0.06,0.18,0.13,0.36,0.2,0.54l0.07,0.19c0.25,0.66,0.58,1.42,1.09,2.08
		c0.67,0.86,1.74,1.65,3.02,2.22l0.14,0.06c0.97,0.41,2,0.68,2.99,0.76l0.12,0.01c0.2,0.01,0.39,0.02,0.58,0.02
		c0.85,0,1.63-0.14,2.3-0.43l0.11-0.05c0.22-0.1,0.42-0.21,0.6-0.33c0.83-0.56,1.42-1.4,2-2.28l0.08-0.13
		c0.25-0.38,0.54-0.8,0.86-1.24c0.14-0.2,0.29-0.41,0.43-0.62l0.06-0.09c0.41-0.59,0.94-1.37,1.39-2.19l0.06-0.11
		c0.15-0.28,0.28-0.53,0.39-0.77c0.21-0.45,0.37-0.89,0.49-1.31l0.02-0.06l-0.01-0.01l0.02-0.02l0.01-0.03
		c0.24-0.92,0.25-1.75,0.04-2.51c0-0.03,0.01-0.06,0.01-0.1c0,0,0,0,0-0.01c0,0,0,0,0,0v-0.06V55v-0.55c0-0.12,0.04-0.22,0.11-0.29
		c0.07-0.07,0.17-0.11,0.29-0.11h1.48c0.15,0,0.28,0.04,0.42,0.07c-0.02,0.05-0.05,0.1-0.07,0.15c-0.49,1.32-0.21,2.77,0.17,4.13
		c0.31,1.1,0.69,2.24,1.43,3.15c0.48,0.6,1.14,1.11,1.94,1.52l0.11,0.05c0.49,0.24,1.04,0.45,1.64,0.63l0.11,0.03
		c0.14,0.04,0.29,0.08,0.43,0.12l0.59,0.15c0.46,0.12,0.92,0.23,1.38,0.34l0.11,0.03c0.78,0.19,1.47,0.34,2.1,0.46l0.11,0.02
		c0.64,0.12,1.2,0.21,1.73,0.27c0.21,0.02,0.44,0.04,0.67,0.05l0.11,0c0.09,0,0.18,0,0.28,0c0.99,0,2.3-0.17,3.42-0.88l0.1-0.07
		c0.25-0.17,0.47-0.36,0.67-0.56c0.66-0.68,1.06-1.53,1.35-2.27c0.1-0.25,0.19-0.5,0.28-0.75l0.02-0.06
		c0.29-0.78,0.57-1.57,0.85-2.36l0.03-0.1c0.23-0.66,0.42-1.21,0.59-1.73c0.26-0.8,0.54-1.73,0.65-2.68l0.01-0.11
		c0.01-0.12,0.02-0.24,0.03-0.36l0-0.15C136.71,52.73,136.67,52.37,136.61,52.02z M133.34,44.84L133.34,44.84l0.19,0.27
		c-0.42,0.26-1.22,0.24-1.95-0.29c-0.41-0.29-0.69-0.73-0.99-1.19c-0.08-0.12-0.17-0.25-0.26-0.38c1.21,0.23,2.12,0.65,2.75,1.29
		C133.17,44.63,133.26,44.73,133.34,44.84z M129.92,43.17l0.11,0.02c0.13,0.19,0.26,0.38,0.37,0.56c0.31,0.48,0.6,0.93,1.04,1.25
		c0.49,0.35,1.01,0.5,1.44,0.5c0.3,0,0.56-0.08,0.75-0.21c0.24,0.39,0.44,0.82,0.61,1.2c-2.02,0.07-3-0.97-4.13-2.17
		c-0.39-0.42-0.81-0.85-1.28-1.25c0.21,0.01,0.43,0.02,0.64,0.04C129.64,43.13,129.78,43.15,129.92,43.17z M128.41,43.05l0.09,0
		c0.56,0.45,1.02,0.94,1.47,1.42c1.08,1.16,2.1,2.25,4.11,2.25c0.09,0,0.18,0,0.27-0.01c0.32,0.75,0.62,1.52,0.9,2.27l0.18,0.48
		c-0.22,0.01-0.43,0.02-0.64,0.02c-3.87,0-4.58-1.63-5.34-3.35c-0.49-1.11-1-2.26-2.36-3.02c0.34-0.03,0.69-0.07,1.05-0.07
		C128.25,43.05,128.33,43.05,128.41,43.05z M126.61,43.16l0.1-0.01c1.52,0.73,2.05,1.92,2.56,3.08c0.78,1.79,1.53,3.48,5.53,3.48
		c0.23,0,0.48-0.01,0.73-0.02l0.02,0.05c0.06,0.15,0.12,0.31,0.18,0.46c0.06,0.14,0.11,0.28,0.17,0.41
		c0.18,0.45,0.36,0.88,0.47,1.32l0.03,0.14c0.07,0.34,0.11,0.68,0.13,1.08l0,0.14c0,0.09-0.01,0.17-0.02,0.25
		c-0.96-0.19-1.85-0.31-2.62-0.42c-3.2-0.44-4.97-0.69-5.63-4.34c-0.44-2.46-1.63-4.17-3.52-5.09
		C125.3,43.45,125.93,43.26,126.61,43.16z M122.48,45.18c0.14,0.06,0.26,0.12,0.39,0.18c-0.06,0.14-0.1,0.29-0.1,0.46v0.85
		c-0.32-0.22-0.66-0.44-1.04-0.66C121.97,45.7,122.22,45.43,122.48,45.18z M120.98,59.62c-0.07-0.05-0.14-0.1-0.21-0.16
		c-0.43-0.33-0.82-0.62-0.99-1.18c-0.03-0.2-0.06-0.4-0.08-0.61c-0.01-0.63,0.19-1.52,0.7-2.84c0.68-1.76,0.79-2.96,0.34-3.68
		c-0.16-0.26-0.4-0.45-0.71-0.58c0.1-0.39,0.16-0.79,0.16-1.22c0-0.06-0.01-0.11-0.02-0.17c1.18,0.25,2.04,0.6,2.57,1.04v3.28
		c-0.12,0.18-0.25,0.37-0.4,0.57c-1.71,2.26-0.71,4.03,0.4,5.16v0.82c0,0.61,0.49,1.1,1.1,1.1c0.27,0,0.51-0.11,0.7-0.27
		c0.78,1.03,1.08,2.52,1.19,3.75c-0.59-0.12-1.23-0.26-1.95-0.43C123.78,62.07,122.29,60.63,120.98,59.62z M119.58,56.79
		c-0.03-0.21-0.06-0.43-0.09-0.63c-0.05-0.37-0.1-0.69-0.15-0.96c-0.04-0.29-0.12-0.57-0.22-0.84c-0.02-0.56-0.18-1.05-0.48-1.5
		c0-0.01,0-0.01,0.01-0.02c0.13-0.12,0.27-0.25,0.39-0.4c0.13-0.15,0.24-0.31,0.35-0.47c0.26-0.37,0.45-0.76,0.59-1.18
		c0.26,0.12,0.45,0.28,0.58,0.49c0.41,0.65,0.29,1.79-0.36,3.48C119.88,55.58,119.69,56.24,119.58,56.79z M118.53,53.09
		c0.13,0.21,0.23,0.43,0.3,0.66c-0.07-0.12-0.15-0.25-0.24-0.36c-0.06-0.07-0.08-0.16-0.07-0.27
		C118.52,53.11,118.53,53.1,118.53,53.09z M122.76,58.93c-1-1.08-1.76-2.68-0.22-4.72c0.08-0.11,0.15-0.21,0.22-0.32V58.93z
		 M121.17,46.74c0.13-0.19,0.27-0.38,0.41-0.57c0.43,0.25,0.82,0.5,1.18,0.75v1.84c-0.6-0.47-1.37-0.72-2.31-0.76
		C120.66,47.6,120.89,47.16,121.17,46.74z M120.35,48.21c1.01,0.02,1.81,0.31,2.41,0.84v0.89c-0.58-0.42-1.45-0.74-2.6-0.98
		c-0.01-0.1-0.01-0.21-0.03-0.31L120.35,48.21z M121.62,38.41c1.28,2.39-0.43,5.21-1.67,7.27l-0.29,0.49
		c-0.1,0.17-0.21,0.34-0.31,0.51c-0.32-0.45-0.72-0.85-1.21-1.18c-0.12-0.08-0.24-0.14-0.37-0.21c0.15-0.16,0.3-0.32,0.45-0.48
		c0.88-0.92,1.71-1.79,2.08-2.58c0.63-1.32,0.28-2.46-0.1-3.67c-0.22-0.71-0.44-1.45-0.49-2.27
		C120.51,36.94,121.21,37.64,121.62,38.41z M111.35,50.25c-0.34-0.08-0.65-0.18-0.92-0.32c0-1.52,0.4-2.59,0.92-3.43V50.25z
		 M113.57,47.32c0-0.12,0.04-0.22,0.11-0.29c0.07-0.07,0.17-0.11,0.29-0.11h1.55c0.17,0,0.35,0.02,0.52,0.06
		c-0.8,1.08-1.34,2.23-1.2,3.45l-0.03,0c-0.4,0.05-0.82,0.07-1.25,0.06V47.32z M115.06,50.38c-0.13-1.16,0.41-2.28,1.2-3.34
		c0.08,0.02,0.15,0.04,0.23,0.07c0.43,0.18,0.79,0.47,1.08,0.88c0.15,0.23,0.24,0.48,0.31,0.73
		C117.15,49.54,116.25,50.17,115.06,50.38z M119.48,36.11c0.02,0.93,0.27,1.74,0.51,2.52c0.38,1.22,0.71,2.27,0.11,3.51
		c-0.36,0.75-1.18,1.61-2.05,2.52c-0.16,0.17-0.32,0.34-0.49,0.52c-0.61-0.3-1.27-0.45-1.98-0.46c0.13-0.13,0.26-0.27,0.38-0.4
		c1.29-1.34,2.4-2.5,2.56-3.41c0.34-1.98-0.31-3.24-0.94-4.45c-0.38-0.74-0.73-1.44-0.85-2.26c0.21,0.15,0.42,0.29,0.65,0.44
		C118.07,35.08,118.8,35.57,119.48,36.11z M116.51,34.02c0.09,0.95,0.48,1.72,0.9,2.53c0.61,1.18,1.24,2.41,0.92,4.31
		c-0.14,0.84-1.24,1.98-2.5,3.29c-0.17,0.18-0.35,0.36-0.52,0.55h-2.52c0.09-0.11,0.19-0.21,0.28-0.32
		c0.29-0.34,0.55-0.67,0.81-0.97c2.25-2.69,3.27-3.91,3.02-5.64c-0.19-1.31-0.66-1.95-1.16-2.62c-0.43-0.58-0.88-1.2-1.23-2.31
		c0.7,0.29,1.34,0.7,1.92,1.11C116.44,33.98,116.48,34,116.51,34.02z M114.1,32.69c0.05,0.02,0.09,0.04,0.13,0.05
		c0.37,1.26,0.88,1.94,1.32,2.54c0.5,0.68,0.94,1.27,1.12,2.53c0.24,1.63-0.77,2.83-2.97,5.47c-0.25,0.3-0.52,0.63-0.81,0.97
		c-0.12,0.15-0.26,0.3-0.4,0.46h-0.02c-0.31,0-0.58,0.11-0.79,0.31c-0.22,0.22-0.34,0.49-0.34,0.79v0.28
		c-0.61,0.88-1.11,2.03-1.13,3.71c-0.16-0.09-0.3-0.2-0.43-0.32c0.02-0.02,0.05-0.03,0.07-0.05c0.22-0.22,0.33-0.48,0.33-0.78
		c0-0.39-0.06-0.77-0.18-1.15c-0.04-0.13-0.1-0.26-0.15-0.39c0.55-1.39,1.1-2.11,1.98-3.22c0.48-0.6,1.07-1.36,1.8-2.41
		c2-2.84,1.71-5.54-0.97-8.97C113.1,32.51,113.58,32.53,114.1,32.69z M106.53,44.35c-0.37-1.5-0.87-3.55,0.14-6.1
		c1.02-2.58,1.2-4.17,1.23-5.38c0.3-0.04,0.61-0.07,0.96-0.1c0.25,1.33,0.36,3.16-0.79,5.69c-0.9,1.98-1.24,4.11-1,6.33
		c-0.15-0.03-0.3-0.04-0.44-0.06C106.59,44.61,106.57,44.49,106.53,44.35z M113.45,41.37c-0.73,1.04-1.32,1.79-1.8,2.4
		c-0.85,1.08-1.4,1.8-1.93,3.09c-0.07-0.13-0.14-0.27-0.22-0.4c-0.1-0.15-0.2-0.28-0.32-0.41c0.2-0.63,0.51-1.21,1.01-2.13
		c0.25-0.45,0.55-1.02,0.91-1.71c1.71-3.31,1.89-6.2,0.61-9.63c0.23-0.02,0.45-0.03,0.68-0.05
		C115.09,35.94,115.41,38.59,113.45,41.37z M110.72,32.65c0.26-0.02,0.52-0.04,0.77-0.05c1.29,3.43,1.13,6.19-0.58,9.51
		c-0.36,0.69-0.65,1.23-0.91,1.71c-0.48,0.88-0.78,1.45-0.99,2.05c-0.29-0.29-0.62-0.53-0.99-0.71c0.15-1.21,0.47-1.87,1.13-3.23
		c0.26-0.52,0.57-1.17,0.95-1.99c1.39-3.04,0.67-5.56-0.04-7.23C110.29,32.68,110.5,32.67,110.72,32.65z M109.84,32.71
		c0.7,1.63,1.44,4.12,0.07,7.13c-0.37,0.82-0.69,1.47-0.95,1.99c-0.65,1.33-0.98,2.02-1.14,3.23c-0.02-0.01-0.04-0.02-0.07-0.03
		c-0.15-0.06-0.31-0.1-0.46-0.14c-0.25-2.22,0.07-4.34,0.98-6.31c1.17-2.57,1.06-4.44,0.81-5.8l0.03-0.01
		C109.35,32.74,109.6,32.73,109.84,32.71z M107.68,32.91c-0.03,1.19-0.22,2.74-1.22,5.26c-1.03,2.61-0.52,4.7-0.15,6.23
		c0.03,0.11,0.05,0.21,0.07,0.32c-0.05,0-0.1-0.02-0.16-0.02c-0.15-0.14-0.29-0.28-0.43-0.42c-0.25-1.17-0.49-1.95-0.66-2.52
		c-0.45-1.51-0.48-1.6,0.53-3.88c0.59-1.33,0.79-2.76,0.65-4.6l0.08-0.04C106.84,33.05,107.3,32.97,107.68,32.91z M105.26,34.16
		c-0.08,0.78-0.4,1.76-1.05,3.52c-0.49,1.34-0.23,3.19,0.16,4.73C102.96,39.8,103.31,36.34,105.26,34.16z M104.9,43.28
		c-0.03-0.04-0.06-0.08-0.08-0.11c-0.01-0.01-0.02-0.03-0.03-0.04c-0.48-1.61-0.92-3.85-0.37-5.36c0.73-2.01,1.05-3.01,1.08-3.88
		l0.06-0.06c0.18-0.16,0.36-0.29,0.55-0.41c0.12,1.75-0.07,3.12-0.63,4.39c-1.04,2.35-1,2.48-0.54,4.03
		c0.15,0.51,0.35,1.19,0.57,2.16c-0.17-0.18-0.32-0.34-0.44-0.5C105.01,43.42,104.95,43.35,104.9,43.28z M105.55,47.07
		c0.19-0.09,0.42-0.13,0.67-0.13c0.36,0,0.68,0.1,0.97,0.29c0.27,0.16,0.48,0.42,0.63,0.76c0.09,0.22,0.14,0.45,0.14,0.67
		c0,0.3,0.11,0.56,0.33,0.78c0.22,0.22,0.48,0.33,0.8,0.33c0.19,0,0.36-0.06,0.52-0.15c0.18,0.16,0.37,0.31,0.6,0.44l0.12,0.06
		c0.3,0.15,0.65,0.26,1.03,0.35V55v2.09c-0.02-0.02-0.05-0.05-0.06-0.06c-0.11-0.11-0.21-0.2-0.3-0.29l-0.03-0.03
		c-0.08-0.08-0.18-0.19-0.28-0.3c-0.28-0.3-0.55-0.6-0.81-0.91l-0.09-0.11c-0.39-0.46-0.77-0.94-1.14-1.44l-0.09-0.13
		c-0.32-0.43-0.62-0.85-0.89-1.26l-0.11-0.17c-0.55-0.82-1.07-1.68-1.54-2.53l-0.17-0.31c-0.51-0.96-0.83-1.66-0.96-1.95
		C105.05,47.37,105.27,47.18,105.55,47.07z M109.08,56.1c-0.25,0-0.46,0.09-0.65,0.22c0-0.77,0.03-1.5,0.08-2.18
		c0.36,0.48,0.73,0.94,1.1,1.38l0.06,0.07c-0.04,0.22-0.05,0.43-0.07,0.65C109.44,56.16,109.27,56.1,109.08,56.1z M106.23,58.93
		c-0.25,0-0.48-0.05-0.67-0.13c-0.21-0.09-0.39-0.23-0.55-0.39c0.1-0.37,0.2-0.73,0.29-1.06c0.84-2.99,1.18-4.26,0.66-7.11
		c0.43,0.76,0.89,1.52,1.38,2.26c-0.03,1.01-0.1,2.06-0.17,3.16c-0.07,1.01-0.14,2.04-0.17,3.08
		C106.75,58.86,106.5,58.93,106.23,58.93z M104.47,48.66c0-0.3,0.09-0.58,0.25-0.84c0.15,0.34,0.45,0.99,0.91,1.83
		c0.67,3.28,0.34,4.47-0.55,7.64c-0.08,0.29-0.17,0.6-0.26,0.93c-0.01-0.02-0.03-0.03-0.04-0.05c-0.21-0.3-0.31-0.62-0.31-0.97
		V48.66z M107.38,55.67c0.07-1.01,0.13-1.96,0.16-2.88c0.24,0.35,0.5,0.72,0.77,1.08c-0.06,0.81-0.1,1.7-0.09,2.65
		c-0.16,0.2-0.26,0.42-0.26,0.68c0,0.22-0.05,0.45-0.14,0.67c-0.15,0.34-0.35,0.58-0.61,0.75
		C107.25,57.63,107.31,56.64,107.38,55.67z M103.65,45.66c-0.35,0.3-0.63,0.64-0.85,1.05c-0.95-2.51-2.12-3.17-4.13-3.74
		c0.32,0.02,0.65,0.06,1,0.13C100.92,43.33,102.52,44,103.65,45.66z M91.11,55.97c-0.05-0.38,0.01-0.77,0.1-1.12
		c0.39,0.94,0.6,1.88,0.65,2.94C91.43,57.1,91.18,56.51,91.11,55.97z M92.14,58.22l-0.04-0.06c-0.02-1.35-0.27-2.49-0.79-3.66
		l0.14-0.46c0.18-0.58,0.34-1.18,0.5-1.78c0.62,2.42,0.86,4.67,0.71,6.68C92.49,58.7,92.31,58.47,92.14,58.22z M92.86,59.21
		c0.2-2.21-0.06-4.7-0.8-7.41l0.02-0.1c0.13-0.55,0.23-1.1,0.33-1.64c1.04,3.44,1.38,6.7,1.02,9.93c-0.17-0.24-0.35-0.49-0.56-0.76
		L92.86,59.21z M93.74,60.43c-0.01-0.02-0.02-0.03-0.03-0.05l-0.08-0.12c0.43-3.47,0.06-6.96-1.12-10.67l0.01-0.09
		c0.12-0.7,0.26-1.43,0.44-2.13c1.44,3.51,1.61,8.05,1.83,14.8C94.47,61.62,94.13,61.05,93.74,60.43z M95.02,62.59l-0.01-0.24
		c-0.22-7.05-0.37-11.71-1.95-15.33l0.01-0.03c0.13-0.44,0.29-0.82,0.46-1.17c1.51,1.6,4.13,4.5,3.35,9.32
		c-0.65,4.03-0.85,6.89-0.67,9.94c-0.31-0.76-0.67-1.54-1.12-2.37L95.02,62.59z M96.55,65.93l-0.09-0.24
		c-0.24-3.27-0.06-6.22,0.64-10.51c0.81-4.99-2.03-8.06-3.46-9.56l0.02-0.03c0.09-0.16,0.18-0.31,0.28-0.46
		c5.73,2.58,6.19,6.12,5.03,11.75c-0.31,1.49-0.66,3.12-1.07,5.01c-0.32,1.47-0.67,3.08-1.05,4.87c-0.05-0.12-0.09-0.25-0.14-0.37
		C96.66,66.23,96.61,66.08,96.55,65.93z M98.04,69.12c-0.49-0.63-0.8-1.36-1.04-1.99c0.41-1.93,0.78-3.65,1.12-5.21
		c0.41-1.89,0.76-3.52,1.07-5.01c1.19-5.72,0.72-9.34-5.1-11.97c0.11-0.15,0.23-0.29,0.35-0.42l0.02,0l0.06-0.08
		c2.51,0.25,4.52,0.57,5.66,2.07c1.05,1.38,1.25,3.64,0.64,7.1c-0.17,0.96-0.4,1.82-0.64,2.74c-0.91,3.39-1.84,6.9,0.66,14.84
		C99.64,70.65,98.66,69.92,98.04,69.12z M101.1,71.33l-0.02-0.01c-2.56-8.01-1.62-11.52-0.72-14.91c0.24-0.88,0.48-1.79,0.65-2.76
		c0.62-3.53,0.41-5.84-0.68-7.27c-1.16-1.53-3.23-1.89-5.62-2.14c0.29-0.26,0.61-0.49,0.97-0.69c0.56-0.31,1.15-0.49,1.79-0.58
		l0.34-0.03c0.01,0,0.01,0,0.02,0c2.41,0.63,3.74,0.99,4.83,4.02c-0.02,0.05-0.05,0.1-0.08,0.16c-0.21,0.49-0.31,1-0.31,1.53v8.54
		c0,0.52,0.1,1.03,0.31,1.53c0.11,0.28,0.26,0.53,0.43,0.77L103,59.53c-0.63,2.39-1.58,6.01,1,12.55
		C103.05,71.99,102.05,71.73,101.1,71.33z M104.25,72.09c-2.55-6.4-1.7-9.98-1.07-12.36c0.23,0.29,0.51,0.54,0.83,0.75
		c0.11,0.07,0.23,0.13,0.34,0.19c-0.26,3.2,0.42,8.56,2.49,11.05C106.1,72.02,105.2,72.14,104.25,72.09z M107.6,71.33
		c-0.17,0.11-0.36,0.22-0.55,0.31c-2.06-2.4-2.73-7.67-2.5-10.85c0.54,0.25,1.09,0.37,1.67,0.37c0.25,0,0.5-0.03,0.75-0.08
		c0.09,2.98,0.68,5.84,2.61,7.97l-0.04,0.06C108.98,69.97,108.4,70.79,107.6,71.33z M110.92,67.12c-0.15,0.21-0.29,0.42-0.43,0.62
		c-0.28,0.4-0.54,0.77-0.78,1.12c-1.86-2.09-2.44-4.9-2.52-7.84c0.19-0.05,0.38-0.1,0.56-0.18c0.28-0.11,0.53-0.26,0.76-0.43
		c0.36,2.2,1.09,4.48,2.47,6.6c0,0-0.01,0.01-0.01,0.01L110.92,67.12z M111.13,66.82c-1.36-2.1-2.07-4.37-2.41-6.54
		c0.3-0.24,0.57-0.53,0.79-0.87c0.06-0.1,0.11-0.2,0.17-0.3c0.33,1.92,1.23,3.78,2.73,5.67l-0.05,0.08
		C111.96,65.58,111.51,66.26,111.13,66.82z M112.8,63.99c-0.08,0.18-0.18,0.37-0.28,0.56c-1.52-1.94-2.39-3.84-2.67-5.82
		c0.05-0.13,0.11-0.25,0.15-0.39c0.12-0.37,0.18-0.76,0.18-1.15c0-0.3-0.11-0.56-0.33-0.78c-0.02-0.02-0.04-0.02-0.05-0.04
		c0.02-0.19,0.04-0.38,0.06-0.57c0.21,0.25,0.43,0.49,0.65,0.73c0.11,0.11,0.21,0.22,0.29,0.31l0.02,0.02v0
		c0.09,0.09,0.19,0.19,0.3,0.3c0.17,0.17,0.37,0.36,0.6,0.6l0.08,0.08c-0.03,1.37,0.11,3.13,1.46,4.81c0,0.01-0.01,0.02-0.01,0.03
		c0,0.02,0,0.04,0.01,0.06C113.15,63.15,112.99,63.57,112.8,63.99z M113.35,62.41c-1.14-1.5-1.33-3.06-1.32-4.32
		c0.02,0.02,0.04,0.04,0.06,0.06c0.11,0.13,0.22,0.25,0.33,0.38l0.08,0.1c0.25,0.3,0.56,0.7,0.74,1.17
		C113.54,60.58,113.57,61.44,113.35,62.41z M115.51,51.81h-0.02h-0.02h-1.48c-0.12,0-0.22-0.04-0.29-0.11
		c-0.08-0.07-0.11-0.16-0.11-0.27v-0.72c0.01,0,0.02,0,0.03,0c0.43,0,0.85-0.02,1.24-0.07l0.11-0.01c1.26-0.18,2.2-0.8,2.97-1.62
		c0.02,0.12,0.05,0.24,0.05,0.36c0,0.31-0.06,0.64-0.18,0.97c-0.18,0.45-0.48,0.81-0.9,1.08c-0.4,0.27-0.86,0.4-1.37,0.4H115.51z
		 M117.57,61.4c-0.71-0.88-1.09-1.99-1.39-3.07c-0.37-1.33-0.65-2.73-0.18-4c0.02-0.06,0.06-0.11,0.08-0.17
		c0.17,0.07,0.34,0.17,0.49,0.3c0.31,0.27,0.51,0.62,0.58,1.06c0.04,0.33,0.1,0.75,0.18,1.27c0.03,0.19,0.05,0.38,0.08,0.56
		c-0.01,0.04-0.01,0.07-0.01,0.11c-0.07,0.44,0.03,0.85,0.2,1.27c0.04,0.33,0.09,0.64,0.12,0.9c0.05,0.37,0.08,0.56,0.08,0.57
		c0.04,0.28,0.17,0.52,0.38,0.7c0.18,0.15,0.38,0.22,0.6,0.25c0.19,0.47,0.35,1.01,0.47,1.63C118.58,62.39,118,61.94,117.57,61.4z
		 M119.52,62.91c-0.11-0.68-0.29-1.26-0.49-1.76c0.01,0,0.04,0,0.04-0.01c0.22-0.03,0.41-0.14,0.57-0.29
		c0.09,0.12,0.17,0.24,0.26,0.37c0.59,0.87,0.95,1.62,1.1,2.27c-0.53-0.16-1.02-0.35-1.46-0.56L119.52,62.91z M121.7,63.68
		c-0.14-0.04-0.28-0.07-0.42-0.11l-0.02,0c-0.13-0.7-0.52-1.52-1.17-2.46c-0.1-0.14-0.19-0.27-0.28-0.4c0,0,0,0,0,0
		c0.19-0.25,0.26-0.52,0.21-0.82l-0.07-0.52c-0.02-0.12-0.05-0.26-0.07-0.41c0.21,0.27,0.48,0.47,0.76,0.68
		c0.07,0.05,0.14,0.1,0.2,0.15c1.26,0.97,2.68,2.34,2.73,4.36c-0.43-0.11-0.86-0.21-1.29-0.32L121.7,63.68z M125.98,64.69
		L125.98,64.69c-0.11-1.28-0.43-2.87-1.26-3.95c0.15-0.19,0.25-0.42,0.25-0.67v-1c0.22,0.28,0.46,0.56,0.71,0.85
		c1.09,1.27,2.33,2.71,2.62,5.09c-0.21-0.01-0.42-0.03-0.61-0.05C127.17,64.9,126.61,64.81,125.98,64.69z M128.52,65.01
		c-0.3-2.47-1.56-3.94-2.68-5.24c-0.32-0.37-0.62-0.72-0.88-1.07v-9.76c1.4,1.81,1.35,3.58,1.09,5.37
		c-0.23,1.55-0.15,2.75,2.91,5.05c1.84,1.39,2.89,3,3.1,4.78l-0.05,0.04C130.86,64.9,129.5,65.03,128.52,65.01z M134.36,60.56
		l-0.02,0.06c-0.09,0.25-0.18,0.5-0.28,0.75c-0.29,0.72-0.67,1.55-1.3,2.2c-0.14,0.15-0.32,0.28-0.49,0.41
		c-0.26-1.79-1.32-3.4-3.17-4.8c-3.18-2.4-3-3.59-2.82-4.85c0.27-1.84,0.33-3.77-1.3-5.74v-1.93c2.03,1.69,2.25,3.65,2.4,4.95
		c0.02,0.2,0.04,0.38,0.07,0.53c0,0.05-0.04,4.58,4.26,5.42c1.15,0.23,1.97,0.35,2.57,0.44c0.41,0.06,0.7,0.11,0.96,0.16l-0.01,0.04
		C134.93,58.99,134.65,59.78,134.36,60.56z M135.83,56.38c-0.16,0.48-0.33,0.99-0.54,1.58c-0.27-0.06-0.58-0.11-1-0.17
		c-0.6-0.09-1.41-0.21-2.56-0.44c-4.12-0.81-4.09-5.03-4.09-5.22c-0.03-0.17-0.05-0.35-0.07-0.54c-0.15-1.37-0.4-3.44-2.62-5.21
		v-0.57c0-0.61-0.49-1.1-1.1-1.1c-0.37,0-0.67,0.19-0.87,0.46c-0.11-0.05-0.22-0.11-0.34-0.16c0.48-0.44,0.99-0.8,1.52-1.08
		l0.18-0.09c0.03-0.02,0.07-0.03,0.1-0.04c1.93,0.87,3.13,2.56,3.58,5.02c0.69,3.8,2.62,4.07,5.81,4.51
		c0.78,0.11,1.67,0.23,2.63,0.42C136.37,54.68,136.09,55.6,135.83,56.38z"/>
</g>
<g id="Bottom">
	<rect x="41.44" y="91.93" class="st3" width="143.9" height="79.87"/>
	<rect x="41.44" y="168.79" class="st3" width="143.9" height="6.01"/>
	<path class="st3" d="M75.87,189.4c-0.05-0.16,0.01-0.24,0.18-0.24h0.18c0.13,0,0.2,0.06,0.24,0.18l0.98,3.02
		c0.02,0.05,0.03,0.1,0.05,0.16c0.01,0.05,0.03,0.1,0.04,0.15c0.02,0.06,0.03,0.11,0.04,0.15h0.02c0.01-0.04,0.03-0.1,0.04-0.15
		c0.01-0.04,0.03-0.09,0.04-0.15c0.02-0.05,0.03-0.11,0.05-0.16l1-3.01c0.03-0.11,0.11-0.17,0.24-0.17h0.2
		c0.13,0,0.2,0.06,0.24,0.17l1,3.01c0.02,0.05,0.03,0.1,0.05,0.16c0.02,0.05,0.03,0.1,0.04,0.15c0.02,0.06,0.03,0.11,0.04,0.15h0.02
		c0.01-0.05,0.02-0.1,0.03-0.15c0.01-0.04,0.02-0.09,0.04-0.14c0.01-0.05,0.03-0.11,0.06-0.16l0.98-3.02
		c0.03-0.12,0.11-0.18,0.24-0.18h0.18c0.16,0,0.22,0.08,0.17,0.24l-1.31,3.87c-0.03,0.12-0.11,0.18-0.24,0.18h-0.26
		c-0.13,0-0.2-0.06-0.24-0.18l-1-2.87c-0.02-0.05-0.03-0.1-0.05-0.16c-0.02-0.05-0.03-0.1-0.04-0.15c-0.02-0.05-0.03-0.1-0.03-0.15
		h-0.02c-0.01,0.05-0.03,0.1-0.04,0.15c-0.01,0.04-0.03,0.09-0.04,0.15c-0.02,0.05-0.03,0.11-0.05,0.16l-0.99,2.87
		c-0.03,0.12-0.11,0.18-0.24,0.18h-0.26c-0.13,0-0.21-0.06-0.25-0.18L75.87,189.4z"/>
	<path class="st3" d="M82.66,189.4c-0.05-0.16,0.01-0.24,0.18-0.24h0.18c0.13,0,0.2,0.06,0.24,0.18l0.98,3.02
		c0.02,0.05,0.03,0.1,0.05,0.16c0.01,0.05,0.03,0.1,0.04,0.15c0.02,0.06,0.03,0.11,0.04,0.15h0.02c0.01-0.04,0.03-0.1,0.04-0.15
		c0.01-0.04,0.03-0.09,0.04-0.15c0.02-0.05,0.03-0.11,0.05-0.16l1-3.01c0.03-0.11,0.11-0.17,0.24-0.17h0.2
		c0.13,0,0.2,0.06,0.24,0.17l1,3.01c0.02,0.05,0.03,0.1,0.05,0.16c0.02,0.05,0.03,0.1,0.04,0.15c0.02,0.06,0.03,0.11,0.04,0.15h0.02
		c0.01-0.05,0.02-0.1,0.03-0.15c0.01-0.04,0.02-0.09,0.04-0.14c0.01-0.05,0.03-0.11,0.06-0.16l0.98-3.02
		c0.03-0.12,0.11-0.18,0.24-0.18h0.18c0.16,0,0.22,0.08,0.17,0.24l-1.31,3.87c-0.03,0.12-0.11,0.18-0.24,0.18h-0.26
		c-0.13,0-0.2-0.06-0.24-0.18l-1-2.87c-0.02-0.05-0.03-0.1-0.05-0.16c-0.02-0.05-0.03-0.1-0.04-0.15c-0.02-0.05-0.03-0.1-0.03-0.15
		h-0.02c-0.01,0.05-0.03,0.1-0.04,0.15c-0.01,0.04-0.03,0.09-0.04,0.15c-0.02,0.05-0.03,0.11-0.05,0.16l-0.99,2.87
		c-0.03,0.12-0.11,0.18-0.24,0.18h-0.26c-0.13,0-0.21-0.06-0.25-0.18L82.66,189.4z"/>
	<path class="st3" d="M89.44,189.4c-0.05-0.16,0.01-0.24,0.18-0.24h0.18c0.13,0,0.2,0.06,0.24,0.18l0.98,3.02
		c0.02,0.05,0.03,0.1,0.05,0.16c0.01,0.05,0.03,0.1,0.04,0.15c0.02,0.06,0.03,0.11,0.04,0.15h0.02c0.01-0.04,0.03-0.1,0.04-0.15
		c0.01-0.04,0.03-0.09,0.04-0.15c0.02-0.05,0.03-0.11,0.05-0.16l1-3.01c0.03-0.11,0.11-0.17,0.24-0.17h0.2
		c0.13,0,0.2,0.06,0.24,0.17l1,3.01c0.02,0.05,0.03,0.1,0.05,0.16c0.02,0.05,0.03,0.1,0.04,0.15c0.02,0.06,0.03,0.11,0.04,0.15h0.02
		c0.01-0.05,0.02-0.1,0.03-0.15c0.01-0.04,0.02-0.09,0.04-0.14c0.01-0.05,0.03-0.11,0.06-0.16l0.98-3.02
		c0.03-0.12,0.11-0.18,0.24-0.18h0.18c0.16,0,0.22,0.08,0.17,0.24l-1.31,3.87c-0.03,0.12-0.11,0.18-0.24,0.18H94
		c-0.13,0-0.2-0.06-0.24-0.18l-1-2.87c-0.02-0.05-0.03-0.1-0.05-0.16c-0.02-0.05-0.03-0.1-0.04-0.15c-0.02-0.05-0.03-0.1-0.03-0.15
		h-0.02c-0.01,0.05-0.03,0.1-0.04,0.15c-0.01,0.04-0.03,0.09-0.04,0.15c-0.02,0.05-0.03,0.11-0.05,0.16l-0.99,2.87
		c-0.03,0.12-0.11,0.18-0.24,0.18H91c-0.13,0-0.21-0.06-0.25-0.18L89.44,189.4z"/>
	<path class="st3" d="M96.41,192.94c0-0.14,0.07-0.2,0.2-0.2h0.28c0.14,0,0.21,0.07,0.21,0.2v0.29c0,0.14-0.07,0.21-0.21,0.21h-0.28
		c-0.14,0-0.2-0.07-0.2-0.21V192.94z"/>
	<path class="st3" d="M98.34,189.37c0-0.14,0.07-0.21,0.21-0.21h0.15c0.14,0,0.2,0.07,0.2,0.21v0.49c0,0.04,0,0.09,0,0.12
		s-0.01,0.07-0.01,0.1c-0.01,0.03-0.01,0.06-0.02,0.08h0.02c0.05-0.14,0.13-0.28,0.24-0.42c0.11-0.14,0.23-0.25,0.38-0.36
		s0.29-0.18,0.46-0.25s0.33-0.09,0.5-0.09c0.4,0,0.7,0.09,0.91,0.27c0.21,0.18,0.35,0.45,0.41,0.8h0.02
		c0.06-0.14,0.14-0.27,0.24-0.4c0.11-0.13,0.23-0.24,0.37-0.34c0.14-0.1,0.29-0.18,0.45-0.24c0.16-0.06,0.33-0.09,0.52-0.09
		c0.52,0,0.88,0.14,1.1,0.43c0.22,0.29,0.32,0.7,0.32,1.23v2.51c0,0.14-0.07,0.21-0.21,0.21h-0.15c-0.14,0-0.21-0.07-0.21-0.21
		v-2.37c0-0.18-0.01-0.34-0.03-0.49c-0.02-0.15-0.07-0.29-0.14-0.4s-0.16-0.21-0.28-0.28c-0.12-0.07-0.28-0.1-0.47-0.1
		c-0.22,0-0.41,0.05-0.59,0.15s-0.33,0.24-0.46,0.41c-0.13,0.17-0.23,0.36-0.29,0.58c-0.07,0.21-0.1,0.43-0.1,0.65v1.86
		c0,0.14-0.07,0.21-0.21,0.21h-0.16c-0.14,0-0.21-0.07-0.21-0.21v-2.37c0-0.16-0.01-0.31-0.03-0.47c-0.02-0.15-0.06-0.29-0.12-0.41
		s-0.15-0.22-0.27-0.29c-0.12-0.07-0.28-0.11-0.49-0.11c-0.22,0-0.42,0.05-0.6,0.16c-0.18,0.11-0.34,0.24-0.46,0.41
		c-0.13,0.17-0.23,0.36-0.3,0.58s-0.11,0.43-0.11,0.64v1.86c0,0.14-0.07,0.21-0.2,0.21h-0.16c-0.14,0-0.21-0.07-0.21-0.21V189.37z"
		/>
	<path class="st3" d="M105.76,191.28c0-0.32,0.06-0.61,0.18-0.88c0.12-0.27,0.28-0.5,0.49-0.7c0.2-0.2,0.44-0.35,0.72-0.47
		c0.27-0.11,0.56-0.17,0.88-0.17s0.61,0.06,0.88,0.17c0.28,0.11,0.52,0.27,0.72,0.47c0.2,0.2,0.37,0.43,0.49,0.7
		s0.18,0.56,0.18,0.88c0,0.32-0.06,0.62-0.18,0.9c-0.12,0.28-0.28,0.52-0.49,0.72c-0.21,0.2-0.44,0.36-0.72,0.48
		s-0.57,0.17-0.88,0.17s-0.61-0.06-0.88-0.17s-0.52-0.27-0.72-0.48c-0.2-0.21-0.37-0.44-0.49-0.72
		C105.82,191.9,105.76,191.61,105.76,191.28z M106.36,191.28c0,0.25,0.04,0.48,0.13,0.69s0.21,0.4,0.36,0.55s0.33,0.28,0.53,0.37
		c0.2,0.09,0.42,0.13,0.65,0.13c0.23,0,0.44-0.04,0.64-0.13c0.2-0.09,0.38-0.21,0.53-0.37s0.27-0.34,0.36-0.55s0.13-0.44,0.13-0.69
		c0-0.24-0.04-0.47-0.13-0.68c-0.09-0.21-0.21-0.39-0.36-0.54s-0.33-0.27-0.53-0.36c-0.2-0.08-0.42-0.13-0.64-0.13
		c-0.23,0-0.45,0.04-0.65,0.13c-0.2,0.08-0.38,0.2-0.53,0.36s-0.27,0.33-0.36,0.54C106.4,190.81,106.36,191.04,106.36,191.28z"/>
	<path class="st3" d="M110.78,189.41c-0.03-0.08-0.03-0.14,0-0.18c0.03-0.04,0.08-0.06,0.16-0.06h0.19c0.12,0,0.2,0.06,0.23,0.17
		l1.13,2.97c0.02,0.06,0.04,0.12,0.06,0.17c0.02,0.06,0.04,0.12,0.05,0.17c0.02,0.06,0.03,0.12,0.04,0.18h0.02
		c0.01-0.06,0.03-0.12,0.04-0.18c0.01-0.05,0.03-0.11,0.05-0.17c0.02-0.06,0.04-0.12,0.06-0.17l1.13-2.97
		c0.03-0.11,0.11-0.17,0.23-0.17h0.18c0.17,0,0.23,0.08,0.17,0.25l-1.49,3.88c-0.03,0.11-0.11,0.16-0.23,0.16h-0.28
		c-0.12,0-0.2-0.05-0.24-0.16L110.78,189.41z"/>
	<path class="st3" d="M115.29,189.37c0-0.14,0.07-0.21,0.21-0.21h0.16c0.14,0,0.21,0.07,0.21,0.21v2.36c0,0.17,0.01,0.33,0.03,0.49
		c0.02,0.15,0.06,0.29,0.12,0.4s0.16,0.21,0.28,0.28c0.13,0.07,0.29,0.1,0.49,0.1c0.24,0,0.46-0.05,0.66-0.15
		c0.2-0.1,0.36-0.23,0.5-0.4c0.14-0.17,0.24-0.35,0.32-0.57c0.07-0.22,0.11-0.44,0.11-0.67v-1.84c0-0.14,0.07-0.21,0.21-0.21h0.16
		c0.14,0,0.21,0.07,0.21,0.21v3.86c0,0.14-0.07,0.21-0.21,0.21h-0.15c-0.14,0-0.2-0.07-0.2-0.21v-0.49c0-0.05,0-0.08,0-0.12
		s0-0.07,0.01-0.09c0-0.03,0.01-0.06,0.02-0.09h-0.02c-0.04,0.1-0.11,0.22-0.2,0.35c-0.09,0.13-0.21,0.25-0.35,0.37
		c-0.14,0.11-0.3,0.21-0.49,0.29c-0.19,0.08-0.41,0.12-0.64,0.12c-0.51,0-0.88-0.14-1.1-0.41s-0.33-0.69-0.33-1.25V189.37z"/>
	<path class="st3" d="M120.47,188.18c-0.14,0-0.21-0.07-0.21-0.2v-0.31c0-0.14,0.07-0.21,0.21-0.21h0.21c0.14,0,0.2,0.07,0.2,0.21
		v0.31c0,0.14-0.07,0.2-0.2,0.2H120.47z M120.28,189.37c0-0.14,0.07-0.21,0.21-0.21h0.16c0.14,0,0.2,0.07,0.2,0.21v3.86
		c0,0.14-0.07,0.21-0.2,0.21h-0.16c-0.14,0-0.21-0.07-0.21-0.21V189.37z"/>
	<path class="st3" d="M122.18,189.37c0-0.14,0.07-0.21,0.21-0.21h0.15c0.14,0,0.2,0.07,0.2,0.21v0.49c0,0.04,0,0.09,0,0.12
		s-0.01,0.07-0.01,0.1c-0.01,0.03-0.01,0.06-0.02,0.08h0.02c0.04-0.1,0.1-0.21,0.2-0.34c0.09-0.13,0.21-0.25,0.35-0.37
		c0.14-0.12,0.31-0.21,0.51-0.29c0.2-0.08,0.42-0.12,0.67-0.12c0.27,0,0.49,0.04,0.67,0.11c0.18,0.07,0.33,0.18,0.44,0.32
		c0.11,0.14,0.2,0.32,0.25,0.52c0.05,0.21,0.08,0.44,0.08,0.7v2.51c0,0.14-0.07,0.21-0.21,0.21h-0.16c-0.14,0-0.21-0.07-0.21-0.21
		v-2.36c0-0.17-0.01-0.33-0.03-0.49c-0.02-0.15-0.06-0.29-0.13-0.41c-0.07-0.12-0.16-0.21-0.29-0.28s-0.29-0.1-0.49-0.1
		c-0.23,0-0.44,0.04-0.64,0.13c-0.2,0.09-0.37,0.21-0.52,0.37c-0.14,0.16-0.26,0.34-0.34,0.55s-0.13,0.44-0.13,0.69v1.88
		c0,0.14-0.07,0.21-0.2,0.21h-0.16c-0.14,0-0.21-0.07-0.21-0.21V189.37z"/>
	<path class="st3" d="M126.86,191.28c0-0.32,0.06-0.61,0.18-0.88c0.12-0.27,0.28-0.5,0.49-0.7c0.2-0.2,0.44-0.35,0.72-0.47
		c0.27-0.11,0.56-0.17,0.88-0.17s0.61,0.06,0.88,0.17c0.28,0.11,0.52,0.27,0.72,0.47c0.2,0.2,0.37,0.43,0.49,0.7
		s0.18,0.56,0.18,0.88c0,0.32-0.06,0.62-0.18,0.9c-0.12,0.28-0.28,0.52-0.49,0.72c-0.21,0.2-0.44,0.36-0.72,0.48
		s-0.57,0.17-0.88,0.17s-0.61-0.06-0.88-0.17s-0.52-0.27-0.72-0.48c-0.2-0.21-0.37-0.44-0.49-0.72
		C126.92,191.9,126.86,191.61,126.86,191.28z M127.45,191.28c0,0.25,0.04,0.48,0.13,0.69s0.21,0.4,0.36,0.55s0.33,0.28,0.53,0.37
		c0.2,0.09,0.42,0.13,0.65,0.13c0.23,0,0.44-0.04,0.64-0.13c0.2-0.09,0.38-0.21,0.53-0.37s0.27-0.34,0.36-0.55s0.13-0.44,0.13-0.69
		c0-0.24-0.04-0.47-0.13-0.68c-0.09-0.21-0.21-0.39-0.36-0.54s-0.33-0.27-0.53-0.36c-0.2-0.08-0.42-0.13-0.64-0.13
		c-0.23,0-0.45,0.04-0.65,0.13c-0.2,0.08-0.38,0.2-0.53,0.36s-0.27,0.33-0.36,0.54C127.5,190.81,127.45,191.04,127.45,191.28z"/>
	<path class="st3" d="M132.33,192.94c0-0.14,0.07-0.2,0.2-0.2h0.28c0.14,0,0.21,0.07,0.21,0.2v0.29c0,0.14-0.07,0.21-0.21,0.21
		h-0.28c-0.14,0-0.2-0.07-0.2-0.21V192.94z"/>
	<path class="st3" d="M133.97,191.31c0-0.33,0.06-0.63,0.17-0.91s0.28-0.51,0.48-0.71c0.2-0.2,0.44-0.35,0.71-0.46
		s0.57-0.17,0.89-0.17c0.18,0,0.35,0.02,0.5,0.05s0.29,0.08,0.4,0.13s0.22,0.11,0.31,0.16c0.09,0.06,0.16,0.11,0.21,0.14
		c0.1,0.08,0.11,0.18,0.03,0.29l-0.06,0.09c-0.07,0.11-0.17,0.12-0.29,0.04c-0.1-0.07-0.24-0.16-0.42-0.25s-0.4-0.14-0.66-0.14
		c-0.23,0-0.45,0.04-0.66,0.13s-0.38,0.2-0.53,0.35s-0.27,0.33-0.35,0.54c-0.09,0.21-0.13,0.45-0.13,0.7s0.04,0.49,0.13,0.7
		c0.08,0.21,0.2,0.39,0.35,0.54s0.33,0.27,0.53,0.35c0.2,0.08,0.43,0.13,0.67,0.13c0.15,0,0.28-0.02,0.41-0.05s0.24-0.07,0.34-0.12
		c0.1-0.05,0.19-0.09,0.27-0.15c0.08-0.05,0.14-0.1,0.19-0.14c0.11-0.08,0.2-0.07,0.28,0.05l0.06,0.09c0.06,0.1,0.05,0.2-0.05,0.29
		c-0.06,0.05-0.13,0.1-0.22,0.16s-0.2,0.12-0.33,0.18c-0.13,0.06-0.27,0.11-0.43,0.15c-0.16,0.04-0.34,0.06-0.54,0.06
		c-0.32,0-0.61-0.05-0.89-0.16s-0.51-0.26-0.72-0.46c-0.2-0.2-0.36-0.43-0.47-0.71C134.03,191.95,133.97,191.64,133.97,191.31z"/>
	<path class="st3" d="M138.49,191.28c0-0.32,0.06-0.61,0.18-0.88c0.12-0.27,0.28-0.5,0.49-0.7c0.2-0.2,0.44-0.35,0.72-0.47
		c0.27-0.11,0.56-0.17,0.88-0.17s0.61,0.06,0.88,0.17c0.28,0.11,0.52,0.27,0.72,0.47c0.2,0.2,0.37,0.43,0.49,0.7
		s0.18,0.56,0.18,0.88c0,0.32-0.06,0.62-0.18,0.9c-0.12,0.28-0.28,0.52-0.49,0.72c-0.21,0.2-0.44,0.36-0.72,0.48
		s-0.57,0.17-0.88,0.17s-0.61-0.06-0.88-0.17s-0.52-0.27-0.72-0.48c-0.2-0.21-0.37-0.44-0.49-0.72
		C138.55,191.9,138.49,191.61,138.49,191.28z M139.09,191.28c0,0.25,0.04,0.48,0.13,0.69s0.21,0.4,0.36,0.55s0.33,0.28,0.53,0.37
		c0.2,0.09,0.42,0.13,0.65,0.13c0.23,0,0.44-0.04,0.64-0.13c0.2-0.09,0.38-0.21,0.53-0.37s0.27-0.34,0.36-0.55s0.13-0.44,0.13-0.69
		c0-0.24-0.04-0.47-0.13-0.68c-0.09-0.21-0.21-0.39-0.36-0.54s-0.33-0.27-0.53-0.36c-0.2-0.08-0.42-0.13-0.64-0.13
		c-0.23,0-0.45,0.04-0.65,0.13c-0.2,0.08-0.38,0.2-0.53,0.36s-0.27,0.33-0.36,0.54C139.13,190.81,139.09,191.04,139.09,191.28z"/>
	<path class="st3" d="M144.03,189.37c0-0.14,0.07-0.21,0.21-0.21h0.15c0.14,0,0.2,0.07,0.2,0.21v0.49c0,0.04,0,0.09,0,0.12
		s-0.01,0.07-0.01,0.1c-0.01,0.03-0.01,0.06-0.02,0.08h0.02c0.05-0.14,0.13-0.28,0.24-0.42c0.11-0.14,0.23-0.25,0.38-0.36
		s0.29-0.18,0.46-0.25s0.33-0.09,0.5-0.09c0.4,0,0.7,0.09,0.91,0.27c0.21,0.18,0.35,0.45,0.41,0.8h0.02
		c0.06-0.14,0.14-0.27,0.24-0.4c0.11-0.13,0.23-0.24,0.37-0.34c0.14-0.1,0.29-0.18,0.45-0.24c0.16-0.06,0.33-0.09,0.52-0.09
		c0.52,0,0.88,0.14,1.1,0.43c0.22,0.29,0.32,0.7,0.32,1.23v2.51c0,0.14-0.07,0.21-0.21,0.21h-0.15c-0.14,0-0.21-0.07-0.21-0.21
		v-2.37c0-0.18-0.01-0.34-0.03-0.49c-0.02-0.15-0.07-0.29-0.14-0.4s-0.16-0.21-0.28-0.28c-0.12-0.07-0.28-0.1-0.47-0.1
		c-0.22,0-0.41,0.05-0.59,0.15s-0.33,0.24-0.46,0.41c-0.13,0.17-0.23,0.36-0.29,0.58c-0.07,0.21-0.1,0.43-0.1,0.65v1.86
		c0,0.14-0.07,0.21-0.21,0.21h-0.16c-0.14,0-0.21-0.07-0.21-0.21v-2.37c0-0.16-0.01-0.31-0.03-0.47c-0.02-0.15-0.06-0.29-0.12-0.41
		s-0.15-0.22-0.27-0.29c-0.12-0.07-0.28-0.11-0.49-0.11c-0.22,0-0.42,0.05-0.6,0.16c-0.18,0.11-0.34,0.24-0.46,0.41
		c-0.13,0.17-0.23,0.36-0.3,0.58s-0.11,0.43-0.11,0.64v1.86c0,0.14-0.07,0.21-0.2,0.21h-0.16c-0.14,0-0.21-0.07-0.21-0.21V189.37z"
		/>
	<path class="st3" d="M96.38,78.92h34.02c0.83,0,1.5,0.67,1.5,1.5c0,0.83-0.67,1.5-1.5,1.5H96.38c-0.83,0-1.5-0.67-1.5-1.5
		C94.88,79.59,95.55,78.92,96.38,78.92z"/>
	<path class="st3" d="M25.14,193.3c0-2.74-2.22-4.96-4.96-4.96c-2.74,0-4.96,2.22-4.96,4.96c0,2.74,2.22,4.96,4.96,4.96
		C22.92,198.26,25.14,196.04,25.14,193.3L25.14,193.3z"/>
	<path class="st3" d="M201.63,193.3c0-2.74,2.22-4.96,4.96-4.96c2.74,0,4.96,2.22,4.96,4.96c0,2.74-2.22,4.96-4.96,4.96
		C203.85,198.26,201.63,196.04,201.63,193.3L201.63,193.3z"/>
	<path class="st3" d="M25.14,33.47c0,2.74-2.22,4.96-4.96,4.96c-2.74,0-4.96-2.22-4.96-4.96s2.22-4.96,4.96-4.96
		C22.92,28.51,25.14,30.73,25.14,33.47L25.14,33.47z"/>
	<path class="st3" d="M201.63,33.47c0,2.74,2.22,4.96,4.96,4.96c2.74,0,4.96-2.22,4.96-4.96s-2.22-4.96-4.96-4.96
		C203.85,28.51,201.63,30.73,201.63,33.47L201.63,33.47z"/>
	<path class="st3" d="M220.77,33.47c0-7.83-6.34-14.17-14.17-14.17H20.18C12.35,19.3,6,25.64,6,33.47v30.5l0,0h39.69v1.72h13.67h3
		h118.73v-1.72h39.69L220.77,33.47z"/>
	<path class="st3" d="M220.77,63.97"/>
	<path class="st3" d="M6,70.4v122.9c0,7.83,6.35,14.17,14.17,14.17h186.42c7.83,0,14.17-6.34,14.17-14.17l0-109.66h-39.69v-1.71
		h-26.4v10h-3V80.46c0-0.01,0-0.03,0-0.04c0-0.83,0.67-1.5,1.5-1.5h27.9v-1.71h39.69v-6.8h-39.69v-1.71H62.36v10.23H73.7
		c0.83,0,1.5,0.67,1.5,1.5c0,0.83-0.67,1.5-1.5,1.5H60.86c-0.82,0-1.48-0.66-1.5-1.47h0V68.69H45.69v1.71H6"/>
	<path class="st3" d="M124.37,47.41c-0.24,0.09-0.48,0.18-0.73,0.27c0.89,2.31,0.92,4.15,0,5.07c-0.91,0.91-2.75,0.91-5.09,0
		c-0.09,0.25-0.18,0.49-0.27,0.73c1.26,0.49,2.4,0.74,3.36,0.74c1.08,0,1.94-0.3,2.55-0.91C125.34,52.14,125.38,50.03,124.37,47.41z
		"/>
	<path class="st3" d="M117.06,43.81v0.46c0,0.05-0.01,0.11-0.02,0.16l1.44,0c0.01-0.26,0.03-0.52,0.03-0.78l-1.48,0
		C117.05,43.7,117.06,43.76,117.06,43.81z"/>
	<path class="st3" d="M118.53,42.09c-0.04,0.01-0.09,0.01-0.14,0.01h-1.36c0.01,0.05,0.02,0.1,0.02,0.16v0.46
		c0,0.05-0.01,0.11-0.02,0.16h1.36c0.05,0,0.09-0.01,0.14-0.01c0-0.13,0-0.25,0-0.38C118.53,42.36,118.53,42.23,118.53,42.09z"/>
	<path class="st3" d="M119.94,40.41c0.03,0.45,0.05,0.9,0.06,1.36C120.17,41.32,120.15,40.83,119.94,40.41z"/>
	<path class="st3" d="M116.91,37.14c-2.33-2.18-4.71-3.86-6.88-4.95c-0.1,0.24-0.2,0.49-0.29,0.74c2.18,1.11,4.59,2.83,6.89,5.02
		C116.66,37.67,116.76,37.39,116.91,37.14z"/>
	<path class="st3" d="M118.13,39.47c0.1,0.11,0.2,0.22,0.3,0.32c-0.03-0.43-0.07-0.85-0.12-1.26c-0.06-0.06-0.12-0.13-0.18-0.19
		V39.47z"/>
	<path class="st3" d="M105.13,31.55c0.89,0,1.96,0.25,3.13,0.72c0.09-0.25,0.18-0.5,0.28-0.74c-2.6-1.01-4.76-1.04-5.96,0.16
		c-1.2,1.2-1.17,3.38-0.15,5.99c0.24-0.1,0.48-0.19,0.74-0.28c-0.91-2.29-1-4.18-0.03-5.15C103.6,31.77,104.29,31.55,105.13,31.55z"
		/>
	<path class="st3" d="M119.64,36.74c0.01,0,0.01,0,0.02,0l0,0C119.65,36.74,119.64,36.74,119.64,36.74z"/>
	<path class="st3" d="M119.66,36.74c0.05,0.27,0.09,0.54,0.14,0.82h0c4.88,0.94,8.09,2.86,8.09,4.94c0,2.1-3.27,3.97-7.94,4.9
		c0,0,0,0,0,0c-0.03,0.28-0.07,0.56-0.11,0.83c5.26-0.98,8.83-3.15,8.83-5.73C128.66,39.96,125.16,37.74,119.66,36.74z"/>
	<path class="st3" d="M98.89,42.49c0-1.82,2.54-3.59,6.64-4.62c0.06-0.02,0.13-0.02,0.19-0.02c0.17,0,0.34,0.06,0.49,0.17
		c0.2,0.15,0.31,0.39,0.31,0.64l-0.02,2.63c0,0.42,0.16,0.82,0.46,1.12c0.3,0.3,0.7,0.47,1.12,0.47h1.66
		c-0.01-0.05-0.02-0.1-0.02-0.16v-0.46c0-0.05,0.01-0.11,0.02-0.16h-1.66c-0.21,0-0.42-0.08-0.57-0.24
		c-0.15-0.15-0.23-0.35-0.23-0.57l0.01-0.92c-0.29-0.49-0.43-1.07-0.37-1.67c0.03-0.31,0.07-0.62,0.11-0.93
		c-0.09-0.14-0.2-0.26-0.34-0.36c-0.39-0.3-0.88-0.41-1.35-0.29c-4.53,1.14-7.23,3.15-7.23,5.37c0,3.53,6.71,6.3,15.28,6.3
		c1.62,0,3.17-0.1,4.62-0.29c0.05-0.27,0.09-0.54,0.14-0.81c-1.5,0.21-3.1,0.32-4.76,0.32C105.53,48.01,98.89,45.48,98.89,42.49z"/>
	<path class="st3" d="M116.87,40.25c0.12,0.12,0.19,0.29,0.19,0.46v0.36c0.43-0.28,0.71-0.77,0.71-1.32v-1.6
		c0-0.23,0.1-0.45,0.28-0.61c0.04-0.04,0.09-0.07,0.13-0.09c-0.04-0.27-0.08-0.53-0.13-0.79c-0.19,0.06-0.36,0.16-0.51,0.29
		c-0.35,0.3-0.55,0.74-0.55,1.2v1.6c0,0.18-0.06,0.34-0.15,0.47C116.84,40.23,116.85,40.24,116.87,40.25z"/>
	<path class="st3" d="M122.27,44.89c0.27,0.45,0.5,0.89,0.72,1.32c0.25-0.09,0.5-0.18,0.73-0.27c-0.23-0.47-0.49-0.95-0.78-1.44
		c-0.31-0.52-0.87-0.84-1.48-0.84l-1.45,0c-0.01,0.26-0.01,0.52-0.02,0.78l1.47,0C121.79,44.43,122.1,44.61,122.27,44.89z"/>
	<path class="st3" d="M107.29,45.75c-0.02,0.17-0.02,0.35-0.01,0.52c0.03,0.29,0.06,0.57,0.1,0.85c0.26,0.05,0.53,0.09,0.8,0.13
		c-0.03-0.2-0.05-0.41-0.08-0.62C107.83,46.34,107.55,46.04,107.29,45.75z"/>
	<path class="st3" d="M109.71,44.27v-0.46c0-0.05,0.01-0.11,0.02-0.16h-0.09c-0.6,0-1.18,0.23-1.62,0.64
		c0.17,0.2,0.34,0.39,0.52,0.58c0.3-0.28,0.69-0.44,1.1-0.44h0.09C109.72,44.38,109.71,44.33,109.71,44.27z"/>
	<path class="st3" d="M109.49,46.39c-2.51-2.51-4.48-5.21-5.69-7.61c-0.26,0.09-0.51,0.18-0.75,0.28c1.23,2.48,3.25,5.24,5.89,7.88
		c0.16,0.16,0.32,0.32,0.48,0.47c0.42,0.05,0.84,0.09,1.27,0.12C110.28,47.17,109.88,46.79,109.49,46.39z"/>
	<path class="st3" d="M117.09,52.09c-1.47-0.74-3-1.74-4.52-2.94c-0.44-0.01-0.86-0.03-1.29-0.05c1.85,1.56,3.74,2.83,5.54,3.73
		C116.91,52.59,117,52.34,117.09,52.09z"/>
	<path class="st3" d="M113.39,27.22c-2.95,0-5.41,4.63-6.11,11.53c-0.07,0.67,0.15,1.33,0.6,1.83c0.45,0.5,1.09,0.78,1.77,0.78h0.1
		c-0.02-0.06-0.03-0.12-0.03-0.18v-0.46c0-0.05,0.01-0.09,0.01-0.13h-0.08c-0.45,0-0.88-0.19-1.19-0.53
		c-0.31-0.34-0.45-0.78-0.4-1.23c0.64-6.27,2.88-10.83,5.33-10.83c2.99,0,5.52,6.64,5.52,14.5c0,7.86-2.53,14.5-5.52,14.5
		c-2.05,0-3.96-3.2-4.9-7.93c-0.28-0.04-0.55-0.09-0.82-0.14c1,5.39,3.18,8.85,5.73,8.85c3.53,0,6.3-6.71,6.3-15.28
		C119.68,33.93,116.92,27.22,113.39,27.22z"/>
	<path class="st3" d="M116.61,40.51c-0.05-0.05-0.12-0.08-0.2-0.08h-0.46h-0.22v-0.48c0-0.45-0.37-0.82-0.82-0.82h-3.04
		c-0.45,0-0.82,0.37-0.82,0.82v0.48h-0.22h-0.46c-0.08,0-0.15,0.03-0.2,0.08c-0.05,0.05-0.08,0.12-0.08,0.2v0.23v0.23
		c0,0.08,0.03,0.15,0.08,0.2c0.05,0.05,0.12,0.08,0.2,0.08h0.46h0.22v0.52h-0.22h-0.46c-0.08,0-0.15,0.03-0.2,0.08
		c-0.05,0.05-0.08,0.12-0.08,0.2v0.23v0.23c0,0.08,0.03,0.15,0.08,0.2c0.05,0.05,0.12,0.08,0.2,0.08h0.46h0.22v0.52h-0.22h-0.46
		c-0.08,0-0.15,0.03-0.2,0.08c-0.05,0.05-0.08,0.12-0.08,0.2v0.23v0.23c0,0.08,0.03,0.15,0.08,0.2c0.05,0.05,0.12,0.08,0.2,0.08
		h0.46h0.22v0.48c0,0.45,0.37,0.82,0.82,0.82h3.04c0.45,0,0.82-0.37,0.82-0.82v-0.48h0.22h0.46c0.08,0,0.15-0.03,0.2-0.08
		c0.05-0.05,0.08-0.12,0.08-0.2v-0.23v-0.23c0-0.08-0.03-0.15-0.08-0.2c-0.05-0.05-0.12-0.08-0.2-0.08h-0.46h-0.22v-0.52h0.22h0.46
		c0.08,0,0.15-0.03,0.2-0.08c0.05-0.05,0.08-0.12,0.08-0.2v-0.23v-0.23c0-0.08-0.03-0.15-0.08-0.2c-0.05-0.05-0.12-0.08-0.2-0.08
		h-0.46h-0.22v-0.52h0.22h0.46c0.08,0,0.15-0.03,0.2-0.08c0.05-0.05,0.08-0.12,0.08-0.2v-0.23v-0.23
		C116.69,40.64,116.66,40.57,116.61,40.51z"/>
</g>
</svg>
