<?xml version="1.0" encoding="utf-8"?>
<!-- Generator: Adobe Illustrator 23.0.1, SVG Export Plug-In . SVG Version: 6.00 Build 0)  -->
<svg version="1.1" id="_x30_" xmlns="http://www.w3.org/2000/svg" xmlns:xlink="http://www.w3.org/1999/xlink" x="0px" y="0px"
	 viewBox="0 0 1350.5 685.6" style="enable-background:new 0 0 1350.5 685.6;" xml:space="preserve">
<style type="text/css">
	.st0{fill:#1D1D1B;}
	.st1{fill:none;stroke:#FF0000;stroke-width:1.000000e-03;stroke-linecap:round;stroke-linejoin:round;stroke-miterlimit:10;}
	.st2{fill:none;stroke:#1D1D1B;stroke-width:0.4876;stroke-linecap:round;stroke-miterlimit:10;}
	.st3{fill:none;stroke:#1D1D1B;stroke-width:0.4876;stroke-linecap:round;stroke-linejoin:bevel;stroke-miterlimit:10;}
	.st4{fill:#FFFFFF;}
	.st5{font-family:'Roboto-Medium';}
	.st6{font-size:23.094px;}
	.st7{font-size:23.09px;}
	.st8{font-family:'Roboto-Black';}
	.st9{font-size:21.8443px;}
	.st10{fill:none;stroke:#1D1D1B;stroke-width:0.4876;stroke-miterlimit:10;}
</style>
<g>
	<g>
		<ellipse class="st0" cx="1068.3" cy="493.2" rx="20.9" ry="20.9"/>
		<text transform="matrix(1 0 0 1 1054.3633 500.4092)" class="st4 st5 st6">A2</text>
	</g>
	<text transform="matrix(1 0 0 1 1106.5768 500.4095)" class="st5 st7">Back panel</text>
</g>
<g>
	<g>
		
			<ellipse transform="matrix(0.2978 -0.9546 0.9546 0.2978 527.5798 1183.515)" class="st0" cx="1068.3" cy="233.1" rx="20.9" ry="20.9"/>
		<text transform="matrix(1 0 0 1 1054.3634 240.3052)" class="st4 st5 st6">A1</text>
	</g>
	<text transform="matrix(1 0 0 1 1106.5765 240.3047)" class="st5 st7">Front panel</text>
</g>
<text transform="matrix(1 0 0 1 1124.0156 63.3075)" class="st8 st9">3mm thick</text>
<text transform="matrix(1 0 0 1 77.2709 63.3075)" class="st8 st9">Plywood</text>
<line class="st2" x1="1350.5" y1="45.7" x2="1247.6" y2="45.7"/>
<line class="st2" x1="1350.5" y1="68.1" x2="1247.6" y2="68.1"/>
<line class="st10" x1="0" y1="56.9" x2="60.3" y2="56.9"/>
<line class="st10" x1="177.3" y1="56.9" x2="1103.5" y2="56.9"/>
<g>
	<polyline class="st3" points="1267.7,51.2 1262.2,45.7 1256.6,51.2 	"/>
	<polyline class="st3" points="1267.7,62.6 1262.2,68.1 1256.6,62.6 	"/>
	<line class="st3" x1="1262.2" y1="45.7" x2="1262.2" y2="68.1"/>
</g>
<circle class="st0" cx="60.3" cy="56.9" r="2.2"/>
<g>
	<g>
		<path d="M114.1,226.7c0.2,0.2,0.4,0.3,0.6,0.4c0.2,0.1,0.5,0.1,0.7,0.1c0.2,0,0.4,0,0.5-0.1c0.1,0,0.3-0.1,0.4-0.2c0,0,0,0,0.1,0
			c0,0.1,0.1,0.2,0.3,0.2h0.1c0.2,0,0.3-0.1,0.3-0.3v-1.4c0-0.2-0.1-0.3-0.3-0.3h-0.7c-0.2,0-0.3,0.1-0.3,0.3v0.1
			c0,0.2,0.1,0.3,0.3,0.3h0.3v0.3c-0.1,0.1-0.1,0.1-0.2,0.2c-0.1,0-0.2,0.1-0.3,0.1c-0.2,0.1-0.6,0.1-0.8,0
			c-0.1-0.1-0.3-0.1-0.4-0.2c-0.1-0.1-0.2-0.2-0.2-0.4c-0.1-0.2-0.1-0.3-0.1-0.5c0-0.2,0-0.3,0.1-0.5c0.1-0.1,0.1-0.3,0.2-0.4
			c0.1-0.1,0.2-0.2,0.4-0.3c0.1-0.1,0.3-0.1,0.5-0.1c0.1,0,0.2,0,0.3,0c0.1,0,0.2,0,0.2,0.1c0.1,0,0.1,0,0.2,0.1l0.1,0.1
			c0.2,0.1,0.3,0.1,0.4-0.1l0.1-0.1c0.1-0.2,0.1-0.3-0.1-0.4c0,0-0.1-0.1-0.2-0.1c-0.1,0-0.2-0.1-0.3-0.1c-0.1,0-0.2-0.1-0.4-0.1
			c-0.1,0-0.3,0-0.4,0c-0.3,0-0.5,0.1-0.8,0.1c-0.2,0.1-0.4,0.2-0.6,0.4c-0.2,0.2-0.3,0.4-0.4,0.6c-0.1,0.2-0.1,0.5-0.1,0.8v0
			c0,0.3,0.1,0.5,0.1,0.8C113.8,226.4,114,226.6,114.1,226.7z"/>
	</g>
	<g>
		<path d="M117.8,227.2h0.2c0.2,0,0.3-0.1,0.3-0.3v-2l1.5,2.1c0.1,0.1,0.2,0.2,0.3,0.2h0.2c0.2,0,0.3-0.1,0.3-0.3v-3.2
			c0-0.2-0.1-0.3-0.3-0.3h-0.2c-0.2,0-0.3,0.1-0.3,0.3v2l-1.5-2.1c-0.1-0.1-0.2-0.2-0.3-0.2h-0.2c-0.2,0-0.3,0.1-0.3,0.3v3.2
			C117.5,227.1,117.6,227.2,117.8,227.2z"/>
	</g>
	<g>
		<path d="M124.3,224.5c-0.1-0.2-0.2-0.4-0.4-0.6c-0.2-0.2-0.4-0.3-0.6-0.4c-0.2-0.1-0.5-0.1-0.8-0.1h-1c-0.2,0-0.3,0.1-0.3,0.3v3.2
			c0,0.2,0.1,0.3,0.3,0.3h1c0.3,0,0.5,0,0.8-0.1c0.2-0.1,0.4-0.2,0.6-0.4c0.2-0.2,0.3-0.4,0.4-0.6c0.1-0.2,0.1-0.5,0.1-0.8
			C124.4,225,124.4,224.8,124.3,224.5z M123.6,225.3c0,0.2,0,0.4-0.1,0.5c-0.1,0.1-0.1,0.3-0.2,0.4c-0.1,0.1-0.2,0.2-0.4,0.2
			c-0.1,0.1-0.3,0.1-0.5,0.1H122v-2.3h0.5c0.2,0,0.3,0,0.5,0.1c0.1,0,0.3,0.1,0.4,0.2c0.1,0.1,0.2,0.2,0.2,0.4
			C123.6,225,123.6,225.1,123.6,225.3z"/>
	</g>
	<g>
		<path d="M116.5,231.7c-0.2-0.2-0.4-0.3-0.6-0.4c-0.2-0.1-0.5-0.1-0.8-0.1h-1c-0.2,0-0.3,0.1-0.3,0.3v3.2c0,0.2,0.1,0.3,0.3,0.3h1
			c0.3,0,0.5,0,0.8-0.1c0.2-0.1,0.4-0.2,0.6-0.4c0.2-0.2,0.3-0.4,0.4-0.6c0.1-0.2,0.1-0.5,0.1-0.8c0-0.3,0-0.6-0.1-0.8
			C116.8,232,116.7,231.8,116.5,231.7z M114.6,231.9h0.5c0.2,0,0.3,0,0.5,0.1c0.1,0,0.3,0.1,0.4,0.2c0.1,0.1,0.2,0.2,0.2,0.4
			c0.1,0.1,0.1,0.3,0.1,0.5c0,0.2,0,0.4-0.1,0.5c-0.1,0.1-0.1,0.3-0.2,0.4c-0.1,0.1-0.2,0.2-0.4,0.2c-0.1,0.1-0.3,0.1-0.5,0.1h-0.5
			V231.9z"/>
	</g>
	<g>
		<path d="M117.7,234.9h0.2c0.2,0,0.3-0.1,0.3-0.3v-3.2c0-0.2-0.1-0.3-0.3-0.3h-0.2c-0.2,0-0.3,0.1-0.3,0.3v3.2
			C117.4,234.8,117.5,234.9,117.7,234.9z"/>
	</g>
	<g>
		<path d="M121.6,231.2h-0.2c-0.2,0-0.3,0.1-0.3,0.3v2l-1.5-2.2c-0.1-0.1-0.2-0.2-0.3-0.2h-0.2c-0.2,0-0.3,0.1-0.3,0.3v3.2
			c0,0.2,0.1,0.3,0.3,0.3h0.2c0.2,0,0.3-0.1,0.3-0.3v-2l1.5,2.1c0.1,0.1,0.2,0.2,0.3,0.2h0.2c0.2,0,0.3-0.1,0.3-0.3v-3.2
			C121.9,231.3,121.7,231.2,121.6,231.2z"/>
	</g>
	<g>
		<path d="M115.8,240.5c-0.1-0.1-0.3-0.2-0.4-0.3c-0.2-0.1-0.5-0.1-0.8-0.1c0,0,0,0-0.1,0l0.1-0.5h1c0.2,0,0.3-0.1,0.3-0.3v-0.1
			c0-0.2-0.1-0.3-0.3-0.3h-1.4c-0.2,0-0.3,0.1-0.3,0.3l-0.2,1.4c0,0.2,0.1,0.3,0.2,0.3l0,0c0.1,0,0.2,0,0.3,0c0,0,0.1,0,0.2-0.1
			c0.1,0,0.3,0,0.5,0c0.1,0,0.1,0.1,0.2,0.1c0.1,0.1,0.1,0.1,0.1,0.2c0,0.1,0,0.1,0,0.2c0,0.1,0,0.2,0,0.2c0,0.1-0.1,0.1-0.1,0.2
			c-0.1,0-0.1,0.1-0.2,0.1c-0.1,0-0.3,0-0.4,0c-0.1,0-0.1,0-0.2-0.1c0,0-0.1,0-0.1-0.1c0,0-0.1-0.1-0.1-0.1
			c-0.2-0.1-0.3-0.1-0.4,0.1l-0.1,0.1c-0.1,0.1-0.1,0.1-0.1,0.2c0,0.1,0,0.1,0.1,0.2l0.1-0.1l-0.1,0.1c0,0,0.1,0.1,0.1,0.1
			c0.1,0,0.1,0.1,0.2,0.1c0.1,0,0.2,0.1,0.3,0.1c0.1,0,0.2,0,0.4,0c0.2,0,0.4,0,0.5-0.1c0.2-0.1,0.3-0.2,0.4-0.3
			c0.1-0.1,0.2-0.3,0.3-0.4c0.1-0.2,0.1-0.3,0.1-0.5c0-0.2,0-0.3-0.1-0.5C116,240.7,115.9,240.6,115.8,240.5z"/>
	</g>
	<g>
		<path d="M119.1,238.9h-0.2c-0.2,0-0.3,0.1-0.3,0.2l-0.8,2.3l-0.8-2.3c-0.1-0.1-0.2-0.2-0.3-0.2h-0.2c-0.1,0-0.2,0.1-0.3,0.1
			c0,0.1-0.1,0.1,0,0.3l1.2,3.2c0.1,0.1,0.2,0.2,0.3,0.2h0.2c0.2,0,0.3-0.1,0.3-0.2l1.2-3.2c0-0.1,0-0.2,0-0.3
			C119.3,238.9,119.3,238.9,119.1,238.9z"/>
	</g>
	<path class="st1" d="M526.2,203.5c0-2.7-2.2-5-5-5c-2.7,0-5,2.2-5,5c0,2.7,2.2,5,5,5C524,208.4,526.2,206.2,526.2,203.5
		L526.2,203.5z"/>
	<path class="st1" d="M929,203.5c0-2.7-2.2-5-5-5s-5,2.2-5,5c0,2.7,2.2,5,5,5S929,206.2,929,203.5L929,203.5z"/>
	<path class="st1" d="M123,203.5c0-2.7-2.2-5-5-5c-2.7,0-5,2.2-5,5c0,2.7,2.2,5,5,5C120.7,208.4,123,206.2,123,203.5L123,203.5z"/>
	<path class="st1" d="M526.2,262.8c0,2.7-2.2,5-5,5c-2.7,0-5-2.2-5-5c0-2.7,2.2-5,5-5C524,257.9,526.2,260.1,526.2,262.8
		L526.2,262.8z"/>
	<path class="st1" d="M929,262.8c0,2.7-2.2,5-5,5s-5-2.2-5-5c0-2.7,2.2-5,5-5S929,260.1,929,262.8L929,262.8z"/>
	<path class="st1" d="M123,262.8c0,2.7-2.2,5-5,5c-2.7,0-5-2.2-5-5c0-2.7,2.2-5,5-5C120.7,257.9,123,260.1,123,262.8L123,262.8z"/>
	<path class="st1" d="M103.8,262.8c0,7.8,6.3,14.2,14.2,14.2h806.1c7.8,0,14.2-6.3,14.2-14.2v-59.4c0-7.8-6.3-14.2-14.2-14.2H118
		c-7.8,0-14.2,6.3-14.2,14.2h0L103.8,262.8z"/>
	<g>
		<path d="M206.1,202.6c0-0.3,0.1-0.4,0.4-0.4h0.4c0.3,0,0.4,0.1,0.4,0.4v7h3.4c0.3,0,0.4,0.1,0.4,0.4v0.2c0,0.3-0.1,0.4-0.4,0.4
			h-4.2c-0.3,0-0.4-0.1-0.4-0.4L206.1,202.6L206.1,202.6z"/>
	</g>
	<g>
		<path d="M211.4,207.6c0-0.5,0.1-0.9,0.2-1.3c0.2-0.4,0.4-0.7,0.6-1c0.3-0.3,0.6-0.5,1-0.6c0.4-0.2,0.8-0.2,1.2-0.2
			c0.4,0,0.8,0.1,1.1,0.2c0.3,0.1,0.6,0.3,0.8,0.6c0.2,0.3,0.4,0.6,0.5,0.9c0.1,0.4,0.2,0.7,0.2,1.2c0,0.1,0,0.2-0.1,0.3
			s-0.2,0.1-0.3,0.1h-4.1c0,0.3,0.1,0.6,0.2,0.9c0.1,0.3,0.3,0.5,0.5,0.6c0.2,0.2,0.4,0.3,0.7,0.4s0.5,0.1,0.8,0.1
			c0.3,0,0.6-0.1,0.9-0.2c0.2-0.1,0.4-0.2,0.6-0.3c0.2-0.1,0.4-0.1,0.5,0.1l0.1,0.2c0.1,0.1,0.1,0.2,0.1,0.3c0,0.1-0.1,0.2-0.2,0.2
			c-0.1,0.1-0.2,0.1-0.3,0.2c-0.1,0.1-0.3,0.1-0.5,0.2c-0.2,0.1-0.4,0.1-0.6,0.2c-0.2,0-0.4,0.1-0.7,0.1c-0.5,0-0.9-0.1-1.3-0.2
			c-0.4-0.2-0.7-0.4-1-0.7c-0.3-0.3-0.5-0.6-0.7-1C211.5,208.5,211.4,208.1,211.4,207.6z M215.9,207c0-0.5-0.2-0.9-0.4-1.2
			c-0.3-0.3-0.6-0.4-1-0.4c-0.4,0-0.8,0.1-1.2,0.4c-0.3,0.3-0.5,0.7-0.6,1.2H215.9z"/>
	</g>
	<g>
		<path d="M217.9,207.6c0-0.5,0.1-0.9,0.2-1.3c0.1-0.4,0.3-0.7,0.6-1c0.2-0.3,0.5-0.5,0.9-0.6c0.3-0.2,0.7-0.2,1.1-0.2
			c0.4,0,0.6,0.1,0.9,0.2c0.2,0.1,0.4,0.2,0.6,0.4c0.2,0.2,0.3,0.3,0.4,0.5h0c0,0,0-0.1,0-0.1c0,0,0-0.1,0-0.1s0-0.1,0-0.2v-2.5
			c0-0.3,0.1-0.4,0.4-0.4h0.4c0.3,0,0.4,0.1,0.4,0.4v7.7c0,0.3-0.1,0.4-0.4,0.4H223c-0.3,0-0.4-0.1-0.4-0.4V210c0-0.1,0-0.2,0-0.2
			c0,0,0-0.1,0-0.1h0c-0.1,0.2-0.3,0.4-0.4,0.6c-0.2,0.1-0.4,0.3-0.6,0.4s-0.6,0.2-0.9,0.2c-0.4,0-0.8-0.1-1.1-0.2
			c-0.3-0.2-0.6-0.4-0.8-0.7c-0.2-0.3-0.4-0.6-0.5-1C218,208.5,217.9,208.1,217.9,207.6z M219.1,207.6c0,0.3,0,0.6,0.1,0.9
			c0.1,0.3,0.2,0.5,0.4,0.7c0.2,0.2,0.3,0.3,0.5,0.4c0.2,0.1,0.4,0.2,0.7,0.2c0.2,0,0.4,0,0.7-0.1c0.2-0.1,0.4-0.2,0.6-0.4
			c0.2-0.2,0.3-0.4,0.4-0.7c0.1-0.3,0.1-0.6,0.1-1c0-0.3,0-0.5-0.1-0.8c-0.1-0.3-0.2-0.5-0.3-0.7c-0.1-0.2-0.3-0.4-0.5-0.5
			c-0.2-0.1-0.5-0.2-0.8-0.2c-0.2,0-0.5,0-0.7,0.1c-0.2,0.1-0.4,0.2-0.6,0.4c-0.2,0.2-0.3,0.4-0.4,0.7
			C219.2,207,219.1,207.3,219.1,207.6z"/>
	</g>
	<g>
		<path d="M228.7,202.6c0-0.3,0.1-0.4,0.4-0.4h2.4c0.6,0,1.2,0.1,1.8,0.3c0.5,0.2,1,0.5,1.4,0.8c0.4,0.4,0.7,0.8,0.9,1.3
			c0.2,0.5,0.3,1.1,0.3,1.8s-0.1,1.3-0.3,1.8c-0.2,0.5-0.5,1-0.9,1.3c-0.4,0.4-0.8,0.6-1.4,0.8c-0.5,0.2-1.1,0.3-1.8,0.3h-2.4
			c-0.3,0-0.4-0.1-0.4-0.4V202.6z M231.4,209.7c0.5,0,0.9-0.1,1.3-0.2c0.4-0.1,0.7-0.3,1-0.6c0.3-0.3,0.5-0.6,0.6-1
			c0.1-0.4,0.2-0.9,0.2-1.4c0-0.5-0.1-1-0.2-1.4c-0.2-0.4-0.4-0.7-0.6-1c-0.3-0.3-0.6-0.5-1-0.6c-0.4-0.1-0.8-0.2-1.3-0.2h-1.5v6.4
			H231.4L231.4,209.7z"/>
	</g>
	<g>
		<path d="M237.5,203.4c-0.3,0-0.4-0.1-0.4-0.4v-0.4c0-0.3,0.1-0.4,0.4-0.4h0.4c0.3,0,0.4,0.1,0.4,0.4v0.4c0,0.3-0.1,0.4-0.4,0.4
			H237.5z M237.1,205c0-0.3,0.1-0.4,0.4-0.4h0.4c0.3,0,0.4,0.1,0.4,0.4v5.3c0,0.3-0.1,0.4-0.4,0.4h-0.4c-0.3,0-0.4-0.1-0.4-0.4V205z
			"/>
	</g>
	<g>
		<path d="M239.7,210.2c-0.1-0.1-0.2-0.1-0.2-0.2c0-0.1,0-0.2,0.1-0.3l0.1-0.2c0.1-0.1,0.2-0.2,0.2-0.2s0.2,0,0.3,0.1
			c0.1,0.1,0.3,0.2,0.6,0.3s0.6,0.2,0.9,0.2c0.3,0,0.6-0.1,0.7-0.2c0.2-0.1,0.3-0.3,0.3-0.6c0-0.2-0.1-0.4-0.2-0.5
			c-0.2-0.1-0.4-0.2-0.6-0.3c-0.2-0.1-0.5-0.2-0.8-0.3c-0.3-0.1-0.5-0.2-0.8-0.4c-0.2-0.1-0.4-0.3-0.6-0.5c-0.2-0.2-0.2-0.5-0.2-0.8
			c0-0.3,0.1-0.5,0.2-0.8c0.1-0.2,0.3-0.4,0.5-0.5c0.2-0.1,0.4-0.3,0.7-0.3c0.3-0.1,0.6-0.1,0.8-0.1c0.4,0,0.8,0.1,1.1,0.2
			c0.3,0.1,0.5,0.2,0.6,0.3c0.1,0.1,0.2,0.1,0.2,0.2c0,0.1,0,0.2-0.1,0.3l-0.1,0.2c-0.1,0.2-0.3,0.2-0.5,0.1
			c-0.1-0.1-0.3-0.1-0.5-0.2c-0.2-0.1-0.5-0.1-0.7-0.1s-0.5,0.1-0.7,0.2c-0.2,0.1-0.3,0.3-0.3,0.6c0,0.2,0.1,0.4,0.2,0.5
			c0.2,0.1,0.4,0.2,0.6,0.3c0.2,0.1,0.5,0.2,0.8,0.3c0.3,0.1,0.5,0.2,0.8,0.4c0.2,0.1,0.4,0.3,0.6,0.5c0.2,0.2,0.2,0.5,0.2,0.8
			c0,0.3-0.1,0.5-0.2,0.7c-0.1,0.2-0.3,0.4-0.4,0.6c-0.2,0.2-0.4,0.3-0.7,0.4c-0.3,0.1-0.6,0.1-0.9,0.1c-0.3,0-0.5,0-0.7-0.1
			c-0.2,0-0.4-0.1-0.6-0.2c-0.2-0.1-0.3-0.1-0.4-0.2C239.9,210.3,239.8,210.2,239.7,210.2z"/>
	</g>
	<g>
		<path d="M245.2,205c0-0.3,0.1-0.4,0.4-0.4h0.3c0.3,0,0.4,0.1,0.4,0.3v0.4c0,0,0,0.1,0,0.1s0,0.1,0,0.1c0,0,0,0.1,0,0.1h0
			c0.1-0.2,0.3-0.4,0.4-0.6c0.2-0.1,0.4-0.3,0.6-0.4c0.3-0.1,0.6-0.2,1-0.2c0.4,0,0.8,0.1,1.1,0.2c0.3,0.2,0.6,0.4,0.8,0.7
			c0.2,0.3,0.4,0.6,0.5,1c0.1,0.4,0.2,0.8,0.2,1.3c0,0.5-0.1,0.9-0.2,1.3c-0.1,0.4-0.3,0.7-0.6,1c-0.2,0.3-0.5,0.5-0.9,0.6
			s-0.7,0.2-1.1,0.2c-0.4,0-0.6-0.1-0.9-0.2c-0.2-0.1-0.4-0.2-0.6-0.4c-0.2-0.2-0.3-0.3-0.4-0.5h0c0,0,0,0.1,0,0.1c0,0,0,0.1,0,0.2
			c0,0.1,0,0.1,0,0.2v2.4c0,0.3-0.1,0.4-0.4,0.4h-0.4c-0.3,0-0.4-0.1-0.4-0.4V205L245.2,205z M246.4,207.7c0,0.3,0,0.5,0.1,0.8
			c0.1,0.3,0.2,0.5,0.3,0.7c0.1,0.2,0.3,0.4,0.5,0.5c0.2,0.1,0.5,0.2,0.7,0.2c0.2,0,0.5,0,0.7-0.1c0.2-0.1,0.4-0.2,0.6-0.4
			c0.2-0.2,0.3-0.4,0.4-0.7c0.1-0.3,0.1-0.6,0.1-0.9c0-0.3,0-0.6-0.1-0.9c-0.1-0.3-0.2-0.5-0.4-0.7c-0.2-0.2-0.3-0.3-0.5-0.4
			c-0.2-0.1-0.4-0.2-0.7-0.2c-0.2,0-0.5,0-0.7,0.1c-0.2,0.1-0.4,0.2-0.6,0.4c-0.2,0.2-0.3,0.4-0.4,0.7
			C246.4,207,246.4,207.3,246.4,207.7z"/>
	</g>
	<g>
		<path d="M252.3,202.6c0-0.3,0.1-0.4,0.4-0.4h0.4c0.3,0,0.4,0.1,0.4,0.4v6.3c0,0.2,0,0.3,0,0.4c0,0.1,0.1,0.2,0.1,0.2
			c0.1,0.1,0.1,0.1,0.2,0.1c0.1,0,0.1,0,0.2,0c0.1,0,0.2,0.1,0.2,0.1c0.1,0.1,0.1,0.1,0.1,0.2v0.3c0,0.1,0,0.2-0.1,0.3
			c-0.1,0.1-0.2,0.1-0.3,0.1c-0.2,0-0.3,0-0.5-0.1c-0.2,0-0.4-0.1-0.5-0.2c-0.2-0.1-0.3-0.3-0.4-0.5c-0.1-0.2-0.2-0.5-0.2-0.9
			L252.3,202.6L252.3,202.6z"/>
	</g>
	<g>
		<path d="M255,209c0-0.3,0.1-0.6,0.2-0.8c0.1-0.2,0.3-0.4,0.5-0.6c0.2-0.2,0.4-0.3,0.7-0.4c0.3-0.1,0.5-0.2,0.8-0.2
			c0.3,0,0.5-0.1,0.8-0.1c0.3,0,0.5,0,0.7,0h0.3v-0.2c0-0.2,0-0.5-0.1-0.6c-0.1-0.2-0.2-0.3-0.3-0.4c-0.1-0.1-0.3-0.2-0.4-0.2
			c-0.2,0-0.3-0.1-0.5-0.1c-0.3,0-0.6,0-0.8,0.1c-0.2,0.1-0.4,0.2-0.6,0.3c-0.2,0.1-0.4,0.1-0.5-0.1l-0.1-0.2
			c-0.1-0.2-0.1-0.4,0.1-0.5c0.2-0.1,0.4-0.2,0.8-0.3c0.3-0.1,0.7-0.2,1.2-0.2c0.8,0,1.3,0.2,1.8,0.6c0.4,0.4,0.6,1,0.6,1.8v3.4
			c0,0.3-0.1,0.4-0.4,0.4h-0.3c-0.3,0-0.4-0.1-0.4-0.4v-0.4c0-0.1,0-0.1,0-0.2s0-0.1,0-0.1c0,0,0-0.1,0-0.1h0
			c-0.1,0.2-0.3,0.5-0.5,0.6c-0.2,0.2-0.4,0.3-0.6,0.4c-0.2,0.1-0.6,0.2-0.9,0.2c-0.3,0-0.5,0-0.8-0.1c-0.2-0.1-0.5-0.2-0.7-0.4
			c-0.2-0.2-0.3-0.3-0.5-0.6C255,209.6,255,209.3,255,209z M256.2,208.9c0,0.2,0.1,0.5,0.3,0.7c0.2,0.2,0.5,0.3,0.8,0.3
			c0.3,0,0.5-0.1,0.7-0.2s0.4-0.3,0.5-0.5c0.1-0.2,0.2-0.4,0.3-0.6c0.1-0.2,0.1-0.5,0.1-0.7v-0.3h-0.3c-0.2,0-0.5,0-0.7,0
			c-0.3,0-0.5,0.1-0.8,0.1c-0.3,0.1-0.5,0.2-0.6,0.4C256.2,208.4,256.2,208.6,256.2,208.9z"/>
	</g>
	<g>
		<path d="M261,212.3c0-0.1,0.1-0.2,0.2-0.2c0.1,0,0.2,0,0.3,0c0.1,0,0.1,0.1,0.2,0.1c0.1,0,0.2,0,0.3,0c0.2,0,0.5-0.1,0.6-0.3
			c0.2-0.2,0.3-0.4,0.4-0.6l0.3-0.7l-2.4-5.5c-0.1-0.1-0.1-0.2,0-0.3s0.2-0.1,0.3-0.1h0.5c0.2,0,0.4,0.1,0.4,0.3l1.4,3.7
			c0,0.1,0,0.2,0.1,0.2c0,0.1,0.1,0.2,0.1,0.2c0,0.1,0,0.2,0.1,0.3h0l0.1-0.2c0-0.1,0-0.1,0.1-0.2s0.1-0.2,0.1-0.2l1.4-3.7
			c0.1-0.2,0.2-0.3,0.4-0.3h0.4c0.1,0,0.2,0,0.3,0.1c0.1,0.1,0.1,0.2,0,0.3l-2.7,6.7c-0.2,0.5-0.4,0.8-0.8,1.1
			c-0.3,0.2-0.7,0.4-1.2,0.4c-0.2,0-0.3,0-0.5-0.1c-0.1,0-0.3-0.1-0.4-0.1c-0.1,0-0.2-0.1-0.2-0.2c0-0.1,0-0.2,0-0.3L261,212.3z"/>
	</g>
	<g>
		<path d="M270.9,202.6c0-0.3,0.1-0.4,0.4-0.4h0.4c0.3,0,0.4,0.1,0.4,0.4v3.2h1.3l2-3.3c0.1-0.2,0.3-0.3,0.5-0.3h0.4
			c0.2,0,0.3,0,0.3,0.1c0.1,0.1,0,0.2,0,0.3l-2.2,3.5v0l2.4,4c0.1,0.1,0.1,0.2,0.1,0.3c-0.1,0.1-0.2,0.1-0.3,0.1h-0.5
			c-0.2,0-0.4-0.1-0.5-0.3l-2.1-3.6h-1.3v3.5c0,0.3-0.1,0.4-0.4,0.4h-0.4c-0.3,0-0.4-0.1-0.4-0.4V202.6L270.9,202.6z"/>
	</g>
	<g>
		<path d="M278.3,203.4c-0.3,0-0.4-0.1-0.4-0.4v-0.4c0-0.3,0.1-0.4,0.4-0.4h0.4c0.3,0,0.4,0.1,0.4,0.4v0.4c0,0.3-0.1,0.4-0.4,0.4
			H278.3z M277.9,205c0-0.3,0.1-0.4,0.4-0.4h0.4c0.3,0,0.4,0.1,0.4,0.4v5.3c0,0.3-0.1,0.4-0.4,0.4h-0.4c-0.3,0-0.4-0.1-0.4-0.4V205z
			"/>
	</g>
	<g>
		<path d="M281,205.6h-0.4c-0.3,0-0.4-0.1-0.4-0.4v-0.2c0-0.3,0.1-0.4,0.4-0.4h0.4v-1.3c0-0.3,0.1-0.4,0.4-0.4h0.3
			c0.3,0,0.4,0.1,0.4,0.4v1.3h1.1c0.3,0,0.4,0.1,0.4,0.4v0.2c0,0.3-0.1,0.4-0.4,0.4h-1.1v2.7c0,0.3,0,0.5,0.1,0.7
			c0.1,0.2,0.2,0.3,0.3,0.4c0.1,0.1,0.2,0.2,0.4,0.2c0.1,0,0.3,0.1,0.4,0.1c0.2,0,0.3,0.1,0.3,0.1s0.1,0.2,0.1,0.3v0.3
			c0,0.3-0.2,0.4-0.5,0.4c-0.3,0-0.6,0-0.9-0.1c-0.3-0.1-0.5-0.2-0.7-0.4c-0.2-0.2-0.4-0.4-0.5-0.7c-0.1-0.3-0.2-0.6-0.2-1
			L281,205.6L281,205.6z"/>
	</g>
	<path class="st1" d="M206.1,217.5v3.8h-43.3c-1.3,0-2.3,1-2.3,2.3c0,1.3,1,2.3,2.3,2.3h43.3v4.8h-13.4c-0.8-1.2-2.1-2-3.6-2h-9.9
		c-1.5,0-2.8,0.8-3.6,2h-12.8c-1.3,0-2.3,1-2.3,2.3c0,1.3,1,2.3,2.3,2.3h12.8c0.8,1.2,2.1,2,3.6,2h9.9c1.5,0,2.8-0.8,3.6-2h13.4v4.8
		h-43.3c-1.3,0-2.3,1-2.3,2.3c0,1.3,1,2.3,2.3,2.3h43.3v4h703.5v-31.2L206.1,217.5L206.1,217.5z"/>
	<g>
		<path d="M185.9,206c0.2-0.1,0.4-0.3,0.5-0.6c0.1-0.2,0.1-0.3,0.1-0.5c0-0.1,0-0.2,0-0.3l0,0l0,0c0,0,0-0.1,0-0.1c0,0,0,0,0,0
			c0,0,0-0.1,0-0.1c0,0,0,0,0,0c0,0,0-0.1,0-0.1c0,0,0,0,0,0c0,0,0-0.1-0.1-0.1c0,0,0,0,0,0c-0.2-0.2-0.3-0.4-0.6-0.5
			c-0.2-0.1-0.3-0.1-0.5-0.1h-0.8c0,0-0.1,0-0.1,0c0,0,0,0,0,0c0,0,0,0,0,0c0,0,0,0.1,0,0.1l0,0v1.8v0.4c0,0.1,0,0.1,0.1,0.1
			c0,0,0.1,0.1,0.2,0.1h0.8h0h0h0C185.5,206.2,185.7,206.1,185.9,206z M185.2,206.1L185.2,206.1h-0.8c-0.1,0-0.1,0-0.1,0
			c0,0,0,0,0-0.1v-0.4c0.2,0,0.4,0,0.6,0l0.1,0c0.6-0.1,1.1-0.4,1.5-0.8c0,0.1,0,0.1,0,0.2c0,0.2,0,0.3-0.1,0.5
			c-0.1,0.2-0.2,0.4-0.4,0.5C185.7,206,185.4,206.1,185.2,206.1L185.2,206.1L185.2,206.1z"/>
	</g>
	<g>
		<path d="M172.3,200.3c0.1,0.2,0.2,0.4,0.4,0.4c0.2,0.1,0.4,0.1,0.7,0c0.1,0,0.1-0.1,0.2-0.1l0.1,0c0.4-0.2,0.7-0.3,1.1-0.3
			c0,0,0.1,0,0.1,0l0.1,0c0.3,0.1,0.6,0.3,0.9,0.4c0.4,0.1,0.7,0,1-0.2c0,0,0.1,0,0.1-0.1l0,0c0.2-0.1,0.4-0.3,0.6-0.5
			c0.1-0.1,0.3-0.3,0.4-0.5l0-0.1c0,0,0-0.1,0-0.1c0.1-0.3,0-0.5-0.1-0.8c-0.1-0.3-0.2-0.6-0.3-0.8l0-0.1c-0.1-0.2-0.2-0.5-0.3-0.7
			l0-0.1c0,0,0,0,0,0c-0.1-0.3-0.3-0.7-0.4-1l0-0.1c0,0-0.1-0.1-0.1-0.1c-0.2-0.3-0.5-0.6-0.8-0.8c-0.2-0.1-0.4-0.2-0.7-0.2
			c0,0,0,0-0.1,0c-0.1,0-0.1,0-0.2,0l-0.1,0c-0.3,0.1-0.5,0.2-0.7,0.4c-0.1,0.1-0.1,0.1-0.2,0.2l0,0c-0.2,0.2-0.4,0.4-0.6,0.5
			c-0.1,0-0.1,0.1-0.2,0.1l-0.1,0c-0.2,0.1-0.5,0.3-0.7,0.5c0,0,0,0,0,0l0,0c-0.3,0.3-0.4,0.6-0.5,0.9l0,0.1c-0.1,0.5-0.1,1,0,1.5
			l0,0.1c0,0.1,0.1,0.2,0.1,0.3C172,199.7,172.1,199.9,172.3,200.3L172.3,200.3z"/>
	</g>
	<g>
		<path d="M193,194.6c0.1,0.2,0.1,0.4,0.2,0.6l0,0.1c0.1,0.2,0.2,0.4,0.3,0.6c0,0,0,0,0,0l0,0c0.1,0.2,0.3,0.3,0.5,0.4l0.1,0
			c0.3,0.2,0.7,0.1,1.1-0.1c0,0,0.1,0,0.1-0.1c0.1-0.1,0.3-0.2,0.4-0.4c0.2-0.3,0.3-0.6,0.2-1l0-0.1c0,0,0,0,0,0
			c-0.1-0.3-0.2-0.6-0.4-0.8l0-0.1c-0.1-0.1-0.2-0.2-0.4-0.4l-0.1,0c-0.1-0.1-0.1-0.1-0.2-0.2l0,0c-0.1-0.1-0.2-0.2-0.3-0.2
			c-0.2-0.1-0.5,0.1-0.7,0.1c-0.2,0.1-0.5,0.2-0.7,0.4c-0.1,0.2-0.2,0.4-0.2,0.6l0,0.1C192.9,194.3,192.9,194.5,193,194.6z"/>
	</g>
	<g>
		<path d="M196.4,206.3C196.3,206.3,196.3,206.3,196.4,206.3c-0.1-0.4-0.2-0.7-0.4-1c0-0.1-0.1-0.2-0.1-0.2l0-0.1
			c-0.2-0.5-0.4-1.1-0.6-1.6l0-0.1c-0.1-0.3-0.2-0.5-0.4-0.8l-0.1-0.1l0,0c-0.1-0.1-0.1-0.1-0.2-0.2c-0.4-0.4-1-0.6-1.6-0.7l-0.1,0
			c-0.1,0-0.2,0-0.2,0c-0.2,0-0.3,0-0.5,0l-0.1,0c-0.3,0-0.6,0-0.9,0l-0.1,0c-0.4,0.1-0.8,0.2-1.2,0.4l-0.1,0c0,0,0,0,0,0
			c-0.3,0.2-0.6,0.4-0.8,0.6l0,0c-0.2,0.2-0.3,0.3-0.5,0.5l0,0c-0.1,0.1-0.2,0.2-0.2,0.3c-0.2,0.2-0.3,0.5-0.4,0.7l0,0.1
			c0,0,0,0,0,0c0-0.1-0.1-0.3-0.1-0.4c-0.1-0.2-0.2-0.3-0.3-0.5c0.1-0.1,0.1-0.2,0.2-0.3c0.7-1.1,1.7-2.7,1-4
			c-0.5-1-1.9-1.8-2.8-2.4c-0.4-0.3-0.8-0.5-1.3-0.7c-0.3-0.1-0.6-0.1-0.9-0.1c-0.6,0-1.2,0.1-1.8,0.1l-0.1,0h0c0,0,0,0,0,0
			c-0.2,0-0.4,0-0.6,0.1c-0.3,0-0.5,0.1-0.8,0.2l-0.1,0c-0.2,0.1-0.3,0.2-0.4,0.3l-0.1,0.1c-1.3,1.3-1.4,3.6-0.3,5
			c0,0.1,0.1,0.1,0.1,0.2c0.1,0.1,0.2,0.3,0.4,0.4c0,0,0.1,0.1,0.1,0.1c-0.4,0-0.7,0.2-1.1,0.4c-0.1,0-0.1,0.1-0.1,0.1
			c-0.6-0.8-1.4-1.2-2.1-1.3c-0.3-0.1-0.7-0.1-1-0.1l-0.2,0c-0.3,0-0.7,0.1-1,0.3c-0.2,0.1-0.4,0.3-0.6,0.4l0,0.1l0,0
			c-0.1,0.1-0.2,0.2-0.2,0.3l0,0c-0.1,0.1-0.1,0.2-0.2,0.3l0,0.1c-0.1,0.2-0.2,0.5-0.3,0.7l0,0.1c-0.1,0.4-0.2,0.8-0.3,1.3l0,0.1
			c-0.1,0.3-0.1,0.7-0.2,1l0,0.1c-0.1,0.4-0.2,0.8-0.3,1.1c0,0.1,0,0.1-0.1,0.2l0,0.1c-0.1,0.3-0.1,0.5-0.1,0.8
			c0.1,0.4,0.3,0.8,0.5,1.1l0.1,0.1c0.1,0.2,0.2,0.3,0.3,0.5l0.1,0.1c0.1,0.2,0.3,0.4,0.4,0.5l0.1,0.1c0,0,0,0,0,0
			c0.2,0.4,0.4,0.7,0.7,1.1l0.1,0.1c0.3,0.5,0.5,1,0.7,1.5c0,0,0,0,0,0l0.1,0.2c0.1,0.2,0.1,0.3,0.2,0.5l0,0.1
			c0.1,0.4,0.3,0.8,0.6,1.1c0.4,0.5,0.9,0.9,1.6,1.2l0.1,0c0.5,0.2,1,0.4,1.6,0.4l0.1,0c0.5,0,1.1,0,1.5-0.2l0.1,0
			c0.1-0.1,0.2-0.1,0.3-0.2c0.4-0.3,0.8-0.7,1-1.2l0,0c0,0,0,0,0,0c0.2-0.3,0.4-0.6,0.7-1l0,0c0.3-0.4,0.5-0.8,0.7-1.2l0-0.1
			c0.1-0.1,0.1-0.3,0.2-0.4c0.1-0.2,0.2-0.5,0.3-0.7c0,0,0,0,0-0.1c0.1-0.3,0.1-0.7,0.1-1l0.1-0.2c0,0,0,0,0,0c0,0,0,0,0-0.1l0,0
			l0,0c0,0,0-0.1,0-0.1v0v0v0v0v-2.7v-0.3c0,0,0-0.1,0-0.1c0,0,0.1,0,0.1,0h0.8c0.1,0,0.2,0,0.2,0c0,0,0,0,0,0
			c-0.3,0.7-0.1,1.5,0.1,2.2c0.2,0.6,0.4,1.2,0.7,1.7c0.3,0.3,0.6,0.6,1,0.8l0.1,0c0.3,0.1,0.6,0.2,0.9,0.3l0.1,0
			c0.1,0,0.2,0,0.2,0.1c0.3,0.1,0.7,0.2,1.1,0.3l0.1,0c0.4,0.1,0.7,0.2,1.1,0.2l0.1,0c0.3,0.1,0.6,0.1,0.9,0.1c0.1,0,0.2,0,0.4,0
			l0.1,0c0.7,0,1.4-0.1,1.9-0.5l0.1,0c0.1-0.1,0.2-0.2,0.3-0.3c0.3-0.3,0.5-0.8,0.7-1.2c0.1-0.1,0.1-0.3,0.2-0.4
			c0.2-0.4,0.3-0.8,0.5-1.3l0-0.1c0.1-0.3,0.2-0.6,0.3-0.9c0.2-0.5,0.3-0.9,0.3-1.4l0-0.1c0-0.1,0-0.1,0-0.2c0,0,0-0.1,0-0.1
			C196.4,206.7,196.4,206.5,196.4,206.3z M179,202.8c0.4-0.2,0.8-0.4,1.2-0.4c0.3,0,0.6,0.1,0.8,0.2c0.3,0.1,0.6,0.4,0.8,0.6
			c0,0,0.1,0.1,0.1,0.1c0,0,0.1,0.1,0.1,0.1c0.1,0.1,0.1,0.3,0.2,0.4c0.1,0.2,0.1,0.4,0.1,0.6c0,0.2-0.1,0.3-0.2,0.4c0,0,0,0,0,0
			c0,0,0,0,0,0c0,0,0,0,0,0l0,0c-0.1,0.1-0.2,0.1-0.3,0.1c-0.2,0-0.3-0.1-0.4-0.2c-0.1-0.1-0.2-0.3-0.2-0.4c0-0.1,0-0.2-0.1-0.4
			c-0.1-0.2-0.2-0.3-0.3-0.4c-0.2-0.1-0.3-0.2-0.5-0.2c-0.1,0-0.3,0-0.4,0.1c-0.2,0.1-0.3,0.2-0.4,0.3c0,0,0,0,0,0.1c0,0,0,0,0,0.1
			c-0.1,0.1-0.1,0.3-0.1,0.4l0,0v4.6l0,0c0,0.1,0,0.2,0,0.3c0,0,0,0.1,0.1,0.1c0,0,0,0.1,0.1,0.1c0.1,0.1,0.2,0.2,0.4,0.3
			c0,0,0,0,0,0c0,0,0,0,0,0c0.1,0,0.2,0.1,0.3,0.1c0.2,0,0.4-0.1,0.5-0.2c0.1-0.1,0.2-0.1,0.2-0.2c0-0.1,0.1-0.1,0.1-0.2
			c0,0,0,0,0,0c0-0.1,0.1-0.2,0.1-0.3c0,0,0,0,0,0c0,0,0,0,0-0.1c0-0.1,0.1-0.3,0.2-0.4c0.1-0.1,0.2-0.1,0.2-0.1c0,0,0,0,0.1,0
			c0,0,0.1,0,0.1,0c0,0,0.1,0,0.1,0c0,0,0,0,0.1,0c0.1,0,0.2,0.1,0.2,0.1c0.1,0.1,0.2,0.2,0.2,0.4c0,0,0,0,0,0.1
			c0,0.2,0,0.4-0.1,0.6c0,0,0,0,0,0.1c0,0.1-0.1,0.2-0.2,0.4c0,0-0.1,0.1-0.1,0.1c0,0,0,0,0,0.1c-0.2,0.3-0.5,0.6-0.9,0.7
			c-0.2,0.1-0.3,0.1-0.5,0.1c0,0-0.1,0-0.1,0c-0.1,0-0.1,0-0.2,0c-0.2,0-0.4,0-0.6-0.1c0,0-0.1,0-0.1-0.1c-0.1-0.1-0.3-0.1-0.4-0.2
			c-0.3-0.2-0.6-0.5-0.8-0.9c-0.1-0.2-0.2-0.5-0.2-0.7c0,0,0-0.1,0-0.1v-4.6c0-0.3,0.1-0.6,0.2-0.8c0,0,0-0.1,0.1-0.1c0,0,0,0,0,0
			c0,0,0-0.1,0-0.1c0,0,0,0,0-0.1c0,0,0,0,0-0.1c0,0,0,0,0-0.1c0,0,0,0,0-0.1c0,0,0,0,0-0.1c0,0,0,0,0,0c0,0,0,0,0.1-0.1
			c0,0,0,0,0,0c0.1-0.1,0.1-0.1,0.2-0.2C178.9,202.8,179,202.8,179,202.8z M182.7,208.8C182.7,208.8,182.7,208.8,182.7,208.8
			c-0.1-0.1-0.1-0.1-0.2-0.2c-0.1-0.2-0.3-0.3-0.4-0.5l0-0.1c-0.2-0.3-0.4-0.5-0.6-0.8l-0.1-0.1c-0.2-0.2-0.3-0.5-0.5-0.7l-0.1-0.1
			c-0.3-0.5-0.6-1-0.8-1.4L180,205c-0.2-0.4-0.4-0.7-0.5-0.9c0,0,0,0,0,0c0.1-0.1,0.2-0.2,0.4-0.3c0.1,0,0.2-0.1,0.3-0.1
			c0.2,0,0.3,0,0.5,0.1l0,0l0,0c0.1,0.1,0.2,0.2,0.3,0.4c0,0.1,0.1,0.2,0.1,0.3c0,0.2,0.1,0.3,0.2,0.5c0.1,0.1,0.3,0.2,0.5,0.2
			c0.2,0,0.3,0,0.4-0.1c0.1,0.1,0.1,0.1,0.2,0.2l0.1,0c0.1,0.1,0.3,0.1,0.4,0.2v2.5v1.1C182.8,208.9,182.8,208.9,182.7,208.8z
			 M184.4,207.4c-0.1,0-0.1,0-0.2,0.1c0,0-0.1,0.1-0.1,0.2v0.3v2.7v0c0,0,0,0,0,0c0,0,0,0,0,0c0,0,0,0.1,0,0.1c0,0,0,0,0,0
			c0,0,0,0,0,0.1c0,0,0,0,0,0c0,0,0,0,0,0c0,0,0,0,0,0c0-0.1-0.1-0.2-0.1-0.3c-0.1-0.2-0.2-0.4-0.4-0.6c0,0,0,0,0,0c0,0,0,0,0,0
			c-0.1-0.1-0.1-0.1-0.2-0.2c0,0-0.1-0.1-0.1-0.1l-0.1-0.1c0,0,0,0,0,0c-0.1-0.1-0.2-0.2-0.2-0.2v0v-1.2v-2.5V203
			c0-0.1,0-0.3,0.1-0.4c0,0,0,0,0,0c0.1-0.1,0.3-0.2,0.4-0.2h1.6c0.1,0,0.3,0,0.4,0c0.1,0,0.1,0,0.2,0c0.3,0.1,0.6,0.2,0.8,0.4
			c0,0,0,0,0,0c0.1,0,0.1,0.1,0.2,0.1c0,0,0,0,0,0c0,0,0.1,0.1,0.1,0.1c0,0,0,0,0,0c0.1,0.1,0.2,0.2,0.3,0.4
			c0.1,0.1,0.2,0.3,0.2,0.4c0.1,0.2,0.1,0.3,0.1,0.5c0,0,0,0,0,0c0,0.1,0,0.2,0,0.2c0,0,0,0,0,0c0,0,0,0.1,0,0.1c0,0,0,0.1,0,0.1
			c0,0,0,0,0,0c0,0.2,0,0.4-0.1,0.6c0,0.2-0.1,0.3-0.2,0.5c0,0.1-0.1,0.1-0.1,0.2c0,0.1-0.1,0.1-0.1,0.2c0,0,0,0,0,0.1
			c0,0-0.1,0.1-0.1,0.1c0,0,0,0,0,0.1c0,0,0,0-0.1,0.1c0,0-0.1,0.1-0.1,0.1c0,0,0,0-0.1,0.1c0,0,0,0,0,0c0,0,0,0.1,0,0.1
			c0,0,0,0,0,0c0,0,0,0.1,0,0.1c0.2,0.3,0.4,0.6,0.4,1c0,0,0,0.1,0,0.1c0,0.1,0,0.2,0,0.3c0,0,0,0.1,0,0.1c0,0.1,0,0.2,0,0.3
			c0,0.1,0,0.2,0,0.3c0,0,0,0.1,0,0.1c0,0.1,0,0.3,0.1,0.4c0,0,0,0.1,0,0.1c0,0,0,0,0,0c0,0.2,0,0.3,0.1,0.4c0,0,0,0,0,0.1l0,0.3
			c0,0,0,0.1,0,0.1c0,0,0,0,0,0.1c0,0.1-0.1,0.2-0.1,0.3c-0.1,0.1-0.1,0.1-0.2,0.2c0,0,0,0-0.1,0c0,0-0.1,0-0.1,0c0,0,0,0-0.1,0
			c0,0-0.1,0-0.1,0c-0.1,0-0.1,0-0.2-0.1c0,0-0.1,0-0.1-0.1c-0.1-0.1-0.2-0.2-0.2-0.4c0,0,0,0,0-0.1c0,0,0,0,0,0c0,0,0-0.1,0-0.2
			c0-0.2-0.1-0.4-0.1-0.7c0-0.3-0.1-0.5-0.1-0.8c0-0.2-0.1-0.4-0.1-0.6c0,0,0,0,0-0.1c0-0.1,0-0.1,0-0.2c0,0,0-0.1,0-0.1
			c-0.1-0.1-0.1-0.2-0.2-0.3c0,0,0,0,0,0c0,0,0,0-0.1-0.1c0,0,0,0,0,0c0,0,0,0-0.1,0c0,0,0,0,0,0c0,0,0,0-0.1,0c0,0,0,0,0,0
			c-0.1-0.1-0.2-0.1-0.4-0.1H184.4z M190.2,210.6c0,0.3-0.3,0.6-0.6,0.6c-0.3,0-0.6-0.3-0.6-0.6V203c0-0.3,0.3-0.6,0.6-0.6
			c0.3,0,0.6,0.3,0.6,0.6V210.6z"/>
	</g>
	<g>
		<path d="M907.3,266.4c-0.2,0.1-0.3,0.1-0.5,0.2c0.6,1.7,0.7,3,0,3.7c-0.7,0.7-2,0.7-3.7,0c-0.1,0.2-0.1,0.4-0.2,0.5
			c0.9,0.4,1.7,0.5,2.4,0.5c0.8,0,1.4-0.2,1.9-0.7C908,269.8,908.1,268.3,907.3,266.4z"/>
	</g>
	<g>
		<path d="M902,263.8v0.3c0,0,0,0.1,0,0.1h1c0-0.2,0-0.4,0-0.6H902C902,263.7,902,263.7,902,263.8z"/>
	</g>
	<g>
		<path d="M903.1,262.5c0,0-0.1,0-0.1,0h-1c0,0,0,0.1,0,0.1v0.3c0,0,0,0.1,0,0.1h1c0,0,0.1,0,0.1,0c0-0.1,0-0.2,0-0.3
			C903.1,262.7,903.1,262.6,903.1,262.5z"/>
	</g>
	<g>
		<path d="M904.1,261.3c0,0.3,0,0.7,0,1C904.3,262,904.3,261.6,904.1,261.3z"/>
	</g>
	<g>
		<path d="M901.9,258.9c-1.7-1.6-3.4-2.8-5-3.6c-0.1,0.2-0.1,0.4-0.2,0.5c1.6,0.8,3.3,2.1,5,3.6
			C901.7,259.3,901.8,259.1,901.9,258.9z"/>
	</g>
	<g>
		<path d="M902.8,260.6c0.1,0.1,0.1,0.2,0.2,0.2c0-0.3-0.1-0.6-0.1-0.9c0,0-0.1-0.1-0.1-0.1V260.6z"/>
	</g>
	<g>
		<path d="M893.4,254.9c0.6,0,1.4,0.2,2.3,0.5c0.1-0.2,0.1-0.4,0.2-0.5c-1.9-0.7-3.5-0.8-4.3,0.1c-0.9,0.9-0.8,2.5-0.1,4.3
			c0.2-0.1,0.3-0.1,0.5-0.2c-0.7-1.7-0.7-3,0-3.7C892.2,255,892.7,254.9,893.4,254.9z"/>
	</g>
	<g>
		<path d="M903.9,258.6c0,0.2,0.1,0.4,0.1,0.6l0,0c3.5,0.7,5.9,2.1,5.9,3.6c0,1.5-2.4,2.9-5.8,3.6l0,0c0,0.2-0.1,0.4-0.1,0.6
			c3.8-0.7,6.4-2.3,6.4-4.2C910.4,261,907.9,259.4,903.9,258.6z"/>
	</g>
	<g>
		<path d="M888.8,262.8c0-1.3,1.8-2.6,4.8-3.4c0,0,0.1,0,0.1,0c0.1,0,0.2,0,0.4,0.1c0.1,0.1,0.2,0.3,0.2,0.5l0,1.9
			c0,0.3,0.1,0.6,0.3,0.8c0.2,0.2,0.5,0.3,0.8,0.3h1.2c0,0,0-0.1,0-0.1v-0.3c0,0,0-0.1,0-0.1h-1.2c-0.2,0-0.3-0.1-0.4-0.2
			c-0.1-0.1-0.2-0.3-0.2-0.4l0-0.7c-0.2-0.4-0.3-0.8-0.3-1.2c0-0.2,0.1-0.5,0.1-0.7c-0.1-0.1-0.1-0.2-0.2-0.3
			c-0.3-0.2-0.6-0.3-1-0.2c-3.3,0.8-5.2,2.3-5.2,3.9c0,2.6,4.9,4.6,11.1,4.6c1.2,0,2.3-0.1,3.4-0.2c0-0.2,0.1-0.4,0.1-0.6
			c-1.1,0.2-2.3,0.2-3.5,0.2C893.6,266.8,888.8,265,888.8,262.8z"/>
	</g>
	<g>
		<path d="M901.9,261.2c0.1,0.1,0.1,0.2,0.1,0.3v0.3c0.3-0.2,0.5-0.6,0.5-1v-1.2c0-0.2,0.1-0.3,0.2-0.4c0,0,0.1-0.1,0.1-0.1
			c0-0.2-0.1-0.4-0.1-0.6c-0.1,0-0.3,0.1-0.4,0.2c-0.3,0.2-0.4,0.5-0.4,0.9v1.2C902,260.9,901.9,261.1,901.9,261.2
			C901.9,261.2,901.9,261.2,901.9,261.2z"/>
	</g>
	<g>
		<path d="M905.8,264.5c0.2,0.3,0.4,0.6,0.5,1c0.2-0.1,0.4-0.1,0.5-0.2c-0.2-0.3-0.4-0.7-0.6-1c-0.2-0.4-0.6-0.6-1.1-0.6h-1.1
			c0,0.2,0,0.4,0,0.6h1.1C905.4,264.2,905.7,264.3,905.8,264.5z"/>
	</g>
	<g>
		<path d="M894.9,265.2c0,0.1,0,0.3,0,0.4c0,0.2,0,0.4,0.1,0.6c0.2,0,0.4,0.1,0.6,0.1c0-0.1,0-0.3-0.1-0.4
			C895.3,265.6,895.1,265.4,894.9,265.2z"/>
	</g>
	<g>
		<path d="M896.7,264.1v-0.3c0,0,0-0.1,0-0.1h-0.1c-0.4,0-0.9,0.2-1.2,0.5c0.1,0.1,0.2,0.3,0.4,0.4c0.2-0.2,0.5-0.3,0.8-0.3h0.1
			C896.7,264.2,896.7,264.1,896.7,264.1z"/>
	</g>
	<g>
		<path d="M896.5,265.6c-1.8-1.8-3.3-3.8-4.1-5.5c-0.2,0.1-0.4,0.1-0.5,0.2c0.9,1.8,2.4,3.8,4.3,5.7c0.1,0.1,0.2,0.2,0.3,0.3
			c0.3,0,0.6,0.1,0.9,0.1C897.1,266.2,896.8,265.9,896.5,265.6z"/>
	</g>
	<g>
		<path d="M902,269.8c-1.1-0.5-2.2-1.3-3.3-2.1c-0.3,0-0.6,0-0.9,0c1.3,1.1,2.7,2.1,4,2.7C901.9,270.1,902,270,902,269.8z"/>
	</g>
	<g>
		<path d="M899.4,251.7c-2.1,0-3.9,3.4-4.4,8.4c-0.1,0.5,0.1,1,0.4,1.3c0.3,0.4,0.8,0.6,1.3,0.6h0.1c0,0,0-0.1,0-0.1v-0.3
			c0,0,0-0.1,0-0.1h-0.1c-0.3,0-0.6-0.1-0.9-0.4s-0.3-0.6-0.3-0.9c0.5-4.6,2.1-7.9,3.9-7.9c2.2,0,4,4.8,4,10.5
			c0,5.7-1.8,10.5-4,10.5c-1.5,0-2.9-2.3-3.6-5.8c-0.2,0-0.4-0.1-0.6-0.1c0.7,3.9,2.3,6.4,4.2,6.4c2.6,0,4.6-4.9,4.6-11.1
			C903.9,256.6,901.9,251.7,899.4,251.7z"/>
	</g>
	<g>
		<path d="M901.7,261.4c0,0-0.1-0.1-0.1-0.1h-0.3H901V261c0-0.3-0.3-0.6-0.6-0.6h-2.2c-0.3,0-0.6,0.3-0.6,0.6v0.3h-0.2h-0.3
			c-0.1,0-0.1,0-0.1,0.1c0,0-0.1,0.1-0.1,0.1v0.2v0.2c0,0.1,0,0.1,0.1,0.1c0,0,0.1,0.1,0.1,0.1h0.3h0.2v0.4h-0.2h-0.3
			c-0.1,0-0.1,0-0.1,0.1c0,0-0.1,0.1-0.1,0.1v0.2v0.2c0,0.1,0,0.1,0.1,0.1c0,0,0.1,0.1,0.1,0.1h0.3h0.2v0.4h-0.2h-0.3
			c-0.1,0-0.1,0-0.1,0.1c0,0-0.1,0.1-0.1,0.1v0.2v0.2c0,0.1,0,0.1,0.1,0.1c0,0,0.1,0.1,0.1,0.1h0.3h0.2v0.3c0,0.3,0.3,0.6,0.6,0.6
			h2.2c0.3,0,0.6-0.3,0.6-0.6v-0.3h0.2h0.3c0.1,0,0.1,0,0.1-0.1c0,0,0.1-0.1,0.1-0.1v-0.2v-0.2c0-0.1,0-0.1-0.1-0.1
			c0,0-0.1-0.1-0.1-0.1h-0.3H901v-0.4h0.2h0.3c0.1,0,0.1,0,0.1-0.1c0,0,0.1-0.1,0.1-0.1v-0.2v-0.2c0-0.1,0-0.1-0.1-0.1
			c0,0-0.1-0.1-0.1-0.1h-0.3H901v-0.4h0.2h0.3c0.1,0,0.1,0,0.1-0.1c0,0,0.1-0.1,0.1-0.1v-0.2v-0.2
			C901.7,261.5,901.7,261.4,901.7,261.4z"/>
	</g>
</g>
<g>
	<path class="st1" d="M526.2,463.6c0-2.7-2.2-5-5-5c-2.7,0-5,2.2-5,5c0,2.7,2.2,5,5,5C524,468.5,526.2,466.3,526.2,463.6
		L526.2,463.6z"/>
	<path class="st1" d="M929,463.6c0-2.7-2.2-5-5-5c-2.7,0-5,2.2-5,5c0,2.7,2.2,5,5,5C926.8,468.5,929,466.3,929,463.6L929,463.6z"/>
	<path class="st1" d="M123,463.6c0-2.7-2.2-5-5-5c-2.7,0-5,2.2-5,5c0,2.7,2.2,5,5,5C120.7,468.5,123,466.3,123,463.6L123,463.6z"/>
	<path class="st1" d="M526.2,522.9c0,2.7-2.2,5-5,5c-2.7,0-5-2.2-5-5c0-2.7,2.2-5,5-5C524,518,526.2,520.2,526.2,522.9L526.2,522.9z
		"/>
	<path class="st1" d="M929,522.9c0,2.7-2.2,5-5,5c-2.7,0-5-2.2-5-5c0-2.7,2.2-5,5-5C926.8,518,929,520.2,929,522.9L929,522.9z"/>
	<path class="st1" d="M123,522.9c0,2.7-2.2,5-5,5c-2.7,0-5-2.2-5-5c0-2.7,2.2-5,5-5C120.7,518,123,520.2,123,522.9L123,522.9z"/>
	<path class="st1" d="M103.8,522.9c0,7.8,6.3,14.2,14.2,14.2h806.1c7.8,0,14.2-6.3,14.2-14.2v-59.4c0-7.8-6.3-14.2-14.2-14.2H118
		c-7.8,0-14.2,6.3-14.2,14.2h0L103.8,522.9z"/>
	<g>
		<path d="M483.5,505c0-0.2,0-0.2,0.2-0.2h0.2c0.1,0,0.2,0.1,0.2,0.2l1,3c0,0.1,0,0.1,0,0.2c0,0.1,0,0.1,0,0.1c0,0.1,0,0.1,0,0.2h0
			c0,0,0-0.1,0-0.2c0,0,0-0.1,0-0.1c0-0.1,0-0.1,0.1-0.2l1-3c0-0.1,0.1-0.2,0.2-0.2h0.2c0.1,0,0.2,0.1,0.2,0.2l1,3
			c0,0.1,0,0.1,0.1,0.2c0,0.1,0,0.1,0,0.1c0,0.1,0,0.1,0,0.2h0c0-0.1,0-0.1,0-0.2c0,0,0-0.1,0-0.1c0-0.1,0-0.1,0.1-0.2l1-3
			c0-0.1,0.1-0.2,0.2-0.2h0.2c0.2,0,0.2,0.1,0.2,0.2l-1.3,3.9c0,0.1-0.1,0.2-0.2,0.2h-0.3c-0.1,0-0.2-0.1-0.2-0.2l-1-2.9
			c0-0.1,0-0.1-0.1-0.2c0-0.1,0-0.1,0-0.1c0-0.1,0-0.1,0-0.2h0c0,0.1,0,0.1,0,0.2c0,0,0,0.1,0,0.1c0,0.1,0,0.1-0.1,0.2l-1,2.9
			c0,0.1-0.1,0.2-0.2,0.2h-0.3c-0.1,0-0.2-0.1-0.2-0.2L483.5,505z"/>
	</g>
	<g>
		<path d="M490.3,505c0-0.2,0-0.2,0.2-0.2h0.2c0.1,0,0.2,0.1,0.2,0.2l1,3c0,0.1,0,0.1,0,0.2c0,0.1,0,0.1,0,0.1c0,0.1,0,0.1,0,0.2h0
			c0,0,0-0.1,0-0.2c0,0,0-0.1,0-0.1c0-0.1,0-0.1,0.1-0.2l1-3c0-0.1,0.1-0.2,0.2-0.2h0.2c0.1,0,0.2,0.1,0.2,0.2l1,3
			c0,0.1,0,0.1,0.1,0.2c0,0.1,0,0.1,0,0.1c0,0.1,0,0.1,0,0.2h0c0-0.1,0-0.1,0-0.2c0,0,0-0.1,0-0.1c0-0.1,0-0.1,0.1-0.2l1-3
			c0-0.1,0.1-0.2,0.2-0.2h0.2c0.2,0,0.2,0.1,0.2,0.2l-1.3,3.9c0,0.1-0.1,0.2-0.2,0.2h-0.3c-0.1,0-0.2-0.1-0.2-0.2l-1-2.9
			c0-0.1,0-0.1-0.1-0.2c0-0.1,0-0.1,0-0.1c0-0.1,0-0.1,0-0.2h0c0,0.1,0,0.1,0,0.2c0,0,0,0.1,0,0.1c0,0.1,0,0.1-0.1,0.2l-1,2.9
			c0,0.1-0.1,0.2-0.2,0.2h-0.3c-0.1,0-0.2-0.1-0.2-0.2L490.3,505z"/>
	</g>
	<g>
		<path d="M497.1,505c0-0.2,0-0.2,0.2-0.2h0.2c0.1,0,0.2,0.1,0.2,0.2l1,3c0,0.1,0,0.1,0,0.2c0,0.1,0,0.1,0,0.1c0,0.1,0,0.1,0,0.2h0
			c0,0,0-0.1,0-0.2c0,0,0-0.1,0-0.1c0-0.1,0-0.1,0.1-0.2l1-3c0-0.1,0.1-0.2,0.2-0.2h0.2c0.1,0,0.2,0.1,0.2,0.2l1,3
			c0,0.1,0,0.1,0.1,0.2c0,0.1,0,0.1,0,0.1c0,0.1,0,0.1,0,0.2h0c0-0.1,0-0.1,0-0.2c0,0,0-0.1,0-0.1c0-0.1,0-0.1,0.1-0.2l1-3
			c0-0.1,0.1-0.2,0.2-0.2h0.2c0.2,0,0.2,0.1,0.2,0.2l-1.3,3.9c0,0.1-0.1,0.2-0.2,0.2h-0.3c-0.1,0-0.2-0.1-0.2-0.2l-1-2.9
			c0-0.1,0-0.1-0.1-0.2c0-0.1,0-0.1,0-0.1c0-0.1,0-0.1,0-0.2h0c0,0.1,0,0.1,0,0.2c0,0,0,0.1,0,0.1c0,0.1,0,0.1-0.1,0.2l-1,2.9
			c0,0.1-0.1,0.2-0.2,0.2h-0.3c-0.1,0-0.2-0.1-0.2-0.2L497.1,505z"/>
	</g>
	<g>
		<path d="M504.1,508.5c0-0.1,0.1-0.2,0.2-0.2h0.3c0.1,0,0.2,0.1,0.2,0.2v0.3c0,0.1-0.1,0.2-0.2,0.2h-0.3c-0.1,0-0.2-0.1-0.2-0.2
			V508.5z"/>
	</g>
	<g>
		<path d="M506,504.9c0-0.1,0.1-0.2,0.2-0.2h0.2c0.1,0,0.2,0.1,0.2,0.2v0.5c0,0,0,0.1,0,0.1c0,0,0,0.1,0,0.1c0,0,0,0.1,0,0.1h0
			c0.1-0.1,0.1-0.3,0.2-0.4c0.1-0.1,0.2-0.3,0.4-0.4c0.1-0.1,0.3-0.2,0.5-0.2c0.2-0.1,0.3-0.1,0.5-0.1c0.4,0,0.7,0.1,0.9,0.3
			c0.2,0.2,0.3,0.4,0.4,0.8h0c0.1-0.1,0.1-0.3,0.2-0.4c0.1-0.1,0.2-0.2,0.4-0.3c0.1-0.1,0.3-0.2,0.5-0.2c0.2-0.1,0.3-0.1,0.5-0.1
			c0.5,0,0.9,0.1,1.1,0.4c0.2,0.3,0.3,0.7,0.3,1.2v2.5c0,0.1-0.1,0.2-0.2,0.2h-0.2c-0.1,0-0.2-0.1-0.2-0.2v-2.4c0-0.2,0-0.3,0-0.5
			c0-0.2-0.1-0.3-0.1-0.4c-0.1-0.1-0.2-0.2-0.3-0.3c-0.1-0.1-0.3-0.1-0.5-0.1c-0.2,0-0.4,0.1-0.6,0.2c-0.2,0.1-0.3,0.2-0.5,0.4
			c-0.1,0.2-0.2,0.4-0.3,0.6c-0.1,0.2-0.1,0.4-0.1,0.7v1.9c0,0.1-0.1,0.2-0.2,0.2h-0.2c-0.1,0-0.2-0.1-0.2-0.2v-2.4
			c0-0.2,0-0.3,0-0.5c0-0.2-0.1-0.3-0.1-0.4c-0.1-0.1-0.2-0.2-0.3-0.3c-0.1-0.1-0.3-0.1-0.5-0.1c-0.2,0-0.4,0.1-0.6,0.2
			c-0.2,0.1-0.3,0.2-0.5,0.4c-0.1,0.2-0.2,0.4-0.3,0.6s-0.1,0.4-0.1,0.6v1.9c0,0.1-0.1,0.2-0.2,0.2h-0.2c-0.1,0-0.2-0.1-0.2-0.2
			V504.9z"/>
	</g>
	<g>
		<path d="M513.4,506.8c0-0.3,0.1-0.6,0.2-0.9c0.1-0.3,0.3-0.5,0.5-0.7c0.2-0.2,0.4-0.4,0.7-0.5c0.3-0.1,0.6-0.2,0.9-0.2
			s0.6,0.1,0.9,0.2c0.3,0.1,0.5,0.3,0.7,0.5c0.2,0.2,0.4,0.4,0.5,0.7c0.1,0.3,0.2,0.6,0.2,0.9c0,0.3-0.1,0.6-0.2,0.9
			c-0.1,0.3-0.3,0.5-0.5,0.7c-0.2,0.2-0.4,0.4-0.7,0.5c-0.3,0.1-0.6,0.2-0.9,0.2s-0.6-0.1-0.9-0.2c-0.3-0.1-0.5-0.3-0.7-0.5
			c-0.2-0.2-0.4-0.4-0.5-0.7C513.5,507.5,513.4,507.2,513.4,506.8z M514,506.8c0,0.3,0,0.5,0.1,0.7c0.1,0.2,0.2,0.4,0.4,0.6
			c0.2,0.2,0.3,0.3,0.5,0.4c0.2,0.1,0.4,0.1,0.7,0.1c0.2,0,0.4,0,0.6-0.1c0.2-0.1,0.4-0.2,0.5-0.4c0.2-0.2,0.3-0.3,0.4-0.6
			c0.1-0.2,0.1-0.4,0.1-0.7c0-0.2,0-0.5-0.1-0.7c-0.1-0.2-0.2-0.4-0.4-0.5c-0.2-0.2-0.3-0.3-0.5-0.4c-0.2-0.1-0.4-0.1-0.6-0.1
			c-0.2,0-0.5,0-0.7,0.1c-0.2,0.1-0.4,0.2-0.5,0.4c-0.2,0.2-0.3,0.3-0.4,0.5C514,506.4,514,506.6,514,506.8z"/>
	</g>
	<g>
		<path d="M518.4,505c0-0.1,0-0.1,0-0.2c0,0,0.1-0.1,0.2-0.1h0.2c0.1,0,0.2,0.1,0.2,0.2l1.1,3c0,0.1,0,0.1,0.1,0.2
			c0,0.1,0,0.1,0,0.2c0,0.1,0,0.1,0,0.2h0c0-0.1,0-0.1,0-0.2c0-0.1,0-0.1,0-0.2c0-0.1,0-0.1,0.1-0.2l1.1-3c0-0.1,0.1-0.2,0.2-0.2
			h0.2c0.2,0,0.2,0.1,0.2,0.2l-1.5,3.9c0,0.1-0.1,0.2-0.2,0.2h-0.3c-0.1,0-0.2-0.1-0.2-0.2L518.4,505z"/>
	</g>
	<g>
		<path d="M522.9,504.9c0-0.1,0.1-0.2,0.2-0.2h0.2c0.1,0,0.2,0.1,0.2,0.2v2.4c0,0.2,0,0.3,0,0.5c0,0.2,0.1,0.3,0.1,0.4
			c0.1,0.1,0.2,0.2,0.3,0.3c0.1,0.1,0.3,0.1,0.5,0.1c0.2,0,0.5,0,0.7-0.1c0.2-0.1,0.4-0.2,0.5-0.4c0.1-0.2,0.2-0.4,0.3-0.6
			c0.1-0.2,0.1-0.4,0.1-0.7v-1.8c0-0.1,0.1-0.2,0.2-0.2h0.2c0.1,0,0.2,0.1,0.2,0.2v3.9c0,0.1-0.1,0.2-0.2,0.2h-0.2
			c-0.1,0-0.2-0.1-0.2-0.2v-0.5c0,0,0-0.1,0-0.1s0-0.1,0-0.1c0,0,0-0.1,0-0.1h0c0,0.1-0.1,0.2-0.2,0.3c-0.1,0.1-0.2,0.3-0.3,0.4
			c-0.1,0.1-0.3,0.2-0.5,0.3c-0.2,0.1-0.4,0.1-0.6,0.1c-0.5,0-0.9-0.1-1.1-0.4c-0.2-0.3-0.3-0.7-0.3-1.3V504.9z"/>
	</g>
	<g>
		<path d="M528.1,503.7c-0.1,0-0.2-0.1-0.2-0.2v-0.3c0-0.1,0.1-0.2,0.2-0.2h0.2c0.1,0,0.2,0.1,0.2,0.2v0.3c0,0.1-0.1,0.2-0.2,0.2
			H528.1z M527.9,504.9c0-0.1,0.1-0.2,0.2-0.2h0.2c0.1,0,0.2,0.1,0.2,0.2v3.9c0,0.1-0.1,0.2-0.2,0.2h-0.2c-0.1,0-0.2-0.1-0.2-0.2
			V504.9z"/>
	</g>
	<g>
		<path d="M529.8,504.9c0-0.1,0.1-0.2,0.2-0.2h0.2c0.1,0,0.2,0.1,0.2,0.2v0.5c0,0,0,0.1,0,0.1c0,0,0,0.1,0,0.1c0,0,0,0.1,0,0.1h0
			c0-0.1,0.1-0.2,0.2-0.3c0.1-0.1,0.2-0.3,0.4-0.4c0.1-0.1,0.3-0.2,0.5-0.3c0.2-0.1,0.4-0.1,0.7-0.1c0.3,0,0.5,0,0.7,0.1
			c0.2,0.1,0.3,0.2,0.4,0.3c0.1,0.1,0.2,0.3,0.2,0.5c0.1,0.2,0.1,0.4,0.1,0.7v2.5c0,0.1-0.1,0.2-0.2,0.2h-0.2
			c-0.1,0-0.2-0.1-0.2-0.2v-2.4c0-0.2,0-0.3,0-0.5c0-0.2-0.1-0.3-0.1-0.4c-0.1-0.1-0.2-0.2-0.3-0.3c-0.1-0.1-0.3-0.1-0.5-0.1
			c-0.2,0-0.4,0-0.6,0.1c-0.2,0.1-0.4,0.2-0.5,0.4c-0.1,0.2-0.3,0.3-0.3,0.6c-0.1,0.2-0.1,0.4-0.1,0.7v1.9c0,0.1-0.1,0.2-0.2,0.2
			H530c-0.1,0-0.2-0.1-0.2-0.2V504.9z"/>
	</g>
	<g>
		<path d="M534.5,506.8c0-0.3,0.1-0.6,0.2-0.9c0.1-0.3,0.3-0.5,0.5-0.7c0.2-0.2,0.4-0.4,0.7-0.5c0.3-0.1,0.6-0.2,0.9-0.2
			s0.6,0.1,0.9,0.2c0.3,0.1,0.5,0.3,0.7,0.5c0.2,0.2,0.4,0.4,0.5,0.7c0.1,0.3,0.2,0.6,0.2,0.9c0,0.3-0.1,0.6-0.2,0.9
			c-0.1,0.3-0.3,0.5-0.5,0.7c-0.2,0.2-0.4,0.4-0.7,0.5c-0.3,0.1-0.6,0.2-0.9,0.2s-0.6-0.1-0.9-0.2c-0.3-0.1-0.5-0.3-0.7-0.5
			c-0.2-0.2-0.4-0.4-0.5-0.7C534.6,507.5,534.5,507.2,534.5,506.8z M535.1,506.8c0,0.3,0,0.5,0.1,0.7c0.1,0.2,0.2,0.4,0.4,0.6
			c0.2,0.2,0.3,0.3,0.5,0.4c0.2,0.1,0.4,0.1,0.7,0.1c0.2,0,0.4,0,0.6-0.1c0.2-0.1,0.4-0.2,0.5-0.4c0.2-0.2,0.3-0.3,0.4-0.6
			c0.1-0.2,0.1-0.4,0.1-0.7c0-0.2,0-0.5-0.1-0.7c-0.1-0.2-0.2-0.4-0.4-0.5c-0.2-0.2-0.3-0.3-0.5-0.4c-0.2-0.1-0.4-0.1-0.6-0.1
			c-0.2,0-0.5,0-0.7,0.1c-0.2,0.1-0.4,0.2-0.5,0.4c-0.2,0.2-0.3,0.3-0.4,0.5C535.1,506.4,535.1,506.6,535.1,506.8z"/>
	</g>
	<g>
		<path d="M540,508.5c0-0.1,0.1-0.2,0.2-0.2h0.3c0.1,0,0.2,0.1,0.2,0.2v0.3c0,0.1-0.1,0.2-0.2,0.2h-0.3c-0.1,0-0.2-0.1-0.2-0.2
			V508.5z"/>
	</g>
	<g>
		<path d="M541.6,506.9c0-0.3,0.1-0.6,0.2-0.9c0.1-0.3,0.3-0.5,0.5-0.7c0.2-0.2,0.4-0.4,0.7-0.5c0.3-0.1,0.6-0.2,0.9-0.2
			c0.2,0,0.3,0,0.5,0.1c0.2,0,0.3,0.1,0.4,0.1c0.1,0.1,0.2,0.1,0.3,0.2c0.1,0.1,0.2,0.1,0.2,0.1c0.1,0.1,0.1,0.2,0,0.3l-0.1,0.1
			c-0.1,0.1-0.2,0.1-0.3,0c-0.1-0.1-0.2-0.2-0.4-0.3c-0.2-0.1-0.4-0.1-0.7-0.1c-0.2,0-0.5,0-0.7,0.1c-0.2,0.1-0.4,0.2-0.5,0.4
			c-0.2,0.2-0.3,0.3-0.4,0.5c-0.1,0.2-0.1,0.4-0.1,0.7c0,0.3,0,0.5,0.1,0.7c0.1,0.2,0.2,0.4,0.4,0.5s0.3,0.3,0.5,0.4
			c0.2,0.1,0.4,0.1,0.7,0.1c0.1,0,0.3,0,0.4,0c0.1,0,0.2-0.1,0.3-0.1c0.1,0,0.2-0.1,0.3-0.1c0.1-0.1,0.1-0.1,0.2-0.1
			c0.1-0.1,0.2-0.1,0.3,0.1l0.1,0.1c0.1,0.1,0,0.2-0.1,0.3c-0.1,0-0.1,0.1-0.2,0.2c-0.1,0.1-0.2,0.1-0.3,0.2
			c-0.1,0.1-0.3,0.1-0.4,0.1c-0.2,0-0.3,0.1-0.5,0.1c-0.3,0-0.6-0.1-0.9-0.2s-0.5-0.3-0.7-0.5c-0.2-0.2-0.4-0.4-0.5-0.7
			C541.7,507.5,541.6,507.2,541.6,506.9z"/>
	</g>
	<g>
		<path d="M546.1,506.8c0-0.3,0.1-0.6,0.2-0.9c0.1-0.3,0.3-0.5,0.5-0.7c0.2-0.2,0.4-0.4,0.7-0.5c0.3-0.1,0.6-0.2,0.9-0.2
			c0.3,0,0.6,0.1,0.9,0.2c0.3,0.1,0.5,0.3,0.7,0.5c0.2,0.2,0.4,0.4,0.5,0.7c0.1,0.3,0.2,0.6,0.2,0.9c0,0.3-0.1,0.6-0.2,0.9
			c-0.1,0.3-0.3,0.5-0.5,0.7c-0.2,0.2-0.4,0.4-0.7,0.5c-0.3,0.1-0.6,0.2-0.9,0.2s-0.6-0.1-0.9-0.2c-0.3-0.1-0.5-0.3-0.7-0.5
			c-0.2-0.2-0.4-0.4-0.5-0.7C546.2,507.5,546.1,507.2,546.1,506.8z M546.7,506.8c0,0.3,0,0.5,0.1,0.7c0.1,0.2,0.2,0.4,0.4,0.6
			c0.2,0.2,0.3,0.3,0.5,0.4c0.2,0.1,0.4,0.1,0.7,0.1c0.2,0,0.4,0,0.6-0.1c0.2-0.1,0.4-0.2,0.5-0.4c0.2-0.2,0.3-0.3,0.4-0.6
			c0.1-0.2,0.1-0.4,0.1-0.7c0-0.2,0-0.5-0.1-0.7c-0.1-0.2-0.2-0.4-0.4-0.5c-0.2-0.2-0.3-0.3-0.5-0.4c-0.2-0.1-0.4-0.1-0.6-0.1
			c-0.2,0-0.5,0-0.7,0.1c-0.2,0.1-0.4,0.2-0.5,0.4c-0.2,0.2-0.3,0.3-0.4,0.5C546.8,506.4,546.7,506.6,546.7,506.8z"/>
	</g>
	<g>
		<path d="M551.7,504.9c0-0.1,0.1-0.2,0.2-0.2h0.2c0.1,0,0.2,0.1,0.2,0.2v0.5c0,0,0,0.1,0,0.1c0,0,0,0.1,0,0.1c0,0,0,0.1,0,0.1h0
			c0.1-0.1,0.1-0.3,0.2-0.4c0.1-0.1,0.2-0.3,0.4-0.4c0.1-0.1,0.3-0.2,0.5-0.2c0.2-0.1,0.3-0.1,0.5-0.1c0.4,0,0.7,0.1,0.9,0.3
			c0.2,0.2,0.3,0.4,0.4,0.8h0c0.1-0.1,0.1-0.3,0.2-0.4c0.1-0.1,0.2-0.2,0.4-0.3c0.1-0.1,0.3-0.2,0.5-0.2c0.2-0.1,0.3-0.1,0.5-0.1
			c0.5,0,0.9,0.1,1.1,0.4c0.2,0.3,0.3,0.7,0.3,1.2v2.5c0,0.1-0.1,0.2-0.2,0.2h-0.2c-0.1,0-0.2-0.1-0.2-0.2v-2.4c0-0.2,0-0.3,0-0.5
			c0-0.2-0.1-0.3-0.1-0.4c-0.1-0.1-0.2-0.2-0.3-0.3c-0.1-0.1-0.3-0.1-0.5-0.1c-0.2,0-0.4,0.1-0.6,0.2c-0.2,0.1-0.3,0.2-0.5,0.4
			c-0.1,0.2-0.2,0.4-0.3,0.6c-0.1,0.2-0.1,0.4-0.1,0.7v1.9c0,0.1-0.1,0.2-0.2,0.2h-0.2c-0.1,0-0.2-0.1-0.2-0.2v-2.4
			c0-0.2,0-0.3,0-0.5c0-0.2-0.1-0.3-0.1-0.4c-0.1-0.1-0.2-0.2-0.3-0.3c-0.1-0.1-0.3-0.1-0.5-0.1c-0.2,0-0.4,0.1-0.6,0.2
			c-0.2,0.1-0.3,0.2-0.5,0.4c-0.1,0.2-0.2,0.4-0.3,0.6c-0.1,0.2-0.1,0.4-0.1,0.6v1.9c0,0.1-0.1,0.2-0.2,0.2h-0.2
			c-0.1,0-0.2-0.1-0.2-0.2V504.9z"/>
	</g>
	<g>
		<path d="M529,490.3c-0.2,0.1-0.3,0.1-0.5,0.2c0.6,1.7,0.7,3,0,3.7c-0.7,0.7-2,0.7-3.7,0c-0.1,0.2-0.1,0.4-0.2,0.5
			c0.9,0.4,1.7,0.5,2.4,0.5c0.8,0,1.4-0.2,1.9-0.7C529.7,493.7,529.7,492.2,529,490.3z"/>
	</g>
	<g>
		<path d="M523.7,487.7v0.3c0,0,0,0.1,0,0.1h1c0-0.2,0-0.4,0-0.6h-1.1C523.7,487.6,523.7,487.7,523.7,487.7z"/>
	</g>
	<g>
		<path d="M524.8,486.4c0,0-0.1,0-0.1,0h-1c0,0,0,0.1,0,0.1v0.3c0,0,0,0.1,0,0.1h1c0,0,0.1,0,0.1,0c0-0.1,0-0.2,0-0.3
			C524.8,486.6,524.8,486.5,524.8,486.4z"/>
	</g>
	<g>
		<path d="M525.8,485.2c0,0.3,0,0.7,0,1C526,485.9,525.9,485.5,525.8,485.2z"/>
	</g>
	<g>
		<path d="M523.6,482.9c-1.7-1.6-3.4-2.8-5-3.6c-0.1,0.2-0.1,0.4-0.2,0.5c1.6,0.8,3.3,2.1,5,3.6C523.4,483.2,523.5,483,523.6,482.9z
			"/>
	</g>
	<g>
		<path d="M524.5,484.5c0.1,0.1,0.1,0.2,0.2,0.2c0-0.3-0.1-0.6-0.1-0.9c0,0-0.1-0.1-0.1-0.1V484.5z"/>
	</g>
	<g>
		<path d="M515,478.8c0.6,0,1.4,0.2,2.3,0.5c0.1-0.2,0.1-0.4,0.2-0.5c-1.9-0.7-3.5-0.8-4.3,0.1c-0.9,0.9-0.8,2.5-0.1,4.3
			c0.2-0.1,0.3-0.1,0.5-0.2c-0.7-1.7-0.7-3,0-3.7C513.9,479,514.4,478.8,515,478.8z"/>
	</g>
	<g>
		<path d="M525.6,482.6c0,0.2,0.1,0.4,0.1,0.6l0,0c3.5,0.7,5.9,2.1,5.9,3.6c0,1.5-2.4,2.9-5.8,3.6l0,0c0,0.2-0.1,0.4-0.1,0.6
			c3.8-0.7,6.4-2.3,6.4-4.2C532.1,484.9,529.6,483.3,525.6,482.6z"/>
	</g>
	<g>
		<path d="M510.5,486.7c0-1.3,1.8-2.6,4.8-3.4c0,0,0.1,0,0.1,0c0.1,0,0.2,0,0.4,0.1c0.1,0.1,0.2,0.3,0.2,0.5l0,1.9
			c0,0.3,0.1,0.6,0.3,0.8c0.2,0.2,0.5,0.3,0.8,0.3h1.2c0,0,0-0.1,0-0.1v-0.3c0,0,0-0.1,0-0.1h-1.2c-0.2,0-0.3-0.1-0.4-0.2
			c-0.1-0.1-0.2-0.3-0.2-0.4l0-0.7c-0.2-0.4-0.3-0.8-0.3-1.2c0-0.2,0.1-0.5,0.1-0.7c-0.1-0.1-0.1-0.2-0.2-0.3
			c-0.3-0.2-0.6-0.3-1-0.2c-3.3,0.8-5.2,2.3-5.2,3.9c0,2.6,4.9,4.6,11.1,4.6c1.2,0,2.3-0.1,3.4-0.2c0-0.2,0.1-0.4,0.1-0.6
			c-1.1,0.2-2.3,0.2-3.5,0.2C515.3,490.7,510.5,488.9,510.5,486.7z"/>
	</g>
	<g>
		<path d="M523.6,485.1c0.1,0.1,0.1,0.2,0.1,0.3v0.3c0.3-0.2,0.5-0.6,0.5-1v-1.2c0-0.2,0.1-0.3,0.2-0.4c0,0,0.1-0.1,0.1-0.1
			c0-0.2-0.1-0.4-0.1-0.6c-0.1,0-0.3,0.1-0.4,0.2c-0.3,0.2-0.4,0.5-0.4,0.9v1.2C523.6,484.9,523.6,485,523.6,485.1
			C523.5,485.1,523.5,485.1,523.6,485.1z"/>
	</g>
	<g>
		<path d="M527.5,488.5c0.2,0.3,0.4,0.6,0.5,1c0.2-0.1,0.4-0.1,0.5-0.2c-0.2-0.3-0.4-0.7-0.6-1c-0.2-0.4-0.6-0.6-1.1-0.6h-1.1
			c0,0.2,0,0.4,0,0.6h1.1C527.1,488.1,527.4,488.3,527.5,488.5z"/>
	</g>
	<g>
		<path d="M516.6,489.1c0,0.1,0,0.3,0,0.4c0,0.2,0,0.4,0.1,0.6c0.2,0,0.4,0.1,0.6,0.1c0-0.1,0-0.3-0.1-0.5
			C517,489.5,516.8,489.3,516.6,489.1z"/>
	</g>
	<g>
		<path d="M518.4,488v-0.3c0,0,0-0.1,0-0.1h-0.1c-0.4,0-0.9,0.2-1.2,0.5c0.1,0.1,0.2,0.3,0.4,0.4c0.2-0.2,0.5-0.3,0.8-0.3h0.1
			C518.4,488.1,518.4,488.1,518.4,488z"/>
	</g>
	<g>
		<path d="M518.2,489.6c-1.8-1.8-3.3-3.8-4.1-5.5c-0.2,0.1-0.4,0.1-0.5,0.2c0.9,1.8,2.4,3.8,4.3,5.7c0.1,0.1,0.2,0.2,0.3,0.3
			c0.3,0,0.6,0.1,0.9,0.1C518.8,490.1,518.5,489.9,518.2,489.6z"/>
	</g>
	<g>
		<path d="M523.7,493.7c-1.1-0.5-2.2-1.3-3.3-2.1c-0.3,0-0.6,0-0.9,0c1.3,1.1,2.7,2.1,4,2.7C523.6,494.1,523.7,493.9,523.7,493.7z"
			/>
	</g>
	<g>
		<path d="M521,475.7c-2.1,0-3.9,3.4-4.4,8.4c-0.1,0.5,0.1,1,0.4,1.3c0.3,0.4,0.8,0.6,1.3,0.6h0.1c0,0,0-0.1,0-0.1v-0.3
			c0,0,0-0.1,0-0.1h-0.1c-0.3,0-0.6-0.1-0.9-0.4c-0.2-0.2-0.3-0.6-0.3-0.9c0.5-4.6,2.1-7.9,3.9-7.9c2.2,0,4,4.8,4,10.5
			c0,5.7-1.8,10.5-4,10.5c-1.5,0-2.9-2.3-3.6-5.8c-0.2,0-0.4-0.1-0.6-0.1c0.7,3.9,2.3,6.4,4.2,6.4c2.6,0,4.6-4.9,4.6-11.1
			C525.6,480.5,523.6,475.7,521,475.7z"/>
	</g>
	<g>
		<path d="M523.4,485.3c0,0-0.1-0.1-0.1-0.1h-0.3h-0.2v-0.3c0-0.3-0.3-0.6-0.6-0.6h-2.2c-0.3,0-0.6,0.3-0.6,0.6v0.3h-0.2h-0.3
			c-0.1,0-0.1,0-0.1,0.1c0,0-0.1,0.1-0.1,0.1v0.2v0.2c0,0.1,0,0.1,0.1,0.1c0,0,0.1,0.1,0.1,0.1h0.3h0.2v0.4h-0.2h-0.3
			c-0.1,0-0.1,0-0.1,0.1c0,0-0.1,0.1-0.1,0.1v0.2v0.2c0,0.1,0,0.1,0.1,0.1c0,0,0.1,0.1,0.1,0.1h0.3h0.2v0.4h-0.2h-0.3
			c-0.1,0-0.1,0-0.1,0.1c0,0-0.1,0.1-0.1,0.1v0.2v0.2c0,0.1,0,0.1,0.1,0.1c0,0,0.1,0.1,0.1,0.1h0.3h0.2v0.3c0,0.3,0.3,0.6,0.6,0.6
			h2.2c0.3,0,0.6-0.3,0.6-0.6v-0.3h0.2h0.3c0.1,0,0.1,0,0.1-0.1c0,0,0.1-0.1,0.1-0.1v-0.2v-0.2c0-0.1,0-0.1-0.1-0.1
			c0,0-0.1-0.1-0.1-0.1h-0.3h-0.2v-0.4h0.2h0.3c0.1,0,0.1,0,0.1-0.1c0,0,0.1-0.1,0.1-0.1v-0.2v-0.2c0-0.1,0-0.1-0.1-0.1
			c0,0-0.1-0.1-0.1-0.1h-0.3h-0.2V486h0.2h0.3c0.1,0,0.1,0,0.1-0.1c0,0,0.1-0.1,0.1-0.1v-0.2v-0.2
			C523.4,485.4,523.4,485.3,523.4,485.3z"/>
	</g>
</g>
</svg>
