<?xml version="1.0" encoding="utf-8"?>
<!-- Generator: Adobe Illustrator 23.0.1, SVG Export Plug-In . SVG Version: 6.00 Build 0)  -->
<svg version="1.1" id="_x30_" xmlns="http://www.w3.org/2000/svg" xmlns:xlink="http://www.w3.org/1999/xlink" x="0px" y="0px"
	 viewBox="0 0 776.6 685.6" style="enable-background:new 0 0 776.6 685.6;" xml:space="preserve">
<style type="text/css">
	.st0{fill:#1D1D1B;}
	.st1{fill:none;stroke:#1D1D1B;stroke-width:0.4876;stroke-linecap:round;stroke-miterlimit:10;}
	.st2{fill:none;stroke:#1D1D1B;stroke-width:0.4876;stroke-linecap:round;stroke-linejoin:bevel;stroke-miterlimit:10;}
	.st3{fill:#FFFFFF;}
	.st4{font-family:'Roboto-Medium';}
	.st5{font-size:23.094px;}
	.st6{font-size:23.09px;}
	.st7{font-family:'Roboto-Black';}
	.st8{font-size:21.8443px;}
	.st9{fill:none;stroke:#1D1D1B;stroke-width:0.4876;stroke-miterlimit:10;}
	.st10{fill:none;stroke:#FF0000;stroke-width:1.000000e-03;stroke-linecap:round;stroke-linejoin:round;stroke-miterlimit:10;}
	.st11{fill:#808080;}
</style>
<g>
	<g>
		<ellipse class="st0" cx="494.4" cy="493.2" rx="20.9" ry="20.9"/>
		<text transform="matrix(1 0 0 1 480.4696 500.4092)" class="st3 st4 st5">A2</text>
	</g>
	<text transform="matrix(1 0 0 1 532.6831 500.4095)" class="st4 st6">Back panel</text>
</g>
<g>
	<g>
		
			<ellipse transform="matrix(0.2978 -0.9546 0.9546 0.2978 124.5954 635.6611)" class="st0" cx="494.4" cy="233.1" rx="20.9" ry="20.9"/>
		<text transform="matrix(1 0 0 1 480.4697 240.3052)" class="st3 st4 st5">A1</text>
	</g>
	<text transform="matrix(1 0 0 1 532.6829 240.3047)" class="st4 st6">Front panel</text>
</g>
<text transform="matrix(1 0 0 1 550.1219 63.3075)" class="st7 st8">3mm thick</text>
<text transform="matrix(1 0 0 1 77.2709 63.3075)" class="st7 st8">Plywood</text>
<line class="st1" x1="776.6" y1="45.7" x2="673.7" y2="45.7"/>
<line class="st1" x1="776.6" y1="68.1" x2="673.7" y2="68.1"/>
<line class="st9" x1="0" y1="56.9" x2="60.3" y2="56.9"/>
<line class="st9" x1="177.3" y1="56.9" x2="529.7" y2="56.9"/>
<g>
	<polyline class="st2" points="693.8,51.2 688.3,45.7 682.7,51.2 	"/>
	<polyline class="st2" points="693.8,62.6 688.3,68.1 682.7,62.6 	"/>
	<line class="st2" x1="688.3" y1="45.7" x2="688.3" y2="68.1"/>
</g>
<circle class="st0" cx="60.3" cy="56.9" r="2.2"/>
<g>
	<path class="st10" d="M157.6,394c-11,0-19.8,8.9-19.8,19.8v158.7c0,11,8.9,19.8,19.8,19.8h158.7c11,0,19.8-8.9,19.8-19.8V413.9
		c0-11-8.9-19.8-19.8-19.8H157.6z"/>
	<path class="st10" d="M162.5,572.6c0-2.7-2.2-5-5-5c-2.7,0-5,2.2-5,5s2.2,5,5,5C160.3,577.6,162.5,575.3,162.5,572.6z"/>
	<path class="st10" d="M311.4,572.6c0-2.7,2.2-5,5-5c2.7,0,5,2.2,5,5s-2.2,5-5,5C313.6,577.6,311.4,575.3,311.4,572.6z"/>
	<path class="st10" d="M162.5,413.9c0,2.7-2.2,5-5,5c-2.7,0-5-2.2-5-5c0-2.7,2.2-5,5-5C160.3,408.9,162.5,411.1,162.5,413.9z"/>
	<path class="st10" d="M311.5,413.9c0,2.7,2.2,4.9,4.9,4.9c2.7,0,4.9-2.2,4.9-4.9s-2.2-4.9-4.9-4.9
		C313.6,409,311.5,411.2,311.5,413.9z"/>
	<g>
		<path class="st11" d="M199.4,568c0-0.2,0-0.2,0.2-0.2h0.2c0.1,0,0.2,0.1,0.2,0.2l1,3c0,0.1,0,0.1,0,0.2c0,0.1,0,0.1,0,0.1
			c0,0.1,0,0.1,0,0.2h0c0,0,0-0.1,0-0.2c0,0,0-0.1,0-0.1c0-0.1,0-0.1,0.1-0.2l1-3c0-0.1,0.1-0.2,0.2-0.2h0.2c0.1,0,0.2,0.1,0.2,0.2
			l1,3c0,0.1,0,0.1,0.1,0.2c0,0.1,0,0.1,0,0.1c0,0.1,0,0.1,0,0.2h0c0-0.1,0-0.1,0-0.2c0,0,0-0.1,0-0.1c0-0.1,0-0.1,0.1-0.2l1-3
			c0-0.1,0.1-0.2,0.2-0.2h0.2c0.2,0,0.2,0.1,0.2,0.2l-1.3,3.9c0,0.1-0.1,0.2-0.2,0.2H204c-0.1,0-0.2-0.1-0.2-0.2l-1-2.9
			c0-0.1,0-0.1-0.1-0.2c0-0.1,0-0.1,0-0.1c0-0.1,0-0.1,0-0.2h0c0,0.1,0,0.1,0,0.2c0,0,0,0.1,0,0.1c0,0.1,0,0.1-0.1,0.2l-1,2.9
			c0,0.1-0.1,0.2-0.2,0.2H201c-0.1,0-0.2-0.1-0.2-0.2L199.4,568z"/>
		<path class="st11" d="M206.2,568c0-0.2,0-0.2,0.2-0.2h0.2c0.1,0,0.2,0.1,0.2,0.2l1,3c0,0.1,0,0.1,0,0.2c0,0.1,0,0.1,0,0.1
			c0,0.1,0,0.1,0,0.2h0c0,0,0-0.1,0-0.2c0,0,0-0.1,0-0.1c0-0.1,0-0.1,0.1-0.2l1-3c0-0.1,0.1-0.2,0.2-0.2h0.2c0.1,0,0.2,0.1,0.2,0.2
			l1,3c0,0.1,0,0.1,0.1,0.2c0,0.1,0,0.1,0,0.1c0,0.1,0,0.1,0,0.2h0c0-0.1,0-0.1,0-0.2c0,0,0-0.1,0-0.1c0-0.1,0-0.1,0.1-0.2l1-3
			c0-0.1,0.1-0.2,0.2-0.2h0.2c0.2,0,0.2,0.1,0.2,0.2l-1.3,3.9c0,0.1-0.1,0.2-0.2,0.2h-0.3c-0.1,0-0.2-0.1-0.2-0.2l-1-2.9
			c0-0.1,0-0.1-0.1-0.2c0-0.1,0-0.1,0-0.1c0-0.1,0-0.1,0-0.2h0c0,0.1,0,0.1,0,0.2c0,0,0,0.1,0,0.1c0,0.1,0,0.1-0.1,0.2l-1,2.9
			c0,0.1-0.1,0.2-0.2,0.2h-0.3c-0.1,0-0.2-0.1-0.2-0.2L206.2,568z"/>
		<path class="st11" d="M213,568c0-0.2,0-0.2,0.2-0.2h0.2c0.1,0,0.2,0.1,0.2,0.2l1,3c0,0.1,0,0.1,0,0.2c0,0.1,0,0.1,0,0.1
			c0,0.1,0,0.1,0,0.2h0c0,0,0-0.1,0-0.2c0,0,0-0.1,0-0.1c0-0.1,0-0.1,0.1-0.2l1-3c0-0.1,0.1-0.2,0.2-0.2h0.2c0.1,0,0.2,0.1,0.2,0.2
			l1,3c0,0.1,0,0.1,0.1,0.2c0,0.1,0,0.1,0,0.1c0,0.1,0,0.1,0,0.2h0c0-0.1,0-0.1,0-0.2c0,0,0-0.1,0-0.1c0-0.1,0-0.1,0.1-0.2l1-3
			c0-0.1,0.1-0.2,0.2-0.2h0.2c0.2,0,0.2,0.1,0.2,0.2l-1.3,3.9c0,0.1-0.1,0.2-0.2,0.2h-0.3c-0.1,0-0.2-0.1-0.2-0.2l-1-2.9
			c0-0.1,0-0.1-0.1-0.2c0-0.1,0-0.1,0-0.1c0-0.1,0-0.1,0-0.2h0c0,0.1,0,0.1,0,0.2c0,0,0,0.1,0,0.1c0,0.1,0,0.1-0.1,0.2l-1,2.9
			c0,0.1-0.1,0.2-0.2,0.2h-0.3c-0.1,0-0.2-0.1-0.2-0.2L213,568z"/>
		<path class="st11" d="M220,571.5c0-0.1,0.1-0.2,0.2-0.2h0.3c0.1,0,0.2,0.1,0.2,0.2v0.3c0,0.1-0.1,0.2-0.2,0.2h-0.3
			c-0.1,0-0.2-0.1-0.2-0.2V571.5z"/>
		<path class="st11" d="M221.9,568c0-0.1,0.1-0.2,0.2-0.2h0.2c0.1,0,0.2,0.1,0.2,0.2v0.5c0,0,0,0.1,0,0.1s0,0.1,0,0.1
			c0,0,0,0.1,0,0.1h0c0.1-0.1,0.1-0.3,0.2-0.4c0.1-0.1,0.2-0.3,0.4-0.4s0.3-0.2,0.5-0.2s0.3-0.1,0.5-0.1c0.4,0,0.7,0.1,0.9,0.3
			c0.2,0.2,0.3,0.4,0.4,0.8h0c0.1-0.1,0.1-0.3,0.2-0.4c0.1-0.1,0.2-0.2,0.4-0.3c0.1-0.1,0.3-0.2,0.5-0.2c0.2-0.1,0.3-0.1,0.5-0.1
			c0.5,0,0.9,0.1,1.1,0.4c0.2,0.3,0.3,0.7,0.3,1.2v2.5c0,0.1-0.1,0.2-0.2,0.2H228c-0.1,0-0.2-0.1-0.2-0.2v-2.4c0-0.2,0-0.3,0-0.5
			c0-0.2-0.1-0.3-0.1-0.4s-0.2-0.2-0.3-0.3c-0.1-0.1-0.3-0.1-0.5-0.1c-0.2,0-0.4,0.1-0.6,0.2c-0.2,0.1-0.3,0.2-0.5,0.4
			c-0.1,0.2-0.2,0.4-0.3,0.6c-0.1,0.2-0.1,0.4-0.1,0.7v1.9c0,0.1-0.1,0.2-0.2,0.2h-0.2c-0.1,0-0.2-0.1-0.2-0.2v-2.4
			c0-0.2,0-0.3,0-0.5c0-0.2-0.1-0.3-0.1-0.4c-0.1-0.1-0.2-0.2-0.3-0.3c-0.1-0.1-0.3-0.1-0.5-0.1c-0.2,0-0.4,0.1-0.6,0.2
			c-0.2,0.1-0.3,0.2-0.5,0.4c-0.1,0.2-0.2,0.4-0.3,0.6s-0.1,0.4-0.1,0.6v1.9c0,0.1-0.1,0.2-0.2,0.2h-0.2c-0.1,0-0.2-0.1-0.2-0.2V568
			z"/>
		<path class="st11" d="M229.3,569.9c0-0.3,0.1-0.6,0.2-0.9c0.1-0.3,0.3-0.5,0.5-0.7c0.2-0.2,0.4-0.4,0.7-0.5
			c0.3-0.1,0.6-0.2,0.9-0.2s0.6,0.1,0.9,0.2c0.3,0.1,0.5,0.3,0.7,0.5c0.2,0.2,0.4,0.4,0.5,0.7c0.1,0.3,0.2,0.6,0.2,0.9
			c0,0.3-0.1,0.6-0.2,0.9c-0.1,0.3-0.3,0.5-0.5,0.7c-0.2,0.2-0.4,0.4-0.7,0.5c-0.3,0.1-0.6,0.2-0.9,0.2s-0.6-0.1-0.9-0.2
			c-0.3-0.1-0.5-0.3-0.7-0.5c-0.2-0.2-0.4-0.4-0.5-0.7C229.4,570.5,229.3,570.2,229.3,569.9z M229.9,569.9c0,0.3,0,0.5,0.1,0.7
			c0.1,0.2,0.2,0.4,0.4,0.6c0.2,0.2,0.3,0.3,0.5,0.4c0.2,0.1,0.4,0.1,0.7,0.1c0.2,0,0.4,0,0.6-0.1c0.2-0.1,0.4-0.2,0.5-0.4
			c0.2-0.2,0.3-0.3,0.4-0.6c0.1-0.2,0.1-0.4,0.1-0.7c0-0.2,0-0.5-0.1-0.7c-0.1-0.2-0.2-0.4-0.4-0.5c-0.2-0.2-0.3-0.3-0.5-0.4
			c-0.2-0.1-0.4-0.1-0.6-0.1c-0.2,0-0.5,0-0.7,0.1c-0.2,0.1-0.4,0.2-0.5,0.4c-0.2,0.2-0.3,0.3-0.4,0.5
			C230,569.4,229.9,569.6,229.9,569.9z"/>
		<path class="st11" d="M234.3,568c0-0.1,0-0.1,0-0.2c0,0,0.1-0.1,0.2-0.1h0.2c0.1,0,0.2,0.1,0.2,0.2l1.1,3c0,0.1,0,0.1,0.1,0.2
			c0,0.1,0,0.1,0,0.2c0,0.1,0,0.1,0,0.2h0c0-0.1,0-0.1,0-0.2c0-0.1,0-0.1,0-0.2c0-0.1,0-0.1,0.1-0.2l1.1-3c0-0.1,0.1-0.2,0.2-0.2
			h0.2c0.2,0,0.2,0.1,0.2,0.2l-1.5,3.9c0,0.1-0.1,0.2-0.2,0.2h-0.3c-0.1,0-0.2-0.1-0.2-0.2L234.3,568z"/>
		<path class="st11" d="M238.9,568c0-0.1,0.1-0.2,0.2-0.2h0.2c0.1,0,0.2,0.1,0.2,0.2v2.4c0,0.2,0,0.3,0,0.5c0,0.2,0.1,0.3,0.1,0.4
			s0.2,0.2,0.3,0.3c0.1,0.1,0.3,0.1,0.5,0.1c0.2,0,0.5,0,0.7-0.1c0.2-0.1,0.4-0.2,0.5-0.4c0.1-0.2,0.2-0.4,0.3-0.6
			c0.1-0.2,0.1-0.4,0.1-0.7V568c0-0.1,0.1-0.2,0.2-0.2h0.2c0.1,0,0.2,0.1,0.2,0.2v3.9c0,0.1-0.1,0.2-0.2,0.2h-0.2
			c-0.1,0-0.2-0.1-0.2-0.2v-0.5c0,0,0-0.1,0-0.1s0-0.1,0-0.1c0,0,0-0.1,0-0.1h0c0,0.1-0.1,0.2-0.2,0.3c-0.1,0.1-0.2,0.3-0.3,0.4
			c-0.1,0.1-0.3,0.2-0.5,0.3c-0.2,0.1-0.4,0.1-0.6,0.1c-0.5,0-0.9-0.1-1.1-0.4c-0.2-0.3-0.3-0.7-0.3-1.3V568z"/>
		<path class="st11" d="M244,566.8c-0.1,0-0.2-0.1-0.2-0.2v-0.3c0-0.1,0.1-0.2,0.2-0.2h0.2c0.1,0,0.2,0.1,0.2,0.2v0.3
			c0,0.1-0.1,0.2-0.2,0.2H244z M243.8,568c0-0.1,0.1-0.2,0.2-0.2h0.2c0.1,0,0.2,0.1,0.2,0.2v3.9c0,0.1-0.1,0.2-0.2,0.2h-0.2
			c-0.1,0-0.2-0.1-0.2-0.2V568z"/>
		<path class="st11" d="M245.7,568c0-0.1,0.1-0.2,0.2-0.2h0.2c0.1,0,0.2,0.1,0.2,0.2v0.5c0,0,0,0.1,0,0.1c0,0,0,0.1,0,0.1
			c0,0,0,0.1,0,0.1h0c0-0.1,0.1-0.2,0.2-0.3c0.1-0.1,0.2-0.3,0.4-0.4c0.1-0.1,0.3-0.2,0.5-0.3c0.2-0.1,0.4-0.1,0.7-0.1
			c0.3,0,0.5,0,0.7,0.1c0.2,0.1,0.3,0.2,0.4,0.3c0.1,0.1,0.2,0.3,0.2,0.5c0.1,0.2,0.1,0.4,0.1,0.7v2.5c0,0.1-0.1,0.2-0.2,0.2h-0.2
			c-0.1,0-0.2-0.1-0.2-0.2v-2.4c0-0.2,0-0.3,0-0.5c0-0.2-0.1-0.3-0.1-0.4c-0.1-0.1-0.2-0.2-0.3-0.3c-0.1-0.1-0.3-0.1-0.5-0.1
			c-0.2,0-0.4,0-0.6,0.1c-0.2,0.1-0.4,0.2-0.5,0.4c-0.1,0.2-0.3,0.3-0.3,0.6c-0.1,0.2-0.1,0.4-0.1,0.7v1.9c0,0.1-0.1,0.2-0.2,0.2
			H246c-0.1,0-0.2-0.1-0.2-0.2V568z"/>
		<path class="st11" d="M250.4,569.9c0-0.3,0.1-0.6,0.2-0.9c0.1-0.3,0.3-0.5,0.5-0.7c0.2-0.2,0.4-0.4,0.7-0.5
			c0.3-0.1,0.6-0.2,0.9-0.2s0.6,0.1,0.9,0.2c0.3,0.1,0.5,0.3,0.7,0.5c0.2,0.2,0.4,0.4,0.5,0.7c0.1,0.3,0.2,0.6,0.2,0.9
			c0,0.3-0.1,0.6-0.2,0.9c-0.1,0.3-0.3,0.5-0.5,0.7c-0.2,0.2-0.4,0.4-0.7,0.5c-0.3,0.1-0.6,0.2-0.9,0.2s-0.6-0.1-0.9-0.2
			c-0.3-0.1-0.5-0.3-0.7-0.5c-0.2-0.2-0.4-0.4-0.5-0.7C250.5,570.5,250.4,570.2,250.4,569.9z M251,569.9c0,0.3,0,0.5,0.1,0.7
			c0.1,0.2,0.2,0.4,0.4,0.6c0.2,0.2,0.3,0.3,0.5,0.4c0.2,0.1,0.4,0.1,0.7,0.1c0.2,0,0.4,0,0.6-0.1c0.2-0.1,0.4-0.2,0.5-0.4
			c0.2-0.2,0.3-0.3,0.4-0.6c0.1-0.2,0.1-0.4,0.1-0.7c0-0.2,0-0.5-0.1-0.7c-0.1-0.2-0.2-0.4-0.4-0.5c-0.2-0.2-0.3-0.3-0.5-0.4
			c-0.2-0.1-0.4-0.1-0.6-0.1c-0.2,0-0.5,0-0.7,0.1c-0.2,0.1-0.4,0.2-0.5,0.4c-0.2,0.2-0.3,0.3-0.4,0.5
			C251.1,569.4,251,569.6,251,569.9z"/>
		<path class="st11" d="M255.9,571.5c0-0.1,0.1-0.2,0.2-0.2h0.3c0.1,0,0.2,0.1,0.2,0.2v0.3c0,0.1-0.1,0.2-0.2,0.2h-0.3
			c-0.1,0-0.2-0.1-0.2-0.2V571.5z"/>
		<path class="st11" d="M257.5,569.9c0-0.3,0.1-0.6,0.2-0.9c0.1-0.3,0.3-0.5,0.5-0.7c0.2-0.2,0.4-0.4,0.7-0.5
			c0.3-0.1,0.6-0.2,0.9-0.2c0.2,0,0.3,0,0.5,0.1c0.2,0,0.3,0.1,0.4,0.1c0.1,0.1,0.2,0.1,0.3,0.2c0.1,0.1,0.2,0.1,0.2,0.1
			c0.1,0.1,0.1,0.2,0,0.3l-0.1,0.1c-0.1,0.1-0.2,0.1-0.3,0c-0.1-0.1-0.2-0.2-0.4-0.3c-0.2-0.1-0.4-0.1-0.7-0.1c-0.2,0-0.5,0-0.7,0.1
			c-0.2,0.1-0.4,0.2-0.5,0.4c-0.2,0.2-0.3,0.3-0.4,0.5c-0.1,0.2-0.1,0.4-0.1,0.7s0,0.5,0.1,0.7c0.1,0.2,0.2,0.4,0.4,0.5
			c0.2,0.2,0.3,0.3,0.5,0.4c0.2,0.1,0.4,0.1,0.7,0.1c0.1,0,0.3,0,0.4,0c0.1,0,0.2-0.1,0.3-0.1c0.1,0,0.2-0.1,0.3-0.1
			c0.1-0.1,0.1-0.1,0.2-0.1c0.1-0.1,0.2-0.1,0.3,0.1l0.1,0.1c0.1,0.1,0,0.2-0.1,0.3c-0.1,0-0.1,0.1-0.2,0.2s-0.2,0.1-0.3,0.2
			c-0.1,0.1-0.3,0.1-0.4,0.1c-0.2,0-0.3,0.1-0.5,0.1c-0.3,0-0.6-0.1-0.9-0.2c-0.3-0.1-0.5-0.3-0.7-0.5c-0.2-0.2-0.4-0.4-0.5-0.7
			C257.6,570.5,257.5,570.2,257.5,569.9z"/>
		<path class="st11" d="M262.1,569.9c0-0.3,0.1-0.6,0.2-0.9c0.1-0.3,0.3-0.5,0.5-0.7c0.2-0.2,0.4-0.4,0.7-0.5
			c0.3-0.1,0.6-0.2,0.9-0.2s0.6,0.1,0.9,0.2c0.3,0.1,0.5,0.3,0.7,0.5c0.2,0.2,0.4,0.4,0.5,0.7c0.1,0.3,0.2,0.6,0.2,0.9
			c0,0.3-0.1,0.6-0.2,0.9c-0.1,0.3-0.3,0.5-0.5,0.7c-0.2,0.2-0.4,0.4-0.7,0.5c-0.3,0.1-0.6,0.2-0.9,0.2s-0.6-0.1-0.9-0.2
			c-0.3-0.1-0.5-0.3-0.7-0.5c-0.2-0.2-0.4-0.4-0.5-0.7C262.1,570.5,262.1,570.2,262.1,569.9z M262.7,569.9c0,0.3,0,0.5,0.1,0.7
			c0.1,0.2,0.2,0.4,0.4,0.6c0.2,0.2,0.3,0.3,0.5,0.4c0.2,0.1,0.4,0.1,0.7,0.1c0.2,0,0.4,0,0.6-0.1c0.2-0.1,0.4-0.2,0.5-0.4
			c0.2-0.2,0.3-0.3,0.4-0.6c0.1-0.2,0.1-0.4,0.1-0.7c0-0.2,0-0.5-0.1-0.7c-0.1-0.2-0.2-0.4-0.4-0.5c-0.2-0.2-0.3-0.3-0.5-0.4
			c-0.2-0.1-0.4-0.1-0.6-0.1c-0.2,0-0.5,0-0.7,0.1c-0.2,0.1-0.4,0.2-0.5,0.4c-0.2,0.2-0.3,0.3-0.4,0.5
			C262.7,569.4,262.7,569.6,262.7,569.9z"/>
		<path class="st11" d="M267.6,568c0-0.1,0.1-0.2,0.2-0.2h0.2c0.1,0,0.2,0.1,0.2,0.2v0.5c0,0,0,0.1,0,0.1c0,0,0,0.1,0,0.1
			c0,0,0,0.1,0,0.1h0c0.1-0.1,0.1-0.3,0.2-0.4c0.1-0.1,0.2-0.3,0.4-0.4s0.3-0.2,0.5-0.2c0.2-0.1,0.3-0.1,0.5-0.1
			c0.4,0,0.7,0.1,0.9,0.3c0.2,0.2,0.3,0.4,0.4,0.8h0c0.1-0.1,0.1-0.3,0.2-0.4c0.1-0.1,0.2-0.2,0.4-0.3c0.1-0.1,0.3-0.2,0.5-0.2
			c0.2-0.1,0.3-0.1,0.5-0.1c0.5,0,0.9,0.1,1.1,0.4c0.2,0.3,0.3,0.7,0.3,1.2v2.5c0,0.1-0.1,0.2-0.2,0.2h-0.2c-0.1,0-0.2-0.1-0.2-0.2
			v-2.4c0-0.2,0-0.3,0-0.5c0-0.2-0.1-0.3-0.1-0.4c-0.1-0.1-0.2-0.2-0.3-0.3c-0.1-0.1-0.3-0.1-0.5-0.1c-0.2,0-0.4,0.1-0.6,0.2
			c-0.2,0.1-0.3,0.2-0.5,0.4c-0.1,0.2-0.2,0.4-0.3,0.6c-0.1,0.2-0.1,0.4-0.1,0.7v1.9c0,0.1-0.1,0.2-0.2,0.2h-0.2
			c-0.1,0-0.2-0.1-0.2-0.2v-2.4c0-0.2,0-0.3,0-0.5c0-0.2-0.1-0.3-0.1-0.4c-0.1-0.1-0.2-0.2-0.3-0.3c-0.1-0.1-0.3-0.1-0.5-0.1
			c-0.2,0-0.4,0.1-0.6,0.2c-0.2,0.1-0.3,0.2-0.5,0.4c-0.1,0.2-0.2,0.4-0.3,0.6c-0.1,0.2-0.1,0.4-0.1,0.6v1.9c0,0.1-0.1,0.2-0.2,0.2
			h-0.2c-0.1,0-0.2-0.1-0.2-0.2V568z"/>
	</g>
	<path class="st11" d="M269.4,507c-0.7,0.3-1.4,0.5-2.2,0.8c2.6,6.8,2.7,12.3,0,15c-2.7,2.7-8.1,2.7-15,0c-0.3,0.7-0.5,1.4-0.8,2.2
		c3.7,1.4,7.1,2.2,9.9,2.2c3.2,0,5.7-0.9,7.5-2.7C272.3,521,272.4,514.7,269.4,507z"/>
	<path class="st11" d="M247.8,496.4v1.4c0,0.1,0,0.3-0.1,0.5h4.3c0-0.8,0.1-1.5,0.1-2.3h-4.4C247.8,496,247.8,496.2,247.8,496.4z"/>
	<path class="st11" d="M252.1,491.3c-0.1,0-0.3,0-0.4,0h-4c0,0.1,0.1,0.3,0.1,0.5v1.4c0,0.1,0,0.3-0.1,0.5h4c0.1,0,0.3,0,0.4,0
		c0-0.4,0-0.7,0-1.1C252.1,492.1,252.1,491.7,252.1,491.3z"/>
	<path class="st11" d="M256.3,486.3c0.1,1.3,0.1,2.7,0.2,4C257,489,256.9,487.5,256.3,486.3z"/>
	<path class="st11" d="M247.4,476.6c-6.9-6.4-13.9-11.4-20.3-14.6c-0.3,0.7-0.6,1.4-0.9,2.2c6.4,3.3,13.6,8.4,20.4,14.8
		C246.6,478.2,246.9,477.4,247.4,476.6z"/>
	<path class="st11" d="M251,483.5c0.3,0.3,0.6,0.6,0.9,0.9c-0.1-1.3-0.2-2.5-0.4-3.7c-0.2-0.2-0.4-0.4-0.5-0.6V483.5z"/>
	<path class="st11" d="M212.6,460.1c2.6,0,5.8,0.7,9.2,2.1c0.3-0.7,0.5-1.5,0.8-2.2c-7.7-3-14.1-3.1-17.6,0.5
		c-3.5,3.5-3.5,10-0.4,17.7c0.7-0.3,1.4-0.6,2.2-0.8c-2.7-6.8-3-12.3-0.1-15.2C208,460.8,210.1,460.1,212.6,460.1z"/>
	<path class="st11" d="M255.5,475.5c0.1,0.8,0.3,1.6,0.4,2.4l0,0c14.4,2.8,23.9,8.4,23.9,14.6c0,6.2-9.7,11.7-23.5,14.5l0,0
		c-0.1,0.8-0.2,1.7-0.3,2.5c15.5-2.9,26.1-9.3,26.1-16.9C282.1,485,271.7,478.4,255.5,475.5z"/>
	<path class="st11" d="M194.1,492.5c0-5.4,7.5-10.6,19.6-13.6c0.2-0.1,0.4-0.1,0.6-0.1c0.5,0,1,0.2,1.4,0.5c0.6,0.4,0.9,1.2,0.9,1.9
		l-0.1,7.8c0,1.2,0.5,2.4,1.4,3.3c0.9,0.9,2.1,1.4,3.3,1.4h4.9c0-0.1-0.1-0.3-0.1-0.5v-1.4c0-0.1,0-0.3,0.1-0.5h-4.9
		c-0.6,0-1.2-0.2-1.7-0.7c-0.4-0.4-0.7-1-0.7-1.7l0-2.7c-0.9-1.4-1.3-3.2-1.1-4.9c0.1-0.9,0.2-1.8,0.3-2.7c-0.3-0.4-0.6-0.8-1-1.1
		c-1.2-0.9-2.6-1.2-4-0.9c-13.4,3.4-21.4,9.3-21.4,15.9c0,10.4,19.8,18.6,45.1,18.6c4.8,0,9.4-0.3,13.6-0.9c0.1-0.8,0.3-1.6,0.4-2.4
		c-4.4,0.6-9.2,0.9-14.1,0.9C213.7,508.8,194.1,501.3,194.1,492.5z"/>
	<path class="st11" d="M247.2,485.8c0.4,0.4,0.6,0.9,0.6,1.4v1.1c1.3-0.8,2.1-2.3,2.1-3.9v-4.7c0-0.7,0.3-1.3,0.8-1.8
		c0.1-0.1,0.3-0.2,0.4-0.3c-0.1-0.8-0.2-1.6-0.4-2.3c-0.6,0.2-1.1,0.5-1.5,0.9c-1,0.9-1.6,2.2-1.6,3.5v4.7
		C247.6,484.9,247.4,485.4,247.2,485.8C247.1,485.8,247.2,485.8,247.2,485.8z"/>
	<path class="st11" d="M263.2,499.5c0.8,1.3,1.5,2.6,2.1,3.9c0.7-0.3,1.5-0.5,2.2-0.8c-0.7-1.4-1.4-2.8-2.3-4.3
		c-0.9-1.5-2.6-2.5-4.4-2.5h-4.3c0,0.8,0,1.5-0.1,2.3h4.3C261.8,498.2,262.7,498.7,263.2,499.5z"/>
	<path class="st11" d="M218.9,502.1c-0.1,0.5-0.1,1,0,1.5c0.1,0.9,0.2,1.7,0.3,2.5c0.8,0.1,1.6,0.3,2.4,0.4
		c-0.1-0.6-0.1-1.2-0.2-1.8C220.5,503.8,219.7,502.9,218.9,502.1z"/>
	<path class="st11" d="M226.1,497.7v-1.4c0-0.1,0-0.3,0.1-0.5h-0.3c-1.8,0-3.5,0.7-4.8,1.9c0.5,0.6,1,1.2,1.5,1.7
		c0.9-0.8,2-1.3,3.2-1.3h0.3C226.1,498,226.1,497.9,226.1,497.7z"/>
	<path class="st11" d="M225.4,504c-7.4-7.4-13.2-15.4-16.8-22.5c-0.8,0.3-1.5,0.5-2.2,0.8c3.6,7.3,9.6,15.5,17.4,23.3
		c0.5,0.5,0.9,0.9,1.4,1.4c1.2,0.1,2.5,0.3,3.8,0.4C227.8,506.3,226.6,505.2,225.4,504z"/>
	<path class="st11" d="M247.9,520.8c-4.3-2.2-8.9-5.1-13.4-8.7c-1.3,0-2.5-0.1-3.8-0.1c5.5,4.6,11,8.4,16.4,11
		C247.4,522.3,247.6,521.6,247.9,520.8z"/>
	<path class="st11" d="M237,447.3c-8.7,0-16,13.7-18.1,34.1c-0.2,2,0.4,3.9,1.8,5.4c1.3,1.5,3.2,2.3,5.2,2.3h0.3
		c-0.1-0.2-0.1-0.4-0.1-0.5v-1.4c0-0.1,0-0.3,0-0.4h-0.2c-1.3,0-2.6-0.6-3.5-1.6c-0.9-1-1.3-2.3-1.2-3.6c1.9-18.5,8.5-32,15.7-32
		c8.8,0,16.3,19.6,16.3,42.8c0,23.2-7.5,42.8-16.3,42.8c-6.1,0-11.7-9.5-14.5-23.4c-0.8-0.1-1.6-0.3-2.4-0.4
		c3,15.9,9.4,26.1,16.9,26.1c10.4,0,18.6-19.8,18.6-45.1C255.5,467.2,247.4,447.3,237,447.3z"/>
	<path class="st11" d="M246.5,486.6c-0.1-0.1-0.4-0.2-0.6-0.2h-1.4h-0.6v-1.4c0-1.3-1.1-2.4-2.4-2.4h-9c-1.3,0-2.4,1.1-2.4,2.4v1.4
		h-0.6H228c-0.2,0-0.4,0.1-0.6,0.2c-0.1,0.1-0.2,0.4-0.2,0.6v0.7v0.7c0,0.2,0.1,0.4,0.2,0.6s0.4,0.2,0.6,0.2h1.4h0.6v1.5h-0.6H228
		c-0.2,0-0.4,0.1-0.6,0.2c-0.1,0.1-0.2,0.4-0.2,0.6v0.7v0.7c0,0.2,0.1,0.4,0.2,0.6s0.4,0.2,0.6,0.2h1.4h0.6v1.5h-0.6H228
		c-0.2,0-0.4,0.1-0.6,0.2c-0.1,0.1-0.2,0.4-0.2,0.6v0.7v0.7c0,0.2,0.1,0.4,0.2,0.6s0.4,0.2,0.6,0.2h1.4h0.6v1.4
		c0,1.3,1.1,2.4,2.4,2.4h9c1.3,0,2.4-1.1,2.4-2.4v-1.4h0.6h1.4c0.2,0,0.4-0.1,0.6-0.2c0.1-0.1,0.2-0.4,0.2-0.6V497v-0.7
		c0-0.2-0.1-0.4-0.2-0.6c-0.1-0.1-0.4-0.2-0.6-0.2h-1.4h-0.6v-1.5h0.6h1.4c0.2,0,0.4-0.1,0.6-0.2c0.1-0.1,0.2-0.4,0.2-0.6v-0.7v-0.7
		c0-0.2-0.1-0.4-0.2-0.6c-0.1-0.1-0.4-0.2-0.6-0.2h-1.4h-0.6v-1.5h0.6h1.4c0.2,0,0.4-0.1,0.6-0.2c0.1-0.1,0.2-0.4,0.2-0.6v-0.7v-0.7
		C246.7,487,246.6,486.8,246.5,486.6z"/>
</g>
<g>
	<path class="st10" d="M137.7,312.5c0,11,8.9,19.8,19.8,19.8h158.7c11,0,19.8-8.9,19.8-19.8V153.8c0-11-8.9-19.8-19.8-19.8H157.6
		c-11,0-19.8,8.9-19.8,19.8V312.5z"/>
	<path class="st10" d="M162.5,312.5c0-2.7-2.2-5-5-5c-2.7,0-5,2.2-5,5c0,2.7,2.2,5,5,5C160.3,317.5,162.5,315.2,162.5,312.5z"/>
	<path class="st10" d="M311.4,312.5c0-2.7,2.2-5,5-5c2.7,0,5,2.2,5,5c0,2.7-2.2,5-5,5C313.6,317.5,311.4,315.2,311.4,312.5z"/>
	<path class="st10" d="M162.5,153.8c0,2.7-2.2,5-5,5c-2.7,0-5-2.2-5-5c0-2.7,2.2-5,5-5C160.3,148.8,162.5,151,162.5,153.8z"/>
	<path class="st10" d="M311.4,153.8c0,2.7,2.2,5,5,5c2.7,0,5-2.2,5-5c0-2.7-2.2-5-5-5C313.6,148.8,311.4,151,311.4,153.8z"/>
	<path class="st11" d="M186.1,291.6c0-0.3,0.1-0.4,0.4-0.4h2.3c0.4,0,0.7,0,1,0.1c0.2,0,0.4,0.1,0.6,0.2c0.4,0.2,0.7,0.5,1,0.8
		c0.2,0.4,0.4,0.8,0.4,1.4c0,0.5-0.1,1-0.4,1.5c-0.3,0.4-0.6,0.7-1.1,0.9v0c0,0,0,0.1,0.1,0.1c0,0.1,0.1,0.2,0.2,0.3l1.5,2.8
		c0.1,0.1,0.1,0.2,0,0.3c-0.1,0.1-0.2,0.1-0.3,0.1h-0.5c-0.2,0-0.4-0.1-0.5-0.3l-1.7-3.1h-1.8v3c0,0.3-0.1,0.4-0.4,0.4h-0.4
		c-0.3,0-0.4-0.1-0.4-0.4V291.6z M189,295.3c0.5,0,0.8-0.1,1.1-0.4c0.3-0.3,0.4-0.7,0.4-1.1c0-0.3-0.1-0.6-0.2-0.8
		c-0.1-0.2-0.3-0.4-0.6-0.5c-0.1,0-0.2-0.1-0.4-0.1c-0.1,0-0.4,0-0.6,0h-1.4v3H189z"/>
	<path class="st11" d="M192.8,296.7c0-0.5,0.1-0.9,0.2-1.3c0.2-0.4,0.4-0.7,0.6-1c0.3-0.3,0.6-0.5,1-0.6c0.4-0.2,0.8-0.2,1.2-0.2
		c0.4,0,0.8,0.1,1.1,0.2c0.3,0.1,0.6,0.3,0.8,0.6c0.2,0.3,0.4,0.6,0.5,0.9c0.1,0.4,0.2,0.7,0.2,1.2c0,0.1,0,0.2-0.1,0.3
		c-0.1,0.1-0.2,0.1-0.3,0.1h-4.1c0,0.3,0.1,0.6,0.2,0.9c0.1,0.3,0.3,0.5,0.5,0.6c0.2,0.2,0.4,0.3,0.7,0.4c0.2,0.1,0.5,0.1,0.8,0.1
		c0.3,0,0.6-0.1,0.9-0.2c0.2-0.1,0.4-0.2,0.6-0.3c0.2-0.1,0.4-0.1,0.5,0.1l0.1,0.2c0.1,0.1,0.1,0.2,0.1,0.3c0,0.1-0.1,0.2-0.2,0.2
		c-0.1,0.1-0.2,0.1-0.3,0.2c-0.1,0.1-0.3,0.1-0.5,0.2c-0.2,0.1-0.4,0.1-0.6,0.2c-0.2,0-0.4,0.1-0.7,0.1c-0.5,0-0.9-0.1-1.3-0.2
		c-0.4-0.2-0.7-0.4-1-0.7c-0.3-0.3-0.5-0.6-0.7-1C192.8,297.5,192.8,297.1,192.8,296.7z M197.2,296c0-0.5-0.2-0.9-0.5-1.2
		c-0.3-0.3-0.6-0.4-1-0.4c-0.4,0-0.8,0.1-1.2,0.4c-0.3,0.3-0.5,0.7-0.6,1.2H197.2z"/>
	<path class="st11" d="M199.4,299.2c-0.1-0.1-0.2-0.1-0.2-0.2c0-0.1,0-0.2,0.1-0.3l0.1-0.2c0.1-0.1,0.2-0.2,0.2-0.2
		c0.1,0,0.2,0,0.3,0.1c0.1,0.1,0.3,0.2,0.6,0.3c0.2,0.1,0.6,0.2,0.9,0.2c0.3,0,0.6-0.1,0.7-0.2c0.2-0.1,0.3-0.3,0.3-0.6
		c0-0.2-0.1-0.4-0.2-0.5c-0.2-0.1-0.3-0.2-0.6-0.3c-0.2-0.1-0.5-0.2-0.8-0.3c-0.3-0.1-0.5-0.2-0.8-0.4c-0.2-0.1-0.4-0.3-0.6-0.5
		c-0.2-0.2-0.2-0.5-0.2-0.8c0-0.3,0.1-0.5,0.2-0.8c0.1-0.2,0.3-0.4,0.5-0.5c0.2-0.1,0.4-0.3,0.7-0.3c0.3-0.1,0.5-0.1,0.8-0.1
		c0.4,0,0.8,0.1,1,0.2c0.3,0.1,0.5,0.2,0.6,0.3c0.1,0.1,0.2,0.1,0.2,0.2c0,0.1,0,0.2-0.1,0.3l-0.1,0.2c-0.1,0.2-0.3,0.2-0.5,0.1
		c-0.1-0.1-0.3-0.1-0.5-0.2c-0.2-0.1-0.5-0.1-0.7-0.1s-0.5,0.1-0.7,0.2c-0.2,0.1-0.3,0.3-0.3,0.6c0,0.2,0.1,0.4,0.2,0.5
		c0.2,0.1,0.3,0.2,0.6,0.3c0.2,0.1,0.5,0.2,0.8,0.3c0.3,0.1,0.5,0.2,0.8,0.4c0.2,0.1,0.4,0.3,0.6,0.5c0.2,0.2,0.2,0.5,0.2,0.8
		c0,0.3-0.1,0.5-0.2,0.7c-0.1,0.2-0.3,0.4-0.4,0.6c-0.2,0.2-0.4,0.3-0.7,0.4c-0.3,0.1-0.6,0.1-0.9,0.1c-0.3,0-0.5,0-0.7-0.1
		c-0.2,0-0.4-0.1-0.6-0.2c-0.2-0.1-0.3-0.1-0.5-0.2C199.6,299.3,199.5,299.2,199.4,299.2z"/>
	<path class="st11" d="M205.3,292.4c-0.3,0-0.4-0.1-0.4-0.4v-0.4c0-0.3,0.1-0.4,0.4-0.4h0.4c0.3,0,0.4,0.1,0.4,0.4v0.4
		c0,0.3-0.1,0.4-0.4,0.4H205.3z M204.9,294c0-0.3,0.1-0.4,0.4-0.4h0.4c0.3,0,0.4,0.1,0.4,0.4v5.3c0,0.3-0.1,0.4-0.4,0.4h-0.4
		c-0.3,0-0.4-0.1-0.4-0.4V294z"/>
	<path class="st11" d="M207.5,299.2c-0.1-0.1-0.2-0.1-0.2-0.2s0-0.2,0.1-0.3l0.1-0.2c0.1-0.1,0.2-0.2,0.2-0.2c0.1,0,0.2,0,0.3,0.1
		c0.1,0.1,0.3,0.2,0.6,0.3c0.2,0.1,0.6,0.2,0.9,0.2c0.3,0,0.6-0.1,0.7-0.2c0.2-0.1,0.3-0.3,0.3-0.6c0-0.2-0.1-0.4-0.2-0.5
		c-0.2-0.1-0.3-0.2-0.6-0.3c-0.2-0.1-0.5-0.2-0.8-0.3c-0.3-0.1-0.5-0.2-0.8-0.4c-0.2-0.1-0.4-0.3-0.6-0.5c-0.2-0.2-0.2-0.5-0.2-0.8
		c0-0.3,0.1-0.5,0.2-0.8c0.1-0.2,0.3-0.4,0.5-0.5c0.2-0.1,0.4-0.3,0.7-0.3c0.3-0.1,0.5-0.1,0.8-0.1c0.4,0,0.8,0.1,1,0.2
		c0.3,0.1,0.5,0.2,0.6,0.3c0.1,0.1,0.2,0.1,0.2,0.2c0,0.1,0,0.2-0.1,0.3l-0.1,0.2c-0.1,0.2-0.3,0.2-0.5,0.1
		c-0.1-0.1-0.3-0.1-0.5-0.2c-0.2-0.1-0.5-0.1-0.7-0.1s-0.5,0.1-0.7,0.2c-0.2,0.1-0.3,0.3-0.3,0.6c0,0.2,0.1,0.4,0.2,0.5
		c0.2,0.1,0.3,0.2,0.6,0.3c0.2,0.1,0.5,0.2,0.8,0.3c0.3,0.1,0.5,0.2,0.8,0.4c0.2,0.1,0.4,0.3,0.6,0.5c0.2,0.2,0.2,0.5,0.2,0.8
		c0,0.3-0.1,0.5-0.2,0.7c-0.1,0.2-0.3,0.4-0.4,0.6c-0.2,0.2-0.4,0.3-0.7,0.4c-0.3,0.1-0.6,0.1-0.9,0.1c-0.3,0-0.5,0-0.7-0.1
		c-0.2,0-0.4-0.1-0.6-0.2c-0.2-0.1-0.3-0.1-0.5-0.2C207.7,299.3,207.6,299.2,207.5,299.2z"/>
	<path class="st11" d="M213.3,294.6h-0.4c-0.3,0-0.4-0.1-0.4-0.4v-0.2c0-0.3,0.1-0.4,0.4-0.4h0.4v-1.3c0-0.3,0.1-0.4,0.4-0.4h0.3
		c0.3,0,0.4,0.1,0.4,0.4v1.3h1.1c0.3,0,0.4,0.1,0.4,0.4v0.2c0,0.3-0.1,0.4-0.4,0.4h-1.1v2.7c0,0.3,0,0.5,0.1,0.7
		c0.1,0.2,0.2,0.3,0.3,0.4c0.1,0.1,0.2,0.2,0.4,0.2c0.1,0,0.3,0.1,0.4,0.1c0.2,0,0.3,0.1,0.3,0.1c0.1,0.1,0.1,0.2,0.1,0.3v0.3
		c0,0.3-0.2,0.4-0.5,0.4c-0.3,0-0.6,0-0.9-0.1c-0.3-0.1-0.5-0.2-0.7-0.4c-0.2-0.2-0.4-0.4-0.5-0.7c-0.1-0.3-0.2-0.6-0.2-1V294.6z"/>
	<path class="st11" d="M217.5,292.4c-0.3,0-0.4-0.1-0.4-0.4v-0.4c0-0.3,0.1-0.4,0.4-0.4h0.4c0.3,0,0.4,0.1,0.4,0.4v0.4
		c0,0.3-0.1,0.4-0.4,0.4H217.5z M217.2,294c0-0.3,0.1-0.4,0.4-0.4h0.4c0.3,0,0.4,0.1,0.4,0.4v5.3c0,0.3-0.1,0.4-0.4,0.4h-0.4
		c-0.3,0-0.4-0.1-0.4-0.4V294z"/>
	<path class="st11" d="M219.4,294.1c0-0.1,0-0.2,0-0.3c0.1-0.1,0.2-0.1,0.3-0.1h0.4c0.2,0,0.4,0.1,0.4,0.3l1.4,3.8
		c0,0.1,0.1,0.2,0.1,0.3c0,0.1,0,0.2,0.1,0.3c0,0.1,0,0.2,0.1,0.3h0c0-0.1,0-0.2,0.1-0.3c0-0.1,0-0.2,0.1-0.3c0-0.1,0.1-0.2,0.1-0.3
		l1.4-3.8c0.1-0.2,0.2-0.3,0.4-0.3h0.4c0.1,0,0.2,0,0.3,0.1c0.1,0.1,0.1,0.2,0,0.3l-2,5.3c-0.1,0.2-0.2,0.3-0.4,0.3h-0.7
		c-0.2,0-0.4-0.1-0.4-0.3L219.4,294.1z"/>
	<path class="st11" d="M225.6,296.7c0-0.5,0.1-0.9,0.2-1.3c0.2-0.4,0.4-0.7,0.6-1c0.3-0.3,0.6-0.5,1-0.6c0.4-0.2,0.8-0.2,1.2-0.2
		c0.4,0,0.8,0.1,1.1,0.2c0.3,0.1,0.6,0.3,0.8,0.6c0.2,0.3,0.4,0.6,0.5,0.9c0.1,0.4,0.2,0.7,0.2,1.2c0,0.1,0,0.2-0.1,0.3
		c-0.1,0.1-0.2,0.1-0.3,0.1h-4.1c0,0.3,0.1,0.6,0.2,0.9c0.1,0.3,0.3,0.5,0.5,0.6c0.2,0.2,0.4,0.3,0.7,0.4c0.2,0.1,0.5,0.1,0.8,0.1
		c0.3,0,0.6-0.1,0.9-0.2c0.2-0.1,0.4-0.2,0.6-0.3c0.2-0.1,0.4-0.1,0.5,0.1l0.1,0.2c0.1,0.1,0.1,0.2,0.1,0.3c0,0.1-0.1,0.2-0.2,0.2
		c-0.1,0.1-0.2,0.1-0.3,0.2c-0.1,0.1-0.3,0.1-0.5,0.2c-0.2,0.1-0.4,0.1-0.6,0.2c-0.2,0-0.4,0.1-0.7,0.1c-0.5,0-0.9-0.1-1.3-0.2
		c-0.4-0.2-0.7-0.4-1-0.7c-0.3-0.3-0.5-0.6-0.7-1C225.7,297.5,225.6,297.1,225.6,296.7z M230.1,296c0-0.5-0.2-0.9-0.5-1.2
		c-0.3-0.3-0.6-0.4-1-0.4c-0.4,0-0.8,0.1-1.2,0.4c-0.3,0.3-0.5,0.7-0.6,1.2H230.1z"/>
	<path class="st11" d="M235.4,299c-0.1-0.1-0.1-0.2-0.2-0.2c0-0.1,0-0.2,0.1-0.3l0.2-0.3c0.1-0.2,0.3-0.2,0.5-0.1
		c0.1,0.1,0.2,0.1,0.3,0.2c0.1,0.1,0.3,0.2,0.4,0.2c0.2,0.1,0.3,0.1,0.5,0.2c0.2,0.1,0.4,0.1,0.6,0.1c0.5,0,0.8-0.1,1.1-0.3
		c0.3-0.2,0.4-0.5,0.4-0.9c0-0.3-0.1-0.6-0.3-0.8c-0.2-0.2-0.5-0.4-0.8-0.5c-0.3-0.2-0.6-0.3-1-0.5c-0.4-0.1-0.7-0.3-1-0.5
		c-0.3-0.2-0.6-0.4-0.8-0.7c-0.2-0.3-0.3-0.7-0.3-1.1c0-0.4,0.1-0.7,0.2-1c0.1-0.3,0.3-0.5,0.6-0.7c0.2-0.2,0.5-0.4,0.9-0.5
		c0.3-0.1,0.7-0.2,1.1-0.2c0.2,0,0.5,0,0.7,0.1c0.2,0,0.4,0.1,0.6,0.2c0.2,0.1,0.3,0.1,0.5,0.2c0.1,0.1,0.2,0.1,0.3,0.2
		c0.2,0.1,0.2,0.3,0.1,0.5l-0.2,0.3c-0.1,0.1-0.2,0.2-0.2,0.2c-0.1,0-0.2,0-0.3-0.1c-0.2-0.1-0.4-0.2-0.6-0.3
		c-0.3-0.1-0.6-0.2-0.9-0.2c-0.4,0-0.8,0.1-1.1,0.3c-0.3,0.2-0.4,0.5-0.4,0.9c0,0.3,0.1,0.6,0.3,0.7c0.2,0.2,0.5,0.4,0.8,0.5
		c0.3,0.1,0.6,0.3,1,0.4c0.4,0.1,0.7,0.3,1,0.5c0.3,0.2,0.6,0.4,0.8,0.7c0.2,0.3,0.3,0.7,0.3,1.1c0,0.3-0.1,0.6-0.2,0.9
		c-0.1,0.3-0.3,0.5-0.5,0.8c-0.2,0.2-0.5,0.4-0.8,0.5c-0.3,0.1-0.7,0.2-1.1,0.2c-0.3,0-0.6,0-0.9-0.1c-0.3-0.1-0.5-0.1-0.7-0.2
		c-0.2-0.1-0.4-0.2-0.6-0.3C235.6,299.1,235.4,299,235.4,299z"/>
	<path class="st11" d="M241.6,296.7c0-0.5,0.1-0.9,0.2-1.3c0.2-0.4,0.4-0.7,0.6-1c0.3-0.3,0.6-0.5,1-0.6c0.4-0.2,0.8-0.2,1.2-0.2
		c0.4,0,0.8,0.1,1.1,0.2c0.3,0.1,0.6,0.3,0.8,0.6c0.2,0.3,0.4,0.6,0.5,0.9c0.1,0.4,0.2,0.7,0.2,1.2c0,0.1,0,0.2-0.1,0.3
		c-0.1,0.1-0.2,0.1-0.3,0.1h-4.1c0,0.3,0.1,0.6,0.2,0.9c0.1,0.3,0.3,0.5,0.5,0.6c0.2,0.2,0.4,0.3,0.7,0.4c0.2,0.1,0.5,0.1,0.8,0.1
		c0.3,0,0.6-0.1,0.9-0.2c0.2-0.1,0.4-0.2,0.6-0.3c0.2-0.1,0.4-0.1,0.5,0.1l0.1,0.2c0.1,0.1,0.1,0.2,0.1,0.3c0,0.1-0.1,0.2-0.2,0.2
		c-0.1,0.1-0.2,0.1-0.3,0.2c-0.1,0.1-0.3,0.1-0.5,0.2c-0.2,0.1-0.4,0.1-0.6,0.2c-0.2,0-0.4,0.1-0.7,0.1c-0.5,0-0.9-0.1-1.3-0.2
		c-0.4-0.2-0.7-0.4-1-0.7c-0.3-0.3-0.5-0.6-0.7-1C241.6,297.5,241.6,297.1,241.6,296.7z M246,296c0-0.5-0.2-0.9-0.5-1.2
		c-0.3-0.3-0.6-0.4-1-0.4c-0.4,0-0.8,0.1-1.2,0.4c-0.3,0.3-0.5,0.7-0.6,1.2H246z"/>
	<path class="st11" d="M248.5,294c0-0.3,0.1-0.4,0.4-0.4h0.3c0.3,0,0.4,0.1,0.4,0.4v0.5c0,0.1,0,0.2,0,0.2c0,0,0,0.1,0,0.1h0
		c0.1-0.1,0.1-0.3,0.3-0.4c0.1-0.2,0.3-0.3,0.5-0.5c0.2-0.1,0.4-0.3,0.7-0.4c0.3-0.1,0.6-0.1,0.9-0.1c0.7,0,1.2,0.2,1.6,0.6
		c0.3,0.4,0.5,1,0.5,1.7v3.5c0,0.3-0.1,0.4-0.4,0.4h-0.4c-0.3,0-0.4-0.1-0.4-0.4v-3.2c0-0.2,0-0.4,0-0.6c0-0.2-0.1-0.3-0.2-0.5
		c-0.1-0.1-0.2-0.2-0.3-0.3c-0.2-0.1-0.3-0.1-0.6-0.1c-0.3,0-0.6,0.1-0.8,0.2c-0.2,0.1-0.5,0.3-0.6,0.5c-0.2,0.2-0.3,0.4-0.4,0.7
		c-0.1,0.3-0.2,0.6-0.2,0.9v2.5c0,0.3-0.1,0.4-0.4,0.4h-0.4c-0.3,0-0.4-0.1-0.4-0.4V294z"/>
	<path class="st11" d="M255.3,299.2c-0.1-0.1-0.2-0.1-0.2-0.2s0-0.2,0.1-0.3l0.1-0.2c0.1-0.1,0.2-0.2,0.2-0.2c0.1,0,0.2,0,0.3,0.1
		c0.1,0.1,0.3,0.2,0.6,0.3c0.2,0.1,0.6,0.2,0.9,0.2c0.3,0,0.6-0.1,0.7-0.2c0.2-0.1,0.3-0.3,0.3-0.6c0-0.2-0.1-0.4-0.2-0.5
		c-0.2-0.1-0.3-0.2-0.6-0.3c-0.2-0.1-0.5-0.2-0.8-0.3c-0.3-0.1-0.5-0.2-0.8-0.4c-0.2-0.1-0.4-0.3-0.6-0.5c-0.2-0.2-0.2-0.5-0.2-0.8
		c0-0.3,0.1-0.5,0.2-0.8c0.1-0.2,0.3-0.4,0.5-0.5c0.2-0.1,0.4-0.3,0.7-0.3c0.3-0.1,0.5-0.1,0.8-0.1c0.4,0,0.8,0.1,1,0.2
		c0.3,0.1,0.5,0.2,0.6,0.3c0.1,0.1,0.2,0.1,0.2,0.2c0,0.1,0,0.2-0.1,0.3l-0.1,0.2c-0.1,0.2-0.3,0.2-0.5,0.1
		c-0.1-0.1-0.3-0.1-0.5-0.2c-0.2-0.1-0.5-0.1-0.7-0.1c-0.3,0-0.5,0.1-0.7,0.2c-0.2,0.1-0.3,0.3-0.3,0.6c0,0.2,0.1,0.4,0.2,0.5
		c0.2,0.1,0.3,0.2,0.6,0.3c0.2,0.1,0.5,0.2,0.8,0.3c0.3,0.1,0.5,0.2,0.8,0.4c0.2,0.1,0.4,0.3,0.6,0.5c0.2,0.2,0.2,0.5,0.2,0.8
		c0,0.3-0.1,0.5-0.2,0.7c-0.1,0.2-0.3,0.4-0.4,0.6c-0.2,0.2-0.4,0.3-0.7,0.4c-0.3,0.1-0.6,0.1-0.9,0.1c-0.3,0-0.5,0-0.7-0.1
		c-0.2,0-0.4-0.1-0.6-0.2c-0.2-0.1-0.3-0.1-0.5-0.2C255.5,299.3,255.4,299.2,255.3,299.2z"/>
	<path class="st11" d="M260.4,296.7c0-0.5,0.1-0.9,0.3-1.3c0.2-0.4,0.4-0.7,0.7-1c0.3-0.3,0.6-0.5,1-0.7c0.4-0.2,0.8-0.2,1.3-0.2
		c0.5,0,0.9,0.1,1.3,0.2c0.4,0.2,0.7,0.4,1,0.7c0.3,0.3,0.5,0.6,0.7,1c0.2,0.4,0.3,0.8,0.3,1.3c0,0.5-0.1,0.9-0.3,1.3
		c-0.2,0.4-0.4,0.7-0.7,1c-0.3,0.3-0.6,0.5-1,0.7c-0.4,0.2-0.8,0.2-1.3,0.2c-0.5,0-0.9-0.1-1.3-0.2c-0.4-0.2-0.7-0.4-1-0.7
		c-0.3-0.3-0.5-0.6-0.7-1C260.5,297.5,260.4,297.1,260.4,296.7z M261.6,296.7c0,0.3,0.1,0.6,0.2,0.9c0.1,0.3,0.3,0.5,0.5,0.7
		c0.2,0.2,0.4,0.3,0.7,0.4c0.3,0.1,0.5,0.2,0.8,0.2c0.3,0,0.6-0.1,0.8-0.2c0.3-0.1,0.5-0.3,0.7-0.4c0.2-0.2,0.3-0.4,0.5-0.7
		c0.1-0.3,0.2-0.6,0.2-0.9c0-0.3-0.1-0.6-0.2-0.9c-0.1-0.3-0.3-0.5-0.5-0.7c-0.2-0.2-0.4-0.3-0.7-0.5c-0.3-0.1-0.5-0.2-0.8-0.2
		c-0.3,0-0.6,0.1-0.8,0.2c-0.3,0.1-0.5,0.3-0.7,0.5c-0.2,0.2-0.3,0.4-0.5,0.7C261.7,296.1,261.6,296.3,261.6,296.7z"/>
	<path class="st11" d="M268.3,294c0-0.3,0.1-0.4,0.4-0.4h0.3c0.3,0,0.4,0.1,0.4,0.4v0.7c0,0.1,0,0.1,0,0.2c0,0.1,0,0.1,0,0.1
		c0,0,0,0.1,0,0.1h0c0.1-0.2,0.2-0.4,0.3-0.6c0.1-0.2,0.3-0.4,0.4-0.5c0.2-0.1,0.3-0.3,0.5-0.4c0.2-0.1,0.4-0.1,0.6-0.1
		c0.3,0,0.4,0.1,0.4,0.4v0.3c0,0.3-0.1,0.4-0.4,0.4c-0.3,0-0.6,0.1-0.8,0.2c-0.2,0.1-0.4,0.3-0.6,0.6c-0.1,0.2-0.3,0.5-0.3,0.8
		c-0.1,0.3-0.1,0.6-0.1,0.9v2.1c0,0.3-0.1,0.4-0.4,0.4h-0.4c-0.3,0-0.4-0.1-0.4-0.4V294z"/>
	<path class="st11" d="M275.8,291.6c0-0.3,0.1-0.4,0.4-0.4h0.4c0.3,0,0.4,0.1,0.4,0.4v3.2h1.3l2-3.3c0.1-0.2,0.3-0.3,0.5-0.3h0.4
		c0.2,0,0.3,0,0.3,0.1c0.1,0.1,0,0.2,0,0.3l-2.2,3.5v0l2.4,4c0.1,0.1,0.1,0.2,0.1,0.3c-0.1,0.1-0.2,0.1-0.3,0.1h-0.5
		c-0.2,0-0.4-0.1-0.5-0.3l-2.1-3.6H277v3.5c0,0.3-0.1,0.4-0.4,0.4h-0.4c-0.3,0-0.4-0.1-0.4-0.4V291.6z"/>
	<path class="st11" d="M283.2,292.4c-0.3,0-0.4-0.1-0.4-0.4v-0.4c0-0.3,0.1-0.4,0.4-0.4h0.4c0.3,0,0.4,0.1,0.4,0.4v0.4
		c0,0.3-0.1,0.4-0.4,0.4H283.2z M282.8,294c0-0.3,0.1-0.4,0.4-0.4h0.4c0.3,0,0.4,0.1,0.4,0.4v5.3c0,0.3-0.1,0.4-0.4,0.4h-0.4
		c-0.3,0-0.4-0.1-0.4-0.4V294z"/>
	<path class="st11" d="M285.9,294.6h-0.4c-0.3,0-0.4-0.1-0.4-0.4v-0.2c0-0.3,0.1-0.4,0.4-0.4h0.4v-1.3c0-0.3,0.1-0.4,0.4-0.4h0.3
		c0.3,0,0.4,0.1,0.4,0.4v1.3h1.1c0.3,0,0.4,0.1,0.4,0.4v0.2c0,0.3-0.1,0.4-0.4,0.4h-1.1v2.7c0,0.3,0,0.5,0.1,0.7
		c0.1,0.2,0.2,0.3,0.3,0.4c0.1,0.1,0.2,0.2,0.4,0.2c0.1,0,0.3,0.1,0.4,0.1c0.2,0,0.3,0.1,0.3,0.1c0.1,0.1,0.1,0.2,0.1,0.3v0.3
		c0,0.3-0.2,0.4-0.5,0.4c-0.3,0-0.6,0-0.9-0.1c-0.3-0.1-0.5-0.2-0.7-0.4c-0.2-0.2-0.4-0.4-0.5-0.7c-0.1-0.3-0.2-0.6-0.2-1V294.6z"/>
	<path class="st11" d="M182.7,200.2c0.6,1.1,1.2,1.8,2,2.2c0.4,0.2,0.9,0.3,1.5,0.3c0.5,0,1.1-0.1,1.8-0.3c0.3-0.1,0.7-0.2,1-0.4
		l0.8-0.4c1.5-0.6,2.8-1.2,4.4-1c0.1,0,0.2,0,0.3,0l0.4,0.1c0.7,0.2,1.4,0.5,2.1,0.8c0.7,0.3,1.5,0.6,2.3,0.8
		c1.9,0.5,3.7-0.2,4.9-0.9c0.1-0.1,0.3-0.2,0.4-0.2l0.2-0.1c1-0.7,1.9-1.5,2.8-2.3c0.7-0.6,1.4-1.4,1.8-2.2l0.1-0.3
		c0.1-0.1,0.1-0.3,0.2-0.4c0.3-1.1,0.2-2.3-0.3-3.7c-0.5-1.3-1-2.7-1.5-3.9l-0.1-0.3c-0.5-1.1-0.9-2.3-1.3-3.4l-0.3-0.7
		c-0.6-1.5-1.2-3-2-4.4l-0.2-0.3c-0.1-0.2-0.3-0.5-0.4-0.7c-1.1-1.6-2.4-2.8-3.9-3.7c-1.1-0.6-2.2-1-3.2-1c-0.1,0-0.2,0-0.3,0
		c0,0,0,0,0,0c-0.3,0-0.7,0-1,0.1l-0.3,0.1c-1.3,0.3-2.3,1.1-3.2,1.9c-0.3,0.3-0.7,0.6-1,0.9l-0.5,0.5c-0.8,0.7-1.7,1.5-2.6,2.2
		c-0.3,0.2-0.5,0.4-0.8,0.5l-0.2,0.1c-0.2,0.1-0.5,0.3-0.7,0.4c-0.9,0.5-1.8,1.1-2.7,1.8c-0.1,0.1-0.1,0.1-0.2,0.2l-0.2,0.2
		c-1.2,1.2-2,2.6-2.4,4.4l-0.1,0.3c-0.6,2.6-0.2,5.2,0.2,6.9l0.1,0.4l0,0c0.1,0.5,0.3,1,0.5,1.5c0.4,1.1,0.9,2.2,1.5,3.3
		L182.7,200.2z M187.8,201.8c-0.8,0.3-1.9,0.5-2.8,0c-0.6-0.3-1.1-0.8-1.6-1.6c2.2,0.1,3.6,0.5,5,1.4
		C188.2,201.7,188,201.7,187.8,201.8z M196.5,174.4c1,0.1,2,0.4,3,1c1.4,0.8,2.6,2,3.7,3.5c0,0,0,0.1,0.1,0.1
		c-3-0.9-5.5-2.4-7.5-4.5c0.2,0,0.3,0,0.5,0C196.3,174.4,196.4,174.4,196.5,174.4z M192,176.2c0.9-0.7,1.9-1.5,3-1.7l0,0
		c2.2,2.5,5.1,4.2,8.6,5.2l0.1,0.2c0.8,1.3,1.4,2.8,1.9,4.3c-6.7-2.1-11.3-4.3-14.5-7.1C191.4,176.7,191.7,176.5,192,176.2z
		 M187.8,179.8c0.9-0.7,1.8-1.4,2.6-2.2l0.3-0.3c3.3,2.9,8.2,5.3,15.2,7.4l0,0.1c0.4,1,0.8,2.1,1.2,3.1c-8.2-0.2-15.6-4-20-7.7
		C187.4,180.1,187.6,179.9,187.8,179.8z M186,180.9c0.2-0.1,0.5-0.3,0.7-0.4l0,0c4.4,3.8,12.1,7.8,20.7,7.9l0,0
		c0.4,1.1,1,2.5,1.5,3.8c0.5,1.4,0.6,2.5,0.3,3.4c0,0,0,0.1,0,0.1c-6.5-5.2-11.4-6.7-15.8-8c-3.7-1.1-6.9-2-10-5.1
		c0,0,0.1-0.1,0.1-0.1C184.2,182,185.1,181.4,186,180.9z M183,183.1c3.2,3.2,6.4,4.2,10.2,5.3c4.4,1.3,9.3,2.7,15.8,7.9
		c-0.4,0.8-1.1,1.4-1.7,2.1c-0.8,0.8-1.7,1.5-2.6,2.2c-3-4.9-8.2-6.5-13.2-7.9c-4.2-1.2-8.1-2.4-10.7-5.4l0,0
		C181.2,185.5,181.9,184.2,183,183.1z M180.6,187.8c2.7,2.9,6.5,4.1,10.6,5.3c4.9,1.4,10,3,12.9,7.7c-0.1,0-0.2,0.1-0.2,0.1
		c-1.1,0.6-2.8,1.3-4.5,0.8c-0.7-0.2-1.5-0.5-2.2-0.8c-0.7-0.3-1.4-0.6-2.2-0.8l-0.2,0c-2.5-3.1-5.1-3.6-7.9-4c-2-0.3-4-0.7-6.2-2
		l0,0C180.5,192.5,180.2,190.2,180.6,187.8z M181.1,194.8c2.1,1.1,4,1.5,5.9,1.8c2.6,0.4,4.9,0.8,7.1,3.4c-1.6-0.1-3.1,0.5-4.5,1.1
		l-0.6,0.3c-1.7-1.1-3.2-1.6-5.9-1.7l-0.2-0.5c-0.5-1.1-1-2.1-1.4-3.2C181.3,195.6,181.2,195.2,181.1,194.8z"/>
	<path class="st11" d="M277.7,174c0.3,0.9,0.6,1.9,1,2.8l0.1,0.3c0.5,1.1,1,2.1,1.5,2.9l0.2,0.3l0,0c0.7,0.9,1.4,1.7,2.3,2.1
		l0.2,0.1c0.7,0.3,1.4,0.5,2.2,0.5c1,0,2.1-0.3,3.1-1c0.2-0.1,0.3-0.2,0.5-0.3c0.8-0.5,1.4-1.1,1.9-1.7c1-1.3,1.3-3.1,1-4.9
		l-0.1-0.4c0,0,0-0.1,0-0.1c-0.3-1.3-1-2.5-2.1-3.8l-0.2-0.2c-0.6-0.6-1.2-1.2-1.7-1.7l-0.2-0.2c-0.1-0.1-0.3-0.3-0.4-0.4
		c-0.2-0.2-0.3-0.3-0.5-0.5l-0.2-0.2c-0.5-0.5-1-0.8-1.4-0.9c-0.9-0.3-1.9,0.1-2.7,0.4c-0.3,0.1-0.6,0.2-0.9,0.3
		c-1.1,0.3-2.4,0.8-3.2,1.8c-0.6,0.7-0.9,1.7-0.8,2.9l0,0.3C277.4,172.9,277.5,173.5,277.7,174z M290.4,179.8
		c-0.4,0.6-1,1.1-1.7,1.6c-0.2,0.1-0.3,0.2-0.5,0.3c-1.6,1-3.1,1.1-4.5,0.5c0.8-1.6,1.5-1.9,2.7-2.5c0.5-0.3,1.2-0.6,1.9-1
		c1.3-0.8,2.3-1.9,3.1-3.1C291.5,177.2,291.2,178.7,290.4,179.8z M291.1,174.7l0,0.1c-0.8,1.4-1.9,2.5-3.3,3.4
		c-0.7,0.5-1.4,0.7-1.9,1c-1.2,0.6-2.1,1-2.9,2.8c-0.8-0.4-1.4-1.1-2.1-1.9l0,0c1-1.2,2.3-2,3.6-2.8c1.2-0.7,2.5-1.5,3.5-2.6
		c0.6-0.6,1-1.7,1.2-3.2C290.3,172.6,290.9,173.7,291.1,174.7z M288.9,170.9L288.9,170.9c-0.2,1.7-0.6,2.8-1.1,3.4
		c-1,1.1-2.3,1.8-3.4,2.5c-1.3,0.8-2.6,1.6-3.6,2.8c-0.5-0.8-1-1.7-1.4-2.7c0.8-1.1,1.7-1.3,2.8-1.6c0.9-0.2,1.8-0.5,3-1.2
		c1.2-0.8,2.1-2.3,2.5-4.5C288,170,288.5,170.5,288.9,170.9z M286.6,168.6c0.2,0.2,0.3,0.3,0.5,0.5l0.1,0.1c-0.3,1.6-1,3.6-2.4,4.5
		c-1.1,0.7-2,0.9-2.8,1.1c-1.1,0.3-2,0.5-2.9,1.5c-0.3-0.8-0.7-1.7-0.9-2.5c-0.2-0.5-0.3-1-0.3-1.5l0-0.1c0.8-0.3,1.4-0.3,2.8-0.1
		l0.7,0.1c2.2,0.2,3.8-1.9,4.8-3.9C286.4,168.4,286.5,168.5,286.6,168.6z M278.6,169.5c0.7-0.9,1.9-1.3,2.9-1.6
		c0.3-0.1,0.6-0.2,0.9-0.3c0.8-0.3,1.6-0.6,2.4-0.4c0.3,0.1,0.7,0.3,1.1,0.7c-0.8,1.5-2.3,3.9-4.4,3.7l-0.7-0.1
		c-1.3-0.1-2-0.2-2.8,0.1C277.9,170.8,278.1,170.1,278.6,169.5z"/>
	<path class="st11" d="M293.7,227.7l-0.1-0.4c-0.3-1.1-0.7-2.2-1.2-3.3c-0.1-0.3-0.3-0.7-0.4-1c-0.1-0.4-0.3-0.7-0.4-1.1l-0.7-1.8
		c-0.7-1.9-1.4-3.8-2.3-5.7l-0.1-0.3c-0.5-1.1-1.1-2.4-1.8-3.5l-0.3-0.3l0,0l-0.2-0.2c-0.3-0.4-0.5-0.7-0.8-1
		c-1.7-1.8-4.2-2.9-7.6-3.4l-0.5-0.1c-0.4-0.1-0.7-0.1-1.1-0.1c-0.7-0.1-1.4-0.1-2.1-0.1l-0.5,0c-1.4,0-2.7,0-4,0.2l-0.5,0.1
		c-2.1,0.3-4,0.9-5.7,1.7l-0.5,0.2c-1.4,0.7-2.7,1.7-3.9,2.8l-0.2,0.2c-0.7,0.7-1.4,1.5-2.1,2.3l-0.2,0.2c-0.4,0.5-0.8,1-1.1,1.5
		c-0.8,1.1-1.4,2.4-1.9,3.4l-0.3,0.7c-0.1-0.6-0.3-1.2-0.5-1.8c-0.3-0.6-0.6-1.1-0.9-1.7c0.3-0.5,0.6-1,0.9-1.5l0.7-1.2
		c3.1-5.1,7.4-12.2,4.1-18.3c-2-3.7-6.7-6.9-10.5-9.4c-0.9-0.6-1.7-1.1-2.4-1.6c-1.7-1.2-3.6-2.4-5.8-3.2c-1.6-0.5-3-0.5-4.2-0.4
		c-1.4,0.1-2.8,0.2-4.2,0.3c-1.3,0.1-2.6,0.2-4,0.3l0,0l0,0l-0.2,0c-1.1,0.1-2.1,0.2-3,0.3c-1,0.1-2.3,0.4-3.6,0.9l-0.3,0.1
		c-0.7,0.3-1.3,0.8-1.9,1.4l-0.3,0.2c-5.9,5.9-6.6,16.2-1.8,23.1c0,0,0,0,0,0l0,0c0,0.1,0.1,0.1,0.1,0.2l0.2,0.3
		c0.1,0.2,0.3,0.4,0.4,0.5c0.5,0.6,1,1.2,1.7,1.9c0.3,0.3,0.5,0.5,0.8,0.8c-1.7,0.1-3.2,0.6-4.7,1.6c-0.2,0.1-0.3,0.2-0.4,0.3
		c-2.8-4.2-6.9-5.9-10-6.5c-1.7-0.3-3.2-0.4-4.7-0.3l-0.8,0.1c-1.6,0.2-3.1,0.7-4.6,1.5c-1.1,0.6-2,1.3-2.9,2.1l-0.1,0.1l0,0
		l-0.1,0.1c-0.4,0.4-0.8,0.9-1.2,1.4l-0.2,0.2c-0.3,0.4-0.5,0.8-0.7,1.2l-0.1,0.2c-0.5,1-1,2.1-1.3,3.3l-0.1,0.4
		c-0.5,1.9-0.9,3.9-1.2,5.8l-0.1,0.6c-0.3,1.6-0.6,3.2-1,4.8l-0.1,0.5c-0.4,1.7-0.9,3.5-1.4,5.1l-0.4,1.3c-0.3,1.1-0.6,2.4-0.4,3.7
		c0.2,1.6,1,3.3,2.3,5.4l0.3,0.4c0.5,0.8,1.1,1.5,1.6,2.2l0.2,0.3c0.7,0.9,1.2,1.6,1.7,2.4l0.4,0.5c1.1,1.8,2.1,3.4,3,5l0.3,0.5
		c1.3,2.5,2.4,4.7,3.2,7l0.3,0.8c0.1,0.4,0.3,0.7,0.4,1.1c0.2,0.4,0.3,0.9,0.5,1.3l0.2,0.5c0.6,1.6,1.4,3.5,2.7,5.1
		c1.6,2.1,4.3,4,7.4,5.4l0.3,0.1c2.4,1,4.9,1.7,7.3,1.9l0.3,0c0.5,0,1,0.1,1.4,0.1c2.1,0,4-0.4,5.6-1.1l0.3-0.1
		c0.5-0.2,1-0.5,1.5-0.8c2-1.4,3.5-3.4,4.9-5.6l0.2-0.3c0.6-0.9,1.3-2,2.1-3c0.3-0.5,0.7-1,1.1-1.5l0.2-0.2c1-1.4,2.3-3.4,3.4-5.4
		l0.1-0.3c0.4-0.7,0.7-1.3,1-1.9c0.5-1.1,0.9-2.2,1.2-3.2l0-0.2l0,0l0.1,0l0-0.1c0.6-2.3,0.6-4.3,0.1-6.1c0-0.1,0-0.2,0-0.2
		c0,0,0,0,0,0c0,0,0,0,0,0v-0.1V235v-1.4c0-0.3,0.1-0.5,0.3-0.7c0.2-0.2,0.4-0.3,0.7-0.3h3.6c0.4,0,0.7,0.1,1,0.2
		c-0.1,0.1-0.1,0.2-0.2,0.4c-1.2,3.2-0.5,6.8,0.4,10.1c0.7,2.7,1.7,5.5,3.5,7.7c1.2,1.5,2.8,2.7,4.7,3.7l0.3,0.1
		c1.2,0.6,2.5,1.1,4,1.5l0.3,0.1c0.4,0.1,0.7,0.2,1.1,0.3l1.4,0.4c1.1,0.3,2.2,0.6,3.4,0.8l0.3,0.1c1.9,0.5,3.6,0.8,5.1,1.1l0.3,0.1
		c1.6,0.3,2.9,0.5,4.2,0.7c0.5,0.1,1.1,0.1,1.6,0.1l0.3,0c0.2,0,0.4,0,0.7,0c2.4,0,5.6-0.4,8.4-2.2l0.3-0.2c0.6-0.4,1.2-0.9,1.6-1.4
		c1.6-1.7,2.6-3.7,3.3-5.6c0.2-0.6,0.5-1.2,0.7-1.8l0.1-0.2c0.7-1.9,1.4-3.8,2.1-5.8l0.1-0.2c0.6-1.6,1-3,1.4-4.2
		c0.6-2,1.3-4.2,1.6-6.6l0-0.3c0-0.3,0.1-0.6,0.1-0.9l0-0.4C294,229.4,293.9,228.6,293.7,227.7z M285.7,210.1L285.7,210.1l0.5,0.7
		c-1,0.6-3,0.6-4.8-0.7c-1-0.7-1.7-1.8-2.4-2.9c-0.2-0.3-0.4-0.6-0.6-0.9c3,0.6,5.2,1.6,6.7,3.2
		C285.3,209.6,285.5,209.9,285.7,210.1z M277.4,206.1l0.3,0c0.3,0.5,0.6,0.9,0.9,1.4c0.8,1.2,1.5,2.3,2.5,3.1
		c1.2,0.9,2.5,1.2,3.5,1.2c0.7,0,1.4-0.2,1.8-0.5c0.6,1,1.1,2,1.5,2.9c-4.9,0.2-7.3-2.4-10.1-5.3c-1-1-2-2.1-3.1-3.1
		c0.5,0,1,0.1,1.6,0.1C276.7,206,277,206,277.4,206.1z M273.7,205.8l0.2,0c1.4,1.1,2.5,2.3,3.6,3.5c2.6,2.8,5.1,5.5,10,5.5
		c0.2,0,0.4,0,0.7,0c0.8,1.8,1.5,3.7,2.2,5.5l0.5,1.2c-0.5,0-1.1,0-1.6,0c-9.5,0-11.2-4-13.1-8.2c-1.2-2.7-2.5-5.5-5.8-7.4
		c0.8-0.1,1.7-0.2,2.6-0.2C273.3,205.8,273.5,205.8,273.7,205.8z M269.3,206l0.3,0c3.7,1.8,5,4.7,6.2,7.5c1.9,4.4,3.7,8.5,13.5,8.5
		c0.6,0,1.2,0,1.8,0l0,0.1c0.1,0.4,0.3,0.8,0.4,1.1c0.1,0.3,0.3,0.7,0.4,1c0.4,1.1,0.9,2.2,1.2,3.2l0.1,0.3c0.2,0.8,0.3,1.7,0.3,2.6
		l0,0.3c0,0.2,0,0.4,0,0.6c-2.4-0.5-4.5-0.8-6.4-1c-7.8-1.1-12.1-1.7-13.8-10.6c-1.1-6-4-10.2-8.6-12.4
		C266.1,206.8,267.6,206.3,269.3,206z M259.2,211c0.3,0.1,0.6,0.3,0.9,0.4c-0.2,0.3-0.3,0.7-0.3,1.1v2.1c-0.8-0.5-1.6-1.1-2.5-1.6
		C257.9,212.3,258.6,211.6,259.2,211z M255.5,246.3c-0.2-0.1-0.3-0.3-0.5-0.4c-1.1-0.8-2-1.5-2.4-2.9c-0.1-0.5-0.1-1-0.2-1.5
		c0-1.6,0.5-3.7,1.7-6.9c1.7-4.3,1.9-7.2,0.8-9c-0.4-0.6-1-1.1-1.7-1.4c0.3-0.9,0.4-1.9,0.4-3c0-0.1,0-0.3,0-0.4
		c2.9,0.6,5,1.5,6.3,2.5v8c-0.3,0.5-0.6,0.9-1,1.4c-4.2,5.5-1.7,9.9,1,12.6v2c0,1.5,1.2,2.7,2.7,2.7c0.7,0,1.2-0.3,1.7-0.7
		c1.9,2.5,2.6,6.2,2.9,9.2c-1.4-0.3-3-0.6-4.8-1.1C262.4,252.3,258.7,248.8,255.5,246.3z M252.1,239.4c-0.1-0.5-0.1-1-0.2-1.5
		c-0.1-0.9-0.2-1.7-0.4-2.3c-0.1-0.7-0.3-1.4-0.5-2.1c-0.1-1.4-0.4-2.6-1.2-3.7c0,0,0,0,0,0c0.3-0.3,0.6-0.6,1-1
		c0.3-0.4,0.6-0.8,0.9-1.2c0.6-0.9,1.1-1.9,1.4-2.9c0.6,0.3,1.1,0.7,1.4,1.2c1,1.6,0.7,4.4-0.9,8.5
		C252.8,236.4,252.4,238,252.1,239.4z M249.5,230.3c0.3,0.5,0.6,1,0.7,1.6c-0.2-0.3-0.4-0.6-0.6-0.9
		C249.5,230.9,249.5,230.6,249.5,230.3C249.5,230.4,249.5,230.3,249.5,230.3z M259.9,244.6c-2.4-2.6-4.3-6.6-0.5-11.5
		c0.2-0.3,0.4-0.5,0.5-0.8V244.6z M256,214.8c0.3-0.5,0.7-0.9,1-1.4c1.1,0.6,2,1.2,2.9,1.8v4.5c-1.5-1.1-3.4-1.8-5.6-1.9
		C254.7,216.9,255.3,215.8,256,214.8z M254,218.4c2.5,0.1,4.4,0.8,5.9,2.1v2.2c-1.4-1-3.5-1.8-6.3-2.4c0-0.3,0-0.5-0.1-0.8
		L254,218.4z M257.1,194.4c3.1,5.8-1,12.7-4.1,17.8l-0.7,1.2c-0.3,0.4-0.5,0.8-0.8,1.3c-0.8-1.1-1.8-2.1-2.9-2.9
		c-0.3-0.2-0.6-0.3-0.9-0.5c0.4-0.4,0.7-0.8,1.1-1.2c2.1-2.3,4.2-4.4,5.1-6.3c1.5-3.2,0.7-6-0.2-9c-0.5-1.7-1.1-3.5-1.2-5.6
		C254.4,190.8,256.1,192.5,257.1,194.4z M232,223.4c-0.8-0.2-1.6-0.4-2.2-0.8c0-3.7,1-6.3,2.2-8.4V223.4z M237.4,216.2
		c0-0.3,0.1-0.5,0.3-0.7c0.2-0.2,0.4-0.3,0.7-0.3h3.8c0.4,0,0.8,0.1,1.3,0.1c-1.9,2.6-3.3,5.5-2.9,8.4l-0.1,0c-1,0.1-2,0.2-3.1,0.2
		V216.2z M241.1,223.7c-0.3-2.8,1-5.6,2.9-8.2c0.2,0.1,0.4,0.1,0.6,0.2c1.1,0.4,1.9,1.2,2.6,2.1c0.4,0.6,0.6,1.2,0.8,1.8
		C246.1,221.6,244,223.2,241.1,223.7z M251.9,188.8c0,2.3,0.7,4.3,1.3,6.2c0.9,3,1.7,5.5,0.3,8.6c-0.9,1.8-2.9,3.9-5,6.2
		c-0.4,0.4-0.8,0.8-1.2,1.3c-1.5-0.7-3.1-1.1-4.8-1.1c0.3-0.3,0.6-0.7,0.9-1c3.2-3.3,5.9-6.1,6.3-8.3c0.8-4.8-0.8-7.9-2.3-10.9
		c-0.9-1.8-1.8-3.5-2.1-5.5c0.5,0.4,1,0.7,1.6,1.1C248.4,186.3,250.2,187.5,251.9,188.8z M244.6,183.7c0.2,2.3,1.2,4.2,2.2,6.2
		c1.5,2.9,3,5.9,2.2,10.5c-0.4,2.1-3,4.8-6.1,8.1c-0.4,0.4-0.8,0.9-1.3,1.3h-6.2c0.2-0.3,0.5-0.5,0.7-0.8c0.7-0.8,1.4-1.6,2-2.4
		c5.5-6.6,8-9.6,7.4-13.8c-0.5-3.2-1.6-4.8-2.8-6.4c-1.1-1.4-2.1-2.9-3-5.6c1.7,0.7,3.3,1.7,4.7,2.7
		C244.4,183.6,244.5,183.7,244.6,183.7z M238.7,180.5c0.1,0,0.2,0.1,0.3,0.1c0.9,3.1,2.1,4.8,3.2,6.2c1.2,1.7,2.3,3.1,2.7,6.2
		c0.6,4-1.9,6.9-7.3,13.4c-0.6,0.7-1.3,1.5-2,2.4c-0.3,0.4-0.6,0.7-1,1.1h0c-0.8,0-1.4,0.3-1.9,0.8c-0.5,0.5-0.8,1.2-0.8,1.9v0.7
		c-1.5,2.2-2.7,5-2.8,9.1c-0.4-0.2-0.7-0.5-1-0.8c0.1,0,0.1-0.1,0.2-0.1c0.5-0.5,0.8-1.2,0.8-1.9c0-1-0.1-1.9-0.4-2.8
		c-0.1-0.3-0.2-0.6-0.4-1c1.3-3.4,2.7-5.1,4.8-7.9c1.2-1.5,2.6-3.3,4.4-5.9c4.9-6.9,4.2-13.5-2.4-21.9
		C236.3,180,237.4,180,238.7,180.5z M220.2,209c-0.9-3.7-2.1-8.7,0.3-14.9c2.5-6.3,2.9-10.2,3-13.1c0.7-0.1,1.5-0.2,2.3-0.2
		c0.6,3.2,0.9,7.7-1.9,13.9c-2.2,4.8-3,10-2.5,15.5c-0.4-0.1-0.7-0.1-1.1-0.1C220.3,209.6,220.3,209.3,220.2,209z M237.1,201.7
		c-1.8,2.5-3.2,4.4-4.4,5.9c-2.1,2.6-3.4,4.4-4.7,7.5c-0.2-0.3-0.3-0.7-0.5-1c-0.2-0.4-0.5-0.7-0.8-1c0.5-1.5,1.2-3,2.5-5.2
		c0.6-1.1,1.4-2.5,2.2-4.2c4.2-8.1,4.6-15.2,1.5-23.5c0.6,0,1.1-0.1,1.7-0.1C241.1,188.4,241.9,194.9,237.1,201.7z M230.4,180.3
		c0.6,0,1.3-0.1,1.9-0.1c3.2,8.4,2.8,15.1-1.4,23.3c-0.9,1.7-1.6,3-2.2,4.2c-1.2,2.1-1.9,3.6-2.4,5c-0.7-0.7-1.5-1.3-2.4-1.7
		c0.4-3,1.1-4.6,2.8-7.9c0.6-1.3,1.4-2.9,2.3-4.9c3.4-7.4,1.6-13.6-0.1-17.7C229.4,180.4,229.9,180.4,230.4,180.3z M228.3,180.5
		c1.7,4,3.5,10.1,0.2,17.4c-0.9,2-1.7,3.6-2.3,4.9c-1.6,3.2-2.4,4.9-2.8,7.9c-0.1,0-0.1-0.1-0.2-0.1c-0.4-0.2-0.7-0.2-1.1-0.4
		c-0.6-5.4,0.2-10.6,2.4-15.4c2.9-6.3,2.6-10.9,2-14.2l0.1,0C227.1,180.6,227.7,180.5,228.3,180.5z M223,181
		c-0.1,2.9-0.5,6.7-3,12.9c-2.5,6.4-1.3,11.5-0.4,15.2c0.1,0.3,0.1,0.5,0.2,0.8c-0.1,0-0.3,0-0.4,0c-0.4-0.3-0.7-0.7-1.1-1
		c-0.6-2.9-1.2-4.8-1.6-6.2c-1.1-3.7-1.2-3.9,1.3-9.5c1.4-3.3,1.9-6.7,1.6-11.3l0.2-0.1C221,181.3,222.1,181.1,223,181z M217.1,184
		c-0.2,1.9-1,4.3-2.6,8.6c-1.2,3.3-0.6,7.8,0.4,11.6C211.5,197.8,212.3,189.4,217.1,184z M216.2,206.3c-0.1-0.1-0.1-0.2-0.2-0.3
		c0,0,0-0.1-0.1-0.1c-1.2-3.9-2.3-9.4-0.9-13.1c1.8-4.9,2.6-7.4,2.6-9.5l0.2-0.1c0.4-0.4,0.9-0.7,1.3-1c0.3,4.3-0.2,7.6-1.5,10.7
		c-2.5,5.7-2.4,6.1-1.3,9.8c0.4,1.2,0.9,2.9,1.4,5.3c-0.4-0.4-0.8-0.8-1.1-1.2C216.5,206.7,216.3,206.5,216.2,206.3z M217.8,215.6
		c0.5-0.2,1-0.3,1.6-0.3c0.9,0,1.7,0.2,2.4,0.7c0.7,0.4,1.2,1,1.5,1.9c0.2,0.5,0.3,1.1,0.3,1.6c0,0.7,0.3,1.4,0.8,1.9
		c0.5,0.5,1.2,0.8,2,0.8c0.5,0,0.9-0.1,1.3-0.4c0.4,0.4,0.9,0.8,1.5,1.1l0.3,0.2c0.7,0.4,1.6,0.6,2.5,0.9V235v5.1
		c0,0-0.1-0.1-0.2-0.2c-0.3-0.3-0.5-0.5-0.7-0.7l-0.1-0.1c-0.2-0.2-0.4-0.5-0.7-0.7c-0.7-0.7-1.3-1.5-2-2.2l-0.2-0.3
		c-0.9-1.1-1.9-2.3-2.8-3.5l-0.2-0.3c-0.8-1-1.5-2.1-2.2-3.1l-0.3-0.4c-1.3-2-2.6-4.1-3.8-6.2l-0.4-0.7c-1.3-2.3-2-4.1-2.3-4.8
		C216.6,216.3,217.1,215.9,217.8,215.6z M226.4,237.7c-0.6,0-1.1,0.2-1.6,0.5c0-1.9,0.1-3.7,0.2-5.3c0.9,1.2,1.8,2.3,2.7,3.4
		l0.2,0.2c-0.1,0.5-0.1,1.1-0.2,1.6C227.3,237.8,226.9,237.7,226.4,237.7z M219.4,244.6c-0.6,0-1.2-0.1-1.6-0.3
		c-0.5-0.2-1-0.6-1.3-1c0.3-0.9,0.5-1.8,0.7-2.6c2-7.3,2.9-10.4,1.6-17.4c1.1,1.9,2.2,3.7,3.4,5.5c-0.1,2.5-0.2,5-0.4,7.7
		c-0.2,2.5-0.3,5-0.4,7.5C220.7,244.4,220.1,244.6,219.4,244.6z M215.2,219.5c0-0.7,0.2-1.4,0.6-2.1c0.4,0.8,1.1,2.4,2.2,4.5
		c1.6,8,0.8,10.9-1.3,18.7c-0.2,0.7-0.4,1.5-0.6,2.3c0,0-0.1-0.1-0.1-0.1c-0.5-0.7-0.8-1.5-0.8-2.4V219.5z M222.3,236.6
		c0.2-2.5,0.3-4.8,0.4-7c0.6,0.9,1.2,1.7,1.9,2.6c-0.1,2-0.2,4.2-0.2,6.5c-0.4,0.5-0.6,1-0.6,1.7c0,0.5-0.1,1.1-0.3,1.6
		c-0.4,0.8-0.9,1.4-1.5,1.8C222,241.4,222.1,239,222.3,236.6z M213.1,212.1c-0.8,0.7-1.5,1.6-2.1,2.6c-2.3-6.1-5.2-7.7-10.1-9.2
		c0.8,0,1.6,0.1,2.5,0.3C206.5,206.5,210.4,208.1,213.1,212.1z M182.5,237.3c-0.1-0.9,0-1.9,0.2-2.7c1,2.3,1.5,4.6,1.6,7.2
		C183.3,240.1,182.7,238.7,182.5,237.3z M185,242.9l-0.1-0.1c0-3.3-0.7-6.1-1.9-9l0.4-1.1c0.5-1.4,0.8-2.9,1.2-4.4
		c1.5,5.9,2.1,11.4,1.7,16.3C185.9,244,185.4,243.5,185,242.9z M186.8,245.3c0.5-5.4-0.2-11.5-1.9-18.1l0.1-0.3
		c0.3-1.3,0.6-2.7,0.8-4c2.6,8.4,3.4,16.4,2.5,24.3C187.8,246.6,187.3,246,186.8,245.3L186.8,245.3z M188.9,248.3
		c0,0-0.1-0.1-0.1-0.1l-0.2-0.3c1-8.5,0.1-17-2.7-26.1l0-0.2c0.3-1.7,0.6-3.5,1.1-5.2c3.5,8.6,3.9,19.7,4.5,36.2
		C190.7,251.2,189.9,249.8,188.9,248.3z M192.1,253.5l0-0.6c-0.5-17.2-0.9-28.6-4.8-37.5l0-0.1c0.3-1.1,0.7-2,1.1-2.9
		c3.7,3.9,10.1,11,8.2,22.8c-1.6,9.9-2.1,16.8-1.6,24.3c-0.8-1.9-1.6-3.8-2.7-5.8L192.1,253.5z M195.8,261.7l-0.2-0.6
		c-0.6-8-0.1-15.2,1.6-25.7c2-12.2-5-19.7-8.5-23.4l0-0.1c0.2-0.4,0.4-0.8,0.7-1.1c14,6.3,15.1,15,12.3,28.7
		c-0.8,3.6-1.6,7.6-2.6,12.2c-0.8,3.6-1.6,7.5-2.6,11.9c-0.1-0.3-0.2-0.6-0.3-0.9C196.1,262.4,195.9,262.1,195.8,261.7z
		 M199.4,269.5c-1.2-1.5-2-3.3-2.6-4.9c1-4.7,1.9-8.9,2.7-12.7c1-4.6,1.9-8.6,2.6-12.2c2.9-14,1.8-22.8-12.5-29.3
		c0.3-0.4,0.6-0.7,0.9-1l0.1,0l0.1-0.2c6.1,0.6,11,1.4,13.8,5.1c2.6,3.4,3.1,8.9,1.6,17.4c-0.4,2.3-1,4.5-1.6,6.7
		c-2.2,8.3-4.5,16.9,1.6,36.3C203.4,273.3,200.9,271.5,199.4,269.5z M206.9,274.9L206.9,274.9c-6.3-19.6-4-28.2-1.8-36.5
		c0.6-2.2,1.2-4.4,1.6-6.7c1.5-8.6,1-14.3-1.7-17.8c-2.8-3.7-7.9-4.6-13.7-5.2c0.7-0.6,1.5-1.2,2.4-1.7c1.4-0.7,2.8-1.2,4.4-1.4
		l0.8-0.1c0,0,0,0,0.1,0c5.9,1.5,9.1,2.4,11.8,9.8c-0.1,0.1-0.1,0.2-0.2,0.4c-0.5,1.2-0.8,2.5-0.8,3.7v20.9c0,1.3,0.3,2.5,0.8,3.7
		c0.3,0.7,0.6,1.3,1,1.9l0,0.1c-1.5,5.9-3.9,14.7,2.5,30.7C211.7,276.5,209.2,275.9,206.9,274.9z M214.6,276.8
		c-6.2-15.7-4.1-24.4-2.6-30.2c0.6,0.7,1.2,1.3,2,1.8c0.3,0.2,0.6,0.3,0.8,0.5c-0.6,7.8,1,20.9,6.1,27
		C219.1,276.6,217,276.9,214.6,276.8z M222.8,274.9c-0.4,0.3-0.9,0.5-1.4,0.8c-5-5.9-6.7-18.7-6.1-26.5c1.3,0.6,2.7,0.9,4.1,0.9
		c0.6,0,1.2-0.1,1.8-0.2c0.2,7.3,1.7,14.3,6.4,19.5l-0.1,0.1C226.2,271.6,224.8,273.6,222.8,274.9z M230.9,264.6
		c-0.4,0.5-0.7,1-1.1,1.5c-0.7,1-1.3,1.9-1.9,2.7c-4.6-5.1-6-12-6.2-19.2c0.5-0.1,0.9-0.2,1.4-0.4c0.7-0.3,1.3-0.6,1.9-1
		c0.9,5.4,2.7,11,6.1,16.1c0,0,0,0,0,0L230.9,264.6z M231.4,263.9c-3.3-5.1-5.1-10.7-5.9-16c0.7-0.6,1.4-1.3,1.9-2.1
		c0.2-0.2,0.3-0.5,0.4-0.7c0.8,4.7,3,9.2,6.7,13.9l-0.1,0.2C233.5,260.8,232.4,262.5,231.4,263.9z M235.5,257
		c-0.2,0.4-0.4,0.9-0.7,1.4c-3.7-4.7-5.8-9.4-6.5-14.2c0.1-0.3,0.3-0.6,0.4-0.9c0.3-0.9,0.4-1.8,0.4-2.8c0-0.7-0.3-1.4-0.8-1.9
		c0,0-0.1-0.1-0.1-0.1c0-0.5,0.1-0.9,0.2-1.4c0.5,0.6,1,1.2,1.6,1.8c0.3,0.3,0.5,0.5,0.7,0.7l0.1,0.1v0c0.2,0.2,0.5,0.5,0.7,0.7
		c0.4,0.4,0.9,0.9,1.5,1.5l0.2,0.2c-0.1,3.3,0.3,7.7,3.6,11.8c0,0,0,0.1,0,0.1c0,0,0,0.1,0,0.1C236.4,254.9,236,255.9,235.5,257z
		 M236.9,253.1c-2.8-3.7-3.3-7.5-3.2-10.6c0,0.1,0.1,0.1,0.1,0.2c0.3,0.3,0.5,0.6,0.8,0.9l0.2,0.2c0.6,0.7,1.4,1.7,1.8,2.9
		C237.3,248.6,237.4,250.7,236.9,253.1z M242.1,227.2L242.1,227.2H242h-3.6c-0.3,0-0.5-0.1-0.7-0.3c-0.2-0.2-0.3-0.4-0.3-0.7v-1.8
		c0,0,0.1,0,0.1,0c1,0,2.1-0.1,3-0.2l0.3,0c3.1-0.4,5.4-2,7.3-4c0,0.3,0.1,0.6,0.1,0.9c0,0.8-0.1,1.6-0.4,2.4
		c-0.4,1.1-1.2,2-2.2,2.6C244.6,226.9,243.4,227.2,242.1,227.2L242.1,227.2z M247.2,250.6c-1.7-2.1-2.7-4.9-3.4-7.5
		c-0.9-3.2-1.6-6.7-0.4-9.8c0.1-0.1,0.1-0.3,0.2-0.4c0.4,0.2,0.8,0.4,1.2,0.7c0.8,0.7,1.2,1.5,1.4,2.6c0.1,0.8,0.3,1.8,0.4,3.1
		c0.1,0.5,0.1,0.9,0.2,1.4c0,0.1,0,0.2,0,0.3c-0.2,1.1,0.1,2.1,0.5,3.1c0.1,0.8,0.2,1.6,0.3,2.2c0.1,0.9,0.2,1.4,0.2,1.4
		c0.1,0.7,0.4,1.3,0.9,1.7c0.4,0.4,0.9,0.5,1.5,0.6c0.5,1.1,0.9,2.5,1.1,4C249.6,253.1,248.2,251.9,247.2,250.6z M252,254.3
		c-0.3-1.7-0.7-3.1-1.2-4.3c0,0,0.1,0,0.1,0c0.5-0.1,1-0.3,1.4-0.7c0.2,0.3,0.4,0.6,0.6,0.9c1.4,2.1,2.3,4,2.7,5.5
		C254.3,255.3,253.1,254.9,252,254.3L252,254.3z M257.3,256.2c-0.3-0.1-0.7-0.2-1-0.3l0,0c-0.3-1.7-1.3-3.7-2.9-6
		c-0.2-0.4-0.5-0.7-0.7-1c0,0,0,0,0,0c0.5-0.6,0.6-1.3,0.5-2l-0.2-1.3c-0.1-0.3-0.1-0.6-0.2-1c0.5,0.7,1.2,1.2,1.9,1.7
		c0.2,0.1,0.3,0.2,0.5,0.4c3.1,2.4,6.5,5.7,6.7,10.7c-1.1-0.3-2.1-0.5-3.1-0.8L257.3,256.2z M267.7,258.7L267.7,258.7
		c-0.3-3.1-1-7-3.1-9.7c0.4-0.5,0.6-1,0.6-1.6v-2.4c0.5,0.7,1.1,1.4,1.7,2.1c2.7,3.1,5.7,6.6,6.4,12.5c-0.5,0-1-0.1-1.5-0.1
		C270.7,259.2,269.3,259,267.7,258.7z M274,259.5c-0.7-6-3.8-9.6-6.6-12.8c-0.8-0.9-1.5-1.8-2.1-2.6v-23.9c3.4,4.4,3.3,8.7,2.7,13.1
		c-0.6,3.8-0.4,6.7,7.1,12.3c4.5,3.4,7.1,7.3,7.6,11.7l-0.1,0.1C279.7,259.2,276.4,259.5,274,259.5z M288.2,248.6l-0.1,0.2
		c-0.2,0.6-0.5,1.2-0.7,1.8c-0.7,1.8-1.6,3.8-3.2,5.4c-0.3,0.4-0.8,0.7-1.2,1c-0.6-4.4-3.2-8.3-7.7-11.7c-7.8-5.9-7.3-8.8-6.9-11.8
		c0.7-4.5,0.8-9.2-3.2-14v-4.7c5,4.1,5.5,8.9,5.9,12.1c0.1,0.5,0.1,0.9,0.2,1.3c0,0.1-0.1,11.2,10.4,13.3c2.8,0.6,4.8,0.9,6.3,1.1
		c1,0.1,1.7,0.3,2.3,0.4l0,0.1C289.6,244.8,288.9,246.7,288.2,248.6z M291.8,238.4c-0.4,1.2-0.8,2.4-1.3,3.9
		c-0.7-0.1-1.4-0.3-2.4-0.4c-1.5-0.2-3.5-0.5-6.3-1.1c-10.1-2-10-12.3-10-12.8c-0.1-0.4-0.1-0.9-0.2-1.3c-0.4-3.3-1-8.4-6.4-12.7
		v-1.4c0-1.5-1.2-2.7-2.7-2.7c-0.9,0-1.6,0.5-2.1,1.1c-0.3-0.1-0.5-0.3-0.8-0.4c1.2-1.1,2.4-2,3.7-2.6l0.4-0.2
		c0.1,0,0.2-0.1,0.3-0.1c4.7,2.1,7.7,6.2,8.7,12.3c1.7,9.3,6.4,10,14.2,11c1.9,0.3,4.1,0.6,6.4,1
		C293.1,234.2,292.5,236.4,291.8,238.4z"/>
</g>
</svg>
